<?xml version="1.0" encoding="utf-8"?>
<!-- Generator: Adobe Illustrator 16.2.1, SVG Export Plug-In . SVG Version: 6.00 Build 0)  -->
<!DOCTYPE svg PUBLIC "-//W3C//DTD SVG 1.1//EN" "http://www.w3.org/Graphics/SVG/1.1/DTD/svg11.dtd">
<svg version="1.1" id="Layer_1" xmlns="http://www.w3.org/2000/svg" xmlns:xlink="http://www.w3.org/1999/xlink" x="0px" y="0px"
	 width="54px" height="54px" viewBox="0 0 54 54" enable-background="new 0 0 54 54" xml:space="preserve">
<circle fill="#FAC960" cx="27" cy="27" r="27"/>
<polygon opacity="0.3" fill="#FFFFFF" points="35.437,24.71 38.119,20.399 26.858,16.123 32.734,9.559 30.19,7.046 18.566,14.628 
	20.957,17.267 18.566,20.399 26.939,25.992 16.36,34.531 27.794,44.232 40.868,28.028 "/>
<path fill="#FFFFFF" d="M21.997,31.975c-4.142,0-7.5,3.358-7.5,7.5s3.358,7.5,7.5,7.5s7.5-3.358,7.5-7.5
	S26.139,31.975,21.997,31.975z M35.997,19.975c-3.038,0-5.5,2.462-5.5,5.5s2.462,5.5,5.5,5.5s5.5-2.462,5.5-5.5
	S39.034,19.975,35.997,19.975z M20.753,21.139c2.002,0,3.625-1.623,3.625-3.625s-1.623-3.625-3.625-3.625s-3.625,1.623-3.625,3.625
	S18.751,21.139,20.753,21.139z M33.295,8.26c0-0.99-0.802-1.792-1.792-1.792s-1.792,0.802-1.792,1.792s0.802,1.792,1.792,1.792
	S33.295,9.25,33.295,8.26z"/>
</svg>
