<svg xmlns="http://www.w3.org/2000/svg" viewBox="0 0 600.33 266.03"><defs><style>.cls-1{fill:#E5EAF1;}.cls-2{fill:#4677BC}.cls-3{fill:none;stroke:#CCCCCC;stroke-miterlimit:10;stroke-width:1.25px;}</style></defs><title>springcloudservices-c</title><g id="Layer_2" data-name="Layer 2"><g id="Top_artwork" data-name="Top artwork"><rect class="cls-1" x="80" width="215.49" height="103.37" rx="4" ry="4"/><rect class="cls-1" x="406.66" width="193.66" height="103.37" rx="4" ry="4"/><rect class="cls-1" x="406.66" y="162.67" width="193.66" height="103.37" rx="4" ry="4"/><path class="cls-2" d="M165.76,21.17a4.71,4.71,0,0,1,4.9-4.83,4.19,4.19,0,0,1,3.74,2.09l-1.39.73a2.76,2.76,0,0,0-2.35-1.36,3.19,3.19,0,0,0-3.22,3.38,3.21,3.21,0,0,0,3.22,3.38A2.79,2.79,0,0,0,173,23.19l1.4.7A4.27,4.27,0,0,1,170.66,26,4.71,4.71,0,0,1,165.76,21.17Z"/><path class="cls-2" d="M176,25.84V16.49h1.47v9.34Z"/><path class="cls-2" d="M179.34,22.45a3.47,3.47,0,1,1,6.95,0,3.47,3.47,0,1,1-6.95,0Zm5.42,0a2,2,0,1,0-3.89,0,2,2,0,1,0,3.89,0Z"/><path class="cls-2" d="M187.56,24.94l.67-1.05a3.47,3.47,0,0,0,2.28.94c.88,0,1.34-.36,1.34-.9,0-1.33-4.09-.38-4.09-3,0-1.11,1-2,2.66-2a3.87,3.87,0,0,1,2.62.94l-.62,1a2.76,2.76,0,0,0-2-.81c-.77,0-1.25.36-1.25.84,0,1.19,4.09.29,4.09,3,0,1.21-1,2.12-2.82,2.12A4.1,4.1,0,0,1,187.56,24.94Z"/><path class="cls-2" d="M194.68,22.45a3.42,3.42,0,0,1,3.43-3.54c2,0,3.32,1.54,3.32,3.67v.36h-5.21a2,2,0,0,0,2.14,1.86A2.85,2.85,0,0,0,200.3,24l.67,1a4,4,0,0,1-2.75,1A3.39,3.39,0,0,1,194.68,22.45Zm3.42-2.34a1.85,1.85,0,0,0-1.89,1.78H200A1.82,1.82,0,0,0,198.1,20.11Z"/><path class="cls-2" d="M208,25.84v-.92A2.72,2.72,0,0,1,205.83,26c-1.72,0-3-1.32-3-3.56s1.26-3.54,3-3.54A2.64,2.64,0,0,1,208,20V16.49h1.47v9.34Zm0-2V21.12a2.2,2.2,0,0,0-1.74-.91,2,2,0,0,0-1.92,2.24,2,2,0,0,0,1.92,2.25A2.2,2.2,0,0,0,208,23.79Z"/><line class="cls-3" x1="38.31" y1="51.68" x2="66.97" y2="51.68"/><polygon class="cls-2" points="65.51 56.67 74.14 51.68 65.51 46.7 65.51 56.67"/><circle class="cls-2" cx="18.12" cy="51.68" r="12.12"/><circle class="cls-3" cx="18.12" cy="51.68" r="18.12"/><path class="cls-2" d="M91.64,46.23c0-1.66.85-2.6,2.28-2.6s2.28.94,2.28,2.6-.85,2.6-2.28,2.6S91.64,47.89,91.64,46.23Zm3.72,0c0-1.19-.53-1.86-1.44-1.86s-1.44.67-1.44,1.86.53,1.86,1.44,1.86S95.36,47.42,95.36,46.23Z"/><path class="cls-2" d="M97.95,43.73h.72l.08.76a1.93,1.93,0,0,1,1.61-.86c1,0,1.63.71,1.63,1.87v3.23h-.82V45.65c0-.79-.24-1.29-.95-1.29a1.79,1.79,0,0,0-1.45.85v3.52h-.82Z"/><path class="cls-2" d="M110.07,46.23a2.32,2.32,0,0,1,2.46-2.6,3.46,3.46,0,0,1,1.4.3v.85a2.58,2.58,0,0,0-1.4-.41c-1,0-1.62.67-1.62,1.86s.61,1.86,1.62,1.86a2.57,2.57,0,0,0,1.4-.41v.85a3.46,3.46,0,0,1-1.4.3A2.32,2.32,0,0,1,110.07,46.23Z"/><path class="cls-2" d="M120.61,48.14v.52a1,1,0,0,1-1.48-.57,1.84,1.84,0,0,1-3.3-.85c0-1.67,2.15-2,3.28-1.22v-.35c0-.92-.53-1.3-1.38-1.3a3,3,0,0,0-1.47.43V44a3.36,3.36,0,0,1,1.56-.38,1.84,1.84,0,0,1,2.1,1.87v2.14C119.94,48.1,120.21,48.33,120.61,48.14Zm-1.5-1.29V46.6c-.79-.53-2.46-.53-2.46.62,0,.55.39.92,1.1.92A1.24,1.24,0,0,0,119.11,46.85Z"/><path class="cls-2" d="M122.17,48h1.7V42.55h-1.56v-.72h2.38V48h1.58v.72h-4.1Z"/><path class="cls-2" d="M128.22,48h1.7V42.55h-1.56v-.72h2.38V48h1.58v.72h-4.1Z"/><path class="cls-2" d="M143.75,41.83h.76l-3.64,7.9h-.76Z"/><path class="cls-2" d="M152.36,43.73h.7l.08.72a1.79,1.79,0,0,1,1.56-.82c1.18,0,2,1,2,2.54s-.89,2.66-2.11,2.66a1.77,1.77,0,0,1-1.41-.68v2.38h-.82Zm3.5,2.44c0-1.09-.44-1.79-1.29-1.79a1.58,1.58,0,0,0-1.39.82v2.24a1.78,1.78,0,0,0,1.32.64C155.36,48.08,155.85,47.32,155.85,46.17Z"/><path class="cls-2" d="M163,48.14v.52a1,1,0,0,1-1.48-.57,1.84,1.84,0,0,1-3.3-.85c0-1.67,2.15-2,3.28-1.22v-.35c0-.92-.53-1.3-1.38-1.3a3,3,0,0,0-1.47.43V44a3.36,3.36,0,0,1,1.56-.38,1.84,1.84,0,0,1,2.1,1.87v2.14C162.28,48.1,162.56,48.33,163,48.14Zm-1.5-1.29V46.6c-.79-.53-2.46-.53-2.46.62,0,.55.39.92,1.1.92A1.24,1.24,0,0,0,161.46,46.85Z"/><path class="cls-2" d="M164.61,48.46v-.82a3.25,3.25,0,0,0,1.77.49c.83,0,1.3-.31,1.3-.78s-.48-.67-1.24-.84c-1.13-.24-1.77-.66-1.77-1.45s.76-1.43,2.1-1.43a4,4,0,0,1,1.39.22v.76a3.36,3.36,0,0,0-1.4-.28c-.83,0-1.29.26-1.29.71s.28.55,1.15.76c1.15.28,1.85.71,1.85,1.53s-.77,1.5-2.08,1.5A4.09,4.09,0,0,1,164.61,48.46Z"/><path class="cls-2" d="M170.66,48.46v-.82a3.25,3.25,0,0,0,1.77.49c.83,0,1.3-.31,1.3-.78s-.48-.67-1.24-.84c-1.13-.24-1.77-.66-1.77-1.45s.76-1.43,2.1-1.43a4,4,0,0,1,1.39.22v.76a3.36,3.36,0,0,0-1.4-.28c-.83,0-1.29.26-1.29.71s.28.55,1.15.76c1.15.28,1.85.71,1.85,1.53s-.77,1.5-2.08,1.5A4.09,4.09,0,0,1,170.66,48.46Z"/><path class="cls-2" d="M183.62,46.83V44.45h-1.4v-.72h1.44l.18-1.4h.6v1.4h2.28v.72h-2.28v2.38c0,.87.34,1.26,1.25,1.26a2.1,2.1,0,0,0,1-.24v.77a2.53,2.53,0,0,1-1.06.21A1.77,1.77,0,0,1,183.62,46.83Z"/><path class="cls-2" d="M188.69,41.83h.82v2.65a1.9,1.9,0,0,1,1.59-.85c1,0,1.63.71,1.63,1.87v3.23h-.82V45.65c0-.79-.24-1.29-.95-1.29a1.79,1.79,0,0,0-1.45.85v3.52h-.82Z"/><path class="cls-2" d="M194.82,48h1V44.45h-1.08v-.72h1.74l.14,1.1a1.69,1.69,0,0,1,1.69-1.2,2.65,2.65,0,0,1,1,.19v.8a2.5,2.5,0,0,0-1-.24c-.65,0-1.16.35-1.63,1.29V48h1.6v.72h-3.4Z"/><path class="cls-2" d="M200.53,46.23c0-1.66.85-2.6,2.28-2.6s2.28.94,2.28,2.6-.85,2.6-2.28,2.6S200.53,47.89,200.53,46.23Zm3.72,0c0-1.19-.53-1.86-1.44-1.86s-1.44.67-1.44,1.86.53,1.86,1.44,1.86S204.25,47.42,204.25,46.23Z"/><path class="cls-2" d="M210.88,48.73h-.72l-.08-.76a1.93,1.93,0,0,1-1.61.86c-1,0-1.63-.71-1.63-1.87V43.73h.82v3.08c0,.79.24,1.29.95,1.29a1.8,1.8,0,0,0,1.45-.85V43.73h.82Z"/><path class="cls-2" d="M217.27,44.31l-.79,0a1.73,1.73,0,0,1,.29,1c0,1.1-.73,1.73-2,1.73A2.64,2.64,0,0,1,214,47a.44.44,0,0,0-.22.39c0,1,3.45-.07,3.45,1.82,0,.93-.91,1.43-2.4,1.43s-2.32-.53-2.32-1.34a1.09,1.09,0,0,1,.85-1.08.67.67,0,0,1-.35-.63.82.82,0,0,1,.54-.78,1.57,1.57,0,0,1-.75-1.44c0-1.1.73-1.73,2-1.73a2.4,2.4,0,0,1,1.16.26,3.17,3.17,0,0,1,1.3-.26Zm-3.33,4.11a.83.83,0,0,0-.57.72c0,.44.48.75,1.56.75.89,0,1.52-.21,1.52-.64C216.45,48.52,215,48.67,213.94,48.42Zm2-3.06c0-.67-.43-1-1.16-1s-1.17.38-1.17,1,.43,1,1.17,1S216,46,216,45.36Z"/><path class="cls-2" d="M218.94,41.83h.82v2.65a1.9,1.9,0,0,1,1.59-.85c1,0,1.63.71,1.63,1.87v3.23h-.82V45.65c0-.79-.24-1.29-.95-1.29a1.79,1.79,0,0,0-1.45.85v3.52h-.82Z"/><path class="cls-2" d="M91.92,60.23a2.32,2.32,0,0,1,2.46-2.6,3.46,3.46,0,0,1,1.4.3v.85a2.58,2.58,0,0,0-1.4-.41c-1,0-1.62.67-1.62,1.86s.61,1.86,1.62,1.86a2.57,2.57,0,0,0,1.4-.41v.85a3.46,3.46,0,0,1-1.4.3A2.32,2.32,0,0,1,91.92,60.23Z"/><path class="cls-2" d="M102.47,62.14v.52a1,1,0,0,1-1.48-.57,1.84,1.84,0,0,1-3.3-.85c0-1.67,2.15-2,3.28-1.22v-.35c0-.92-.53-1.3-1.38-1.3a3,3,0,0,0-1.47.43V58a3.36,3.36,0,0,1,1.56-.38,1.84,1.84,0,0,1,2.1,1.87v2.14C101.79,62.1,102.07,62.33,102.47,62.14ZM101,60.85V60.6c-.79-.53-2.46-.53-2.46.62,0,.55.39.92,1.1.92A1.24,1.24,0,0,0,101,60.85Z"/><path class="cls-2" d="M104,62h1.7V56.55h-1.56v-.72h2.38V62h1.58v.72H104Z"/><path class="cls-2" d="M110.07,62h1.7V56.55h-1.56v-.72h2.38V62h1.58v.72h-4.1Z"/><path class="cls-2" d="M122.27,62.46v-.82a3.25,3.25,0,0,0,1.77.49c.83,0,1.3-.31,1.3-.78s-.48-.67-1.24-.84c-1.13-.24-1.77-.66-1.77-1.45s.76-1.43,2.1-1.43a4,4,0,0,1,1.39.22v.76a3.36,3.36,0,0,0-1.4-.28c-.83,0-1.29.26-1.29.71s.28.55,1.15.76c1.15.28,1.85.71,1.85,1.53s-.77,1.5-2.08,1.5A4.09,4.09,0,0,1,122.27,62.46Z"/><path class="cls-2" d="M132.23,62.73h-.72l-.08-.76a1.93,1.93,0,0,1-1.61.86c-1,0-1.63-.71-1.63-1.87V57.73H129v3.08c0,.79.24,1.29.95,1.29a1.8,1.8,0,0,0,1.45-.85V57.73h.82Z"/><path class="cls-2" d="M134.27,60.23a2.32,2.32,0,0,1,2.46-2.6,3.46,3.46,0,0,1,1.4.3v.85a2.58,2.58,0,0,0-1.4-.41c-1,0-1.62.67-1.62,1.86s.61,1.86,1.62,1.86a2.57,2.57,0,0,0,1.4-.41v.85a3.46,3.46,0,0,1-1.4.3A2.32,2.32,0,0,1,134.27,60.23Z"/><path class="cls-2" d="M140.32,60.23a2.32,2.32,0,0,1,2.46-2.6,3.46,3.46,0,0,1,1.4.3v.85a2.58,2.58,0,0,0-1.4-.41c-1,0-1.62.67-1.62,1.86s.61,1.86,1.62,1.86a2.57,2.57,0,0,0,1.4-.41v.85a3.46,3.46,0,0,1-1.4.3A2.32,2.32,0,0,1,140.32,60.23Z"/><path class="cls-2" d="M148.8,62.13a2.72,2.72,0,0,0,1.55-.46v.83a4.41,4.41,0,0,1-1.68.33,2.33,2.33,0,0,1-2.53-2.6c0-1.67.86-2.6,2.24-2.6s2.2.93,2.2,2.6c0,.11,0,.22,0,.32H147A1.62,1.62,0,0,0,148.8,62.13ZM147,59.88h2.72c-.09-1-.58-1.55-1.34-1.55S147.1,58.89,147,59.88Z"/><path class="cls-2" d="M154.85,62.13a2.72,2.72,0,0,0,1.55-.46v.83a4.41,4.41,0,0,1-1.68.33,2.33,2.33,0,0,1-2.53-2.6c0-1.67.86-2.6,2.24-2.6s2.2.93,2.2,2.6c0,.11,0,.22,0,.32h-3.56A1.62,1.62,0,0,0,154.85,62.13Zm-1.8-2.25h2.72c-.09-1-.58-1.55-1.34-1.55S153.15,58.89,153.06,59.88Z"/><path class="cls-2" d="M158.19,60.29c0-1.62.89-2.66,2.11-2.66a1.78,1.78,0,0,1,1.41.68V55.83h.82v6.9h-.7l-.08-.72a1.7,1.7,0,0,1-1.55.82C159,62.83,158.19,61.85,158.19,60.29Zm3.52,1V59a1.78,1.78,0,0,0-1.32-.64c-.87,0-1.36.76-1.36,1.91s.44,1.79,1.29,1.79A1.58,1.58,0,0,0,161.7,61.26Z"/><path class="cls-2" d="M164.61,62.46v-.82a3.25,3.25,0,0,0,1.77.49c.83,0,1.3-.31,1.3-.78s-.48-.67-1.24-.84c-1.13-.24-1.77-.66-1.77-1.45s.76-1.43,2.1-1.43a4,4,0,0,1,1.39.22v.76a3.36,3.36,0,0,0-1.4-.28c-.83,0-1.29.26-1.29.71s.28.55,1.15.76c1.15.28,1.85.71,1.85,1.53s-.77,1.5-2.08,1.5A4.09,4.09,0,0,1,164.61,62.46Z"/><path class="cls-2" d="M180.05,55.83h.76l-3.64,7.9h-.76Z"/><path class="cls-2" d="M188.77,62h1V58.45h-1.08v-.72h1.74l.14,1.1a1.69,1.69,0,0,1,1.69-1.2,2.65,2.65,0,0,1,1,.19v.8a2.5,2.5,0,0,0-1-.24c-.65,0-1.16.35-1.63,1.29V62h1.6v.72h-3.4Z"/><path class="cls-2" d="M197.2,62.13a2.72,2.72,0,0,0,1.55-.46v.83a4.41,4.41,0,0,1-1.68.33,2.33,2.33,0,0,1-2.53-2.6c0-1.67.86-2.6,2.24-2.6s2.2.93,2.2,2.6c0,.11,0,.22,0,.32H195.4A1.62,1.62,0,0,0,197.2,62.13Zm-1.8-2.25h2.72c-.09-1-.58-1.55-1.34-1.55S195.49,58.89,195.4,59.88Z"/><path class="cls-2" d="M200.91,62.46v-.82a3.25,3.25,0,0,0,1.77.49c.83,0,1.3-.31,1.3-.78s-.48-.67-1.24-.84c-1.13-.24-1.77-.66-1.77-1.45s.76-1.43,2.1-1.43a4,4,0,0,1,1.39.22v.76a3.36,3.36,0,0,0-1.4-.28c-.83,0-1.29.26-1.29.71s.28.55,1.15.76c1.15.28,1.85.71,1.85,1.53s-.77,1.5-2.08,1.5A4.09,4.09,0,0,1,200.91,62.46Z"/><path class="cls-2" d="M209.3,62.13a2.72,2.72,0,0,0,1.55-.46v.83a4.41,4.41,0,0,1-1.68.33,2.33,2.33,0,0,1-2.53-2.6c0-1.67.86-2.6,2.24-2.6s2.2.93,2.2,2.6c0,.11,0,.22,0,.32H207.5A1.62,1.62,0,0,0,209.3,62.13Zm-1.8-2.25h2.72c-.09-1-.58-1.55-1.34-1.55S207.59,58.89,207.5,59.88Z"/><path class="cls-2" d="M213.87,60.83V58.45h-1.4v-.72h1.44l.18-1.4h.6v1.4H217v.72h-2.28v2.38c0,.87.34,1.26,1.25,1.26a2.1,2.1,0,0,0,1-.24v.77a2.53,2.53,0,0,1-1.06.21A1.77,1.77,0,0,1,213.87,60.83Z"/><path class="cls-2" d="M225,60.23a2.32,2.32,0,0,1,2.46-2.6,3.46,3.46,0,0,1,1.4.3v.85a2.58,2.58,0,0,0-1.4-.41c-1,0-1.62.67-1.62,1.86s.61,1.86,1.62,1.86a2.57,2.57,0,0,0,1.4-.41v.85a3.46,3.46,0,0,1-1.4.3A2.32,2.32,0,0,1,225,60.23Z"/><path class="cls-2" d="M230.78,60.23c0-1.66.85-2.6,2.28-2.6s2.28.94,2.28,2.6-.85,2.6-2.28,2.6S230.78,61.89,230.78,60.23Zm3.72,0c0-1.19-.53-1.86-1.44-1.86s-1.44.67-1.44,1.86.53,1.86,1.44,1.86S234.5,61.42,234.5,60.23Z"/><path class="cls-2" d="M241.13,62.73h-.72l-.08-.76a1.93,1.93,0,0,1-1.61.86c-1,0-1.63-.71-1.63-1.87V57.73h.82v3.08c0,.79.24,1.29.95,1.29a1.8,1.8,0,0,0,1.45-.85V57.73h.82Z"/><path class="cls-2" d="M243.14,57.73h.72l.08.76a1.93,1.93,0,0,1,1.61-.86c1,0,1.63.71,1.63,1.87v3.23h-.82V59.65c0-.79-.24-1.29-.95-1.29a1.79,1.79,0,0,0-1.45.85v3.52h-.82Z"/><path class="cls-2" d="M250.17,60.83V58.45h-1.4v-.72h1.44l.18-1.4h.6v1.4h2.28v.72H251v2.38c0,.87.34,1.26,1.25,1.26a2.1,2.1,0,0,0,1-.24v.77a2.53,2.53,0,0,1-1.06.21A1.77,1.77,0,0,1,250.17,60.83Z"/><path class="cls-2" d="M91.92,74.23a2.32,2.32,0,0,1,2.46-2.6,3.46,3.46,0,0,1,1.4.3v.85a2.58,2.58,0,0,0-1.4-.41c-1,0-1.62.67-1.62,1.86s.61,1.86,1.62,1.86a2.57,2.57,0,0,0,1.4-.41v.85a3.46,3.46,0,0,1-1.4.3A2.32,2.32,0,0,1,91.92,74.23Z"/><path class="cls-2" d="M102.47,76.14v.52a1,1,0,0,1-1.48-.57,1.84,1.84,0,0,1-3.3-.85c0-1.67,2.15-2,3.28-1.22v-.35c0-.92-.53-1.3-1.38-1.3a3,3,0,0,0-1.47.43V72a3.36,3.36,0,0,1,1.56-.38,1.84,1.84,0,0,1,2.1,1.87v2.14C101.79,76.1,102.07,76.33,102.47,76.14ZM101,74.85V74.6c-.79-.53-2.46-.53-2.46.62,0,.55.39.92,1.1.92A1.24,1.24,0,0,0,101,74.85Z"/><path class="cls-2" d="M104,76h1.7V70.55h-1.56v-.72h2.38V76h1.58v.72H104Z"/><path class="cls-2" d="M110.07,76h1.7V70.55h-1.56v-.72h2.38V76h1.58v.72h-4.1Z"/><path class="cls-2" d="M126.44,72.45h-2.27v4.28h-.82V72.45h-1.51v-.72h1.51v-.16a1.66,1.66,0,0,1,1.85-1.84,3.62,3.62,0,0,1,1.22.19v.77a3,3,0,0,0-1.22-.22c-.74,0-1,.43-1,1.1v.16h2.27Z"/><path class="cls-2" d="M132.71,76.14v.52a1,1,0,0,1-1.48-.57,1.84,1.84,0,0,1-3.3-.85c0-1.67,2.15-2,3.28-1.22v-.35c0-.92-.53-1.3-1.38-1.3a3,3,0,0,0-1.47.43V72a3.36,3.36,0,0,1,1.56-.38A1.84,1.84,0,0,1,132,73.5v2.14C132,76.1,132.31,76.33,132.71,76.14Zm-1.5-1.29V74.6c-.79-.53-2.46-.53-2.46.62,0,.55.39.92,1.1.92A1.24,1.24,0,0,0,131.21,74.85Z"/><path class="cls-2" d="M134.27,76H136V72.45h-1.56v-.72h2.38V76h1.58v.72h-4.1Zm1.33-5.68a.65.65,0,1,1,.65.65A.65.65,0,0,1,135.6,70.33Z"/><path class="cls-2" d="M140.32,76H142V70.55h-1.56v-.72h2.38V76h1.58v.72h-4.1Z"/><path class="cls-2" d="M146.47,76.46v-.82a3.25,3.25,0,0,0,1.77.49c.83,0,1.3-.31,1.3-.78s-.48-.67-1.24-.84c-1.13-.24-1.77-.66-1.77-1.45s.76-1.43,2.1-1.43a4,4,0,0,1,1.39.22v.76a3.36,3.36,0,0,0-1.4-.28c-.83,0-1.29.26-1.29.71s.28.55,1.15.76c1.15.28,1.85.71,1.85,1.53s-.77,1.5-2.08,1.5A4.09,4.09,0,0,1,146.47,76.46Z"/><path class="cls-2" d="M161.9,69.83h.76L159,77.73h-.76Z"/><path class="cls-2" d="M170.57,74.23a2.32,2.32,0,0,1,2.46-2.6,3.46,3.46,0,0,1,1.4.3v.85a2.58,2.58,0,0,0-1.4-.41c-1,0-1.62.67-1.62,1.86s.61,1.86,1.62,1.86a2.57,2.57,0,0,0,1.4-.41v.85a3.46,3.46,0,0,1-1.4.3A2.32,2.32,0,0,1,170.57,74.23Z"/><path class="cls-2" d="M176.34,74.23c0-1.66.85-2.6,2.28-2.6s2.28.94,2.28,2.6-.85,2.6-2.28,2.6S176.34,75.89,176.34,74.23Zm3.72,0c0-1.19-.53-1.86-1.44-1.86s-1.44.67-1.44,1.86.53,1.86,1.44,1.86S180.05,75.42,180.05,74.23Z"/><path class="cls-2" d="M186.68,76.73H186l-.08-.76a1.93,1.93,0,0,1-1.61.86c-1,0-1.63-.71-1.63-1.87V71.73h.82v3.08c0,.79.24,1.29.95,1.29a1.8,1.8,0,0,0,1.45-.85V71.73h.82Z"/><path class="cls-2" d="M188.69,71.73h.72l.08.76a1.93,1.93,0,0,1,1.61-.86c1,0,1.63.71,1.63,1.87v3.23h-.82V73.65c0-.79-.24-1.29-.95-1.29a1.79,1.79,0,0,0-1.45.85v3.52h-.82Z"/><path class="cls-2" d="M195.72,74.83V72.45h-1.4v-.72h1.44l.18-1.4h.6v1.4h2.28v.72h-2.28v2.38c0,.87.34,1.26,1.25,1.26a2.1,2.1,0,0,0,1-.24v.77a2.53,2.53,0,0,1-1.06.21A1.77,1.77,0,0,1,195.72,74.83Z"/><path class="cls-2" d="M211.14,72.45h-2.27v4.28h-.82V72.45h-1.51v-.72h1.51v-.16a1.66,1.66,0,0,1,1.85-1.84,3.62,3.62,0,0,1,1.22.19v.77a3,3,0,0,0-1.22-.22c-.74,0-1,.43-1,1.1v.16h2.27Z"/><path class="cls-2" d="M217.41,76.14v.52a1,1,0,0,1-1.48-.57,1.84,1.84,0,0,1-3.3-.85c0-1.67,2.15-2,3.28-1.22v-.35c0-.92-.53-1.3-1.38-1.3a3,3,0,0,0-1.47.43V72a3.36,3.36,0,0,1,1.56-.38,1.84,1.84,0,0,1,2.1,1.87v2.14C216.73,76.1,217,76.33,217.41,76.14Zm-1.5-1.29V74.6c-.79-.53-2.46-.53-2.46.62,0,.55.39.92,1.1.92A1.24,1.24,0,0,0,215.91,74.85Z"/><path class="cls-2" d="M219,76h1.7V72.45H219.1v-.72h2.38V76h1.58v.72H219Zm1.33-5.68a.65.65,0,1,1,.65.65A.65.65,0,0,1,220.29,70.33Z"/><path class="cls-2" d="M225,76h1.7V70.55h-1.56v-.72h2.38V76h1.58v.72H225Z"/><path class="cls-2" d="M235.08,76.73h-.72l-.08-.76a1.93,1.93,0,0,1-1.61.86c-1,0-1.63-.71-1.63-1.87V71.73h.82v3.08c0,.79.24,1.29.95,1.29a1.8,1.8,0,0,0,1.45-.85V71.73h.82Z"/><path class="cls-2" d="M237.17,76h1V72.45h-1.08v-.72h1.74l.14,1.1a1.69,1.69,0,0,1,1.69-1.2,2.65,2.65,0,0,1,1,.19v.8a2.5,2.5,0,0,0-1-.24c-.65,0-1.16.35-1.63,1.29V76h1.6v.72h-3.4Z"/><path class="cls-2" d="M245.6,76.13a2.72,2.72,0,0,0,1.55-.46v.83a4.41,4.41,0,0,1-1.68.33,2.33,2.33,0,0,1-2.53-2.6c0-1.67.86-2.6,2.24-2.6s2.2.93,2.2,2.6c0,.11,0,.22,0,.32H243.8A1.62,1.62,0,0,0,245.6,76.13Zm-1.8-2.25h2.72c-.09-1-.58-1.55-1.34-1.55S243.89,72.89,243.8,73.88Z"/><path class="cls-2" d="M92.88,88.83V86.45h-1.4v-.72h1.44l.18-1.4h.6v1.4H96v.72H93.7v2.38c0,.87.34,1.26,1.25,1.26a2.1,2.1,0,0,0,1-.24v.77a2.53,2.53,0,0,1-1.06.21A1.77,1.77,0,0,1,92.88,88.83Z"/><path class="cls-2" d="M97.95,83.83h.82v2.65a1.9,1.9,0,0,1,1.59-.85c1,0,1.63.71,1.63,1.87v3.23h-.82V87.65c0-.79-.24-1.29-.95-1.29a1.79,1.79,0,0,0-1.45.85v3.52h-.82Z"/><path class="cls-2" d="M104.08,90h1V86.45H104v-.72h1.74l.14,1.1a1.69,1.69,0,0,1,1.69-1.2,2.65,2.65,0,0,1,1,.19v.8a2.5,2.5,0,0,0-1-.24c-.65,0-1.16.35-1.63,1.29V90h1.6v.72h-3.4Z"/><path class="cls-2" d="M112.51,90.13a2.72,2.72,0,0,0,1.55-.46v.83a4.41,4.41,0,0,1-1.68.33,2.33,2.33,0,0,1-2.53-2.6c0-1.67.86-2.6,2.24-2.6s2.2.93,2.2,2.6c0,.11,0,.22,0,.32h-3.56A1.62,1.62,0,0,0,112.51,90.13Zm-1.8-2.25h2.72c-.09-1-.58-1.55-1.34-1.55S110.8,86.89,110.71,87.88Z"/><path class="cls-2" d="M116.22,90.46v-.82a3.25,3.25,0,0,0,1.77.49c.83,0,1.3-.31,1.3-.78s-.48-.67-1.24-.84c-1.13-.24-1.77-.66-1.77-1.45s.76-1.43,2.1-1.43a4,4,0,0,1,1.39.22v.76a3.36,3.36,0,0,0-1.4-.28c-.83,0-1.29.26-1.29.71s.28.55,1.15.76c1.15.28,1.85.71,1.85,1.53s-.77,1.5-2.08,1.5A4.09,4.09,0,0,1,116.22,90.46Z"/><path class="cls-2" d="M122.15,83.83H123v2.65a1.9,1.9,0,0,1,1.59-.85c1,0,1.63.71,1.63,1.87v3.23h-.82V87.65c0-.79-.24-1.29-.95-1.29a1.79,1.79,0,0,0-1.45.85v3.52h-.82Z"/><path class="cls-2" d="M127.94,88.23c0-1.66.85-2.6,2.28-2.6s2.28.94,2.28,2.6-.85,2.6-2.28,2.6S127.94,89.89,127.94,88.23Zm3.72,0c0-1.19-.53-1.86-1.44-1.86s-1.44.67-1.44,1.86.53,1.86,1.44,1.86S131.65,89.42,131.65,88.23Z"/><path class="cls-2" d="M134.27,90H136V84.55h-1.56v-.72h2.38V90h1.58v.72h-4.1Z"/><path class="cls-2" d="M140,88.29c0-1.62.89-2.66,2.11-2.66a1.78,1.78,0,0,1,1.41.68V83.83h.82v6.9h-.7l-.08-.72a1.7,1.7,0,0,1-1.55.82C140.86,90.83,140,89.85,140,88.29Zm3.52,1V87a1.78,1.78,0,0,0-1.32-.64c-.87,0-1.36.76-1.36,1.91s.44,1.79,1.29,1.79A1.58,1.58,0,0,0,143.55,89.26Z"/><path class="cls-2" d="M152.48,90h1V86.45h-1.08v-.72h1.74l.14,1.1a1.69,1.69,0,0,1,1.69-1.2,2.65,2.65,0,0,1,1,.19v.8a2.5,2.5,0,0,0-1-.24c-.65,0-1.16.35-1.63,1.29V90h1.6v.72h-3.4Z"/><path class="cls-2" d="M160.9,90.13a2.72,2.72,0,0,0,1.55-.46v.83a4.41,4.41,0,0,1-1.68.33,2.33,2.33,0,0,1-2.53-2.6c0-1.67.86-2.6,2.24-2.6s2.2.93,2.2,2.6c0,.11,0,.22,0,.32h-3.56A1.62,1.62,0,0,0,160.9,90.13Zm-1.8-2.25h2.72c-.09-1-.58-1.55-1.34-1.55S159.19,86.89,159.11,87.88Z"/><path class="cls-2" d="M169,90.14v.52a1,1,0,0,1-1.48-.57,1.84,1.84,0,0,1-3.3-.85c0-1.67,2.15-2,3.28-1.22v-.35c0-.92-.53-1.3-1.38-1.3a3,3,0,0,0-1.47.43V86a3.36,3.36,0,0,1,1.56-.38,1.84,1.84,0,0,1,2.1,1.87v2.14C168.33,90.1,168.61,90.33,169,90.14Zm-1.5-1.29V88.6c-.79-.53-2.46-.53-2.46.62,0,.55.39.92,1.1.92A1.24,1.24,0,0,0,167.51,88.85Z"/><path class="cls-2" d="M170.57,88.23a2.32,2.32,0,0,1,2.46-2.6,3.46,3.46,0,0,1,1.4.3v.85a2.58,2.58,0,0,0-1.4-.41c-1,0-1.62.67-1.62,1.86s.61,1.86,1.62,1.86a2.57,2.57,0,0,0,1.4-.41v.85a3.46,3.46,0,0,1-1.4.3A2.32,2.32,0,0,1,170.57,88.23Z"/><path class="cls-2" d="M176.6,83.83h.82v2.65a1.9,1.9,0,0,1,1.59-.85c1,0,1.63.71,1.63,1.87v3.23h-.82V87.65c0-.79-.24-1.29-.95-1.29a1.79,1.79,0,0,0-1.45.85v3.52h-.82Z"/><path class="cls-2" d="M185.1,90.13a2.72,2.72,0,0,0,1.55-.46v.83a4.41,4.41,0,0,1-1.68.33,2.33,2.33,0,0,1-2.53-2.6c0-1.67.86-2.6,2.24-2.6s2.2.93,2.2,2.6c0,.11,0,.22,0,.32H183.3A1.62,1.62,0,0,0,185.1,90.13Zm-1.8-2.25H186c-.09-1-.58-1.55-1.34-1.55S183.39,86.89,183.3,87.88Z"/><path class="cls-2" d="M188.44,88.29c0-1.62.89-2.66,2.11-2.66a1.78,1.78,0,0,1,1.41.68V83.83h.82v6.9h-.7L192,90a1.7,1.7,0,0,1-1.55.82C189.25,90.83,188.44,89.85,188.44,88.29Zm3.52,1V87a1.78,1.78,0,0,0-1.32-.64c-.87,0-1.36.76-1.36,1.91s.44,1.79,1.29,1.79A1.58,1.58,0,0,0,192,89.26Z"/><path class="cls-2" d="M204.25,83.83H205l-3.64,7.9h-.76Z"/><path class="cls-2" d="M213.87,88.83V86.45h-1.4v-.72h1.44l.18-1.4h.6v1.4H217v.72h-2.28v2.38c0,.87.34,1.26,1.25,1.26a2.1,2.1,0,0,0,1-.24v.77a2.53,2.53,0,0,1-1.06.21A1.77,1.77,0,0,1,213.87,88.83Z"/><path class="cls-2" d="M219,90h1V86.45h-1.08v-.72h1.74l.14,1.1a1.69,1.69,0,0,1,1.69-1.2,2.65,2.65,0,0,1,1,.19v.8a2.5,2.5,0,0,0-1-.24c-.65,0-1.16.35-1.63,1.29V90h1.6v.72H219Z"/><path class="cls-2" d="M225,90h1.7V86.45h-1.56v-.72h2.38V90h1.58v.72H225Zm1.33-5.68A.65.65,0,1,1,227,85,.65.65,0,0,1,226.34,84.33Z"/><path class="cls-2" d="M231,85.73h.7l.08.72a1.79,1.79,0,0,1,1.56-.82c1.18,0,2,1,2,2.54s-.89,2.66-2.11,2.66a1.77,1.77,0,0,1-1.41-.68v2.38H231Zm3.5,2.44c0-1.09-.44-1.79-1.29-1.79a1.58,1.58,0,0,0-1.39.82v2.24a1.78,1.78,0,0,0,1.32.64C234,90.08,234.5,89.32,234.5,88.17Z"/><path class="cls-2" d="M243.88,90.13l-.08.6h-.7v-6.9h.82v2.62a1.63,1.63,0,0,1,1.51-.82c1.19,0,2,1,2,2.54s-.89,2.66-2.11,2.66A1.86,1.86,0,0,1,243.88,90.13Zm2.72-2c0-1.09-.44-1.79-1.29-1.79a1.58,1.58,0,0,0-1.39.82v2.24a1.78,1.78,0,0,0,1.32.64C246.11,90.08,246.6,89.32,246.6,88.17Z"/><path class="cls-2" d="M249.27,90h1V86.45h-1.08v-.72h1.74l.14,1.1a1.69,1.69,0,0,1,1.69-1.2,2.65,2.65,0,0,1,1,.19v.8a2.5,2.5,0,0,0-1-.24c-.65,0-1.16.35-1.63,1.29V90h1.6v.72h-3.4Z"/><path class="cls-2" d="M257.7,90.13a2.72,2.72,0,0,0,1.55-.46v.83a4.41,4.41,0,0,1-1.68.33,2.33,2.33,0,0,1-2.53-2.6c0-1.67.86-2.6,2.24-2.6s2.2.93,2.2,2.6c0,.11,0,.22,0,.32H255.9A1.62,1.62,0,0,0,257.7,90.13Zm-1.8-2.25h2.72c-.09-1-.58-1.55-1.34-1.55S256,86.89,255.9,87.88Z"/><path class="cls-2" d="M265.81,90.14v.52a1,1,0,0,1-1.48-.57,1.84,1.84,0,0,1-3.3-.85c0-1.67,2.15-2,3.28-1.22v-.35c0-.92-.53-1.3-1.38-1.3a3,3,0,0,0-1.47.43V86a3.36,3.36,0,0,1,1.56-.38,1.84,1.84,0,0,1,2.1,1.87v2.14C265.13,90.1,265.41,90.33,265.81,90.14Zm-1.5-1.29V88.6c-.79-.53-2.46-.53-2.46.62,0,.55.39.92,1.1.92A1.24,1.24,0,0,0,264.31,88.85Z"/><path class="cls-2" d="M270.86,90.73l-1.63-2.4-.89,1v1.42h-.82v-6.9h.82v4.49l2.31-2.59h.95l-1.84,2,2,3Z"/><path class="cls-2" d="M275.85,90.13a2.72,2.72,0,0,0,1.55-.46v.83a4.41,4.41,0,0,1-1.68.33,2.33,2.33,0,0,1-2.53-2.6c0-1.67.86-2.6,2.24-2.6s2.2.93,2.2,2.6c0,.11,0,.22,0,.32h-3.56A1.62,1.62,0,0,0,275.85,90.13Zm-1.8-2.25h2.72c-.09-1-.58-1.55-1.34-1.55S274.14,86.89,274.05,87.88Z"/><path class="cls-2" d="M279.52,90h1V86.45h-1.08v-.72h1.74l.14,1.1a1.69,1.69,0,0,1,1.69-1.2,2.65,2.65,0,0,1,1,.19v.8a2.5,2.5,0,0,0-1-.24c-.65,0-1.16.35-1.63,1.29V90h1.6v.72h-3.4Z"/><path class="cls-2" d="M484.92,21.17a4.78,4.78,0,1,1,9.55,0,4.78,4.78,0,1,1-9.55,0Zm7.87,0a3.11,3.11,0,1,0-6.19,0,3.11,3.11,0,1,0,6.19,0Z"/><path class="cls-2" d="M497.82,24.9v3.52h-1.47V19.07h1.47V20A2.7,2.7,0,0,1,500,18.9c1.75,0,3,1.32,3,3.54S501.74,26,500,26A2.71,2.71,0,0,1,497.82,24.9Zm3.66-2.45a2,2,0,0,0-1.92-2.24,2.2,2.2,0,0,0-1.74.9v2.67a2.21,2.21,0,0,0,1.74.92A2,2,0,0,0,501.47,22.45Z"/><path class="cls-2" d="M504.4,22.45a3.42,3.42,0,0,1,3.43-3.54c2,0,3.32,1.54,3.32,3.67v.36h-5.21a2,2,0,0,0,2.14,1.86A2.85,2.85,0,0,0,510,24l.67,1a4,4,0,0,1-2.75,1A3.39,3.39,0,0,1,504.4,22.45Zm3.42-2.34a1.85,1.85,0,0,0-1.89,1.78h3.81A1.82,1.82,0,0,0,507.81,20.11Z"/><path class="cls-2" d="M517.53,25.84V21.61c0-1.06-.55-1.4-1.37-1.4a2.31,2.31,0,0,0-1.74.9v4.73h-1.47V19.07h1.47V20a3.23,3.23,0,0,1,2.4-1.08A2,2,0,0,1,519,21.07v4.76Z"/><line class="cls-3" x1="300.54" y1="51.68" x2="394.56" y2="51.68"/><polygon class="cls-2" points="393.1 56.67 401.73 51.68 393.1 46.7 393.1 56.67"/><line class="cls-3" x1="524.65" y1="106.29" x2="524.65" y2="153.18"/><polygon class="cls-2" points="519.66 151.72 524.65 160.36 529.64 151.72 519.66 151.72"/><line class="cls-3" x1="474.58" y1="160.36" x2="474.58" y2="113.47"/><polygon class="cls-2" points="479.57 114.93 474.58 106.29 469.6 114.93 479.57 114.93"/><path class="cls-2" d="M422.23,46.23c0-1.66.85-2.6,2.28-2.6s2.28.94,2.28,2.6-.85,2.6-2.28,2.6S422.23,47.89,422.23,46.23Zm3.72,0c0-1.19-.53-1.86-1.44-1.86s-1.44.67-1.44,1.86.53,1.86,1.44,1.86S426,47.42,426,46.23Z"/><path class="cls-2" d="M428.54,43.73h.72l.08.76a1.93,1.93,0,0,1,1.61-.86c1,0,1.63.71,1.63,1.87v3.23h-.82V45.65c0-.79-.24-1.29-.95-1.29a1.79,1.79,0,0,0-1.45.85v3.52h-.82Z"/><path class="cls-2" d="M440.66,46.23a2.32,2.32,0,0,1,2.46-2.6,3.46,3.46,0,0,1,1.4.3v.85a2.58,2.58,0,0,0-1.4-.41c-1,0-1.62.67-1.62,1.86s.61,1.86,1.62,1.86a2.58,2.58,0,0,0,1.4-.41v.85a3.46,3.46,0,0,1-1.4.3A2.32,2.32,0,0,1,440.66,46.23Z"/><path class="cls-2" d="M451.21,48.14v.52a1,1,0,0,1-1.48-.57,1.84,1.84,0,0,1-3.3-.85c0-1.67,2.15-2,3.28-1.22v-.35c0-.92-.53-1.3-1.38-1.3a3,3,0,0,0-1.47.43V44a3.36,3.36,0,0,1,1.56-.38,1.84,1.84,0,0,1,2.1,1.87v2.14C450.53,48.1,450.81,48.33,451.21,48.14Zm-1.5-1.29V46.6c-.79-.53-2.46-.53-2.46.62,0,.55.39.92,1.1.92A1.24,1.24,0,0,0,449.71,46.85Z"/><path class="cls-2" d="M452.76,48h1.7V42.55H452.9v-.72h2.38V48h1.58v.72h-4.1Z"/><path class="cls-2" d="M458.81,48h1.7V42.55H459v-.72h2.38V48h1.58v.72h-4.1Z"/><path class="cls-2" d="M474.35,41.83h.76l-3.64,7.9h-.76Z"/><path class="cls-2" d="M487.29,44.45H485v4.28h-.82V44.45h-1.51v-.72h1.51v-.16A1.66,1.66,0,0,1,486,41.73a3.62,3.62,0,0,1,1.22.19v.77a3.05,3.05,0,0,0-1.22-.22c-.74,0-1,.43-1,1.1v.16h2.27Z"/><path class="cls-2" d="M493.56,48.14v.52a1,1,0,0,1-1.48-.57,1.84,1.84,0,0,1-3.3-.85c0-1.67,2.15-2,3.28-1.22v-.35c0-.92-.53-1.3-1.38-1.3a3,3,0,0,0-1.47.43V44a3.37,3.37,0,0,1,1.56-.38,1.84,1.84,0,0,1,2.1,1.87v2.14C492.88,48.1,493.16,48.33,493.56,48.14Zm-1.5-1.29V46.6c-.79-.53-2.46-.53-2.46.62,0,.55.39.92,1.1.92A1.24,1.24,0,0,0,492.06,46.85Z"/><path class="cls-2" d="M495.11,48h1.7V44.45h-1.56v-.72h2.38V48h1.58v.72h-4.1Zm1.33-5.68a.65.65,0,1,1,.65.65A.65.65,0,0,1,496.44,42.33Z"/><path class="cls-2" d="M501.16,48h1.7V42.55H501.3v-.72h2.38V48h1.58v.72h-4.1Z"/><path class="cls-2" d="M422.23,60.23c0-1.66.85-2.6,2.28-2.6s2.28.94,2.28,2.6-.85,2.6-2.28,2.6S422.23,61.89,422.23,60.23Zm3.72,0c0-1.19-.53-1.86-1.44-1.86s-1.44.67-1.44,1.86.53,1.86,1.44,1.86S426,61.42,426,60.23Z"/><path class="cls-2" d="M428.54,57.73h.72l.08.76a1.93,1.93,0,0,1,1.61-.86c1,0,1.63.71,1.63,1.87v3.23h-.82V59.65c0-.79-.24-1.29-.95-1.29a1.79,1.79,0,0,0-1.45.85v3.52h-.82Z"/><path class="cls-2" d="M441.62,60.83V58.45h-1.4v-.72h1.44l.18-1.4h.6v1.4h2.28v.72h-2.28v2.38c0,.87.34,1.26,1.25,1.26a2.11,2.11,0,0,0,1-.24v.77a2.53,2.53,0,0,1-1.06.21A1.77,1.77,0,0,1,441.62,60.83Z"/><path class="cls-2" d="M446.71,62h1.7V58.45h-1.56v-.72h2.38V62h1.58v.72h-4.1ZM448,56.33a.65.65,0,1,1,.65.65A.65.65,0,0,1,448,56.33Z"/><path class="cls-2" d="M457.18,59.06v3.67h-.76V59.21c0-.57-.21-.83-.52-.83s-.55.23-.76.64v3.71h-.76V59.21c0-.57-.21-.83-.51-.83s-.56.24-.77.64v3.71h-.76v-5H453l.08.7a1.14,1.14,0,0,1,1-.8,1,1,0,0,1,.94.74,1.31,1.31,0,0,1,1.1-.74C456.74,57.63,457.18,58.15,457.18,59.06Z"/><path class="cls-2" d="M461.25,62.13a2.72,2.72,0,0,0,1.55-.46v.83a4.41,4.41,0,0,1-1.68.33,2.33,2.33,0,0,1-2.53-2.6c0-1.67.86-2.6,2.24-2.6s2.2.93,2.2,2.6c0,.11,0,.22,0,.32h-3.56A1.62,1.62,0,0,0,461.25,62.13Zm-1.8-2.25h2.72c-.09-1-.58-1.55-1.34-1.55S459.54,58.89,459.45,59.88Z"/><path class="cls-2" d="M464.58,60.23c0-1.66.85-2.6,2.28-2.6s2.28.94,2.28,2.6-.85,2.6-2.28,2.6S464.58,61.89,464.58,60.23Zm3.72,0c0-1.19-.53-1.86-1.44-1.86s-1.44.67-1.44,1.86.53,1.86,1.44,1.86S468.3,61.42,468.3,60.23Z"/><path class="cls-2" d="M474.93,62.73h-.72l-.08-.76a1.93,1.93,0,0,1-1.61.86c-1,0-1.63-.71-1.63-1.87V57.73h.82v3.08c0,.79.24,1.29.95,1.29a1.79,1.79,0,0,0,1.45-.85V57.73h.82Z"/><path class="cls-2" d="M477.92,60.83V58.45h-1.4v-.72H478l.18-1.4h.6v1.4H481v.72h-2.28v2.38c0,.87.34,1.26,1.25,1.26a2.11,2.11,0,0,0,1-.24v.77a2.53,2.53,0,0,1-1.06.21A1.77,1.77,0,0,1,477.92,60.83Z"/><path class="cls-2" d="M492.5,55.83h.76l-3.64,7.9h-.76Z"/><path class="cls-2" d="M505.66,62.14v.52a1,1,0,0,1-1.48-.57,1.84,1.84,0,0,1-3.3-.85c0-1.67,2.15-2,3.28-1.22v-.35c0-.92-.53-1.3-1.38-1.3a3,3,0,0,0-1.47.43V58a3.37,3.37,0,0,1,1.56-.38A1.84,1.84,0,0,1,505,59.5v2.14C505,62.1,505.26,62.33,505.66,62.14Zm-1.5-1.29V60.6c-.79-.53-2.46-.53-2.46.62,0,.55.39.92,1.1.92A1.24,1.24,0,0,0,504.16,60.85Z"/><path class="cls-2" d="M508.17,60.83V58.45h-1.4v-.72h1.44l.18-1.4h.6v1.4h2.28v.72H509v2.38c0,.87.34,1.26,1.25,1.26a2.1,2.1,0,0,0,1-.24v.77a2.53,2.53,0,0,1-1.06.21A1.77,1.77,0,0,1,508.17,60.83Z"/><path class="cls-2" d="M514.22,60.83V58.45h-1.4v-.72h1.44l.18-1.4h.6v1.4h2.28v.72H515v2.38c0,.87.34,1.26,1.25,1.26a2.11,2.11,0,0,0,1-.24v.77a2.53,2.53,0,0,1-1.06.21A1.77,1.77,0,0,1,514.22,60.83Z"/><path class="cls-2" d="M521.75,62.13a2.72,2.72,0,0,0,1.55-.46v.83a4.41,4.41,0,0,1-1.68.33,2.33,2.33,0,0,1-2.53-2.6c0-1.67.86-2.6,2.24-2.6s2.2.93,2.2,2.6c0,.11,0,.22,0,.32h-3.56A1.62,1.62,0,0,0,521.75,62.13Zm-1.8-2.25h2.72c-.09-1-.58-1.55-1.34-1.55S520,58.89,519.95,59.88Z"/><path class="cls-2" d="M529.78,59.06v3.67H529V59.21c0-.57-.21-.83-.52-.83s-.55.23-.76.64v3.71H527V59.21c0-.57-.21-.83-.51-.83s-.56.24-.77.64v3.71h-.76v-5h.66l.08.7a1.14,1.14,0,0,1,1-.8,1,1,0,0,1,.94.74,1.31,1.31,0,0,1,1.1-.74C529.34,57.63,529.78,58.15,529.78,59.06Z"/><path class="cls-2" d="M531.35,57.73h.7l.08.72a1.79,1.79,0,0,1,1.56-.82c1.18,0,2,1,2,2.54s-.89,2.66-2.11,2.66a1.77,1.77,0,0,1-1.41-.68v2.38h-.82Zm3.5,2.44c0-1.09-.44-1.79-1.29-1.79a1.58,1.58,0,0,0-1.39.82v2.24a1.78,1.78,0,0,0,1.32.64C534.36,62.08,534.85,61.32,534.85,60.17Z"/><path class="cls-2" d="M538.42,60.83V58.45H537v-.72h1.44l.18-1.4h.6v1.4h2.28v.72h-2.28v2.38c0,.87.34,1.26,1.25,1.26a2.11,2.11,0,0,0,1-.24v.77a2.53,2.53,0,0,1-1.06.21A1.77,1.77,0,0,1,538.42,60.83Z"/><path class="cls-2" d="M549.62,62h1V58.45h-1.08v-.72h1.74l.14,1.1a1.68,1.68,0,0,1,1.69-1.2,2.64,2.64,0,0,1,1,.19v.8a2.5,2.5,0,0,0-1-.24c-.65,0-1.16.35-1.63,1.29V62H553v.72h-3.4Z"/><path class="cls-2" d="M558,62.13a2.72,2.72,0,0,0,1.55-.46v.83a4.41,4.41,0,0,1-1.68.33,2.33,2.33,0,0,1-2.53-2.6c0-1.67.86-2.6,2.24-2.6s2.2.93,2.2,2.6c0,.11,0,.22,0,.32h-3.56A1.62,1.62,0,0,0,558,62.13Zm-1.8-2.25H559c-.09-1-.58-1.55-1.34-1.55S556.34,58.89,556.25,59.88Z"/><path class="cls-2" d="M561.76,62.46v-.82a3.25,3.25,0,0,0,1.77.49c.83,0,1.3-.31,1.3-.78s-.48-.67-1.24-.84c-1.13-.24-1.77-.66-1.77-1.45s.76-1.43,2.1-1.43a4,4,0,0,1,1.39.22v.76a3.36,3.36,0,0,0-1.4-.28c-.83,0-1.29.26-1.29.71s.28.55,1.15.76c1.15.28,1.85.71,1.85,1.53s-.77,1.5-2.08,1.5A4.09,4.09,0,0,1,561.76,62.46Z"/><path class="cls-2" d="M570.15,62.13a2.72,2.72,0,0,0,1.55-.46v.83a4.41,4.41,0,0,1-1.68.33,2.33,2.33,0,0,1-2.53-2.6c0-1.67.86-2.6,2.24-2.6s2.2.93,2.2,2.6c0,.11,0,.22,0,.32h-3.56A1.62,1.62,0,0,0,570.15,62.13Zm-1.8-2.25h2.72c-.09-1-.58-1.55-1.34-1.55S568.44,58.89,568.35,59.88Z"/><path class="cls-2" d="M574.72,60.83V58.45h-1.4v-.72h1.44l.18-1.4h.6v1.4h2.28v.72h-2.28v2.38c0,.87.34,1.26,1.25,1.26a2.11,2.11,0,0,0,1-.24v.77a2.53,2.53,0,0,1-1.06.21A1.77,1.77,0,0,1,574.72,60.83Z"/><path class="cls-2" d="M478.39,188.43v-4.09h-4.86v4.09h-1.64v-9.34h1.64v3.81h4.86v-3.81H480v9.34Z"/><path class="cls-2" d="M486.47,188.43v-.74a2.85,2.85,0,0,1-2.2.91,2.25,2.25,0,0,1-2.34-2.24,2.17,2.17,0,0,1,2.34-2.21,2.83,2.83,0,0,1,2.2.87v-1c0-.78-.66-1.26-1.58-1.26a2.71,2.71,0,0,0-2,.87l-.62-1a4,4,0,0,1,2.84-1.09c1.51,0,2.83.63,2.83,2.44v4.5Zm0-1.54v-1a2,2,0,0,0-1.61-.7,1.24,1.24,0,1,0,0,2.44A2,2,0,0,0,486.47,186.89Z"/><path class="cls-2" d="M490.19,188.43v-9.34h1.47v9.34Z"/><path class="cls-2" d="M494.28,188.43v-5.49h-1.12v-1.27h1.12v-.38a2.09,2.09,0,0,1,2.13-2.34,2.16,2.16,0,0,1,1.62.59l-.57.91a1.09,1.09,0,0,0-.77-.29c-.59,0-.94.38-.94,1.13v.38h1.37v1.27h-1.37v5.49Z"/><path class="cls-2" d="M498.06,185.67v-1.26h3.36v1.26Z"/><path class="cls-2" d="M502.77,183.77a4.78,4.78,0,1,1,4.78,4.83A4.64,4.64,0,0,1,502.77,183.77Zm7.87,0a3.11,3.11,0,1,0-3.1,3.38A3.1,3.1,0,0,0,510.65,183.77Z"/><path class="cls-2" d="M515.67,187.49V191H514.2v-9.34h1.47v.92a2.7,2.7,0,0,1,2.17-1.09c1.75,0,3,1.32,3,3.54s-1.25,3.56-3,3.56A2.72,2.72,0,0,1,515.67,187.49Zm3.66-2.45a2,2,0,0,0-1.92-2.24,2.2,2.2,0,0,0-1.74.9v2.67a2.21,2.21,0,0,0,1.74.92A2,2,0,0,0,519.32,185Z"/><path class="cls-2" d="M522.25,185a3.42,3.42,0,0,1,3.43-3.54c2,0,3.32,1.54,3.32,3.67v.36h-5.21a2,2,0,0,0,2.14,1.86,2.85,2.85,0,0,0,1.93-.76l.67,1a4,4,0,0,1-2.75,1A3.39,3.39,0,0,1,522.25,185Zm3.42-2.34a1.85,1.85,0,0,0-1.89,1.78h3.81A1.82,1.82,0,0,0,525.67,182.7Z"/><path class="cls-2" d="M535.38,188.43V184.2c0-1.06-.55-1.4-1.37-1.4a2.31,2.31,0,0,0-1.74.9v4.73H530.8v-6.77h1.47v.91a3.23,3.23,0,0,1,2.4-1.08,2,2,0,0,1,2.19,2.17v4.76Z"/><path class="cls-2" d="M422.23,210.15c0-1.66.85-2.6,2.28-2.6s2.28.94,2.28,2.6-.85,2.6-2.28,2.6S422.23,211.81,422.23,210.15Zm3.72,0c0-1.19-.53-1.86-1.44-1.86s-1.44.67-1.44,1.86.53,1.86,1.44,1.86S426,211.34,426,210.15Z"/><path class="cls-2" d="M428.54,207.66h.72l.08.76a1.93,1.93,0,0,1,1.61-.86c1,0,1.63.71,1.63,1.87v3.23h-.82v-3.08c0-.79-.24-1.29-.95-1.29a1.79,1.79,0,0,0-1.45.85v3.52h-.82Z"/><path class="cls-2" d="M440.66,210.15a2.32,2.32,0,0,1,2.46-2.6,3.48,3.48,0,0,1,1.4.3v.85a2.58,2.58,0,0,0-1.4-.41c-1,0-1.62.67-1.62,1.86s.61,1.86,1.62,1.86a2.57,2.57,0,0,0,1.4-.41v.85a3.46,3.46,0,0,1-1.4.3A2.32,2.32,0,0,1,440.66,210.15Z"/><path class="cls-2" d="M451.21,212.06v.52a1,1,0,0,1-1.48-.57,1.84,1.84,0,0,1-3.3-.85c0-1.67,2.15-2,3.28-1.22v-.35c0-.92-.53-1.3-1.38-1.3a3,3,0,0,0-1.47.43v-.79a3.36,3.36,0,0,1,1.56-.38,1.84,1.84,0,0,1,2.1,1.87v2.14C450.53,212,450.81,212.25,451.21,212.06Zm-1.5-1.29v-.25c-.79-.53-2.46-.53-2.46.62,0,.55.39.92,1.1.92A1.24,1.24,0,0,0,449.71,210.78Z"/><path class="cls-2" d="M452.76,211.93h1.7v-5.46H452.9v-.72h2.38v6.18h1.58v.72h-4.1Z"/><path class="cls-2" d="M458.81,211.93h1.7v-5.46H459v-.72h2.38v6.18h1.58v.72h-4.1Z"/><path class="cls-2" d="M474.35,205.76h.76l-3.64,7.9h-.76Z"/><path class="cls-2" d="M483,207.66h.7l.08.72a1.79,1.79,0,0,1,1.56-.82c1.18,0,2,1,2,2.54s-.89,2.66-2.11,2.66a1.77,1.77,0,0,1-1.41-.68v2.38H483Zm3.5,2.44c0-1.09-.44-1.79-1.29-1.79a1.58,1.58,0,0,0-1.39.82v2.24a1.78,1.78,0,0,0,1.32.64C486,212,486.45,211.24,486.45,210.1Z"/><path class="cls-2" d="M493.56,212.06v.52a1,1,0,0,1-1.48-.57,1.84,1.84,0,0,1-3.3-.85c0-1.67,2.15-2,3.28-1.22v-.35c0-.92-.53-1.3-1.38-1.3a3,3,0,0,0-1.47.43v-.79a3.36,3.36,0,0,1,1.56-.38,1.84,1.84,0,0,1,2.1,1.87v2.14C492.88,212,493.16,212.25,493.56,212.06Zm-1.5-1.29v-.25c-.79-.53-2.46-.53-2.46.62,0,.55.39.92,1.1.92A1.24,1.24,0,0,0,492.06,210.78Z"/><path class="cls-2" d="M495.21,212.38v-.82a3.25,3.25,0,0,0,1.77.49c.83,0,1.3-.31,1.3-.78s-.48-.67-1.24-.84c-1.13-.24-1.77-.66-1.77-1.45s.76-1.43,2.1-1.43a4,4,0,0,1,1.39.22v.76a3.36,3.36,0,0,0-1.4-.28c-.83,0-1.29.26-1.29.71s.28.55,1.15.76c1.15.28,1.85.71,1.85,1.53s-.77,1.5-2.08,1.5A4.09,4.09,0,0,1,495.21,212.38Z"/><path class="cls-2" d="M501.26,212.38v-.82a3.25,3.25,0,0,0,1.77.49c.83,0,1.3-.31,1.3-.78s-.48-.67-1.24-.84c-1.13-.24-1.77-.66-1.77-1.45s.76-1.43,2.1-1.43a4,4,0,0,1,1.39.22v.76a3.36,3.36,0,0,0-1.4-.28c-.83,0-1.29.26-1.29.71s.28.55,1.15.76c1.15.28,1.85.71,1.85,1.53s-.77,1.5-2.08,1.5A4.09,4.09,0,0,1,501.26,212.38Z"/><path class="cls-2" d="M514.22,210.75v-2.38h-1.4v-.72h1.44l.18-1.4h.6v1.4h2.28v.72H515v2.38c0,.87.34,1.26,1.25,1.26a2.1,2.1,0,0,0,1-.24v.77a2.53,2.53,0,0,1-1.06.21A1.77,1.77,0,0,1,514.22,210.75Z"/><path class="cls-2" d="M519.29,205.76h.82v2.65a1.9,1.9,0,0,1,1.59-.85c1,0,1.63.71,1.63,1.87v3.23h-.82v-3.08c0-.79-.24-1.29-.95-1.29a1.79,1.79,0,0,0-1.45.85v3.52h-.82Z"/><path class="cls-2" d="M525.42,211.93h1v-3.56h-1.08v-.72h1.74l.14,1.1a1.69,1.69,0,0,1,1.69-1.2,2.65,2.65,0,0,1,1,.19v.8a2.5,2.5,0,0,0-1-.24c-.65,0-1.16.35-1.63,1.29v2.34h1.6v.72h-3.4Z"/><path class="cls-2" d="M531.13,210.15c0-1.66.85-2.6,2.28-2.6s2.28.94,2.28,2.6-.85,2.6-2.28,2.6S531.13,211.81,531.13,210.15Zm3.72,0c0-1.19-.53-1.86-1.44-1.86S532,209,532,210.15s.53,1.86,1.44,1.86S534.85,211.34,534.85,210.15Z"/><path class="cls-2" d="M541.48,212.65h-.72l-.08-.76a1.93,1.93,0,0,1-1.61.86c-1,0-1.63-.71-1.63-1.87v-3.23h.82v3.08c0,.79.24,1.29.95,1.29a1.8,1.8,0,0,0,1.45-.85v-3.52h.82Z"/><path class="cls-2" d="M547.87,208.24l-.79,0a1.73,1.73,0,0,1,.29,1c0,1.1-.73,1.73-2,1.73a2.64,2.64,0,0,1-.77-.1.44.44,0,0,0-.22.39c0,1,3.45-.07,3.45,1.82,0,.93-.91,1.43-2.4,1.43s-2.32-.53-2.32-1.34a1.09,1.09,0,0,1,.85-1.08.67.67,0,0,1-.35-.63.82.82,0,0,1,.54-.78,1.57,1.57,0,0,1-.75-1.44c0-1.1.73-1.73,2-1.73a2.4,2.4,0,0,1,1.16.26,3.17,3.17,0,0,1,1.3-.26Zm-3.33,4.11a.83.83,0,0,0-.57.72c0,.44.48.75,1.56.75.89,0,1.52-.21,1.52-.64C547,212.44,545.55,212.59,544.54,212.34Zm2-3.06c0-.67-.43-1-1.16-1s-1.17.38-1.17,1,.43,1,1.17,1S546.57,210,546.57,209.29Z"/><path class="cls-2" d="M549.54,205.76h.82v2.65a1.9,1.9,0,0,1,1.59-.85c1,0,1.63.71,1.63,1.87v3.23h-.82v-3.08c0-.79-.24-1.29-.95-1.29a1.79,1.79,0,0,0-1.45.85v3.52h-.82Z"/><path class="cls-2" d="M422.51,224.15a2.32,2.32,0,0,1,2.46-2.6,3.48,3.48,0,0,1,1.4.3v.85a2.58,2.58,0,0,0-1.4-.41c-1,0-1.62.67-1.62,1.86S424,226,425,226a2.57,2.57,0,0,0,1.4-.41v.85a3.46,3.46,0,0,1-1.4.3A2.32,2.32,0,0,1,422.51,224.15Z"/><path class="cls-2" d="M433.06,226.06v.52a1,1,0,0,1-1.48-.57,1.84,1.84,0,0,1-3.3-.85c0-1.67,2.15-2,3.28-1.22v-.35c0-.92-.53-1.3-1.38-1.3a3,3,0,0,0-1.47.43v-.79a3.36,3.36,0,0,1,1.56-.38,1.84,1.84,0,0,1,2.1,1.87v2.14C432.38,226,432.66,226.25,433.06,226.06Zm-1.5-1.29v-.25c-.79-.53-2.46-.53-2.46.62,0,.55.39.92,1.1.92A1.24,1.24,0,0,0,431.56,224.78Z"/><path class="cls-2" d="M434.61,225.93h1.7v-5.46h-1.56v-.72h2.38v6.18h1.58v.72h-4.1Z"/><path class="cls-2" d="M440.66,225.93h1.7v-5.46H440.8v-.72h2.38v6.18h1.58v.72h-4.1Z"/><path class="cls-2" d="M452.86,226.38v-.82a3.25,3.25,0,0,0,1.77.49c.83,0,1.3-.31,1.3-.78s-.48-.67-1.24-.84c-1.13-.24-1.77-.66-1.77-1.45s.76-1.43,2.1-1.43a4,4,0,0,1,1.39.22v.76a3.36,3.36,0,0,0-1.4-.28c-.83,0-1.29.26-1.29.71s.28.55,1.15.76c1.15.28,1.85.71,1.85,1.53s-.77,1.5-2.08,1.5A4.09,4.09,0,0,1,452.86,226.38Z"/><path class="cls-2" d="M462.83,226.65h-.72l-.08-.76a1.93,1.93,0,0,1-1.61.86c-1,0-1.63-.71-1.63-1.87v-3.23h.82v3.08c0,.79.24,1.29.95,1.29a1.8,1.8,0,0,0,1.45-.85v-3.52h.82Z"/><path class="cls-2" d="M464.86,224.15a2.32,2.32,0,0,1,2.46-2.6,3.48,3.48,0,0,1,1.4.3v.85a2.58,2.58,0,0,0-1.4-.41c-1,0-1.62.67-1.62,1.86s.61,1.86,1.62,1.86a2.57,2.57,0,0,0,1.4-.41v.85a3.46,3.46,0,0,1-1.4.3A2.32,2.32,0,0,1,464.86,224.15Z"/><path class="cls-2" d="M470.91,224.15a2.32,2.32,0,0,1,2.46-2.6,3.48,3.48,0,0,1,1.4.3v.85a2.58,2.58,0,0,0-1.4-.41c-1,0-1.62.67-1.62,1.86s.61,1.86,1.62,1.86a2.57,2.57,0,0,0,1.4-.41v.85a3.46,3.46,0,0,1-1.4.3A2.32,2.32,0,0,1,470.91,224.15Z"/><path class="cls-2" d="M479.4,226.05a2.72,2.72,0,0,0,1.55-.46v.83a4.41,4.41,0,0,1-1.68.33,2.33,2.33,0,0,1-2.53-2.6c0-1.67.86-2.6,2.24-2.6s2.2.93,2.2,2.6c0,.11,0,.22,0,.32H477.6A1.62,1.62,0,0,0,479.4,226.05Zm-1.8-2.25h2.72c-.09-1-.58-1.55-1.34-1.55S477.69,222.82,477.6,223.81Z"/><path class="cls-2" d="M485.45,226.05a2.72,2.72,0,0,0,1.55-.46v.83a4.41,4.41,0,0,1-1.68.33,2.33,2.33,0,0,1-2.53-2.6c0-1.67.86-2.6,2.24-2.6s2.2.93,2.2,2.6c0,.11,0,.22,0,.32h-3.56A1.62,1.62,0,0,0,485.45,226.05Zm-1.8-2.25h2.72c-.09-1-.58-1.55-1.34-1.55S483.74,222.82,483.65,223.81Z"/><path class="cls-2" d="M488.78,224.22c0-1.62.89-2.66,2.11-2.66a1.78,1.78,0,0,1,1.41.68v-2.48h.82v6.9h-.7l-.08-.72a1.7,1.7,0,0,1-1.55.82C489.6,226.75,488.78,225.77,488.78,224.22Zm3.52,1v-2.24a1.78,1.78,0,0,0-1.32-.64c-.87,0-1.36.76-1.36,1.91s.44,1.79,1.29,1.79A1.58,1.58,0,0,0,492.3,225.19Z"/><path class="cls-2" d="M495.21,226.38v-.82a3.25,3.25,0,0,0,1.77.49c.83,0,1.3-.31,1.3-.78s-.48-.67-1.24-.84c-1.13-.24-1.77-.66-1.77-1.45s.76-1.43,2.1-1.43a4,4,0,0,1,1.39.22v.76a3.36,3.36,0,0,0-1.4-.28c-.83,0-1.29.26-1.29.71s.28.55,1.15.76c1.15.28,1.85.71,1.85,1.53s-.77,1.5-2.08,1.5A4.09,4.09,0,0,1,495.21,226.38Z"/><path class="cls-2" d="M510.65,219.76h.76l-3.64,7.9H507Z"/><path class="cls-2" d="M519.37,225.93h1v-3.56h-1.08v-.72H521l.14,1.1a1.69,1.69,0,0,1,1.69-1.2,2.65,2.65,0,0,1,1,.19v.8a2.5,2.5,0,0,0-1-.24c-.65,0-1.16.35-1.63,1.29v2.34h1.6v.72h-3.4Z"/><path class="cls-2" d="M527.8,226.05a2.72,2.72,0,0,0,1.55-.46v.83a4.41,4.41,0,0,1-1.68.33,2.33,2.33,0,0,1-2.53-2.6c0-1.67.86-2.6,2.24-2.6s2.2.93,2.2,2.6c0,.11,0,.22,0,.32H526A1.62,1.62,0,0,0,527.8,226.05Zm-1.8-2.25h2.72c-.09-1-.58-1.55-1.34-1.55S526.09,222.82,526,223.81Z"/><path class="cls-2" d="M531.51,226.38v-.82a3.25,3.25,0,0,0,1.77.49c.83,0,1.3-.31,1.3-.78s-.48-.67-1.24-.84c-1.13-.24-1.77-.66-1.77-1.45s.76-1.43,2.1-1.43a4,4,0,0,1,1.39.22v.76a3.36,3.36,0,0,0-1.4-.28c-.83,0-1.29.26-1.29.71s.28.55,1.15.76c1.15.28,1.85.71,1.85,1.53s-.77,1.5-2.08,1.5A4.09,4.09,0,0,1,531.51,226.38Z"/><path class="cls-2" d="M539.9,226.05a2.72,2.72,0,0,0,1.55-.46v.83a4.41,4.41,0,0,1-1.68.33,2.33,2.33,0,0,1-2.53-2.6c0-1.67.86-2.6,2.24-2.6s2.2.93,2.2,2.6c0,.11,0,.22,0,.32H538.1A1.62,1.62,0,0,0,539.9,226.05Zm-1.8-2.25h2.72c-.09-1-.58-1.55-1.34-1.55S538.19,222.82,538.1,223.81Z"/><path class="cls-2" d="M544.47,224.75v-2.38h-1.4v-.72h1.44l.18-1.4h.6v1.4h2.28v.72h-2.28v2.38c0,.87.34,1.26,1.25,1.26a2.1,2.1,0,0,0,1-.24v.77a2.53,2.53,0,0,1-1.06.21A1.77,1.77,0,0,1,544.47,224.75Z"/><path class="cls-2" d="M422.51,238.15a2.32,2.32,0,0,1,2.46-2.6,3.48,3.48,0,0,1,1.4.3v.85a2.58,2.58,0,0,0-1.4-.41c-1,0-1.62.67-1.62,1.86S424,240,425,240a2.57,2.57,0,0,0,1.4-.41v.85a3.46,3.46,0,0,1-1.4.3A2.32,2.32,0,0,1,422.51,238.15Z"/><path class="cls-2" d="M433.06,240.06v.52a1,1,0,0,1-1.48-.57,1.84,1.84,0,0,1-3.3-.85c0-1.67,2.15-2,3.28-1.22v-.35c0-.92-.53-1.3-1.38-1.3a3,3,0,0,0-1.47.43v-.79a3.36,3.36,0,0,1,1.56-.38,1.84,1.84,0,0,1,2.1,1.87v2.14C432.38,240,432.66,240.25,433.06,240.06Zm-1.5-1.29v-.25c-.79-.53-2.46-.53-2.46.62,0,.55.39.92,1.1.92A1.24,1.24,0,0,0,431.56,238.78Z"/><path class="cls-2" d="M434.61,239.93h1.7v-5.46h-1.56v-.72h2.38v6.18h1.58v.72h-4.1Z"/><path class="cls-2" d="M440.66,239.93h1.7v-5.46H440.8v-.72h2.38v6.18h1.58v.72h-4.1Z"/><path class="cls-2" d="M457,236.38h-2.27v4.28H454v-4.28h-1.51v-.72H454v-.16a1.66,1.66,0,0,1,1.85-1.84,3.62,3.62,0,0,1,1.22.19v.77a3,3,0,0,0-1.22-.22c-.74,0-1,.43-1,1.1v.16H457Z"/><path class="cls-2" d="M463.31,240.06v.52a1,1,0,0,1-1.48-.57,1.84,1.84,0,0,1-3.3-.85c0-1.67,2.15-2,3.28-1.22v-.35c0-.92-.53-1.3-1.38-1.3a3,3,0,0,0-1.47.43v-.79a3.36,3.36,0,0,1,1.56-.38,1.84,1.84,0,0,1,2.1,1.87v2.14C462.63,240,462.91,240.25,463.31,240.06Zm-1.5-1.29v-.25c-.79-.53-2.46-.53-2.46.62,0,.55.39.92,1.1.92A1.24,1.24,0,0,0,461.81,238.78Z"/><path class="cls-2" d="M464.86,239.93h1.7v-3.56H465v-.72h2.38v4.28H469v.72h-4.1Zm1.33-5.68a.65.65,0,1,1,.65.65A.65.65,0,0,1,466.19,234.26Z"/><path class="cls-2" d="M470.91,239.93h1.7v-5.46h-1.56v-.72h2.38v6.18H475v.72h-4.1Z"/><path class="cls-2" d="M477.06,240.38v-.82a3.25,3.25,0,0,0,1.77.49c.83,0,1.3-.31,1.3-.78s-.48-.67-1.24-.84c-1.13-.24-1.77-.66-1.77-1.45s.76-1.43,2.1-1.43a4,4,0,0,1,1.39.22v.76a3.36,3.36,0,0,0-1.4-.28c-.83,0-1.29.26-1.29.71s.28.55,1.15.76c1.15.28,1.85.71,1.85,1.53s-.77,1.5-2.08,1.5A4.09,4.09,0,0,1,477.06,240.38Z"/><path class="cls-2" d="M492.5,233.76h.76l-3.64,7.9h-.76Z"/><path class="cls-2" d="M502.12,238.75v-2.38h-1.4v-.72h1.44l.18-1.4h.6v1.4h2.28v.72h-2.28v2.38c0,.87.34,1.26,1.25,1.26a2.1,2.1,0,0,0,1-.24v.77a2.53,2.53,0,0,1-1.06.21A1.77,1.77,0,0,1,502.12,238.75Z"/><path class="cls-2" d="M507.27,239.93h1v-3.56h-1.08v-.72h1.74l.14,1.1a1.69,1.69,0,0,1,1.69-1.2,2.65,2.65,0,0,1,1,.19v.8a2.5,2.5,0,0,0-1-.24c-.65,0-1.16.35-1.63,1.29v2.34h1.6v.72h-3.4Z"/><path class="cls-2" d="M513.26,239.93H515v-3.56H513.4v-.72h2.38v4.28h1.58v.72h-4.1Zm1.33-5.68a.65.65,0,1,1,.65.65A.65.65,0,0,1,514.59,234.26Z"/><path class="cls-2" d="M519.25,235.66h.7l.08.72a1.79,1.79,0,0,1,1.56-.82c1.18,0,2,1,2,2.54s-.89,2.66-2.11,2.66a1.77,1.77,0,0,1-1.41-.68v2.38h-.82Zm3.5,2.44c0-1.09-.44-1.79-1.29-1.79a1.58,1.58,0,0,0-1.39.82v2.24a1.78,1.78,0,0,0,1.32.64C522.26,240,522.75,239.24,522.75,238.1Z"/><path class="cls-2" d="M532.13,240.05l-.08.6h-.7v-6.9h.82v2.62a1.63,1.63,0,0,1,1.51-.82c1.19,0,2,1,2,2.54s-.89,2.66-2.11,2.66A1.86,1.86,0,0,1,532.13,240.05Zm2.72-2c0-1.09-.44-1.79-1.29-1.79a1.58,1.58,0,0,0-1.39.82v2.24a1.78,1.78,0,0,0,1.32.64C534.36,240,534.85,239.24,534.85,238.1Z"/><path class="cls-2" d="M537.52,239.93h1v-3.56h-1.08v-.72h1.74l.14,1.1a1.69,1.69,0,0,1,1.69-1.2,2.65,2.65,0,0,1,1,.19v.8a2.5,2.5,0,0,0-1-.24c-.65,0-1.16.35-1.63,1.29v2.34h1.6v.72h-3.4Z"/><path class="cls-2" d="M545.95,240.05a2.72,2.72,0,0,0,1.55-.46v.83a4.41,4.41,0,0,1-1.68.33,2.33,2.33,0,0,1-2.53-2.6c0-1.67.86-2.6,2.24-2.6s2.2.93,2.2,2.6c0,.11,0,.22,0,.32h-3.56A1.62,1.62,0,0,0,545.95,240.05Zm-1.8-2.25h2.72c-.09-1-.58-1.55-1.34-1.55S544.24,236.82,544.15,237.81Z"/><path class="cls-2" d="M554.06,240.06v.52a1,1,0,0,1-1.48-.57,1.84,1.84,0,0,1-3.3-.85c0-1.67,2.15-2,3.28-1.22v-.35c0-.92-.53-1.3-1.38-1.3a3,3,0,0,0-1.47.43v-.79a3.36,3.36,0,0,1,1.56-.38,1.84,1.84,0,0,1,2.1,1.87v2.14C553.38,240,553.66,240.25,554.06,240.06Zm-1.5-1.29v-.25c-.79-.53-2.46-.53-2.46.62,0,.55.39.92,1.1.92A1.24,1.24,0,0,0,552.56,238.78Z"/><path class="cls-2" d="M559.11,240.65l-1.63-2.4-.89,1v1.42h-.82v-6.9h.82v4.49l2.31-2.59h.95l-1.84,2,2,3Z"/><path class="cls-2" d="M564.1,240.05a2.72,2.72,0,0,0,1.55-.46v.83a4.41,4.41,0,0,1-1.68.33,2.33,2.33,0,0,1-2.53-2.6c0-1.67.86-2.6,2.24-2.6s2.2.93,2.2,2.6c0,.11,0,.22,0,.32H562.3A1.62,1.62,0,0,0,564.1,240.05Zm-1.8-2.25H565c-.09-1-.58-1.55-1.34-1.55S562.39,236.82,562.3,237.81Z"/><path class="cls-2" d="M567.77,239.93h1v-3.56h-1.08v-.72h1.74l.14,1.1a1.69,1.69,0,0,1,1.69-1.2,2.65,2.65,0,0,1,1,.19v.8a2.5,2.5,0,0,0-1-.24c-.65,0-1.16.35-1.63,1.29v2.34h1.6v.72h-3.4Z"/><path class="cls-2" d="M279.23,206.92l1.5-6.77h1.05l-.24,1a3,3,0,0,1,2.52-1.18l-.24,1.08a2.07,2.07,0,0,0-.53-.06,2.64,2.64,0,0,0-2,1.11l-1.05,4.78Z"/><path class="cls-2" d="M284.46,204.1a4,4,0,0,1,3.81-4.1,2.78,2.78,0,0,1,2.91,3,5.21,5.21,0,0,1-.11.94h-5.52c0,.06,0,.22,0,.32a2.06,2.06,0,0,0,2.3,2,3.23,3.23,0,0,0,1.95-.66l.35.73a4,4,0,0,1-2.37.8C285.71,207.09,284.46,205.9,284.46,204.1Zm5.74-1a1.57,1.57,0,0,0,0-.27,1.89,1.89,0,0,0-2.06-2,2.68,2.68,0,0,0-2.51,2.25Z"/><path class="cls-2" d="M292.18,205.9l.67-.73a2.82,2.82,0,0,0,2.24,1.06c1,0,1.55-.57,1.55-1.19,0-1.29-3.56-1.08-3.56-3,0-1.12.91-2.09,2.56-2.09a3.24,3.24,0,0,1,2.58,1.11l-.6.69a2.56,2.56,0,0,0-2-.94c-.91,0-1.46.46-1.46,1,0,1.22,3.56,1,3.56,3a2.37,2.37,0,0,1-2.66,2.23A3.55,3.55,0,0,1,292.18,205.9Z"/><path class="cls-2" d="M299.55,204.1a4,4,0,0,1,3.81-4.1,2.78,2.78,0,0,1,2.91,3,5.21,5.21,0,0,1-.11.94h-5.52c0,.06,0,.22,0,.32a2.06,2.06,0,0,0,2.3,2,3.23,3.23,0,0,0,1.95-.66l.35.73a4,4,0,0,1-2.37.8C300.8,207.09,299.55,205.9,299.55,204.1Zm5.74-1a1.57,1.57,0,0,0,0-.27,1.89,1.89,0,0,0-2.06-2,2.68,2.68,0,0,0-2.51,2.25Z"/><path class="cls-2" d="M308,205.86a2.59,2.59,0,0,1,0-.39l1-4.4h-1.12l.21-.91h1.12l.41-1.85h1.05l-.41,1.85h1.37l-.21.91h-1.37l-.92,4.17a1.76,1.76,0,0,0,0,.28c0,.41.22.63.67.63a1,1,0,0,0,.64-.22l.13.84a1.68,1.68,0,0,1-1,.32C308.61,207.09,308,206.7,308,205.86Z"/><path class="cls-2" d="M313.2,40a2.59,2.59,0,0,1,0-.39l1-4.4H313.1l.21-.91h1.12l.41-1.85h1.05l-.41,1.85h1.37l-.21.91h-1.37l-.92,4.17a1.76,1.76,0,0,0,0,.28c0,.41.22.63.67.63a1,1,0,0,0,.64-.22l.13.84a1.68,1.68,0,0,1-1,.32C313.8,41.24,313.2,40.85,313.2,40Z"/><path class="cls-2" d="M317.18,41.07l1.5-6.77h1.05l-.24,1A3,3,0,0,1,322,34.17l-.24,1.08a2.07,2.07,0,0,0-.53-.06,2.64,2.64,0,0,0-2,1.11l-1.05,4.78Z"/><path class="cls-2" d="M322.15,41.07l1.5-6.77h1.05l-1.5,6.77Zm1.67-8.35a.81.81,0,0,1,.8-.8.64.64,0,0,1,.64.62.81.81,0,0,1-.8.8A.61.61,0,0,1,323.81,32.72Z"/><path class="cls-2" d="M326.94,40l-.81,3.64h-1.05l2.07-9.34h1.05l-.22,1a2.85,2.85,0,0,1,2.24-1.13,2.53,2.53,0,0,1,2.62,2.79c0,2.2-1.37,4.31-3.54,4.31A2.66,2.66,0,0,1,326.94,40Zm4.79-2.89a1.85,1.85,0,0,0-1.89-2,2.66,2.66,0,0,0-2.07,1.16l-.66,3a2.26,2.26,0,0,0,2,1.09C330.69,40.3,331.73,38.75,331.73,37.12Z"/><path class="cls-2" d="M339.26,40,339,41.07H338L340,31.73h1.05l-.79,3.54a2.85,2.85,0,0,1,2.24-1.13,2.53,2.53,0,0,1,2.62,2.79c0,2.2-1.37,4.31-3.54,4.31A2.66,2.66,0,0,1,339.26,40ZM344,37.12a1.85,1.85,0,0,0-1.89-2,2.66,2.66,0,0,0-2.07,1.16l-.66,3a2.26,2.26,0,0,0,2,1.09C343,40.3,344,38.75,344,37.12Z"/><path class="cls-2" d="M346.37,41.07l1.5-6.77h1.05l-.24,1a3,3,0,0,1,2.52-1.18L351,35.25a2.07,2.07,0,0,0-.53-.06,2.64,2.64,0,0,0-2,1.11l-1.05,4.78Z"/><path class="cls-2" d="M351.6,38.24a4,4,0,0,1,3.81-4.1,2.78,2.78,0,0,1,2.91,3,5.21,5.21,0,0,1-.11.94H352.7c0,.06,0,.22,0,.32a2.06,2.06,0,0,0,2.3,2,3.23,3.23,0,0,0,1.95-.66l.35.73a4,4,0,0,1-2.37.8C352.85,41.24,351.6,40.05,351.6,38.24Zm5.74-1a1.57,1.57,0,0,0,0-.27,1.89,1.89,0,0,0-2.06-2,2.68,2.68,0,0,0-2.51,2.25Z"/><path class="cls-2" d="M365.73,35.37l.24-1.06H367l-1.5,6.77h-1l.21-1a2.81,2.81,0,0,1-2.23,1.13,2.52,2.52,0,0,1-2.62-2.79c0-2.2,1.36-4.31,3.54-4.31A2.68,2.68,0,0,1,365.73,35.37Zm-4.79,2.89a1.85,1.85,0,0,0,1.89,2,2.62,2.62,0,0,0,2.06-1.15l.67-3a2.29,2.29,0,0,0-2-1.09C362,35.08,360.94,36.63,360.94,38.26Z"/><path class="cls-2" d="M372.65,41.07,370.85,38l-1.42,1.15L369,41.07H368L370,31.73h1.05l-1.34,6.12L374,34.31h1.39l-3.68,3.07,2.2,3.7Z"/><path class="cls-2" d="M375.74,38.24a4,4,0,0,1,3.81-4.1,2.78,2.78,0,0,1,2.91,3,5.21,5.21,0,0,1-.11.94h-5.52c0,.06,0,.22,0,.32a2.06,2.06,0,0,0,2.3,2,3.23,3.23,0,0,0,1.95-.66l.35.73a4,4,0,0,1-2.37.8C377,41.24,375.74,40.05,375.74,38.24Zm5.74-1a1.57,1.57,0,0,0,0-.27,1.89,1.89,0,0,0-2.06-2,2.68,2.68,0,0,0-2.51,2.25Z"/><path class="cls-2" d="M383.7,41.07l1.5-6.77h1.05l-.24,1a3,3,0,0,1,2.52-1.18l-.24,1.08a2.07,2.07,0,0,0-.53-.06,2.64,2.64,0,0,0-2,1.11l-1.05,4.78Z"/><path class="cls-2" d="M446.32,128.46a2.59,2.59,0,0,1,0-.39l1-4.4h-1.12l.21-.91h1.12l.41-1.85H449l-.41,1.85H450l-.21.91h-1.37l-.92,4.17a1.76,1.76,0,0,0,0,.28c0,.41.22.63.67.63a1,1,0,0,0,.64-.22l.13.84a1.68,1.68,0,0,1-1,.32C446.92,129.69,446.32,129.3,446.32,128.46Z"/><path class="cls-2" d="M450.3,129.53l1.5-6.77h1.05l-.24,1a3,3,0,0,1,2.52-1.18l-.24,1.08a2.07,2.07,0,0,0-.53-.06,2.64,2.64,0,0,0-2,1.11l-1.05,4.78Z"/><path class="cls-2" d="M455.27,129.53l1.5-6.77h1.05l-1.5,6.77Zm1.67-8.35a.81.81,0,0,1,.8-.8.64.64,0,0,1,.64.62.81.81,0,0,1-.8.8A.61.61,0,0,1,456.93,121.18Z"/><path class="cls-2" d="M460.06,128.46l-.81,3.64h-1.05l2.07-9.34h1.05l-.22,1a2.85,2.85,0,0,1,2.24-1.13,2.53,2.53,0,0,1,2.62,2.79c0,2.2-1.37,4.31-3.54,4.31A2.66,2.66,0,0,1,460.06,128.46Zm4.79-2.89a1.85,1.85,0,0,0-1.89-2,2.66,2.66,0,0,0-2.07,1.16l-.66,3a2.26,2.26,0,0,0,2,1.09C463.81,128.76,464.85,127.2,464.85,125.58Z"/><path class="cls-2" d="M417.71,144.46l-.24,1.06h-1.05l2.06-9.34h1.05l-.79,3.54a2.85,2.85,0,0,1,2.24-1.13,2.53,2.53,0,0,1,2.62,2.79c0,2.2-1.37,4.31-3.54,4.31A2.66,2.66,0,0,1,417.71,144.46Zm4.79-2.89a1.85,1.85,0,0,0-1.89-2,2.66,2.66,0,0,0-2.07,1.16l-.66,3a2.26,2.26,0,0,0,2,1.09C421.46,144.76,422.5,143.2,422.5,141.58Z"/><path class="cls-2" d="M424.82,145.53l1.5-6.77h1.05l-.24,1a3,3,0,0,1,2.52-1.18l-.24,1.08a2.07,2.07,0,0,0-.53-.06,2.64,2.64,0,0,0-2,1.11l-1.05,4.78Z"/><path class="cls-2" d="M430.05,142.7a4,4,0,0,1,3.81-4.1,2.78,2.78,0,0,1,2.91,3,5.21,5.21,0,0,1-.11.94h-5.52c0,.06,0,.22,0,.32a2.06,2.06,0,0,0,2.3,2,3.23,3.23,0,0,0,1.95-.66l.35.73a4,4,0,0,1-2.37.8C431.3,145.69,430.05,144.5,430.05,142.7Zm5.74-1a1.57,1.57,0,0,0,0-.27,1.89,1.89,0,0,0-2.06-2,2.68,2.68,0,0,0-2.51,2.25Z"/><path class="cls-2" d="M444.18,139.82l.24-1.06h1.05l-1.5,6.77h-1l.21-1a2.81,2.81,0,0,1-2.23,1.13,2.52,2.52,0,0,1-2.62-2.79c0-2.2,1.36-4.31,3.54-4.31A2.68,2.68,0,0,1,444.18,139.82Zm-4.79,2.89a1.85,1.85,0,0,0,1.89,2,2.62,2.62,0,0,0,2.06-1.15l.67-3a2.29,2.29,0,0,0-2-1.09C440.43,139.53,439.39,141.09,439.39,142.71Z"/><path class="cls-2" d="M451.1,145.53l-1.79-3.08-1.42,1.15-.42,1.93h-1.05l2.06-9.34h1.05l-1.34,6.12,4.29-3.54h1.39l-3.68,3.07,2.2,3.7Z"/><path class="cls-2" d="M454.19,142.7a4,4,0,0,1,3.81-4.1,2.78,2.78,0,0,1,2.91,3,5.21,5.21,0,0,1-.11.94h-5.52c0,.06,0,.22,0,.32a2.06,2.06,0,0,0,2.3,2,3.23,3.23,0,0,0,1.95-.66l.35.73a4,4,0,0,1-2.37.8C455.44,145.69,454.19,144.5,454.19,142.7Zm5.74-1a1.57,1.57,0,0,0,0-.27,1.89,1.89,0,0,0-2.06-2,2.68,2.68,0,0,0-2.51,2.25Z"/><path class="cls-2" d="M462.15,145.53l1.5-6.77h1.05l-.24,1a3,3,0,0,1,2.52-1.18l-.24,1.08a2.07,2.07,0,0,0-.53-.06,2.64,2.64,0,0,0-2,1.11l-1.05,4.78Z"/><path class="cls-2" d="M539.78,123.82l.24-1.06h1.05l-1.5,6.77h-1l.21-1a2.81,2.81,0,0,1-2.23,1.13,2.52,2.52,0,0,1-2.62-2.79c0-2.2,1.36-4.31,3.54-4.31A2.68,2.68,0,0,1,539.78,123.82ZM535,126.71a1.85,1.85,0,0,0,1.89,2,2.62,2.62,0,0,0,2.06-1.15l.67-3a2.29,2.29,0,0,0-2-1.09C536,123.53,535,125.09,535,126.71Z"/><path class="cls-2" d="M542.51,128.46a2.59,2.59,0,0,1,0-.39l1-4.4h-1.12l.21-.91h1.12l.41-1.85h1.05l-.41,1.85h1.37l-.21.91h-1.37l-.92,4.17a1.76,1.76,0,0,0,0,.28c0,.41.22.63.67.63a1,1,0,0,0,.64-.22l.13.84a1.68,1.68,0,0,1-1,.32C543.11,129.69,542.51,129.3,542.51,128.46Z"/><path class="cls-2" d="M547,128.46a2.59,2.59,0,0,1,0-.39l1-4.4h-1.12l.21-.91h1.12l.41-1.85h1.05l-.41,1.85h1.37l-.21.91H549l-.92,4.17a1.76,1.76,0,0,0,0,.28c0,.41.22.63.67.63a1,1,0,0,0,.64-.22l.13.84a1.68,1.68,0,0,1-1,.32C547.58,129.69,547,129.3,547,128.46Z"/><path class="cls-2" d="M551.22,126.7a4,4,0,0,1,3.81-4.1,2.78,2.78,0,0,1,2.91,3,5.21,5.21,0,0,1-.11.94h-5.52c0,.06,0,.22,0,.32a2.06,2.06,0,0,0,2.3,2,3.23,3.23,0,0,0,1.95-.66l.35.73a4,4,0,0,1-2.37.8C552.46,129.69,551.22,128.5,551.22,126.7Zm5.74-1a1.57,1.57,0,0,0,0-.27,1.89,1.89,0,0,0-2.06-2,2.68,2.68,0,0,0-2.51,2.25Z"/><path class="cls-2" d="M567.35,129.53l1-4.54a2,2,0,0,0,.06-.41,1.06,1.06,0,0,0-1.15-1.05,2.74,2.74,0,0,0-1.85,1.06l-1.09,4.93h-1.05l1-4.54a2.6,2.6,0,0,0,.06-.49c0-.53-.41-1-1.18-1a2.77,2.77,0,0,0-1.82,1.06l-1.09,4.93h-1.05l1.5-6.77h1.05l-.22,1a3,3,0,0,1,2.13-1.15,1.6,1.6,0,0,1,1.74,1.26v0a3.16,3.16,0,0,1,2.35-1.29,1.66,1.66,0,0,1,1.78,1.68,4,4,0,0,1-.07.56l-1,4.69Z"/><path class="cls-2" d="M572.13,128.46l-.81,3.64h-1.05l2.07-9.34h1.05l-.22,1a2.85,2.85,0,0,1,2.24-1.13,2.53,2.53,0,0,1,2.62,2.79c0,2.2-1.37,4.31-3.54,4.31A2.66,2.66,0,0,1,572.13,128.46Zm4.79-2.89a1.85,1.85,0,0,0-1.89-2,2.66,2.66,0,0,0-2.07,1.16l-.66,3a2.26,2.26,0,0,0,2,1.09C575.89,128.76,576.92,127.2,576.92,125.58Z"/><path class="cls-2" d="M579.69,128.46a2.59,2.59,0,0,1,0-.39l1-4.4H579.6l.21-.91h1.12l.41-1.85h1.05l-.41,1.85h1.37l-.21.91h-1.37l-.92,4.17a1.76,1.76,0,0,0,0,.28c0,.41.22.63.67.63a1,1,0,0,0,.64-.22l.13.84a1.68,1.68,0,0,1-1,.32C580.3,129.69,579.69,129.3,579.69,128.46Z"/><path class="cls-2" d="M533.62,145.53l1.5-6.77h1.05l-.24,1a3,3,0,0,1,2.52-1.18l-.24,1.08a2.07,2.07,0,0,0-.53-.06,2.64,2.64,0,0,0-2,1.11l-1.05,4.78Z"/><path class="cls-2" d="M538.86,142.7a4,4,0,0,1,3.81-4.1,2.78,2.78,0,0,1,2.91,3,5.21,5.21,0,0,1-.11.94h-5.52c0,.06,0,.22,0,.32a2.06,2.06,0,0,0,2.3,2,3.23,3.23,0,0,0,1.95-.66l.35.73a4,4,0,0,1-2.37.8C540.1,145.69,538.86,144.5,538.86,142.7Zm5.74-1a1.57,1.57,0,0,0,0-.27,1.89,1.89,0,0,0-2.06-2,2.68,2.68,0,0,0-2.51,2.25Z"/><path class="cls-2" d="M546.57,144.5l.67-.73a2.82,2.82,0,0,0,2.24,1.06c1,0,1.55-.57,1.55-1.19,0-1.29-3.56-1.08-3.56-3,0-1.12.91-2.09,2.56-2.09a3.24,3.24,0,0,1,2.58,1.11l-.6.69a2.56,2.56,0,0,0-2-.94c-.91,0-1.46.46-1.46,1,0,1.22,3.56,1,3.56,3a2.37,2.37,0,0,1-2.66,2.23A3.55,3.55,0,0,1,546.57,144.5Z"/><path class="cls-2" d="M553.95,142.7a4,4,0,0,1,3.81-4.1,2.78,2.78,0,0,1,2.91,3,5.21,5.21,0,0,1-.11.94H555c0,.06,0,.22,0,.32a2.06,2.06,0,0,0,2.3,2,3.23,3.23,0,0,0,1.95-.66l.35.73a4,4,0,0,1-2.37.8C555.19,145.69,553.95,144.5,553.95,142.7Zm5.74-1a1.57,1.57,0,0,0,0-.27,1.89,1.89,0,0,0-2.06-2,2.68,2.68,0,0,0-2.51,2.25Z"/><path class="cls-2" d="M562.4,144.46a2.59,2.59,0,0,1,0-.39l1-4.4h-1.12l.21-.91h1.12l.41-1.85h1.05l-.41,1.85h1.37l-.21.91h-1.37l-.92,4.17a1.76,1.76,0,0,0,0,.28c0,.41.22.63.67.63a1,1,0,0,0,.64-.22l.13.84a1.68,1.68,0,0,1-1,.32C563,145.69,562.4,145.3,562.4,144.46Z"/><path class="cls-3" d="M399.4,215.35h-202a8,8,0,0,1-8-8V116.52"/><polygon class="cls-2" points="194.39 117.98 189.4 109.35 184.41 117.98 194.39 117.98"/></g></g></svg>