<svg xmlns="http://www.w3.org/2000/svg" viewBox="0 0 431.75 331.92"><defs><style>.cls-1{fill:#c2ccd5;}.cls-2{fill:#bdbec0;}.cls-3{fill:#4776bb;}.cls-4{fill:#4776ba;}.cls-5{fill:#e5eaf1;}</style></defs><title>Steeltoe-Diagram1</title><g id="Layer_2" data-name="Layer 2"><g id="Layer_1-2" data-name="Layer 1"><path class="cls-1" d="M309.72,289.11l-112.58-65a6.06,6.06,0,0,0-5.51,0l-67,39c-1.52.88-1.51,2.31,0,3.19l112.58,65a6.06,6.06,0,0,0,5.51,0l67-39c1.52-.88,1.51-2.31,0-3.19"/><path class="cls-1" d="M226.44,101,113.86,36a6.08,6.08,0,0,0-5.51,0l-67,39c-1.52.88-1.5,2.31,0,3.19l112.58,65a6.06,6.06,0,0,0,5.5,0l67-39c1.52-.88,1.51-2.31,0-3.19"/><path class="cls-1" d="M430.6,218.86,318,153.86a6.06,6.06,0,0,0-5.51,0l-67,39c-1.52.88-1.51,2.3,0,3.19l112.58,65a6.06,6.06,0,0,0,5.5,0l67-39c1.52-.88,1.51-2.31,0-3.19"/><path class="cls-2" d="M271.08,167.76l-.33-.05.21.12.12-.07m-6.63-4.5-67.24-38.82-.7.41,67.24,38.82.7-.41m7.21,4.17-.22-.13.1.2.13-.07"/><polyline class="cls-3" points="268.46 160.92 264.45 163.25 263.74 163.66 259.73 166 270.75 167.71 271.08 167.76 271.7 167.85 271.53 167.49 271.44 167.29 268.46 160.92"/><path class="cls-2" d="M66.77,49.8l-.33-.05.21.12.12-.07m-6.63-4.5L37,31.92l-.7.41L59.43,45.71l.7-.41m7.21,4.17-.22-.13.1.2.13-.07"/><polyline class="cls-3" points="64.15 42.97 60.14 45.3 59.44 45.7 55.42 48.04 66.44 49.75 66.77 49.8 67.39 49.9 67.22 49.54 67.13 49.33 64.15 42.97"/><path class="cls-3" d="M222.58,120.91l-.86-.5-1.49.87-.91-.53-.74.43.91.53-3.56,2.07c-.81.47-.87,1,0,1.45a2.73,2.73,0,0,0,1.36.38l.39-.52a1.7,1.7,0,0,1-.82-.2c-.36-.21-.25-.48.16-.72l3.39-2,1.11.64.74-.43-1.11-.64,1.49-.87"/><path class="cls-3" d="M226.19,124.57a5.16,5.16,0,0,0-2.82-.48l.87-.51-.85-.49-5.45,3.17.85.49,3.86-2.24a4.41,4.41,0,0,1,2.37.36l.31.2.87-.51"/><path class="cls-3" d="M228,125.76l-.86-.49-5.45,3.17.86.49,5.45-3.17m1.49-1.36a1.27,1.27,0,0,0-1.15,0c-.32.18-.3.48,0,.66a1.23,1.23,0,0,0,1.13,0c.32-.18.32-.48,0-.66"/><path class="cls-3" d="M227.35,131a1.27,1.27,0,0,1-.75-1.46l2.45-1.43a4.37,4.37,0,0,1,2.5.44c1.1.63.87,1.53-.34,2.24a4,4,0,0,1-3.87.21m5.18-2.76a4.91,4.91,0,0,0-2.8-.52l.81-.47-.86-.49-7.52,4.37.86.49,2.9-1.68a1.47,1.47,0,0,0,.89,1.63,5.44,5.44,0,0,0,5.3-.25c1.78-1,1.86-2.23.42-3.07"/><path class="cls-3" d="M236.79,136.43c-.68-.39-1-1-.79-1.45l2.47-1.44A4.43,4.43,0,0,1,241,134c1.1.63.86,1.54-.34,2.24a4,4,0,0,1-3.86.2m5.25-5-.85-.49-7.52,4.37.85.49.81-.47a1.48,1.48,0,0,0,.91,1.62,5.42,5.42,0,0,0,5.29-.25c1.74-1,1.86-2.24.42-3.07a4.87,4.87,0,0,0-2.81-.51l2.9-1.68"/><path class="cls-3" d="M248.46,137.43a5.16,5.16,0,0,0-2.83-.48l.87-.51-.85-.49-5.45,3.17.85.49,3.86-2.24a4.41,4.41,0,0,1,2.37.36l.31.2.87-.51"/><path class="cls-3" d="M247.6,139.82a4,4,0,0,1,3.6,0c1.25.72.79,1.62,0,2.09l-3.6-2.08m4.31-.41a6,6,0,0,0-5.56.1c-1.7,1-1.69,2.34-.06,3.28a6.09,6.09,0,0,0,3,.77l.14-.56a4.86,4.86,0,0,1-2.4-.58c-1.18-.68-1-1.59-.08-2.23l4.43,2.56.22-.13c1.64-1,1.94-2.26.28-3.22"/><path class="cls-3" d="M252.74,145.81c-.81-.47-.87-1.08-.17-1.48a2.67,2.67,0,0,1,2.55.1c.59.34.94.81.83,1.25l-1,.6a3.77,3.77,0,0,1-2.17-.47m5.33-2.84a5.84,5.84,0,0,0-3.09-.74l-.19.57a4.47,4.47,0,0,1,2.43.53c.8.46,1,1,.24,1.46l-1,.57c.06-.55-.33-1-1.08-1.47a3.86,3.86,0,0,0-3.7-.06c-1.18.69-.81,1.62.11,2.15a4.82,4.82,0,0,0,2.57.61l-.62.36.86.49,3.75-2.18c1.32-.77.88-1.62-.29-2.29"/><polyline class="cls-3" points="264.7 144.55 263.85 144.06 256.33 148.43 257.18 148.92 258.74 148.01 260.54 148.03 260.06 150.59 261.15 151.22 261.7 148.08 266.59 148.04 265.51 147.42 259.73 147.44 264.7 144.55"/><path class="cls-3" d="M265.79,150.32a4,4,0,0,1,3.6,0c1.25.72.79,1.62,0,2.09l-3.6-2.08m4.31-.41a6,6,0,0,0-5.56.1c-1.7,1-1.69,2.34-.06,3.28a6.09,6.09,0,0,0,3,.77l.14-.56a4.86,4.86,0,0,1-2.4-.58c-1.18-.68-1-1.59-.08-2.23l4.43,2.56.22-.13c1.64-1,1.94-2.26.28-3.22"/><path class="cls-3" d="M276.77,153.78a5.14,5.14,0,0,0-2.82-.48l.87-.51-.86-.49-5.45,3.17.86.49,3.86-2.24a4.41,4.41,0,0,1,2.36.36l.31.2.87-.51"/><path class="cls-3" d="M244.93,210.16l-.87-.5-1.49.87-.91-.52-.74.43.91.52L238.27,213c-.81.47-.87,1,0,1.45a2.74,2.74,0,0,0,1.36.38l.39-.52a1.7,1.7,0,0,1-.82-.2c-.36-.21-.25-.48.16-.72l3.39-2,1.11.64.74-.43-1.11-.64,1.49-.87"/><path class="cls-3" d="M248.55,213.83a5.14,5.14,0,0,0-2.82-.48l.87-.51-.86-.49-5.45,3.17.86.49,3.86-2.24a4.41,4.41,0,0,1,2.36.36l.31.2.87-.51"/><path class="cls-3" d="M250.34,215l-.85-.49L244,217.68l.85.49,5.45-3.17m1.51-1.36a1.28,1.28,0,0,0-1.16,0c-.32.18-.3.48,0,.66a1.24,1.24,0,0,0,1.13,0c.32-.18.32-.48,0-.66"/><path class="cls-3" d="M249.7,220.23a1.28,1.28,0,0,1-.75-1.46l2.45-1.43a4.41,4.41,0,0,1,2.5.44c1.1.64.87,1.53-.33,2.23a4,4,0,0,1-3.87.21m5.18-2.76a5,5,0,0,0-2.8-.52l.81-.47L252,216l-7.52,4.37.85.49,2.9-1.68a1.48,1.48,0,0,0,.89,1.63,5.45,5.45,0,0,0,5.31-.25c1.77-1,1.85-2.24.41-3.07"/><path class="cls-3" d="M204.09,209.57c-.68-.39-1-1-.79-1.45l2.47-1.43a4.41,4.41,0,0,1,2.53.44c1.1.63.86,1.54-.36,2.24a4,4,0,0,1-3.85.2m5.25-5-.85-.49L201,208.49l.85.49.81-.47a1.48,1.48,0,0,0,.9,1.62,5.43,5.43,0,0,0,5.29-.25c1.75-1,1.87-2.24.43-3.07a4.91,4.91,0,0,0-2.81-.51l2.9-1.68"/><path class="cls-3" d="M215.74,210.57a5.12,5.12,0,0,0-2.82-.48l.87-.51-.85-.49-5.45,3.17.85.49,3.86-2.24a4.45,4.45,0,0,1,2.37.36,3.2,3.2,0,0,1,.31.21l.87-.51"/><path class="cls-3" d="M214.89,213a4,4,0,0,1,3.6,0c1.25.72.79,1.62,0,2.09l-3.6-2.08m4.31-.41a6,6,0,0,0-5.56.1c-1.7,1-1.7,2.34-.06,3.28a6.11,6.11,0,0,0,3,.76l.14-.56a4.86,4.86,0,0,1-2.4-.58c-1.17-.68-1-1.59-.08-2.23l4.42,2.55.22-.13c1.63-.95,1.95-2.26.29-3.21"/><path class="cls-3" d="M220,218.95c-.81-.47-.87-1.08-.17-1.48a2.67,2.67,0,0,1,2.55.1c.59.34.94.81.83,1.25l-1,.6a3.77,3.77,0,0,1-2.17-.47m5.33-2.84a5.84,5.84,0,0,0-3.09-.74l-.19.57a4.45,4.45,0,0,1,2.44.53c.8.46,1,1,.24,1.46l-1,.57c.05-.54-.33-1-1.08-1.47A3.86,3.86,0,0,0,219,217c-1.19.69-.82,1.62.1,2.15a4.79,4.79,0,0,0,2.57.6l-.62.36.86.49,3.74-2.17c1.32-.77.88-1.62-.29-2.3"/><polyline class="cls-3" points="231.99 217.69 231.14 217.19 223.62 221.57 224.47 222.06 226.02 221.15 227.84 221.16 227.36 223.72 228.45 224.35 228.98 221.21 233.88 221.18 232.81 220.56 227.02 220.57 231.99 217.69"/><path class="cls-3" d="M233.08,223.46a4,4,0,0,1,3.6,0c1.25.72.79,1.62,0,2.09l-3.6-2.08m4.31-.41a6,6,0,0,0-5.56.1c-1.7,1-1.7,2.34-.06,3.28a6.11,6.11,0,0,0,3,.76l.14-.56a4.86,4.86,0,0,1-2.4-.58c-1.17-.68-1-1.59-.08-2.23l4.42,2.55.22-.13c1.63-.95,1.95-2.26.29-3.21"/><path class="cls-3" d="M244.06,226.91a5.12,5.12,0,0,0-2.82-.48l.87-.51-.86-.49-5.45,3.17.86.49,3.86-2.24a4.45,4.45,0,0,1,2.36.36,3,3,0,0,1,.31.21l.87-.51"/><path class="cls-3" d="M313.31,257.12c-.81-.47-.87-1.08-.17-1.48a2.67,2.67,0,0,1,2.55.1c.59.34.95.8.83,1.25l-1,.6a3.75,3.75,0,0,1-2.17-.47m5.34-2.84a5.88,5.88,0,0,0-3.1-.74l-.19.57a4.47,4.47,0,0,1,2.43.53c.8.46,1,1,.24,1.46l-1,.57c.05-.54-.34-1-1.08-1.47a3.86,3.86,0,0,0-3.7-.06c-1.18.69-.81,1.62.11,2.15a4.8,4.8,0,0,0,2.57.61l-.62.36.86.49,3.75-2.18c1.32-.77.88-1.62-.29-2.3"/><path class="cls-3" d="M324.87,256.31l-.86-.5-1.49.87-.91-.53-.74.43.91.53-3.56,2.07c-.81.47-.87,1,0,1.45a2.73,2.73,0,0,0,1.36.38l.39-.52a1.7,1.7,0,0,1-.82-.2c-.36-.21-.25-.48.16-.72l3.39-2,1.11.64.74-.43-1.11-.64,1.49-.87"/><path class="cls-3" d="M328.21,258.24l-.87-.5-1.49.87-.91-.52-.74.43.91.52-3.56,2.07c-.81.47-.87,1,0,1.45a2.73,2.73,0,0,0,1.36.38l.39-.52a1.7,1.7,0,0,1-.82-.2c-.36-.21-.25-.48.16-.72l3.39-2,1.11.64.74-.43-1.11-.64,1.49-.87"/><path class="cls-3" d="M327.23,262.14a4,4,0,0,1,3.6,0c1.25.72.79,1.62,0,2.09l-3.6-2.08m4.31-.41a6,6,0,0,0-5.56.1c-1.71,1-1.7,2.34-.06,3.28a6.09,6.09,0,0,0,3,.77l.14-.56a4.86,4.86,0,0,1-2.4-.58c-1.17-.68-1-1.59-.08-2.23l4.42,2.55.22-.13c1.64-1,1.95-2.26.29-3.22"/><path class="cls-3" d="M341.48,267.47a5,5,0,0,0-2.86-.47c.4-.42.39-1-.44-1.44a5.22,5.22,0,0,0-2.71-.49l.79-.46-.86-.49L330,267.29l.86.49,4-2.31a4.22,4.22,0,0,1,2.28.34c.73.42.58.84-.11,1.24l-3.7,2.15.85.49,4-2.32a4.18,4.18,0,0,1,2.29.36c.72.41.57.84-.11,1.23l-3.7,2.15.85.49,3.94-2.29c1.09-.63,1.12-1.26.12-1.84"/><path class="cls-3" d="M342.24,273.66a1.27,1.27,0,0,1-.75-1.46l2.45-1.43a4.37,4.37,0,0,1,2.5.44c1.1.64.87,1.53-.33,2.23a4,4,0,0,1-3.87.21m5.18-2.76a4.93,4.93,0,0,0-2.8-.52l.81-.47-.85-.49-7.52,4.37.85.49,2.9-1.68a1.47,1.47,0,0,0,.89,1.63A5.44,5.44,0,0,0,347,274c1.77-1,1.86-2.23.42-3.07"/><path class="cls-3" d="M353.59,272.89l-.86-.5-1.49.87-.91-.52-.74.43.91.52-3.56,2.07c-.81.47-.87,1,0,1.45a2.74,2.74,0,0,0,1.36.38l.39-.52a1.7,1.7,0,0,1-.82-.2c-.36-.21-.26-.49.15-.72l3.39-2,1.12.65.74-.43-1.12-.65,1.49-.87"/><path class="cls-3" d="M305.62,262.46a5.12,5.12,0,0,0-2.82-.48l.87-.51-.86-.49-5.45,3.17.86.49,3.86-2.24a4.45,4.45,0,0,1,2.37.36,3,3,0,0,1,.3.2l.87-.51"/><path class="cls-3" d="M304.78,264.86a4,4,0,0,1,3.6,0c1.24.72.79,1.62,0,2.09l-3.59-2.08m4.31-.41a6,6,0,0,0-5.56.1c-1.7,1-1.7,2.34-.06,3.29a6.13,6.13,0,0,0,3,.76l.14-.56a4.86,4.86,0,0,1-2.4-.58c-1.18-.68-1-1.59-.08-2.23l4.42,2.55.22-.13c1.63-.95,1.94-2.26.29-3.21"/><path class="cls-3" d="M314.81,267.75a3.76,3.76,0,0,0-3.6-.27c-2,1.17,2.19,2.66.87,3.43a2.31,2.31,0,0,1-2.25-.21,1.69,1.69,0,0,1-1-1.49l-1,.1c0,.66.44,1.25,1.35,1.78a3.91,3.91,0,0,0,3.79.28c2.12-1.23-2.05-2.74-.87-3.43a2.22,2.22,0,0,1,2.08.21c.71.41,1,.93.94,1.35l1-.11c0-.5-.31-1.09-1.24-1.63"/><path class="cls-3" d="M316.44,271.59a4,4,0,0,1,3.6,0c1.25.72.79,1.62,0,2.09l-3.6-2.08m4.31-.41a6,6,0,0,0-5.56.1c-1.7,1-1.7,2.34-.06,3.28a6.11,6.11,0,0,0,3,.76l.14-.56a4.86,4.86,0,0,1-2.4-.58c-1.18-.68-1-1.59-.08-2.23l4.43,2.56.22-.13c1.63-.95,1.94-2.26.28-3.22"/><path class="cls-3" d="M327.15,273.3l-.86-.5-1.49.87-.91-.52-.75.43.91.52-3.56,2.07c-.81.47-.87,1,0,1.45a2.71,2.71,0,0,0,1.36.38l.39-.52a1.59,1.59,0,0,1-.81-.2c-.36-.21-.26-.49.15-.72l3.38-2,1.11.64.75-.43-1.11-.64,1.49-.87"/><path class="cls-3" d="M92.36,189.79a5.14,5.14,0,0,0-2.82-.48l.87-.51-.86-.49-5.45,3.17L85,192l3.86-2.24a4.41,4.41,0,0,1,2.37.36l.31.2.87-.51"/><path class="cls-3" d="M91.52,192.19a4,4,0,0,1,3.6,0c1.25.72.79,1.62,0,2.09l-3.6-2.08m4.31-.41a6,6,0,0,0-5.56.1c-1.71,1-1.7,2.34-.06,3.29a6.11,6.11,0,0,0,3,.77l.14-.56a4.86,4.86,0,0,1-2.4-.58c-1.18-.68-1-1.59-.08-2.23l4.42,2.55.22-.13c1.64-1,1.95-2.26.29-3.22"/><path class="cls-3" d="M101.55,195.08a3.77,3.77,0,0,0-3.61-.26c-2,1.17,2.19,2.66.87,3.43a2.32,2.32,0,0,1-2.25-.21,1.7,1.7,0,0,1-1-1.49l-1,.1c0,.66.45,1.25,1.36,1.78a3.9,3.9,0,0,0,3.79.28c2.12-1.23-2.06-2.74-.87-3.43a2.22,2.22,0,0,1,2.08.21c.72.41,1,.92.95,1.34l1-.11c0-.51-.3-1.09-1.24-1.63"/><path class="cls-3" d="M103.18,198.92a4,4,0,0,1,3.6,0c1.25.72.79,1.62,0,2.09l-3.6-2.08m4.31-.41a6,6,0,0,0-5.56.1c-1.71,1-1.7,2.34-.06,3.28a6.14,6.14,0,0,0,3,.77l.14-.56a4.91,4.91,0,0,1-2.4-.58c-1.18-.68-1-1.59-.08-2.23l4.43,2.56.22-.13c1.64-1,1.95-2.26.29-3.22"/><path class="cls-3" d="M113.88,200.63l-.86-.5-1.49.87-.91-.52-.74.43.91.52-3.56,2.07c-.81.47-.87,1,0,1.45a2.74,2.74,0,0,0,1.36.38l.39-.52a1.65,1.65,0,0,1-.81-.2c-.36-.21-.26-.49.15-.72l3.39-2,1.12.65.74-.43-1.12-.65,1.49-.87"/><path class="cls-2" d="M87.19,117l-.71-.41L20.4,155c-4.09,2.37-4.06,6.23.05,8.61l134.78,77.82.7-.41L21.16,163.16c-3.72-2.15-3.74-5.64-.05-7.79L87.19,117"/><polyline class="cls-3" points="94.4 112.37 82.45 114.23 86.49 116.56 87.19 116.97 91.24 119.3 94.4 112.37"/><polyline class="cls-2" points="271.64 223.46 270.93 223.05 237.97 242.21 238.68 242.62 271.64 223.46"/><polyline class="cls-3" points="278.85 218.86 266.89 220.72 270.93 223.05 271.64 223.46 275.68 225.79 278.85 218.86"/><polyline class="cls-2" points="316.8 240.78 316.09 240.37 283.13 259.52 283.84 259.93 316.8 240.78"/><polyline class="cls-3" points="287.88 262.27 283.84 259.93 283.13 259.52 279.08 257.19 275.92 264.12 287.88 262.27"/><circle class="cls-4" cx="20.27" cy="20.27" r="13.37"/><path class="cls-2" d="M20.27,40.54A20.27,20.27,0,1,1,40.54,20.27,20.29,20.29,0,0,1,20.27,40.54ZM20.27,1A19.27,19.27,0,1,0,39.54,20.27,19.29,19.29,0,0,0,20.27,1Z"/><path class="cls-5" d="M195.29,258.28a3.44,3.44,0,0,0-3.25-.17c-.89.52-.71,1.3.3,1.88a5.08,5.08,0,0,0,2.81.64l1.25-.73c.13-.57-.35-1.18-1.12-1.62m40.29,20a5.74,5.74,0,0,0-3.19-.59l-3.24,1.88a1.69,1.69,0,0,0,1,1.87,5.26,5.26,0,0,0,5.06-.24c1.59-.92,1.78-2.1.37-2.92m9.74,5.49a5,5,0,0,0-4.45-.08l4.63,2.67c.91-.59,1.44-1.66-.18-2.6m-18.39-13.85a8.16,8.16,0,0,0-7.85.2c-2.32,1.35-2.6,3.21-.31,4.54a8.19,8.19,0,0,0,7.83-.2c2.33-1.36,2.6-3.23.32-4.54m-17.5-2.72,1.52-.88,4.09,2.36-1.52.88-4.09-2.36m-14.69-11.36.48-1.15A9.66,9.66,0,0,1,200,255.9c1.84,1.06,2.67,2.43.49,3.69l-5.43,3.16-1.78-1,.9-.52a7.1,7.1,0,0,1-3.78-.9c-1.33-.77-1.93-2.17-.14-3.22a5.71,5.71,0,0,1,5.52.09c1.12.65,1.71,1.4,1.63,2.15l1.22-.71c.95-.55.72-1.35-.41-2a6.75,6.75,0,0,0-3.48-.8m39,21.08a7,7,0,0,1,4,.76c2.13,1.23,2.06,3-.63,4.59a8.14,8.14,0,0,1-7.95.39,2.13,2.13,0,0,1-1.3-2.3l-4.25,2.47-1.79-1,11.28-6.56,1.79,1-1.12.65M238.36,288c-2.48-1.43-2.6-3.48,0-5a9.07,9.07,0,0,1,8.45-.07c2.46,1.42,2.18,3.41-.39,4.9l-.44.26-6.33-3.66c-1.08.79-1.19,1.91.36,2.81a6.94,6.94,0,0,0,3.26.83l-.35,1.15a9.64,9.64,0,0,1-4.54-1.23m14.73.08a8.23,8.23,0,0,1,4.21.93c1.77,1,1.71,2.08,0,3.06l-5.75,3.34-1.79-1,5.11-3c1.28-.74,1-1.36,0-1.94a6.06,6.06,0,0,0-3.19-.59L246,292.16l-1.79-1,8.17-4.75,1.79,1-1.1.64M184.67,249l5.91,3.41,4.6-2.67,2,1.15-11.28,6.56-2-1.15,4.94-2.87L182.92,250,178,252.88l-2-1.15,11.28-6.56,2,1.15-4.6,2.67m12.72,15.09,11.28-6.56,1.79,1-11.28,6.56-1.79-1m9.82-2,1.54-.89,1.36.79.46-.27a5.45,5.45,0,0,1,5.41-.15c.75.43,1.3,1,1.27,1.56l-1.8.24a1,1,0,0,0-.58-.75,2.43,2.43,0,0,0-2.51.14l-.46.27,1.67,1-1.54.89-1.67-1-6.63,3.86-1.79-1,6.63-3.86-1.36-.79M217,275.65c-3.41-2-3.34-4.79,0-6.75a12.25,12.25,0,0,1,11.65,0c3.38,2,3.34,4.78,0,6.74a12.29,12.29,0,0,1-11.64,0m92.4,7-112.58-65a6.08,6.08,0,0,0-5.51,0l-67,39c-1.52.88-1.51,2.31,0,3.19l112.58,65a6.08,6.08,0,0,0,5.51,0l67-39c1.52-.88,1.51-2.31,0-3.19"/><polyline class="cls-3" points="197.17 250.88 195.18 249.73 190.58 252.41 184.67 248.99 189.27 246.32 187.27 245.17 175.99 251.73 177.98 252.88 182.92 250.01 188.84 253.42 183.89 256.29 185.88 257.44 197.17 250.88"/><path class="cls-3" d="M192.35,260c-1-.58-1.2-1.36-.3-1.88a3.44,3.44,0,0,1,3.25.17c.77.44,1.25,1.05,1.12,1.62l-1.25.73a5.08,5.08,0,0,1-2.81-.64m7.66-4.1a9.66,9.66,0,0,0-4.78-1.23l-.48,1.15a6.75,6.75,0,0,1,3.48.8c1.12.65,1.35,1.45.41,2l-1.22.71c.08-.76-.5-1.5-1.63-2.15a5.71,5.71,0,0,0-5.52-.09c-1.8,1-1.19,2.45.14,3.22a7.1,7.1,0,0,0,3.78.9l-.9.52,1.78,1,5.43-3.16c2.18-1.27,1.35-2.63-.49-3.69"/><polyline class="cls-3" points="210.46 258.56 208.68 257.52 197.39 264.08 199.18 265.12 210.46 258.56"/><path class="cls-3" d="M216,261.54a5.45,5.45,0,0,0-5.41.15l-.46.27-1.36-.79-1.54.89,1.36.79-6.63,3.86,1.79,1,6.63-3.86,1.67,1,1.54-.89-1.67-1,.46-.27a2.43,2.43,0,0,1,2.51-.14,1,1,0,0,1,.58.75l1.8-.24c0-.59-.52-1.12-1.27-1.56"/><polyline class="cls-3" points="215.05 268.65 210.97 266.29 209.44 267.18 213.53 269.54 215.05 268.65"/><path class="cls-3" d="M218.79,274.63c-2.3-1.33-2-3.2.31-4.54a8.16,8.16,0,0,1,7.85-.2c2.28,1.32,2,3.18-.32,4.54a8.19,8.19,0,0,1-7.83.2m9.91-5.76a12.25,12.25,0,0,0-11.65,0c-3.36,2-3.44,4.78,0,6.75a12.29,12.29,0,0,0,11.64,0c3.37-2,3.42-4.79,0-6.74"/><path class="cls-3" d="M230.15,281.41a1.69,1.69,0,0,1-1-1.87l3.24-1.88a5.74,5.74,0,0,1,3.19.59c1.42.82,1.22,2-.37,2.92a5.26,5.26,0,0,1-5.06.24m7.53-3.76a7,7,0,0,0-4-.76l1.12-.65-1.79-1-11.28,6.56,1.79,1,4.25-2.47a2.13,2.13,0,0,0,1.3,2.3,8.14,8.14,0,0,0,7.95-.39c2.69-1.56,2.76-3.36.63-4.59"/><path class="cls-3" d="M240.88,283.66a5,5,0,0,1,4.45.08c1.62.93,1.09,2,.18,2.6l-4.63-2.67m5.92-.76a9.07,9.07,0,0,0-8.45.07c-2.59,1.5-2.47,3.55,0,5a9.64,9.64,0,0,0,4.54,1.23l.35-1.15a6.94,6.94,0,0,1-3.26-.83c-1.55-.9-1.44-2-.36-2.81l6.33,3.66.44-.26c2.57-1.49,2.86-3.48.39-4.9"/><path class="cls-3" d="M257.3,289a8.23,8.23,0,0,0-4.21-.93l1.1-.64-1.79-1-8.17,4.75,1.79,1,5.72-3.32a6.06,6.06,0,0,1,3.19.59c1,.58,1.26,1.2,0,1.94l-5.11,3,1.79,1,5.75-3.34c1.67-1,1.73-2,0-3.06"/><path class="cls-5" d="M129.31,76.86a5.35,5.35,0,0,0-5.08.21c-1.45.84-1.87,2.08-.35,2.95A5.32,5.32,0,0,0,129,79.8c1.44-.84,1.87-2.06.34-2.94m27.24,15.73a5.23,5.23,0,0,0-5,.22c-1.59.92-1.81,2.1-.38,2.93a5.74,5.74,0,0,0,3.2.58l3.24-1.88a1.69,1.69,0,0,0-1-1.85M147.17,87a4.94,4.94,0,0,0-4.45-.08l4.63,2.67c.91-.59,1.44-1.66-.18-2.6m-24.87-6.1c-2.62-1.52-2.26-3.58.07-4.93a8.89,8.89,0,0,1,8.5-.05c2.62,1.52,2.3,3.56-.05,4.93a9,9,0,0,1-8.52.06m10.36,4.33a2.78,2.78,0,0,0,2.72.31c1.6-.93-4.52-3.14-1.37-5a6,6,0,0,1,5.7.43,3.53,3.53,0,0,1,2.05,2.5l-2,.29c0-.6-.42-1.38-1.46-2a2.72,2.72,0,0,0-2.53-.28c-1.44.84,4.61,3.07,1.36,5a6.15,6.15,0,0,1-6-.49c-1.41-.81-2.21-1.81-2.24-2.78L131,83a3,3,0,0,0,1.64,2.26m7.54,6c-2.49-1.44-2.6-3.48,0-5a9.07,9.07,0,0,1,8.45-.08c2.47,1.43,2.18,3.41-.4,4.91l-.44.25-6.33-3.66c-1.08.79-1.19,1.92.35,2.81a7,7,0,0,0,3.26.83l-.35,1.15a9.65,9.65,0,0,1-4.53-1.23m-25.53-15L126,69.73l1.79,1-11.28,6.56-1.79-1m44.22,17.38,4.25-2.47,1.79,1-11.28,6.56-1.79-1,1.12-.65a7,7,0,0,1-4-.76c-2.09-1.21-2.05-3,.65-4.6a8.19,8.19,0,0,1,7.93-.38c1,.6,1.54,1.42,1.3,2.3M108.38,72.89c-3.36-1.94-3.6-4.82-.13-6.83a12.45,12.45,0,0,1,11.8.05c2.28,1.32,2.54,2.82,2,4.09l-2.57-.46c.4-.86,0-1.91-1.22-2.61a8.46,8.46,0,0,0-8,.11c-2.35,1.37-2.41,3.34-.16,4.63a7.42,7.42,0,0,0,4.5.7L115.5,74a11.3,11.3,0,0,1-7.12-1.15M226.14,94.56l-112.59-65a6.06,6.06,0,0,0-5.5,0l-67,39c-1.52.88-1.51,2.31,0,3.19l112.59,65a6.06,6.06,0,0,0,5.5,0l67-39c1.52-.88,1.51-2.3,0-3.18"/><path class="cls-3" d="M120,66.1a12.45,12.45,0,0,0-11.8-.05c-3.47,2-3.23,4.9.13,6.83A11.3,11.3,0,0,0,115.5,74l-.86-1.47a7.42,7.42,0,0,1-4.5-.7c-2.25-1.3-2.19-3.27.16-4.63a8.46,8.46,0,0,1,8-.11c1.21.7,1.62,1.74,1.22,2.61l2.57.46c.51-1.27.25-2.77-2-4.09"/><polyline class="cls-3" points="127.74 70.76 125.96 69.73 114.67 76.29 116.46 77.32 127.74 70.76"/><path class="cls-3" d="M123.88,80c-1.51-.87-1.1-2.1.35-2.95a5.35,5.35,0,0,1,5.08-.21c1.53.88,1.1,2.1-.34,2.94a5.32,5.32,0,0,1-5.09.21m7-4.07a8.89,8.89,0,0,0-8.5.05c-2.33,1.36-2.7,3.42-.07,4.93a9,9,0,0,0,8.52-.06c2.35-1.37,2.68-3.41.05-4.93"/><path class="cls-3" d="M139.72,81a6,6,0,0,0-5.7-.43c-3.15,1.83,3,4,1.37,5a2.78,2.78,0,0,1-2.72-.31A3,3,0,0,1,131,83l-2.09.27c0,1,.83,2,2.24,2.78a6.15,6.15,0,0,0,6,.49c3.25-1.89-2.8-4.12-1.36-5a2.72,2.72,0,0,1,2.53.28c1,.6,1.5,1.38,1.46,2l2-.29a3.53,3.53,0,0,0-2.05-2.5"/><path class="cls-3" d="M142.72,87a4.94,4.94,0,0,1,4.45.08c1.62.93,1.09,2,.18,2.6L142.72,87m5.91-.76a9.07,9.07,0,0,0-8.45.08c-2.59,1.5-2.47,3.55,0,5a9.65,9.65,0,0,0,4.53,1.23l.35-1.15a7,7,0,0,1-3.26-.83c-1.55-.89-1.43-2-.35-2.81l6.33,3.66.44-.25c2.58-1.5,2.87-3.48.4-4.91"/><path class="cls-3" d="M151.12,95.74c-1.43-.83-1.2-2,.38-2.93a5.23,5.23,0,0,1,5-.22,1.69,1.69,0,0,1,1,1.85l-3.24,1.88a5.74,5.74,0,0,1-3.2-.58m13.82-3.51-1.79-1-4.25,2.47c.24-.88-.26-1.7-1.3-2.3a8.19,8.19,0,0,0-7.93.38c-2.7,1.57-2.74,3.39-.65,4.6a7,7,0,0,0,4,.76l-1.12.65,1.79,1,11.28-6.56"/><path class="cls-5" d="M336.38,196.41a5.77,5.77,0,0,0-3.2-.59L330,197.7a1.69,1.69,0,0,0,1,1.87,5.26,5.26,0,0,0,5.05-.24c1.59-.93,1.79-2.1.38-2.92m9.74,5.48a5,5,0,0,0-4.45-.08l4.64,2.68c.91-.59,1.44-1.66-.19-2.6M327.73,188a8.15,8.15,0,0,0-7.84.2c-2.32,1.35-2.62,3.21-.32,4.54a8.19,8.19,0,0,0,7.84-.2c2.33-1.36,2.6-3.22.32-4.54m6.79,7a7,7,0,0,1,4,.76c2.13,1.23,2.05,3-.64,4.59a8.11,8.11,0,0,1-7.94.39,2.14,2.14,0,0,1-1.3-2.3L324.35,201l-1.79-1,11.28-6.56,1.79,1-1.12.65m4.63,11.08c-2.48-1.43-2.6-3.48,0-5a9.07,9.07,0,0,1,8.45-.08c2.47,1.43,2.18,3.41-.4,4.91l-.44.25-6.33-3.66c-1.08.79-1.2,1.92.35,2.81a7,7,0,0,0,3.26.83l-.35,1.15a9.68,9.68,0,0,1-4.54-1.23m14.73.08a8.28,8.28,0,0,1,4.21.93c1.77,1,1.71,2.08,0,3.06l-5.75,3.34-1.79-1,5.11-3c1.29-.75,1-1.37,0-1.95a6.05,6.05,0,0,0-3.2-.59l-5.72,3.32-1.79-1,8.17-4.75,1.79,1-1.1.64m-36.06-12.39c-3.4-2-3.34-4.78,0-6.74a12.25,12.25,0,0,1,11.64,0c3.39,2,3.34,4.79,0,6.75a12.28,12.28,0,0,1-11.65,0M430.3,212.43l-112.58-65a6.06,6.06,0,0,0-5.5,0l-67,39c-1.52.88-1.51,2.31,0,3.19l112.58,65a6.08,6.08,0,0,0,5.51,0l67-39c1.52-.88,1.5-2.31,0-3.19"/><path class="cls-3" d="M319.57,192.78c-2.3-1.33-2-3.2.32-4.54a8.15,8.15,0,0,1,7.84-.2c2.29,1.32,2,3.18-.32,4.54a8.19,8.19,0,0,1-7.84.2m9.91-5.76a12.25,12.25,0,0,0-11.64,0c-3.37,2-3.44,4.78,0,6.74a12.28,12.28,0,0,0,11.65,0c3.37-2,3.42-4.79,0-6.75"/><path class="cls-3" d="M330.95,199.57a1.69,1.69,0,0,1-1-1.87l3.23-1.88a5.77,5.77,0,0,1,3.2.59c1.41.81,1.21,2-.38,2.92a5.26,5.26,0,0,1-5.05.24m7.53-3.77a7,7,0,0,0-4-.76l1.12-.65-1.79-1-11.28,6.56,1.79,1,4.25-2.47a2.14,2.14,0,0,0,1.3,2.3,8.11,8.11,0,0,0,7.94-.39c2.69-1.56,2.77-3.36.64-4.59"/><path class="cls-3" d="M341.67,201.82a5,5,0,0,1,4.45.08c1.62.94,1.1,2,.19,2.6l-4.64-2.68m5.92-.76a9.07,9.07,0,0,0-8.45.08c-2.59,1.5-2.47,3.55,0,5a9.68,9.68,0,0,0,4.54,1.23l.35-1.15a7,7,0,0,1-3.26-.83c-1.55-.9-1.44-2-.35-2.81l6.33,3.66.44-.25c2.58-1.5,2.87-3.48.4-4.91"/><path class="cls-3" d="M358.09,207.12a8.28,8.28,0,0,0-4.21-.93l1.1-.64-1.79-1L345,209.28l1.79,1,5.72-3.32a6.05,6.05,0,0,1,3.2.59c1,.58,1.26,1.2,0,1.95l-5.11,3,1.79,1,5.75-3.34c1.67-1,1.74-2,0-3.06"/></g></g></svg>