<svg viewBox="0 0 473 405" xmlns="http://www.w3.org/2000/svg" fill-rule="evenodd" clip-rule="evenodd" stroke-linecap="round" stroke-linejoin="round" stroke-miterlimit="1.41421">
  <g fill-rule="nonzero">
    <path d="M35.1 217.092v2.5l12.2 7v-2.4l-12.2-7.1z" fill="#325770"/>
    <path d="M47.3 224.192v2.4l54.6-31.5v-2.4l-54.6 31.5z" fill="#1a2d42"/>
    <path d="M35.1 217.092l12.2 7.1 54.6-31.5-12.2-7.1-54.6 31.5z" fill="#4778bc"/>
  </g>
  <g fill-rule="nonzero">
    <path d="M49.3 187.892l-2.9-1.6.1 29.1 2.9 1.6-.1-29.1z" fill="#1a2d42"/>
    <path d="M90.5 164.192l-2.9-1.7-41.2 23.8 2.9 1.6 41.2-23.7z" fill="#222b31"/>
    <path d="M49.3 187.892l.1 29.1 41.2-23.8-.1-29-41.2 23.7z" fill="#111d28"/>
  </g>
  <g fill-rule="nonzero">
    <path d="M3.7 135.792l-3.7-2.2.3 91.7 3.6 2.2-.2-91.7z" fill="#325770"/>
    <path d="M136.8 58.892l-3.7-2.1L0 133.592l3.7 2.2 133.1-76.9z" fill="#325770"/>
    <path d="M3.7 135.792l.2 91.7 133.1-76.9-.2-91.7-133.1 76.9z" fill="#4778bc"/>
  </g>
  <path d="M5.4 140.392l.3 77.7 125.9-72.7-.2-77.7-126 72.7z" fill="#332e39" fill-rule="nonzero"/>
  <g fill-rule="nonzero">
    <path d="M23.6 252.592v2.4l47.6 27.7v-2.4l-47.6-27.7z" fill="#325770"/>
    <path d="M71.2 280.292v2.4l122.2-70.6v-2.4l-122.2 70.6z" fill="#1a2d42"/>
    <path d="M23.6 252.592l47.6 27.7 122.2-70.6-47.5-27.7-122.3 70.6z" fill="#4778bc"/>
  </g>
  <g fill="#fff" fill-rule="nonzero">
    <path d="M137.3 193.992v.8l7 4.1v-.8l-7-4.1zM144.3 198.092v.8l7-4.1v-.8l-7 4.1z"/>
    <path d="M137.3 193.992l7 4.1 7-4.1-6.9-4-7.1 4zM145.9 198.992v.8l7 4.1v-.8l-7-4.1zM152.9 203.092v.8l7-4.1v-.8l-7 4.1z"/>
    <path d="M145.9 198.992l7 4.1 7-4.1-7-4.1-7 4.1zM154.5 203.992v.8l7 4.1v-.8l-7-4.1zM161.5 208.092v.8l7-4.1v-.8l-7 4.1z"/>
    <path d="M154.5 203.992l7 4.1 7-4.1-7-4.1-7 4.1zM163.1 208.992v.8l7 4.1v-.8l-7-4.1zM170.1 213.092v.8l7-4.1v-.8l-7 4.1z"/>
    <path d="M163.1 208.992l7 4.1 7-4.1-6.9-4.1-7.1 4.1zM128.4 199.192v.8l7 4v-.8l-7-4zM135.4 203.192v.8l7-4v-.8l-7 4z"/>
    <path d="M128.4 199.192l7 4 7-4-7-4.1-7 4.1zM137 204.192v.8l7 4v-.8l-7-4zM144 208.192v.8l7-4v-.8l-7 4z"/>
    <path d="M137 204.192l7 4 7-4-7-4.1-7 4.1zM145.6 209.192v.8l7 4v-.8l-7-4zM152.6 213.192v.8l7-4v-.8l-7 4z"/>
    <path d="M145.6 209.192l7 4 7-4-7-4.1-7 4.1zM154.2 214.192v.8l7 4v-.8l-7-4zM161.2 218.192v.8l7-4v-.8l-7 4z"/>
    <path d="M154.2 214.192l7 4 7-4-7-4.1-7 4.1zM119.5 204.292v.8l7 4.1-.1-.8-6.9-4.1z"/>
    <path d="M126.4 208.392l.1.8 7-4.1v-.8l-7.1 4.1z"/>
    <path d="M119.5 204.292l6.9 4.1 7.1-4.1-7-4-7 4zM128.1 209.292v.8l7 4.1-.1-.8-6.9-4.1z"/>
    <path d="M135 213.392l.1.8 7-4.1v-.8l-7.1 4.1z"/>
    <path d="M128.1 209.292l6.9 4.1 7.1-4.1-7-4-7 4zM136.7 214.292v.8l6.9 4.1v-.8l-6.9-4.1zM143.6 218.392v.8l7.1-4.1v-.8l-7.1 4.1z"/>
    <path d="M136.7 214.292l6.9 4.1 7.1-4.1-7-4-7 4zM145.3 219.292v.8l6.9 4.1v-.8l-6.9-4.1z"/>
    <path d="M152.2 223.392v.8l7.1-4.1v-.8l-7.1 4.1z"/>
    <path d="M145.3 219.292l6.9 4.1 7.1-4.1-7-4-7 4zM110.5 209.492v.8l7 4v-.8l-7-4zM117.5 213.492v.8l7.1-4-.1-.8-7 4z"/>
    <path d="M110.5 209.492l7 4 7-4-6.9-4.1-7.1 4.1zM119.1 214.492v.8l7 4v-.8l-7-4zM126.1 218.492v.8l7.1-4-.1-.8-7 4z"/>
    <path d="M119.1 214.492l7 4 7-4-6.9-4.1-7.1 4.1zM127.7 219.492v.8l7 4v-.8l-7-4zM134.7 223.492v.8l7-4v-.8l-7 4z"/>
    <path d="M127.7 219.492l7 4 7-4-6.9-4.1-7.1 4.1zM136.3 224.492v.8l7 4v-.8l-7-4zM143.3 228.492v.8l7-4v-.8l-7 4z"/>
    <path d="M136.3 224.492l7 4 7-4-6.9-4.1-7.1 4.1z"/>
    <g>
      <path d="M101.6 214.592v.8l7 4.1v-.8l-7-4.1zM108.6 218.692v.8l7-4.1v-.8l-7 4.1z"/>
      <path d="M101.6 214.592l7 4.1 7-4.1-7-4-7 4z"/>
    </g>
    <g>
      <path d="M110.2 219.592v.8l7 4.1v-.8l-7-4.1zM117.2 223.692v.8l7-4.1v-.8l-7 4.1z"/>
      <path d="M110.2 219.592l7 4.1 7-4.1-7-4-7 4z"/>
    </g>
    <g>
      <path d="M118.8 224.592v.8l7 4.1v-.8l-7-4.1zM125.8 228.692v.8l7-4.1v-.8l-7 4.1z"/>
      <path d="M118.8 224.592l7 4.1 7-4.1-7-4-7 4z"/>
    </g>
    <g>
      <path d="M127.4 229.592v.8l7 4.1v-.8l-7-4.1zM134.4 233.692v.8l7-4.1v-.8l-7 4.1z"/>
      <path d="M127.4 229.592l7 4.1 7-4.1-7-4-7 4z"/>
    </g>
    <g>
      <path d="M92.7 219.792v.8l7 4v-.8l-7-4zM99.7 223.792v.8l7-4v-.8l-7 4z"/>
      <path d="M92.7 219.792l7 4 7-4-7-4.1-7 4.1z"/>
    </g>
    <g>
      <path d="M101.3 224.792v.8l7 4v-.8l-7-4zM108.3 228.792v.8l7-4v-.8l-7 4z"/>
      <path d="M101.3 224.792l7 4 7-4-7-4.1-7 4.1z"/>
    </g>
    <g>
      <path d="M109.9 229.792v.8l7 4v-.8l-7-4zM116.9 233.792v.8l7-4v-.8l-7 4z"/>
      <path d="M109.9 229.792l7 4 7-4-7-4.1-7 4.1z"/>
    </g>
    <g>
      <path d="M118.5 234.792v.8l7 4v-.8l-7-4zM125.5 238.792v.8l7-4v-.8l-7 4z"/>
      <path d="M118.5 234.792l7 4 7-4-7-4.1-7 4.1z"/>
    </g>
    <g>
      <path d="M83.8 224.892v.8l6.9 4.1v-.8l-6.9-4.1zM90.7 228.992v.8l7.1-4.1v-.8l-7.1 4.1z"/>
      <path d="M83.8 224.892l6.9 4.1 7.1-4.1-7-4-7 4z"/>
    </g>
    <g>
      <path d="M92.4 229.892v.8l6.9 4.1v-.8l-6.9-4.1z"/>
      <path d="M99.3 233.992v.8l7.1-4.1v-.8l-7.1 4.1z"/>
      <path d="M92.4 229.892l6.9 4.1 7.1-4.1-7-4-7 4z"/>
    </g>
    <g>
      <path d="M101 234.892v.8l6.9 4.1v-.8l-6.9-4.1zM107.9 238.992v.8l7.1-4.1v-.8l-7.1 4.1z"/>
      <path d="M101 234.892l6.9 4.1 7.1-4.1-7-4-7 4z"/>
    </g>
    <g>
      <path d="M109.6 239.892v.8l6.9 4.1v-.8l-6.9-4.1zM116.5 243.992v.8l7.1-4.1v-.8l-7.1 4.1z"/>
      <path d="M109.6 239.892l6.9 4.1 7.1-4.1-7-4-7 4z"/>
    </g>
    <g>
      <path d="M74.8 230.092v.8l7 4v-.8l-7-4zM81.8 234.092v.8l7-4v-.8l-7 4z"/>
      <path d="M74.8 230.092l7 4 7-4-6.9-4.1-7.1 4.1z"/>
    </g>
    <g>
      <path d="M83.4 235.092v.8l7 4v-.8l-7-4zM90.4 239.092v.8l7-4v-.8l-7 4z"/>
      <path d="M83.4 235.092l7 4 7-4-6.9-4.1-7.1 4.1z"/>
    </g>
    <g>
      <path d="M92 240.092v.8l7 4v-.8l-7-4zM99 244.092v.8l7-4v-.8l-7 4z"/>
      <path d="M92 240.092l7 4 7-4-6.9-4.1-7.1 4.1z"/>
    </g>
    <g>
      <path d="M100.6 245.092v.8l7 4v-.8l-7-4zM107.6 249.092v.8l7-4v-.8l-7 4z"/>
      <path d="M100.6 245.092l7 4 7-4-6.9-4.1-7.1 4.1z"/>
    </g>
    <g>
      <path d="M65.9 235.192v.8l7 4.1v-.8l-7-4.1zM72.9 239.292v.8l7-4.1v-.8l-7 4.1z"/>
      <path d="M65.9 235.192l7 4.1 7-4.1-7-4-7 4z"/>
    </g>
    <g>
      <path d="M74.5 240.192v.8l7 4.1v-.8l-7-4.1zM81.5 244.292v.8l7-4.1v-.8l-7 4.1z"/>
      <path d="M74.5 240.192l7 4.1 7-4.1-7-4-7 4z"/>
    </g>
    <g>
      <path d="M83.1 245.192v.8l7 4.1v-.8l-7-4.1zM90.1 249.292v.8l7-4.1v-.8l-7 4.1z"/>
      <path d="M83.1 245.192l7 4.1 7-4.1-7-4-7 4z"/>
    </g>
    <g>
      <path d="M91.7 250.192v.8l7 4.1v-.8l-7-4.1zM98.7 254.292v.8l7-4.1v-.8l-7 4.1z"/>
      <path d="M91.7 250.192l7 4.1 7-4.1-7-4-7 4z"/>
    </g>
    <g>
      <path d="M57 240.392v.8l7 4v-.8l-7-4zM64 244.392v.8l7-4v-.8l-7 4z"/>
      <path d="M57 240.392l7 4 7-4-7-4.1-7 4.1z"/>
    </g>
    <g>
      <path d="M65.6 245.392v.8l7 4v-.8l-7-4zM72.6 249.392v.8l7-4v-.8l-7 4z"/>
      <path d="M65.6 245.392l7 4 7-4-7-4.1-7 4.1z"/>
    </g>
    <g>
      <path d="M74.2 250.392v.8l7 4v-.8l-7-4zM81.2 254.392v.8l7-4v-.8l-7 4z"/>
      <path d="M74.2 250.392l7 4 7-4-7-4.1-7 4.1z"/>
    </g>
    <g>
      <path d="M48.1 245.492v.8l6.9 4.1v-.8l-6.9-4.1zM55 249.592v.8l7.1-4.1v-.8l-7.1 4.1z"/>
      <path d="M48.1 245.492l6.9 4.1 7.1-4.1-7-4-7 4z"/>
    </g>
    <g>
      <path d="M56.7 250.492v.8l6.9 4.1v-.8l-6.9-4.1zM63.6 254.592v.8l7.1-4.1v-.8l-7.1 4.1z"/>
      <path d="M56.7 250.492l6.9 4.1 7.1-4.1-7-4-7 4z"/>
    </g>
    <g>
      <path d="M65.3 255.492v.8l6.9 4.1v-.8l-6.9-4.1zM72.2 259.592v.8l7.1-4.1-.1-.8-7 4.1z"/>
      <path d="M65.3 255.492l6.9 4.1 7-4.1-6.9-4-7 4z"/>
    </g>
    <g>
      <path d="M73.9 260.492v.8l6.9 4.1v-.8l-6.9-4.1z"/>
      <path d="M80.8 264.592v.8l7.1-4.1-.1-.8-7 4.1z"/>
      <path d="M73.9 260.492l6.9 4.1 7-4.1-6.9-4-7 4z"/>
    </g>
    <g>
      <path d="M39.1 250.692v.8l7 4.1v-.8l-7-4.1zM46.1 254.792v.8l7-4.1v-.8l-7 4.1z"/>
      <path d="M39.1 250.692l7 4.1 7-4.1-6.9-4.1-7.1 4.1z"/>
    </g>
    <g>
      <path d="M47.7 255.692v.8l7 4.1v-.8l-7-4.1zM54.7 259.792v.8l7-4.1v-.8l-7 4.1z"/>
      <path d="M47.7 255.692l7 4.1 7-4.1-7-4.1-7 4.1z"/>
    </g>
    <g>
      <path d="M56.3 260.692v.8l7 4v-.8l-7-4zM63.3 264.692v.8l7-4v-.8l-7 4z"/>
      <path d="M56.3 260.692l7 4 7-4-7-4.1-7 4.1z"/>
    </g>
  </g>
  <g fill-rule="nonzero">
    <path d="M311.762 36.038c-4.917-1.728-10.41-2.481-15.504-1.019-1.462.443-2.923 1.019-4.252 1.772l28.217-16.39c5.094-2.968 11.207-3.101 16.788-1.639 1.595.399 3.145.93 4.651 1.551l-28.217 16.389c-.487-.221-1.063-.443-1.683-.664-.399-.133.133.044 0 0z" fill="#d1d3d4"/>
    <path d="M444.474 165.074c0-6.512-1.506-12.935-3.809-19.003-2.348-6.202-5.626-12.093-9.612-17.365-2.26-3.012-4.74-5.803-7.487-8.372l28.217-16.39c7.531 7.044 13.378 16.036 17.054 25.692 1.772 4.696 3.057 9.569 3.589 14.574.487 4.696.31 9.612-1.196 14.131-1.285 3.853-3.677 7.397-7.221 9.435l-28.217 16.39c5.36-3.145 8.638-9.701 8.682-19.092 0-.488-.044 9.391 0 0z" fill="#bcbec0"/>
    <path d="M354.995 3.79c8.727-5.094 19.314-4.518 28.616-1.418 9.745 3.278 18.56 9.126 26.223 15.903 7.885 6.955 14.707 15.016 20.554 23.743 5.847 8.682 10.72 18.073 14.396 27.862 3.633 9.657 6.158 19.845 6.866 30.166.089 1.329.133 2.614.178 3.943l-28.217 16.39c-.177-10.366-2.348-20.643-5.715-30.432-3.41-9.923-8.017-19.446-13.599-28.306-5.625-8.903-12.27-17.231-19.933-24.451-7.353-6.955-15.77-13.068-25.116-16.966-9.214-3.81-19.756-5.493-29.236-1.639-1.107.443-2.17.975-3.234 1.595l28.217-16.39z" fill="#e6e7e8"/>
    <path d="M367.133 24.122c-24.674-14.263-45.759-8.239-53.599 12.58-4.873-1.993-10.277-3.1-15.504-2.082-4.518.842-8.549 3.323-11.34 6.955-3.366 4.297-4.917 9.745-5.448 15.105-.621 6.202.044 12.492 1.461 18.56 1.506 6.379 3.81 12.581 6.778 18.428 3.012 5.98 6.644 11.65 10.852 16.832 4.031 4.962 8.683 9.524 13.865 13.245 3.367 2.436 7.043 4.385 10.631 6.467 4.341 2.525 8.727 5.05 13.068 7.531 4.872 2.79 9.745 5.625 14.618 8.416 3.986 2.304 7.973 4.607 11.96 6.91 3.233 1.861 6.467 3.766 9.745 5.626 4.651 2.702 9.302 5.36 13.953 8.062 4.829 2.791 9.613 5.537 14.441 8.328 3.588 2.082 7.132 4.119 10.72 6.201 4.43 2.569 9.125 4.74 14.308 4.829 4.607.088 9.036-1.684 12.004-5.227 3.544-4.209 4.74-9.923 4.828-15.283.089-6.644-1.417-13.289-3.765-19.49-2.525-6.6-6.024-12.802-10.365-18.383-2.038-2.614-4.297-5.094-6.733-7.398-.665-35.659-25.648-78.405-56.478-96.212-24.718-14.263 30.83 17.807 0 0z" fill="#f1f2f2"/>
  </g>
  <path d="M267.775 190.406l13.234-8.359 36.42 21.027" fill="none" stroke="#e4e4e4"/>
  <path d="M13 141.592l-.1.1v1.4l.1-.1v-1.4zM16.3 140.992c.2 0 .5-.1.7-.2.3-.2.5-.4.7-.6.2-.3.4-.5.5-.8l.3-.9-.5.3c0 .2-.1.3-.1.5-.1.2-.2.5-.4.7-.2.2-.3.4-.6.5-.2.1-.3.2-.4.2-.1 0-.2 0-.3-.1-.1-.1-.2-.1-.2-.2s-.1-.2-.1-.3l-.4.3.3.6c.1-.1.3 0 .5 0zM22 137.892l-.1-1.4-.4.2v1.4l.5-.2zM26.4 135.292v-1.4l-.4.2v1.4l.4-.2zM30.9 132.692v-1.4l-.4.3v1.3l.4-.2zM35.4 130.092v-1.4l-.5.3v1.4l.5-.3zM38.7 128.092c.2 0 .5-.1.7-.2.3-.2.5-.4.7-.6.2-.3.4-.5.5-.8l.3-.9-.4.2c0 .2-.1.3-.1.5-.1.2-.2.5-.4.7-.2.2-.3.4-.6.5-.2.1-.3.1-.4.2-.1 0-.2 0-.3-.1-.1-.1-.2-.1-.2-.2s-.1-.2-.1-.3l-.4.3.3.6s.1.1.4.1zM44.3 124.892v-1.3l-.4.2v1.4l.4-.3zM48.8 122.392v-1.4l-.4.2v1.4l.4-.2zM52.1 120.292c.2 0 .5-.1.7-.2.3-.2.5-.4.7-.6.2-.3.4-.5.5-.8l.3-.9-.4.3c0 .2-.1.4-.2.5-.1.2-.2.5-.4.7-.2.2-.3.4-.6.5-.2.1-.3.2-.4.2-.1 0-.2 0-.3-.1-.1-.1-.2-.1-.2-.2s-.1-.2-.1-.3l-.4.3.3.6h.5zM57.8 117.192l-.1-1.4-.4.3v1.3l.5-.2zM62.2 114.592v-1.4l-.4.3v1.4l.4-.3zM66.7 111.992v-1.4l-.4.3v1.4l.4-.3zM71.2 109.392v-1.3l-.5.2v1.4l.5-.3zM74.5 107.392c.2 0 .5-.1.7-.2.3-.2.5-.4.7-.6.2-.3.4-.5.5-.8l.3-.9-.4.3c0 .2-.1.3-.1.5-.1.2-.2.5-.4.7-.2.2-.3.4-.6.5-.2.1-.3.1-.4.2-.1 0-.2 0-.3-.1-.1-.1-.2-.1-.2-.2s-.1-.2-.1-.3l-.4.3.3.6c0-.1.1 0 .4 0zM80.1 104.292v-1.4l-.4.2v1.4l.4-.2zM84.6 101.692v-1.4l-.4.3v1.3l.4-.2zM87.9 99.692c.2 0 .5-.1.7-.2.3-.2.5-.4.7-.6.2-.2.4-.5.5-.8l.3-.9-.4.3c0 .2-.1.4-.2.5-.1.2-.2.5-.4.7-.2.2-.3.4-.6.5-.2.1-.3.2-.4.2-.1 0-.2 0-.3-.1-.1-.1-.2-.1-.2-.2s-.1-.2-.1-.3l-.4.3.3.6c.1-.1.3 0 .5 0zM93.5 96.492v-1.4l-.4.3v1.4l.4-.3zM98 93.892v-1.3l-.4.2v1.4l.4-.3zM101.3 91.892c.2 0 .5-.1.7-.2.3-.2.5-.4.7-.6.2-.3.4-.5.5-.8l.3-.9-.5.3c0 .2-.1.4-.1.5-.1.2-.2.5-.4.7-.2.2-.4.4-.6.5-.2.1-.3.1-.4.2-.1 0-.2 0-.3-.1-.1-.1-.2-.1-.2-.2s-.1-.2-.1-.3l-.4.3.3.6c.1-.1.3 0 .5 0zM105.8 89.292c.2 0 .5-.1.7-.2.3-.2.5-.4.7-.6.2-.3.4-.5.5-.8l.3-.9-.4.3c0 .2-.1.4-.2.5-.1.2-.2.5-.4.7-.2.2-.3.4-.6.5-.2.1-.3.1-.4.2-.1 0-.2 0-.3-.1-.1-.1-.2-.1-.2-.2s-.1-.2-.1-.3l-.4.3.3.6h.5zM110.2 86.792c.2 0 .5-.1.7-.2.3-.2.5-.4.7-.6.2-.3.4-.5.5-.8l.3-.9-.4.3c0 .2-.1.3-.1.5-.1.2-.2.5-.4.7-.2.2-.3.4-.6.5-.2.1-.3.1-.4.2-.1 0-.2 0-.3-.1-.1-.1-.2-.1-.2-.2s-.1-.2-.1-.3l-.4.3.3.6c.1-.1.2-.1.4 0zM115.9 83.592v-1.4l-.4.3v1.4l.4-.3zM120.4 80.992v-1.4l-.4.3v1.4l.4-.3zM13.3 152.992c.2-.3.4-.5.5-.8.1-.3.2-.6.3-1 .1-.3.1-.7.1-1v-1.3c0-.3 0-.6-.1-.9-.1-.3-.2-.5-.3-.6-.1-.1-.3-.2-.5-.2-.1 0-.3 0-.4.1v.4h.1c.1 0 .2 0 .3.1.1.1.2.1.2.3.1.1.1.3.1.4l-.8 1.3v.5l.9-1.4v1.7c0 .3 0 .5-.1.8 0 .3-.1.5-.2.8-.1.2-.2.5-.4.7l-.2.2v.4c.3-.2.4-.3.5-.5zM17.1 145.492v5.5l.4-.3v-6.1l-.1.1-1.8 1.9v.5l1.5-1.6zM20.3 148.492c.1.2.3.2.5.2s.5-.1.7-.2c.3-.2.5-.4.7-.6.2-.3.4-.5.5-.8.1-.3.2-.6.3-1 .1-.3.1-.7.1-1v-1.3c0-.3 0-.6-.1-.9-.1-.3-.2-.5-.3-.6-.1-.1-.3-.2-.5-.2s-.5.1-.7.2c-.3.2-.5.4-.7.6-.2.3-.4.5-.5.8-.1.3-.2.6-.3 1-.1.3-.1.7-.1 1v1.3c0 .3 0 .6.1.9 0 .2.1.4.3.6zm2.4-4.6v1.4c0 .3 0 .5-.1.8 0 .3-.1.5-.2.8-.1.2-.2.5-.4.7-.2.2-.3.4-.6.5-.2.1-.3.2-.4.2-.1 0-.2 0-.3-.1-.1-.1-.2-.1-.2-.2-.1-.1-.1-.2-.2-.4l2.4-3.9v.2zm-2.4.7c0-.3.1-.5.2-.8.1-.2.2-.5.4-.7.2-.2.3-.4.6-.5.2-.1.3-.2.5-.2.1 0 .2 0 .3.1.1.1.2.1.2.3.1.1.1.3.1.4l-2.4 3.9v-1.7c.1-.3.1-.6.1-.8zM26 140.292v5.5l.5-.3-.1-6-1.9 1.9v.5l1.5-1.6zM29.2 143.292c.1.2.3.2.5.2s.5-.1.7-.2c.3-.2.5-.4.7-.6.2-.3.4-.5.5-.8.1-.3.2-.6.3-1 .1-.3.1-.7.1-1v-1.3c0-.3 0-.6-.1-.9-.1-.3-.2-.5-.3-.6-.1-.1-.3-.2-.5-.2s-.5.1-.7.2c-.3.2-.5.4-.7.6-.2.3-.4.5-.5.8-.1.3-.2.6-.3 1-.1.3-.1.7-.1 1v1.3c0 .3 0 .6.1.9.1.3.2.5.3.6zm2.5-4.5v1.4c0 .3 0 .5-.1.8 0 .3-.1.5-.2.8-.1.2-.2.5-.4.7-.2.2-.4.4-.6.5-.2.1-.3.1-.4.2-.1 0-.2 0-.3-.1-.1-.1-.2-.1-.2-.2-.1-.1-.1-.2-.1-.4l2.4-3.9c-.1 0-.1.1-.1.2zm-2.4.6c0-.3.1-.5.2-.8.1-.2.2-.5.4-.7.2-.2.3-.4.6-.5.2-.1.3-.2.5-.2.1 0 .2 0 .3.1.1.1.2.1.2.3.1.1.1.3.1.4l-2.4 3.9v-1.7c0-.3.1-.5.1-.8zM35 135.192v5.4l.4-.2v-6.1h-.1l-1.8 2v.4l1.5-1.5zM39.4 132.592v5.5l.5-.3v-6.1h-.1l-1.8 2v.5l1.4-1.6zM42.6 135.592c.1.2.3.2.5.2s.5-.1.7-.2c.3-.2.5-.4.7-.6.2-.3.4-.5.5-.8.1-.3.2-.6.3-1 .1-.3.1-.7.1-1v-1.3c0-.3 0-.6-.1-.9-.1-.3-.2-.5-.3-.6-.1-.1-.3-.2-.5-.2s-.5.1-.7.2c-.3.2-.5.4-.7.6-.2.3-.4.5-.5.8-.1.3-.2.6-.3 1-.1.3-.1.7-.1 1v1.3c0 .3 0 .6.1.9l.3.6zm2.5-4.6v1.4c0 .3 0 .5-.1.8 0 .3-.1.5-.2.8-.1.2-.2.5-.4.7-.2.2-.3.4-.6.5-.2.1-.3.1-.4.2-.1 0-.2 0-.3-.1-.1-.1-.2-.1-.2-.2-.1-.1-.1-.2-.2-.4l2.4-3.9v.2zm-2.4.6c0-.3.1-.5.2-.8.1-.2.2-.5.4-.7.2-.2.3-.4.6-.5.2-.1.3-.2.5-.2.1 0 .2 0 .3.1.1.1.2.1.2.3.1.1.1.3.1.4l-2.4 3.9v-1.7c.1-.2.1-.5.1-.8zM47.1 132.992c.1.2.3.2.5.2s.5-.1.7-.2c.3-.2.5-.4.7-.6.2-.3.4-.5.5-.8.1-.3.2-.6.3-1 .1-.3.1-.7.1-1v-1.3c0-.3 0-.6-.1-.9-.1-.3-.2-.5-.3-.6-.1-.1-.3-.2-.5-.2s-.5.1-.7.2c-.3.2-.5.4-.7.6-.2.3-.4.5-.5.8-.1.3-.2.6-.3 1-.1.3-.1.7-.1 1v1.3c0 .3 0 .6.1.9l.3.6zm2.5-4.6v1.4c0 .3 0 .5-.1.8 0 .3-.1.5-.2.8-.1.2-.2.5-.4.7-.2.2-.3.4-.6.5-.2.1-.3.2-.4.2-.1 0-.2 0-.3-.1-.1-.1-.2-.1-.2-.2-.1-.1-.1-.2-.2-.4l2.4-3.9v.2zm-2.4.7c0-.3.1-.5.2-.8.1-.2.2-.5.4-.7.2-.2.3-.4.6-.5.2-.1.3-.2.5-.2.1 0 .2 0 .3.1.1.1.2.1.2.3.1.1.1.3.1.4l-2.4 3.9v-1.7c0-.3 0-.6.1-.8zM51.6 130.392c.1.2.3.2.5.2s.5-.1.7-.2c.3-.2.5-.4.7-.6.2-.3.4-.5.5-.8.1-.3.2-.6.3-1 .1-.3.1-.7.1-1v-1.3c0-.3 0-.6-.1-.9-.1-.3-.2-.5-.3-.6-.1-.1-.3-.2-.5-.2s-.5.1-.7.2c-.3.2-.5.4-.7.6-.2.3-.4.5-.5.8-.1.3-.2.6-.3 1-.1.3-.1.7-.1 1v1.3c0 .3 0 .6.1.9 0 .2.1.4.3.6zm2.5-4.6v1.4c0 .3 0 .5-.1.8 0 .3-.1.5-.2.8-.1.2-.2.5-.4.7-.2.2-.3.4-.6.5-.2.1-.3.2-.4.2-.1 0-.2 0-.3-.1-.1-.1-.2-.1-.2-.2-.1-.1-.1-.2-.2-.4l2.4-3.9v.2zm-2.4.7c0-.3.1-.5.2-.8.1-.2.2-.5.4-.7.2-.2.3-.4.6-.5.2-.1.3-.2.5-.2.1 0 .2 0 .3.1.1.1.2.1.2.3.1.1.1.3.1.4l-2.4 3.9v-1.7c0-.3 0-.6.1-.8zM57.3 122.292v5.4l.5-.2v-6.1h-.1l-1.8 2v.4l1.4-1.5zM60.5 125.192c.1.2.3.2.5.2s.5-.1.7-.2c.3-.2.5-.4.7-.6.2-.3.4-.5.5-.8.1-.3.2-.6.3-1 .1-.3.1-.7.1-1v-1.3c0-.3 0-.6-.1-.9-.1-.3-.2-.5-.3-.6-.1-.1-.3-.2-.5-.2s-.5.1-.7.2c-.3.2-.5.4-.7.6-.2.3-.4.5-.5.8-.1.3-.2.6-.3 1-.1.3-.1.7-.1 1v1.3c0 .3 0 .6.1.9.1.3.2.5.3.6zm2.5-4.5v1.4c0 .3 0 .5-.1.8 0 .3-.1.5-.2.8-.1.2-.2.5-.4.7-.2.2-.3.4-.6.5-.2.1-.3.1-.4.2-.1 0-.2 0-.3-.1-.1-.1-.2-.1-.2-.2-.1-.1-.1-.2-.1-.4l2.4-3.9c-.1 0-.1.1-.1.2zm-2.4.6c0-.3.1-.5.2-.8.1-.2.2-.5.4-.7.2-.2.3-.4.6-.5.2-.1.3-.2.5-.2.1 0 .2 0 .3.1.1.1.2.1.2.3.1.1.1.3.1.4l-2.3 3.9v-1.7-.8zM65 122.592c.1.2.3.2.5.2s.5-.1.7-.2c.3-.2.5-.4.7-.6.2-.3.4-.5.5-.8.1-.3.2-.6.3-1 .1-.3.1-.7.1-1v-1.3c0-.3 0-.6-.1-.9-.1-.3-.2-.5-.3-.6-.1-.1-.3-.2-.5-.2s-.5.1-.7.2c-.3.2-.5.4-.7.6-.2.3-.4.5-.5.8-.1.3-.2.6-.3 1-.1.3-.1.7-.1 1v1.3c0 .3 0 .6.1.9.1.3.2.5.3.6zm2.5-4.5v1.4c0 .3 0 .5-.1.8 0 .3-.1.5-.2.8-.1.2-.2.5-.4.7-.2.2-.4.4-.6.5-.2.1-.3.1-.4.2-.1 0-.2 0-.3-.1-.1-.1-.2-.1-.2-.2-.1-.1-.1-.2-.1-.4l2.4-3.9c-.1 0-.1.1-.1.2zm-2.4.6c0-.3.1-.5.2-.8.1-.2.2-.5.4-.7.2-.2.3-.4.6-.5.2-.1.3-.2.5-.2.1 0 .2 0 .3.1.1.1.2.1.2.3.1.1.1.3.1.4l-2.4 4v-1.7c0-.4.1-.6.1-.9zM70.8 114.492v5.5l.4-.3v-6.1l-.1.1-1.8 1.9v.5l1.5-1.6zM75.2 111.892v5.5l.5-.3v-6.1l-.1.1-1.8 1.9v.5l1.4-1.6zM79 115.092c.2 0 .5-.1.7-.2.3-.2.5-.4.7-.6.2-.2.4-.5.5-.8.1-.3.2-.6.3-1 .1-.3.1-.7.1-1v-1.3c0-.3 0-.6-.1-.9-.1-.3-.2-.5-.3-.6-.1-.1-.3-.2-.5-.2s-.5.1-.7.2c-.3.2-.5.4-.7.6-.2.3-.4.5-.5.8-.1.3-.2.6-.3 1-.2.3-.2.7-.2 1v1.3c0 .3 0 .6.1.9.1.3.2.5.3.6.2.1.3.2.6.2zm1.9-4.8v1.4c0 .3 0 .5-.1.8 0 .3-.1.5-.2.8-.1.2-.2.5-.4.7-.2.2-.3.4-.6.5-.2.1-.3.1-.4.2-.1 0-.2 0-.3-.1-.1-.1-.2-.1-.2-.2-.1-.1-.1-.2-.2-.4l2.4-3.9v.2zm-2.4.7c0-.3.1-.5.2-.8.1-.2.2-.5.4-.7.2-.2.3-.4.6-.5.2-.1.3-.2.5-.2.1 0 .2 0 .3.1.1.1.2.1.2.3.1.1.1.3.1.4l-2.4 3.9v-1.7c.1-.3.1-.6.1-.8zM82.9 112.292c.1.2.3.2.5.2s.5-.1.8-.2c.3-.2.5-.4.7-.6.2-.3.4-.5.5-.8.1-.3.2-.6.3-1 .1-.3.1-.7.1-1v-1.3c0-.3 0-.6-.1-.9-.1-.3-.2-.5-.3-.6-.1-.1-.3-.2-.5-.2s-.5.1-.7.2c-.3.2-.5.4-.7.6-.2.3-.4.5-.5.8-.1.3-.2.6-.3 1-.1.3-.1.7-.1 1v1.3c0 .3 0 .6.1.9 0 .2.1.5.2.6zm2.5-4.5v1.4c0 .3 0 .5-.1.8 0 .3-.1.5-.2.8-.1.2-.2.5-.4.7-.2.2-.3.4-.6.5-.2.1-.3.2-.4.2-.1 0-.2 0-.3-.1-.1-.1-.2-.1-.2-.2-.1-.1-.1-.2-.2-.4l2.4-3.9v.2zm-2.4.6c0-.3.1-.5.2-.8.1-.2.2-.5.4-.7.2-.2.3-.4.6-.5.2-.1.3-.2.5-.2.1 0 .2 0 .3.1.1.1.2.1.2.3.1.1.1.3.1.4l-2.4 3.9v-1.7c0-.3 0-.5.1-.8zM88.6 104.192l.1 5.4.4-.2v-6.1H89l-1.8 2v.4l1.4-1.5zM91.9 107.092c.1.2.3.2.5.2s.5-.1.7-.2c.2-.1.5-.4.7-.6.2-.3.4-.5.5-.8.1-.3.2-.6.3-1 .1-.3.1-.7.1-1v-1.3c0-.3 0-.6-.1-.9-.1-.3-.2-.5-.3-.6-.1-.1-.3-.2-.5-.2s-.5.1-.7.2c-.3.2-.5.4-.7.6-.2.3-.4.5-.5.8-.1.3-.2.6-.3 1-.1.3-.1.7-.1 1v1.3c0 .3 0 .6.1.9 0 .3.1.5.3.6zm2.4-4.5v1.4c0 .3 0 .5-.1.8 0 .3-.1.5-.2.8-.1.2-.2.5-.4.7-.2.2-.3.4-.6.5-.2.1-.3.2-.4.2-.1 0-.2 0-.3-.1-.1-.1-.2-.1-.2-.2-.1-.2-.1-.4-.1-.5l2.4-3.9c-.1.1-.1.2-.1.3zm-2.4.6c0-.3.1-.5.2-.8.1-.2.2-.5.4-.7.2-.2.3-.4.6-.5.2-.1.3-.2.5-.2.1 0 .2 0 .3.1.1.1.2.1.2.3.1.1.1.3.1.4l-2.3 4v-1.7-.9zM97.6 98.992v5.5l.5-.3-.1-6.1v.1l-1.9 1.9v.5l1.5-1.6zM100.8 101.992c.1.2.3.2.5.2s.5-.1.7-.2c.3-.2.5-.4.7-.6.2-.3.4-.5.5-.8.1-.3.2-.6.3-1 .1-.3.1-.7.1-1v-1.3c0-.3 0-.6-.1-.9-.1-.3-.2-.5-.3-.6-.1-.1-.3-.2-.5-.2s-.5.1-.7.2c-.3.2-.5.4-.7.6-.2.3-.4.5-.5.8-.1.3-.2.6-.3 1-.1.3-.1.7-.1 1v1.3c0 .3 0 .6.1.9l.3.6zm2.5-4.6v1.4c0 .3 0 .5-.1.8 0 .3-.1.5-.2.8-.1.2-.2.5-.4.7-.2.2-.4.4-.6.5-.2.1-.3.1-.4.2-.1 0-.2 0-.3-.1-.1-.1-.2-.1-.2-.2-.1-.1-.1-.2-.1-.4l2.4-3.9c-.1 0-.1.1-.1.2zm-2.4.7c0-.3.1-.5.2-.8.1-.2.2-.5.4-.7.2-.2.3-.4.6-.5.2-.1.3-.2.5-.2.1 0 .2 0 .3.1.1.1.2.1.2.3.1.1.1.3.1.4l-2.4 3.9v-1.7c0-.3 0-.6.1-.8zM106.5 93.792l.1 5.5.4-.3v-6h-.1l-1.8 1.9v.5l1.4-1.6zM111 91.292v5.4l.5-.2v-6.1h-.1l-1.8 1.9v.5l1.4-1.5zM115.5 88.692v5.4l.4-.2v-6.1l-1.9 2v.4l1.5-1.5zM118.7 91.592c.1.2.3.2.5.2s.5-.1.7-.2c.3-.2.5-.4.7-.6.2-.3.4-.5.5-.8.1-.3.2-.6.3-1 .1-.3.1-.7.1-1v-1.3c0-.3 0-.6-.1-.9-.1-.3-.2-.5-.3-.6-.1-.1-.3-.2-.5-.2s-.5.1-.7.2c-.3.2-.5.4-.7.6-.2.3-.4.5-.5.8-.1.3-.2.6-.3 1-.1.3-.1.7-.1 1v1.3c0 .3 0 .6.1.9.1.3.2.5.3.6zm2.5-4.5v1.4c0 .3 0 .5-.1.8 0 .3-.1.5-.2.8-.1.2-.2.5-.4.7-.2.2-.3.4-.6.5-.2.1-.3.2-.4.2-.1 0-.2 0-.3-.1-.1-.1-.2-.1-.2-.2-.1-.1-.1-.2-.2-.4l2.4-3.9v.2zm-2.4.6c0-.3.1-.5.2-.8.1-.2.2-.5.4-.7.2-.2.3-.4.6-.5.2-.1.3-.2.5-.2.1 0 .2 0 .3.1.1.1.2.1.2.3.1.1.1.3.1.4l-2.4 3.9v-1.7c0-.2 0-.5.1-.8zM122.9 85.192c-.1.3-.1.7-.1 1v1.3c0 .3 0 .6.1.9.1.3.2.5.3.6h.1v-1.5-1.7V83.992s0 .1-.1.1c-.2.5-.3.8-.3 1.1zM13 157.492l-.1.1v6h.2l-.1-6.1zM15.6 156.892v.5l1.5-1.6v5.4l.4-.2v-6.1l-1.9 2zM20.8 158.992c.2 0 .5-.1.7-.2.3-.2.5-.4.7-.6.2-.3.4-.5.5-.8.1-.3.2-.6.3-1 .1-.3.1-.7.1-1v-1.3c0-.3 0-.6-.1-.9-.1-.3-.2-.5-.3-.6-.1-.1-.3-.2-.5-.2s-.5.1-.7.2c-.3.2-.5.4-.7.6-.2.3-.4.5-.5.8-.1.3-.2.6-.3 1-.1.3-.1.7-.1 1v1.3c0 .3 0 .6.1.9.1.3.2.5.3.6.1.1.3.2.5.2zm2-4.8v1.4c0 .3 0 .5-.1.8 0 .3-.1.5-.2.8-.1.2-.2.5-.4.7-.2.2-.3.4-.6.5-.2.1-.3.2-.4.2-.1 0-.2 0-.3-.1-.1-.1-.2-.1-.2-.2-.1-.1-.1-.2-.2-.4l2.4-3.9v.2zm-2.4.6c0-.3.1-.5.2-.8.1-.2.2-.5.4-.7.2-.2.3-.4.6-.5h.4c.1 0 .2 0 .3.1.1.1.2.1.2.3.1.1.1.3.1.4l-2.4 3.9v-1.7c.1-.4.1-.7.2-1zM24.6 151.692v.5l1.4-1.6v5.5l.5-.3v-6.1l-.1.1-1.8 1.9zM29 149.092v.5l1.5-1.6v5.5l.5-.3-.1-6-1.9 1.9zM33.7 150.992c.1.2.3.2.5.2s.5-.1.7-.2c.3-.2.5-.4.7-.6.2-.3.4-.5.5-.8.1-.3.2-.6.3-1 .1-.4.1-.7.1-1v-1.3c0-.3 0-.6-.1-.9-.1-.3-.2-.5-.3-.6-.1-.1-.3-.2-.5-.2s-.5.1-.7.2c-.3.2-.5.4-.7.6-.2.3-.4.5-.5.8-.1.3-.2.6-.3 1-.1.3-.1.7-.1 1v1.3c0 .3 0 .6.1.9.1.2.2.5.3.6zm2.5-4.5v1.4c0 .3 0 .5-.1.8 0 .3-.1.5-.2.8-.1.2-.2.5-.4.7-.2.2-.3.4-.6.5-.2.1-.3.1-.4.2-.1 0-.2 0-.3-.1-.1-.1-.2-.1-.2-.2-.1-.1-.1-.2-.2-.4l2.4-3.9v.2zm-2.4.6c0-.3.1-.5.2-.8.1-.2.2-.5.4-.7.2-.2.3-.4.6-.5.2-.1.3-.2.5-.2.1 0 .2 0 .3.1.1.1.2.1.2.3.1.1.1.3.1.4l-2.4 3.9v-1.7c0-.3.1-.5.1-.8zM38 143.992v.4l1.5-1.5v5.4l.4-.2v-6.1h-.1l-1.8 2zM42.5 141.392v.5l1.4-1.6v5.4l.5-.2v-6.1h-.1l-1.8 2zM46.9 138.792v.5l1.5-1.6v5.5l.5-.3-.1-6.1v.1l-1.9 1.9zM53.3 140.292v-6.1.1l-1.9 1.9v.5l1.5-1.6v5.5l.4-.3zM56.1 138.092c.1.2.3.2.5.2s.5-.1.7-.2c.3-.2.5-.4.7-.6.2-.3.4-.5.5-.8.1-.3.2-.6.3-1 .1-.3.1-.7.1-1v-1.3c0-.3 0-.6-.1-.9-.1-.3-.2-.5-.3-.6-.1-.1-.3-.2-.5-.2s-.5.1-.7.2c-.3.2-.5.4-.7.6-.2.3-.4.5-.5.8-.1.3-.2.6-.3 1-.1.3-.1.7-.1 1v1.3c0 .3 0 .6.1.9l.3.6zm2.5-4.6v1.4c0 .3 0 .5-.1.8 0 .3-.1.5-.2.8-.1.2-.2.5-.4.7-.2.2-.3.4-.6.5-.1.1-.3.1-.4.1-.1 0-.2 0-.3-.1-.1-.1-.2-.1-.2-.2-.1-.1-.1-.2-.2-.4l2.4-3.9v.3zm-2.4.7c0-.3.1-.5.2-.8.1-.2.2-.5.4-.7.2-.2.3-.4.6-.5.2-.1.3-.2.5-.2.1 0 .2 0 .3.1.1.1.2.1.2.3.1.1.1.3.1.4l-2.4 3.9v-1.7c0-.3 0-.6.1-.8zM60.4 131.092v.4l1.4-1.5v5.4l.5-.2v-6.1h-.1l-1.8 2zM64.8 128.492v.4l1.5-1.5v5.4l.5-.2-.1-6.1-1.9 2zM69.5 130.292c.1.2.3.2.5.2s.5-.1.7-.2c.3-.2.5-.4.7-.6.2-.3.4-.5.5-.8.1-.3.2-.6.3-1 .1-.3.1-.7.1-1v-1.3c0-.3 0-.6-.1-.9-.1-.3-.2-.5-.3-.6-.1-.1-.3-.2-.5-.2s-.5.1-.7.2c-.3.2-.5.4-.7.6-.2.3-.4.5-.5.8-.1.3-.2.6-.3 1-.1.3-.1.7-.1 1v1.3c0 .3 0 .6.1.9.1.3.2.5.3.6zm2.5-4.5v1.4c0 .3 0 .5-.1.8 0 .3-.1.5-.2.8-.1.2-.2.5-.4.7-.2.2-.3.4-.6.5-.2.1-.3.1-.4.2-.1 0-.2 0-.3-.1-.1-.1-.2-.1-.2-.2-.1-.1-.1-.2-.2-.4l2.4-3.9v.2zm-2.4.6c0-.3.1-.5.2-.8.1-.2.2-.5.4-.7.2-.2.4-.4.6-.5.2-.1.3-.2.5-.2.1 0 .2 0 .3.1.1.1.2.1.2.3.1.1.1.3.1.4l-2.4 3.9v-1.7c0-.3.1-.5.1-.8zM73.8 123.292v.5l1.5-1.6v5.5l.4-.3v-6.1l-.1.1-1.8 1.9zM80.2 124.792v-6.1l-.1.1-1.8 1.9v.5l1.4-1.6v5.5l.5-.3zM82.9 122.592c.1.2.3.2.5.2s.5-.1.8-.2c.3-.2.5-.4.7-.6.2-.3.4-.5.5-.8.1-.3.2-.6.3-1 .1-.3.1-.7.1-1v-1.3c0-.3 0-.6-.1-.9-.1-.3-.2-.5-.3-.6-.1-.1-.3-.2-.5-.2s-.5.1-.7.2c-.3.2-.5.4-.7.6-.2.3-.4.5-.5.8-.1.3-.2.6-.3 1-.1.3-.1.7-.1 1v1.3c0 .3 0 .6.1.9 0 .2.1.4.2.6zm2.5-4.6v1.4c0 .3 0 .5-.1.8 0 .3-.1.5-.2.8-.1.2-.2.5-.4.7-.2.2-.3.4-.6.5-.2.1-.3.2-.4.2-.1 0-.2 0-.3-.1-.1-.1-.2-.1-.2-.2-.1-.1-.1-.2-.2-.4l2.4-3.9v.2zm-2.4.7c0-.3.1-.5.2-.8.1-.2.2-.5.4-.7.2-.2.3-.4.6-.5.2-.1.3-.2.5-.2.1 0 .2 0 .3.1.1.1.2.1.2.3.1.1.1.3.1.4l-2.3 3.9v-1.7-.8zM87.4 119.992c.1.2.3.2.5.2s.5-.1.7-.2c.3-.2.5-.4.7-.6.2-.3.4-.5.5-.8.1-.3.2-.6.3-1 .1-.3.1-.7.1-1v-1.3c0-.3 0-.6-.1-.9-.1-.3-.2-.5-.3-.6-.1-.1-.3-.2-.5-.2s-.5.1-.7.2c-.3.2-.5.4-.7.6-.2.3-.4.5-.5.8-.1.3-.2.6-.3 1-.1.3-.1.7-.1 1v1.3c0 .3 0 .6.1.9.1.2.2.5.3.6zm2.5-4.5v1.4c0 .3 0 .5-.1.8 0 .3-.1.5-.2.8-.1.2-.2.5-.4.7-.2.2-.3.4-.6.5-.2.1-.3.2-.4.2-.1 0-.2 0-.3-.1-.1-.1-.2-.1-.2-.2-.1-.1-.1-.2-.2-.4l2.4-3.9v.2zm-2.4.6c0-.3.1-.5.2-.8.1-.2.2-.5.4-.7.2-.2.3-.4.6-.5.2-.1.3-.2.5-.2.1 0 .2 0 .3.1.1.1.2.1.2.3.1.1.1.3.1.4l-2.4 3.9v-1.7c0-.3 0-.5.1-.8zM91.9 117.392c.1.2.3.2.5.2s.5-.1.7-.2c.3-.2.5-.4.7-.6.2-.3.4-.5.5-.8.1-.3.2-.6.3-1 .1-.3.1-.7.1-1v-1.3c0-.3 0-.6-.1-.9-.1-.3-.2-.5-.3-.6-.1-.1-.3-.2-.5-.2s-.5.1-.7.2c-.3.2-.5.4-.7.6-.2.3-.4.5-.5.8-.1.3-.2.6-.3 1-.1.3-.1.7-.1 1v1.3c0 .3 0 .6.1.9 0 .3.1.5.3.6zm2.5-4.5v1.4c0 .3 0 .5-.1.8 0 .3-.1.5-.2.8-.1.2-.2.5-.4.7-.2.2-.3.4-.6.5-.2.1-.3.2-.4.2-.1 0-.2 0-.3-.1-.1-.1-.2-.1-.2-.2-.1-.1-.1-.2-.1-.4l2.4-3.9c-.1 0-.1.1-.1.2zm-2.4.6c0-.3.1-.5.2-.8.1-.2.2-.5.4-.7.2-.2.3-.4.6-.5.2-.1.3-.2.5-.2.1 0 .2 0 .3.1.1.1.2.1.2.3.1.1.1.3.1.4l-2.4 3.9v-1.7c0-.3 0-.5.1-.8zM96.2 110.392v.5l1.4-1.6v5.4l.5-.2v-6.1H98l-1.8 2zM100.6 107.792v.5l1.5-1.6v5.5l.5-.3-.1-6.1v.1l-1.9 1.9zM105.1 105.192v.5l1.5-1.6v5.5l.4-.3v-6.1.1l-1.9 1.9zM109.8 107.092c.1.2.3.2.5.2s.5-.1.7-.2c.3-.2.5-.4.7-.6.2-.3.4-.5.5-.8.1-.3.2-.6.3-1 .1-.3.1-.7.1-1v-1.3c0-.3 0-.6-.1-.9-.1-.3-.2-.5-.3-.6-.1-.1-.3-.2-.5-.2s-.5.1-.7.2c-.3.2-.5.4-.7.6-.2.3-.4.5-.5.8-.1.3-.2.6-.3 1-.1.3-.1.7-.1 1v1.3c0 .3 0 .6.1.9 0 .2.1.4.3.6zm2.5-4.6v1.4c0 .3 0 .5-.1.8 0 .3-.1.5-.2.8-.1.2-.2.5-.4.7-.2.2-.3.4-.6.5-.2.1-.3.1-.4.2-.1 0-.2 0-.3-.1-.1-.1-.2-.1-.2-.2-.1-.1-.1-.2-.2-.4l2.4-3.9v.2zm-2.4.7c0-.3.1-.5.2-.8.1-.2.2-.5.4-.7.2-.2.3-.4.6-.5.2-.1.3-.2.5-.2.1 0 .2 0 .3.1.1.1.2.1.2.3.1.1.1.3.1.4l-2.4 3.9v-1.7c0-.3 0-.6.1-.8zM117.1 98.892c-.1-.3-.2-.5-.3-.6-.1-.1-.3-.2-.5-.2s-.5.1-.7.2c-.3.2-.5.4-.7.6-.2.3-.4.5-.5.8-.1.3-.2.6-.3 1-.1.3-.1.7-.1 1v1.3c0 .3 0 .6.1.9.1.3.2.5.3.6.1.2.3.2.5.2s.5-.1.7-.2c.3-.2.5-.4.7-.6.2-.2.4-.5.5-.8.1-.3.2-.6.3-1 .1-.3.1-.7.1-1v-1.3c0-.4-.1-.7-.1-.9zm-2.8 3.9v-1.4c0-.3 0-.5.1-.8 0-.3.1-.5.2-.8.1-.2.2-.5.4-.7.2-.2.3-.4.6-.5.2-.1.3-.2.5-.2.1 0 .2 0 .3.1.1.1.2.1.2.3.1.1.1.3.1.4l-2.4 3.9v-.3zm2.4-.6c0 .3-.1.5-.2.8-.1.2-.2.5-.4.7-.2.2-.3.4-.6.5-.2.1-.3.1-.4.2-.1 0-.2 0-.3-.1-.1-.1-.2-.1-.2-.2-.1-.1-.1-.2-.2-.4l2.4-3.9v1.7c-.1.1-.1.4-.1.7zM118.5 97.492v.4l1.5-1.5v5.4l.5-.2-.1-6.1-1.9 2zM123 95.392l.3-.3v-.5l-.3.3v.5zM13.4 173.592c.2-.3.4-.5.5-.8.1-.3.2-.6.3-1 .1-.3.1-.7.1-1v-1.3c0-.3 0-.6-.1-.9-.1-.3-.2-.5-.3-.6-.1-.1-.3-.2-.5-.2-.1 0-.3 0-.4.1v.4h.1c.1 0 .2 0 .3.1.1.1.2.1.2.3.1.1.1.3.1.4l-.8 1.3v.5l.9-1.4v1.7c0 .3 0 .5-.1.8 0 .3-.1.5-.2.8-.1.2-.2.5-.4.7l-.2.2v.4l.5-.5zM15.6 167.192v.4l1.5-1.5v5.4l.5-.2-.1-6.1-1.9 2zM22 168.692v-6.1l-1.9 2v.5l1.5-1.6v5.4l.4-.2zM24.8 166.392c.1.2.3.2.5.2s.5-.1.7-.2c.3-.2.5-.4.7-.6.2-.3.4-.5.5-.8.1-.3.2-.6.3-1 .1-.4.1-.7.1-1v-1.3c0-.3 0-.6-.1-.9-.1-.3-.2-.5-.3-.6-.1-.1-.3-.2-.5-.2s-.5.1-.7.2c-.3.2-.5.4-.7.6-.2.3-.4.5-.5.8-.1.3-.2.6-.3 1-.1.3-.1.7-.1 1v1.3c0 .3 0 .6.1.9.1.3.2.5.3.6zm2.5-4.5v1.4c0 .3 0 .5-.1.8 0 .3-.1.5-.2.8-.1.2-.2.5-.4.7-.2.2-.3.4-.6.5-.2.1-.3.2-.4.2-.1 0-.2 0-.3-.1-.1-.1-.2-.1-.2-.2-.1-.1-.1-.2-.1-.4l2.4-3.9c-.1 0-.1.1-.1.2zm-2.4.6c0-.3.1-.5.2-.8.1-.2.2-.5.4-.7.2-.2.3-.4.6-.5.2-.1.3-.2.5-.2.1 0 .2 0 .3.1.1.1.2.1.2.3.1.1.1.3.1.4l-2.4 3.9v-1.7c0-.2 0-.5.1-.8zM29.3 163.892c.1.2.3.2.5.2s.5-.1.7-.2c.3-.2.5-.4.7-.6.2-.3.4-.5.5-.8.1-.3.2-.6.3-1 .1-.3.1-.7.1-1v-1.3c0-.3 0-.6-.1-.9-.1-.3-.2-.5-.3-.6-.1-.1-.3-.2-.5-.2s-.5.1-.7.2c-.3.2-.5.4-.7.6-.2.3-.4.5-.5.8-.1.3-.2.6-.3 1-.1.3-.1.7-.1 1v1.3c0 .3 0 .6.1.9 0 .2.1.4.3.6zm2.5-4.6v1.4c0 .3 0 .5-.1.8 0 .3-.1.5-.2.8-.1.2-.2.5-.4.7-.2.2-.4.4-.6.5-.2.1-.3.1-.4.2-.1 0-.2 0-.3-.1-.1-.1-.2-.1-.2-.2-.1-.1-.1-.2-.1-.4l2.4-3.9c-.1 0-.1.1-.1.2zm-2.4.7c0-.3.1-.5.2-.8.1-.2.2-.5.4-.7.2-.2.3-.4.6-.5.2-.1.3-.2.5-.2.1 0 .2 0 .3.1.1.1.2.1.2.3 0 .2.1.3.1.4l-2.4 3.9v-1.7c0-.3 0-.6.1-.8zM33.7 161.292c.1.2.3.2.5.2s.5-.1.7-.2c.3-.2.5-.4.7-.6.2-.3.4-.5.5-.8.1-.3.2-.6.3-1 .1-.3.1-.7.1-1v-1.3c0-.3 0-.6-.1-.9-.1-.3-.2-.5-.3-.6-.1-.1-.3-.2-.5-.2s-.5.1-.7.2c-.3.2-.5.4-.7.6-.2.3-.4.5-.5.8-.1.3-.2.6-.3 1-.1.3-.1.7-.1 1v1.3c0 .3 0 .6.1.9l.3.6zm2.5-4.6v1.4c0 .3 0 .5-.1.8 0 .3-.1.5-.2.8-.1.2-.2.5-.4.7-.2.2-.3.4-.6.5-.2.1-.3.1-.4.2-.1 0-.2 0-.3-.1-.1-.1-.2-.1-.2-.2-.1-.1-.1-.2-.2-.4l2.4-3.9v.2zm-2.4.7c0-.3.1-.5.2-.8.1-.2.2-.5.4-.7.2-.2.3-.4.6-.5.2-.1.3-.2.5-.2.1 0 .2 0 .3.1.1.1.2.1.2.3.1.1.1.3.1.4l-2.4 3.9v-1.7c.1-.3.1-.6.1-.8zM38 154.192v.5l1.5-1.5v5.4l.4-.2v-6.1l-1.9 1.9zM42.7 156.092c.1.2.3.2.5.2s.5-.1.7-.2c.3-.2.5-.4.7-.6.2-.3.4-.5.5-.8.1-.3.2-.6.3-1 .1-.3.1-.7.1-1v-1.3c0-.3 0-.6-.1-.9-.1-.3-.2-.5-.3-.6-.1-.1-.3-.2-.5-.2s-.5.1-.7.2c-.3.2-.5.4-.7.6-.2.3-.4.5-.5.8-.1.3-.2.6-.3 1-.1.4-.1.7-.1 1v1.3c0 .3 0 .6.1.9.1.3.2.5.3.6zm2.5-4.5v1.4c0 .3 0 .5-.1.8 0 .3-.1.5-.2.8-.1.2-.2.5-.4.7-.2.2-.3.4-.6.5-.2.1-.3.1-.4.2-.1 0-.2 0-.3-.1-.1-.1-.2-.1-.2-.2-.1-.1-.1-.2-.2-.4l2.4-3.9v.2zm-2.4.6c0-.3.1-.5.2-.8.1-.2.2-.5.4-.7.2-.2.3-.4.6-.5.2-.1.3-.2.5-.2.1 0 .2 0 .3.1.1.1.2.1.2.3.1.1.1.3.1.4l-2.4 3.9v-1.7c0-.3 0-.5.1-.8zM47.2 153.492c.1.2.3.2.5.2s.5-.1.7-.2c.3-.2.5-.4.7-.6.2-.3.4-.5.5-.8.1-.3.2-.6.3-1 .1-.3.1-.7.1-1v-1.3c0-.3 0-.6-.1-.9-.1-.3-.2-.5-.3-.6-.1-.1-.3-.2-.5-.2s-.5.1-.7.2c-.3.2-.5.4-.7.6-.2.3-.4.5-.5.8-.1.3-.2.6-.3 1-.1.3-.1.7-.1 1v1.3c0 .3 0 .6.1.9 0 .3.1.5.3.6zm2.5-4.5v1.4c0 .3 0 .5-.1.8 0 .3-.1.5-.2.8-.1.2-.2.5-.4.7-.2.2-.3.4-.6.5-.2.1-.3.2-.4.2-.1 0-.2 0-.3-.1-.1-.1-.2-.1-.2-.2-.1-.1-.1-.2-.2-.4l2.4-3.9c-.1 0 0 .1 0 .2zm-2.4.6c0-.3.1-.5.2-.8.1-.2.2-.5.4-.7.2-.2.3-.4.6-.5.2-.1.3-.2.5-.2.1 0 .2 0 .3.1.1.1.2.1.2.3.1.1.1.3.1.4l-2.4 3.9v-1.7c0-.3 0-.5.1-.8zM52.9 145.392v5.5l.5-.3-.1-6.1v.1l-1.9 1.9v.5l1.5-1.6zM57.8 147.992v-6.1.1l-1.9 1.9v.5l1.5-1.6v5.5l.4-.3zM63.4 140.192c-.1-.3-.2-.5-.3-.6-.1-.1-.3-.2-.5-.2s-.5.1-.7.2c-.3.2-.5.4-.7.6-.2.3-.4.5-.5.8-.1.3-.2.6-.3 1-.1.3-.1.7-.1 1v1.3c0 .3 0 .6.1.9.1.3.2.5.3.6.1.2.3.2.5.2s.5-.1.7-.2c.3-.2.5-.4.7-.6.2-.3.4-.5.5-.8.1-.3.2-.6.3-1 .1-.3.1-.7.1-1v-1.3c0-.4 0-.7-.1-.9zm-2.8 3.9v-1.4c0-.3 0-.5.1-.8 0-.3.1-.5.2-.8.1-.2.2-.5.4-.7.2-.2.3-.4.6-.5.2-.1.3-.2.5-.2.1 0 .2 0 .3.1.1.1.2.1.2.3.1.1.1.3.1.4l-2.4 3.9v-.3zm2.4-.6c0 .3-.1.5-.2.8-.1.2-.2.5-.4.7-.2.2-.3.4-.6.5-.2.1-.3.1-.4.2-.1 0-.2 0-.3-.1-.1-.1-.2-.1-.2-.2-.1-.1-.1-.2-.1-.4l2.4-3.9v1.7c-.1.1-.1.4-.2.7zM65.1 143.192c.1.2.3.2.5.2s.5-.1.7-.2c.3-.2.5-.4.7-.6.2-.3.4-.5.5-.8.1-.3.2-.6.3-1 .1-.3.1-.7.1-1v-1.3c0-.3 0-.6-.1-.9-.1-.3-.2-.5-.3-.6-.1-.1-.3-.2-.5-.2s-.5.1-.8.2c-.3.2-.5.4-.7.6-.2.3-.4.5-.5.8-.1.3-.2.6-.3 1-.1.3-.1.7-.1 1v1.3c0 .3 0 .6.1.9.1.2.2.5.4.6zm2.4-4.5v1.4c0 .3 0 .5-.1.8 0 .3-.1.5-.2.8-.1.2-.2.5-.4.7-.2.2-.4.4-.6.5-.2.1-.3.1-.4.2-.1 0-.2 0-.3-.1-.1-.1-.2-.1-.2-.2-.1-.1-.1-.2-.1-.4l2.4-3.9c-.1 0-.1.1-.1.2zm-2.4.6c0-.3.1-.5.2-.8.1-.2.2-.5.4-.7.2-.2.3-.4.6-.5.2-.1.3-.2.5-.2.1 0 .2 0 .3.1.1.1.2.1.2.3.1.1.1.3.1.4l-2.3 3.9v-1.7-.8zM69.3 136.192v.4l1.5-1.5v5.4l.5-.2-.1-6.1-1.9 2zM74 137.992c.1.2.3.2.5.2s.5-.1.7-.2c.3-.2.5-.4.7-.6.2-.3.4-.5.5-.8.1-.3.2-.6.3-1 .1-.3.1-.7.1-1v-1.3c0-.3 0-.6-.1-.9-.1-.3-.2-.5-.3-.6-.1-.1-.3-.2-.5-.2s-.5.1-.7.2c-.3.2-.5.4-.7.6-.2.3-.4.5-.5.8-.1.3-.2.6-.3 1-.1.3-.1.7-.1 1v1.3c0 .3 0 .6.1.9.1.3.2.5.3.6zm2.5-4.5v1.4c0 .3 0 .5-.1.8 0 .3-.1.5-.2.8-.1.2-.2.5-.4.7-.2.2-.3.4-.6.5-.1 0-.2.1-.4.1-.1 0-.2 0-.3-.1-.1-.1-.2-.1-.2-.2-.1-.1-.1-.2-.2-.4l2.4-3.9v.3zm-2.4.6c0-.3.1-.5.2-.8.1-.2.2-.5.4-.7.2-.2.4-.4.6-.5.2-.1.3-.2.5-.2.1 0 .2 0 .3.1.1.1.2.1.2.3.1.1.1.3.1.4l-2.4 3.9v-1.7c0-.3.1-.5.1-.8zM79.8 129.892v5.5l.4-.3v-6.1l-.1.1-1.8 1.9v.5l1.5-1.6zM83 132.892c.1.2.3.2.5.2s.5-.1.7-.2c.3-.2.5-.4.7-.6.2-.3.4-.5.5-.8.1-.3.2-.6.3-1 .1-.3.1-.7.1-1v-1.3c0-.3 0-.6-.1-.9-.1-.3-.2-.5-.3-.6-.1-.1-.3-.2-.5-.2s-.5.1-.7.2c-.3.2-.5.4-.7.6-.2.3-.4.5-.5.8-.1.3-.2.6-.3 1-.1.3-.1.7-.1 1v1.3c0 .3 0 .6.1.9 0 .2.1.4.3.6zm2.5-4.6v1.4c0 .3 0 .5-.1.8 0 .3-.1.5-.2.8-.1.2-.2.5-.4.7-.2.2-.3.4-.6.5-.2.1-.3.2-.4.2-.1 0-.2 0-.3-.1-.1-.1-.2-.1-.2-.2-.1-.1-.1-.2-.2-.4l2.4-3.9c-.1 0-.1.1 0 .2zm-2.5.7c0-.3.1-.5.2-.8.1-.2.2-.5.4-.7.2-.2.3-.4.6-.5.2-.1.3-.2.5-.2.1 0 .2 0 .3.1.1.1.2.1.2.3.1.1.1.3.1.4l-2.3 3.9v-1.7-.8zM89.2 129.892l-.1-6-1.9 1.9v.5l1.5-1.6v5.5l.5-.3zM91.7 123.192v.5l1.5-1.5v5.4l.4-.2v-6.1l-1.9 1.9zM96.2 120.692v.4l1.5-1.5v5.4l.4-.2v-6.1H98l-1.8 2zM100.9 122.492c.1.2.3.2.5.2s.5-.1.7-.2c.3-.2.5-.4.7-.6.2-.3.4-.5.5-.8.1-.3.2-.6.3-1 .1-.3.1-.7.1-1v-1.3c0-.3 0-.6-.1-.9-.1-.3-.2-.5-.3-.6-.1-.1-.3-.2-.5-.2s-.5.1-.7.2c-.3.2-.5.4-.7.6-.2.3-.4.5-.5.8-.1.3-.2.6-.3 1-.1.3-.1.7-.1 1v1.3c0 .3 0 .6.1.9.1.3.1.5.3.6zm2.4-4.5v1.4c0 .3 0 .5-.1.8 0 .3-.1.5-.2.8-.1.2-.2.5-.4.7-.2.2-.4.4-.6.5-.2.1-.3.1-.4.2-.1 0-.2 0-.3-.1-.1-.1-.2-.1-.2-.2-.1-.1-.1-.2-.1-.4l2.4-3.9c-.1 0-.1.1-.1.2zm-2.4.6c0-.3.1-.5.2-.8.1-.2.2-.5.4-.7.2-.2.3-.4.6-.5.2-.1.3-.2.5-.2.1 0 .2 0 .3.1.1.1.2.1.2.3.1.1.1.3.1.4l-2.4 3.9v-1.7c.1-.3.1-.5.1-.8zM108.2 114.292c-.1-.3-.2-.5-.3-.6-.1-.1-.3-.2-.5-.2s-.5.1-.7.2c-.3.2-.5.4-.7.6-.2.3-.4.5-.5.8-.1.3-.2.6-.3 1-.1.3-.1.7-.1 1v1.3c0 .3 0 .6.1.9.1.3.2.5.3.6.1.2.3.2.5.2s.5-.1.7-.2c.3-.2.5-.4.7-.6.2-.3.4-.5.5-.8.1-.3.2-.6.3-1 .1-.3.1-.7.1-1v-1.3c0-.3-.1-.6-.1-.9zm-2.8 4v-1.4c0-.3 0-.5.1-.8 0-.3.1-.5.2-.8.1-.2.2-.5.4-.7.2-.2.4-.4.6-.5.2-.1.3-.2.5-.2.1 0 .2 0 .3.1.1.1.2.1.2.3.1.1.1.3.1.4l-2.4 3.9v-.3zm2.4-.7c0 .3-.1.5-.2.8-.1.2-.2.5-.4.7-.2.2-.3.4-.6.5-.2.1-.3.1-.4.2-.1 0-.2 0-.3-.1-.1-.1-.2-.1-.2-.2-.1-.1-.1-.2-.2-.4l2.4-3.9v1.7c-.1.2-.1.5-.1.7zM109.6 112.892v.5l1.5-1.6v5.5l.4-.3v-6.1.1l-1.9 1.9zM115.6 114.692l.4-.3v-6h-.1l-1.8 1.9v.5l1.5-1.6v5.5zM118.8 112.192c.1.2.3.2.5.2s.5-.1.7-.2c.3-.2.5-.4.7-.6.2-.3.4-.5.5-.8.1-.3.2-.6.3-1 .1-.3.1-.7.1-1v-1.3c0-.3 0-.6-.1-.9-.1-.3-.2-.5-.3-.6-.1-.1-.3-.2-.5-.2s-.5.1-.8.2c-.3.2-.5.4-.7.6-.2.3-.4.5-.5.8-.1.3-.2.6-.3 1-.1.3-.1.7-.1 1v1.3c0 .3 0 .6.1.9.1.2.2.4.4.6zm2.4-4.5v1.4c0 .3 0 .5-.1.8 0 .3-.1.5-.2.8-.1.2-.2.5-.4.7-.2.2-.3.4-.6.5-.2.1-.3.2-.4.2-.1 0-.2 0-.3-.1-.1-.1-.2-.1-.2-.2-.1-.1-.1-.2-.2-.4l2.4-3.9v.2zm-2.4.6c0-.3.1-.5.2-.8.1-.2.2-.5.4-.7.2-.2.3-.4.6-.5.2-.1.3-.2.5-.2.1 0 .2 0 .3.1.1.1.2.1.2.3.1.1.1.3.1.4l-2.4 3.9v-1.7c.1-.3.1-.6.1-.8zM123 105.592l.3-.2v-.5l-.3.3v.4zM13.1 178.092H13v6.1l.1-.1v-6zM15.9 181.892c.1.2.3.2.5.2s.5-.1.7-.2c.3-.2.5-.4.7-.6.2-.3.4-.5.5-.8.1-.3.2-.6.3-1 .1-.3.1-.7.1-1v-1.3c0-.3 0-.6-.1-.9-.1-.3-.2-.5-.3-.6-.1-.1-.3-.2-.5-.2s-.5.1-.7.2c-.3.2-.5.4-.7.6-.2.3-.4.5-.5.8-.1.3-.2.6-.3 1-.1.3-.1.7-.1 1v1.3c0 .3 0 .6.1.9 0 .2.1.4.3.6zm2.5-4.5v1.4c0 .3 0 .5-.1.8 0 .3-.1.5-.2.8-.1.2-.2.5-.4.7-.2.2-.3.4-.6.5-.2.1-.3.2-.4.2-.1 0-.2 0-.3-.1-.1-.1-.2-.1-.2-.2-.1-.1-.1-.2-.2-.4l2.4-3.9v.2zm-2.4.6c0-.3.1-.5.2-.8.1-.2.2-.5.4-.7.2-.2.3-.4.6-.5.2-.1.3-.2.5-.2.1 0 .2 0 .3.1.1.1.2.1.2.3.1.1.1.3.1.4l-2.4 3.9v-1.7c0-.3 0-.5.1-.8zM21.6 173.792v5.4l.5-.2-.1-6.1-1.8 2v.4l1.4-1.5zM24.6 172.292v.5l1.5-1.6v5.4l.4-.2v-6.1l-1.9 2zM29.1 169.692v.5l1.5-1.6v5.5l.4-.3v-6.1l-.1.1-1.8 1.9zM35.5 171.192v-6.1l-.1.1-1.8 1.9v.5l1.4-1.6.1 5.5.4-.3zM41.1 163.392c-.1-.3-.2-.5-.3-.6-.1-.1-.3-.2-.5-.2s-.5.1-.7.2c-.3.2-.5.4-.7.6-.2.3-.4.5-.5.8-.1.3-.2.6-.3 1-.1.3-.1.7-.1 1v1.3c0 .3 0 .6.1.9.1.3.2.5.3.6.1.2.3.2.5.2s.5-.1.7-.2c.3-.2.5-.4.7-.6.2-.3.4-.5.5-.8.1-.3.2-.6.3-1 .1-.3.1-.7.1-1v-1.3c0-.4-.1-.7-.1-.9zm-2.8 3.9v-1.4c0-.3 0-.5.1-.8 0-.3.1-.5.2-.8.1-.2.2-.5.4-.7.2-.2.4-.4.6-.5.2-.1.3-.2.5-.2.1 0 .2 0 .3.1.1.1.2.1.2.3.1.1.1.3.1.4l-2.4 3.9v-.3zm2.4-.6c0 .3-.1.5-.2.8-.1.2-.2.5-.4.7-.2.2-.3.4-.6.5-.2.1-.3.1-.4.2-.1 0-.2 0-.3-.1-.1-.1-.2-.1-.2-.2-.1-.1-.1-.2-.2-.4l2.4-3.9v1.7c-.1.1-.1.4-.1.7zM42.5 161.892v.5l1.5-1.6v5.5l.4-.2v-6.1l-1.9 1.9zM47 159.392v.4l1.5-1.5v5.4l.4-.2v-6.1h-.1l-1.8 2zM51.7 161.192c.1.2.3.2.5.2s.5-.1.7-.2c.3-.2.5-.4.7-.6.2-.3.4-.5.5-.8.1-.3.2-.6.3-1 .1-.3.1-.7.1-1v-1.3c0-.3 0-.6-.1-.9-.1-.3-.2-.5-.3-.6-.1-.1-.3-.2-.5-.2s-.5.1-.7.2c-.3.2-.5.4-.7.6-.2.3-.4.5-.5.8-.1.3-.2.6-.3 1-.1.3-.1.7-.1 1v1.3c0 .3 0 .6.1.9 0 .3.1.5.3.6zm2.5-4.5v1.4c0 .3 0 .5-.1.8 0 .3-.1.5-.2.8-.1.2-.2.5-.4.7-.2.2-.3.4-.6.5-.2.1-.3.2-.4.2-.1 0-.2 0-.3-.1-.1-.1-.2-.1-.2-.2-.1-.1-.1-.2-.2-.4l2.4-3.9v.2zm-2.4.6c0-.3.1-.5.2-.8.1-.2.2-.5.4-.7.2-.2.3-.4.6-.5.2-.1.3-.2.5-.2.1 0 .2 0 .3.1.1.1.2.1.2.3.1.1.1.3.1.4l-2.4 3.9v-1.7c0-.3 0-.5.1-.8zM57.4 153.092v5.5l.5-.3v-6.1l-.1.1-1.9 1.9v.5l1.5-1.6zM61.9 155.992l.4-.3v-6.1.1l-1.9 1.9v.5l1.5-1.6v5.5zM65.1 153.492c.1.2.3.2.5.2s.5-.1.7-.2c.3-.2.5-.4.7-.6.2-.3.4-.5.5-.8.1-.3.2-.6.3-1 .1-.3.1-.7.1-1v-1.3c0-.3 0-.6-.1-.9-.1-.3-.2-.5-.3-.6-.1-.1-.3-.2-.5-.2s-.5.1-.8.2c-.3.2-.5.4-.7.6-.2.3-.4.5-.5.8-.1.3-.2.6-.3 1-.1.3-.1.7-.1 1v1.3c0 .3 0 .6.1.9.2.2.3.4.4.6zm2.5-4.6v1.4c0 .3 0 .5-.1.8 0 .3-.1.5-.2.8-.1.2-.2.5-.4.7-.2.2-.4.4-.6.5-.2.1-.3.1-.4.2-.1 0-.2 0-.3-.1-.1-.1-.2-.1-.2-.2-.1-.1-.1-.2-.1-.4l2.4-3.9c-.1.1-.1.1-.1.2zm-2.4.7c0-.3.1-.5.2-.8.1-.2.2-.5.4-.7.2-.2.3-.4.6-.5.2-.1.3-.2.5-.2.1 0 .2 0 .3.1.1.1.2.1.2.3.1.1.1.3.1.4l-2.4 3.9v-1.7c0-.3 0-.6.1-.8zM72.4 145.292c-.1-.3-.2-.5-.3-.6-.1-.1-.3-.2-.5-.2s-.5.1-.7.2c-.3.2-.5.4-.7.6-.2.3-.4.5-.5.8-.1.3-.2.6-.3 1-.1.3-.1.7-.1 1v1.3c0 .3 0 .6.1.9.1.3.2.5.3.6.1.2.3.2.5.2s.5-.1.7-.2c.3-.2.5-.4.7-.6.2-.3.4-.5.5-.8.1-.3.2-.6.3-1 .1-.4.1-.7.1-1v-1.3c0-.4 0-.7-.1-.9zm-2.8 3.9v-1.4c0-.3 0-.5.1-.8 0-.3.1-.5.2-.8.1-.2.2-.5.4-.7.2-.2.4-.4.6-.5.2-.1.3-.2.5-.2.1 0 .2 0 .3.1.1.1.2.1.2.3.1.1.1.3.1.4l-2.4 3.9v-.3zm2.4-.6c0 .3-.1.5-.2.8-.1.2-.2.5-.4.7-.2.2-.3.4-.6.5-.2.1-.3.1-.4.2-.1 0-.2 0-.3-.1-.1-.1-.2-.1-.2-.2-.1-.1-.1-.2-.2-.4l2.4-3.9v1.7c0 .1-.1.4-.1.7zM74 148.292c.1.2.3.2.5.2s.5-.1.7-.2c.3-.2.5-.4.7-.6.2-.3.4-.5.5-.8.1-.3.2-.6.3-1 .1-.3.1-.7.1-1v-1.3c0-.3 0-.6-.1-.9-.1-.3-.2-.5-.3-.6 0-.2-.2-.3-.4-.3s-.5.1-.7.2c-.3.2-.5.4-.7.6-.2.3-.4.5-.5.8-.1.3-.2.6-.3 1-.1.3-.1.7-.1 1v1.3c0 .3 0 .6.1.9 0 .4.1.6.2.7zm2.5-4.5v1.4c0 .3 0 .5-.1.8 0 .3-.1.5-.2.8-.1.2-.2.5-.4.7-.2.2-.3.4-.6.5-.2.1-.3.1-.4.2-.1 0-.2 0-.3-.1-.1-.1-.2-.1-.2-.2-.1-.1-.1-.2-.2-.4l2.4-3.9v.2zm-2.4.6c0-.3.1-.5.2-.8.1-.2.2-.5.4-.7.2-.2.4-.4.6-.5.2-.1.3-.2.5-.2.1 0 .2 0 .3.1.1.1.2.1.2.3.1.1.1.3.1.4l-2.4 3.9v-1.7c.1-.3.1-.5.1-.8zM79.8 140.192v5.4l.4-.2v-6.1l-1.9 2v.5l1.5-1.6zM82.8 138.692v.5l1.5-1.6v5.5l.4-.3v-6.1l-.1.1-1.8 1.9zM88.7 134.992l.1 5.5.4-.3v-6.1l-.1.1-1.8 1.9v.5l1.4-1.6zM91.9 137.992c.1.2.3.2.5.2s.5-.1.7-.2c.3-.2.5-.4.7-.6.2-.3.4-.5.5-.8.1-.3.2-.6.3-1 .1-.3.1-.7.1-1v-1.3c0-.3 0-.6-.1-.9-.1-.3-.2-.5-.3-.6-.1-.1-.3-.2-.5-.2s-.5.1-.7.2c-.3.2-.5.4-.7.6-.2.3-.4.5-.5.8-.1.3-.2.6-.3 1-.1.3-.1.7-.1 1v1.3c0 .3 0 .6.1.9l.3.6zm2.5-4.6v1.4c0 .3 0 .5-.1.8 0 .3-.1.5-.2.8-.1.2-.2.5-.4.7-.2.2-.3.4-.6.5-.2.1-.3.2-.4.2-.1 0-.2 0-.3-.1-.1-.1-.2-.1-.2-.2-.1-.1-.1-.2-.1-.4l2.4-3.9c-.1 0-.1.1-.1.2zm-2.4.7c0-.3.1-.5.2-.8.1-.2.2-.5.4-.7.2-.2.3-.4.6-.5.2-.1.3-.2.5-.2.1 0 .2 0 .3.1.1.1.2.1.2.3.1.1.1.3.1.4l-2.3 3.9v-1.7-.8zM99.2 129.792c-.1-.3-.2-.5-.3-.6-.1-.1-.3-.2-.5-.2s-.5.1-.7.2c-.3.2-.5.4-.7.6-.2.3-.4.5-.5.8-.1.3-.2.6-.3 1-.1.3-.1.7-.1 1v1.3c0 .3 0 .6.1.9.1.3.2.5.3.6.1.2.3.2.5.2s.5-.1.7-.2c.3-.2.5-.4.7-.6.2-.3.4-.5.5-.8.1-.3.2-.6.3-1 .1-.3.1-.7.1-1v-1.3c0-.4 0-.7-.1-.9zm-2.8 3.9v-1.4c0-.3 0-.5.1-.8 0-.3.1-.5.2-.8.1-.2.2-.5.4-.7.2-.2.3-.4.6-.5.2-.1.3-.2.5-.2.1 0 .2 0 .3.1.1.1.2.1.2.3.1.1.1.3.1.4l-2.4 3.9v-.3zm2.4-.6c0 .3-.1.5-.2.8-.1.2-.2.5-.4.7-.2.2-.4.4-.6.5-.2.1-.3.1-.4.2-.1 0-.2 0-.3-.1-.1-.1-.2-.1-.2-.2-.1-.1-.1-.2-.1-.4l2.4-3.9v1.7c-.1.1-.1.4-.2.7zM100.7 128.392v.4l1.5-1.5v5.4l.4-.2v-6.1h-.1l-1.8 2zM106.7 130.092l.4-.2v-6.1h-.1l-1.8 2v.5l1.4-1.6.1 5.4zM109.8 127.592c.1.2.3.2.5.2s.5-.1.7-.2c.3-.2.5-.4.7-.6.2-.3.4-.5.5-.8.1-.3.2-.6.3-1 .1-.3.1-.7.1-1v-1.3c0-.3 0-.6-.1-.9-.1-.3-.2-.5-.3-.6-.1-.1-.3-.2-.5-.2s-.5.1-.7.2c-.3.2-.5.4-.7.6-.2.3-.4.5-.5.8-.1.3-.2.6-.3 1-.1.3-.1.7-.1 1v1.3c0 .3 0 .6.1.9.1.3.2.5.3.6zm2.5-4.5v1.4c0 .3 0 .5-.1.8 0 .3-.1.5-.2.8-.1.2-.2.5-.4.7-.2.2-.3.4-.6.5-.2.1-.3.1-.4.2-.1 0-.2 0-.3-.1-.1-.1-.2-.1-.2-.2-.1-.1-.1-.2-.2-.4l2.4-3.9v.2zm-2.4.6c0-.3.1-.5.2-.8.1-.2.2-.5.4-.7.2-.2.3-.4.6-.5.2-.1.3-.2.5-.2.1 0 .2 0 .3.1.1.1.2.1.2.3.1.1.1.3.1.4l-2.4 3.9v-1.7c.1-.2.1-.5.1-.8zM115.6 124.992l.4-.3v-6.1.1l-1.9 1.9v.5l1.5-1.6v5.5zM118.8 122.492c.1.2.3.2.5.2s.5-.1.7-.2c.3-.2.5-.4.7-.6.2-.3.4-.5.5-.8.1-.3.2-.6.3-1 .1-.3.1-.7.1-1v-1.3c0-.3 0-.6-.1-.9-.1-.3-.2-.5-.3-.6-.1-.1-.3-.2-.5-.2s-.5.1-.7.2c-.3.2-.5.4-.7.6-.2.3-.4.5-.5.8-.1.3-.2.6-.3 1-.1.3-.1.7-.1 1v1.3c0 .3 0 .6.1.9l.3.6zm2.5-4.6v1.4c0 .3 0 .5-.1.8 0 .3-.1.5-.2.8-.1.2-.2.5-.4.7-.2.2-.3.4-.6.5-.2.1-.3.2-.4.2-.1 0-.2 0-.3-.1-.1-.1-.2-.1-.2-.2-.1-.1-.1-.2-.2-.4l2.4-3.9v.2zm-2.4.7c0-.3.1-.5.2-.8.1-.2.2-.5.4-.7.2-.2.3-.4.6-.5.2-.1.3-.2.5-.2.1 0 .2 0 .3.1.1.1.2.1.2.3.1.1.1.3.1.4l-2.4 3.9v-1.7c0-.3 0-.6.1-.8zM123.1 115.892l.2-.2v-.5l-.2.2v.5zM13.4 194.092c.2-.3.4-.5.5-.8.1-.3.2-.6.3-1 .1-.3.1-.7.1-1v-1.3c0-.3 0-.6-.1-.9-.1-.3-.2-.5-.3-.6-.1-.1-.3-.2-.5-.2-.1 0-.3 0-.4.1v.4h.1c.1 0 .2 0 .3.1.1.1.2.1.2.3.1.1.1.3.1.4l-.8 1.3v.5l.9-1.4v1.7c0 .3 0 .5-.1.8 0 .3-.1.5-.2.8-.1.2-.2.5-.4.7l-.2.2v.4c.3-.2.4-.3.5-.5zM18.7 186.592c-.1-.3-.2-.5-.3-.6-.1-.1-.3-.2-.5-.2s-.5.1-.7.2c-.3.2-.5.4-.7.6-.2.3-.4.5-.5.8-.1.3-.2.6-.3 1-.1.3-.1.7-.1 1v1.3c0 .3 0 .6.1.9.1.3.2.5.3.6.1.2.3.2.5.2s.5-.1.7-.2c.3-.2.5-.4.7-.6.2-.3.4-.5.5-.8.1-.3.2-.6.3-1 .1-.3.1-.7.1-1v-1.3c0-.4 0-.7-.1-.9zm-2.8 3.9v-1.4c0-.3 0-.5.1-.8 0-.3.1-.5.2-.8.1-.2.2-.5.4-.7.2-.2.3-.4.6-.5.2-.1.3-.2.5-.2.1 0 .2 0 .3.1.1.1.2.1.2.3.1.1.1.3.1.4l-2.4 3.9v-.3zm2.4-.6c0 .3-.1.5-.2.8-.1.2-.2.5-.4.7-.2.2-.3.4-.6.5-.2.1-.3.2-.4.2-.1 0-.2 0-.3-.1-.1-.1-.2-.1-.2-.2-.1-.1-.1-.2-.2-.4l2.4-3.9v1.7c0 .1 0 .4-.1.7zM21.6 183.992l.1 5.5.4-.2v-6.1H22l-1.8 1.9v.5l1.4-1.6zM27.7 181.392c-.1-.3-.2-.5-.3-.6-.1-.1-.3-.2-.5-.2s-.5.1-.7.2c-.3.2-.5.4-.7.6-.2.3-.4.5-.5.8-.1.3-.2.6-.3 1-.1.3-.1.7-.1 1v1.3c0 .3 0 .6.1.9.1.3.2.5.3.6.1.2.3.2.5.2s.5-.1.7-.2c.3-.2.5-.4.7-.6.2-.3.4-.5.5-.8.1-.3.2-.6.3-1 .1-.3.1-.7.1-1v-1.3c0-.3-.1-.6-.1-.9zm-2.8 3.9v-1.4c0-.3 0-.5.1-.8 0-.3.1-.5.2-.8.1-.2.2-.5.4-.7.2-.2.3-.4.6-.5.2-.1.3-.2.5-.2.1 0 .2 0 .3.1.1.1.2.1.2.3.1.1.1.3.1.4l-2.4 3.9v-.3zm2.4-.6c0 .3-.1.5-.2.8-.1.2-.2.5-.4.7-.2.2-.3.4-.6.5-.2.1-.3.2-.4.2-.1 0-.2 0-.3-.1-.1-.1-.2-.1-.2-.2-.1-.1-.1-.2-.1-.4l2.4-3.9v1.7c-.2.2-.2.4-.2.7zM32.1 178.792c-.1-.3-.2-.5-.3-.6-.1-.1-.3-.2-.5-.2s-.5.1-.7.2c-.3.2-.5.4-.7.6-.2.3-.4.5-.5.8-.1.3-.2.6-.3 1-.1.3-.1.7-.1 1v1.3c0 .3 0 .6.1.9.1.3.2.5.3.6.1.2.3.2.5.2s.5-.1.7-.2c.3-.2.5-.4.7-.6.2-.3.4-.5.5-.8.1-.3.2-.6.3-1 .1-.3.1-.7.1-1v-1.3c.1-.3 0-.6-.1-.9zm-2.7 3.9v-1.4c0-.3 0-.5.1-.8 0-.3.1-.5.2-.8.1-.2.2-.5.4-.7.2-.2.3-.4.6-.5.2-.1.3-.2.5-.2.1 0 .2 0 .3.1.1.1.2.1.2.3.1.1.1.3.1.4l-2.4 3.9v-.3zm2.4-.6c0 .3-.1.5-.2.8-.1.2-.2.5-.4.7-.2.2-.4.4-.6.5-.2.1-.3.1-.4.2-.1 0-.2 0-.3-.1-.1-.1-.2-.1-.2-.2-.1-.1-.1-.2-.1-.4l2.4-3.9v1.7c-.2.2-.2.4-.2.7zM35.1 176.292v5.5l.4-.3v-6.1l-.1.1-1.8 1.9v.5l1.5-1.6zM39.6 179.192l.4-.3v-6.1l-.1.1-1.8 1.9v.5l1.4-1.6.1 5.5zM45.6 171.092c-.1-.3-.2-.5-.3-.6-.1-.1-.3-.2-.5-.2s-.5.1-.7.2c-.3.2-.5.4-.7.6-.2.3-.4.5-.5.8-.1.3-.2.6-.3 1-.1.3-.1.7-.1 1v1.3c0 .3 0 .6.1.9.1.3.2.5.3.6.1.2.3.2.5.2s.5-.1.7-.2c.3-.2.5-.4.7-.6.2-.3.4-.5.5-.8.1-.3.2-.6.3-1 .1-.3.1-.7.1-1v-1.3c0-.4-.1-.7-.1-.9zm-2.8 3.9v-1.4c0-.3 0-.5.1-.8 0-.3.1-.5.2-.8.1-.2.2-.5.4-.7.2-.2.3-.4.6-.5.2-.1.3-.2.5-.2.1 0 .2 0 .3.1.1.1.2.1.2.3.1.1.1.3.1.4l-2.4 3.9v-.3zm2.4-.6c0 .3-.1.5-.2.8-.1.2-.2.5-.4.7-.2.2-.3.4-.6.5-.2.1-.3.1-.4.2-.1 0-.2 0-.3-.1-.1-.1-.2-.1-.2-.2-.1-.1-.1-.2-.2-.4l2.4-3.9v1.7c-.1.1-.1.4-.1.7zM47.2 174.092c.1.2.3.2.5.2s.5-.1.7-.2c.3-.2.5-.4.7-.6.2-.3.4-.5.5-.8.1-.3.2-.6.3-1 .1-.3.1-.7.1-1v-1.3c0-.3 0-.6-.1-.9-.1-.3-.2-.5-.3-.6-.1-.1-.3-.2-.5-.2s-.5.1-.7.2c-.3.2-.5.4-.7.6-.2.3-.4.5-.5.8-.1.3-.2.6-.3 1-.1.3-.1.7-.1 1v1.3c0 .3 0 .6.1.9l.3.6zm2.5-4.5v1.4c0 .3 0 .5-.1.8 0 .3-.1.5-.2.8-.1.2-.2.5-.4.7-.2.2-.3.4-.6.5-.2.1-.3.2-.4.2-.1 0-.2 0-.3-.1-.1-.1-.2-.1-.2-.2-.1-.1-.1-.2-.2-.4l2.4-3.9v.2zm-2.4.6c0-.3.1-.5.2-.8.1-.2.2-.5.4-.7.2-.2.3-.4.6-.5.2-.1.3-.2.5-.2.1 0 .2 0 .3.1.1.1.2.1.2.3.1.1.1.3.1.4l-2.4 3.9v-1.7c0-.3.1-.6.1-.8zM51.5 167.092v.4l1.5-1.5v5.4l.4-.2v-6.1h-.1l-1.8 2zM56.2 168.892c.1.2.3.2.5.2s.5-.1.7-.2c.3-.2.5-.4.7-.6.2-.3.4-.5.5-.8.1-.3.2-.6.3-1 .1-.3.1-.7.1-1v-1.3c0-.3 0-.6-.1-.9-.1-.3-.2-.5-.3-.6-.1-.1-.3-.2-.5-.2s-.5.1-.7.2c-.3.2-.5.4-.7.6-.2.3-.4.5-.5.8-.1.3-.2.6-.3 1-.1.3-.1.7-.1 1v1.3c0 .3 0 .6.1.9 0 .3.1.5.3.6zm2.5-4.5v1.4c0 .3 0 .5-.1.8 0 .3-.1.5-.2.8-.1.2-.2.5-.4.7-.2.2-.3.4-.6.5-.2.1-.3.2-.4.2-.1 0-.2 0-.3-.1-.1-.1-.2-.1-.2-.2-.1-.1-.1-.2-.2-.4l2.4-3.9v.2zm-2.4.6c0-.3.1-.5.2-.8.1-.2.2-.5.4-.7.2-.2.3-.4.6-.5.2-.1.3-.2.5-.2.1 0 .2 0 .3.1.1.1.2.1.2.3.1.1.1.3.1.4l-2.4 3.9v-1.7c0-.3 0-.5.1-.8zM61.9 166.292l.5-.3v-6.1l-.1.1-1.8 1.9v.5l1.4-1.6v5.5zM67.9 158.092c-.1-.3-.2-.5-.3-.6-.1-.1-.3-.2-.5-.2s-.5.1-.7.2c-.3.2-.5.4-.7.6-.2.3-.4.5-.5.8-.1.3-.2.6-.3 1-.1.3-.1.7-.1 1v1.3c0 .3 0 .6.1.9.1.3.2.5.3.6.1.2.3.2.5.2s.5-.1.7-.2c.3-.2.5-.4.7-.6.2-.3.4-.5.5-.8.1-.3.2-.6.3-1 .1-.4.1-.7.1-1v-1.3c0-.3 0-.6-.1-.9zm-2.7 4v-1.4c0-.3 0-.5.1-.8 0-.3.1-.5.2-.8.1-.2.2-.5.4-.7.2-.2.3-.4.6-.5.2-.1.3-.2.5-.2.1 0 .2 0 .3.1.1.1.2.1.2.3.1.1.1.3.1.4l-2.4 3.9v-.3zm2.4-.7c0 .3-.1.5-.2.8-.1.2-.2.5-.4.7-.2.2-.4.4-.6.5-.2.1-.3.1-.4.2-.1 0-.2 0-.3-.1-.1-.1-.2-.1-.2-.2-.1-.1-.1-.2-.1-.4l2.4-3.9v1.7c-.2.2-.2.5-.2.7zM70.9 161.092l.4-.3v-6.1l-.1.1-1.8 1.9v.5l1.5-1.6v5.5zM73.9 154.092v.5l1.4-1.6.1 5.5.4-.2v-6.1h-.1l-1.8 1.9zM79.8 150.492v5.4l.5-.2v-6.1h-.1l-1.8 2v.4l1.4-1.5zM85.8 147.792c-.1-.3-.2-.5-.3-.6-.1-.1-.3-.2-.5-.2s-.5.1-.7.2c-.3.2-.5.4-.7.6-.2.3-.4.5-.5.8-.1.3-.2.6-.3 1-.1.3-.1.7-.1 1v1.3c0 .3 0 .6.1.9.1.3.2.5.3.6.1.2.3.2.5.2s.5-.1.8-.2c.3-.2.5-.4.7-.6.2-.3.4-.5.5-.8.1-.3.2-.6.3-1 .1-.3.1-.7.1-1v-1.3c-.1-.3-.1-.6-.2-.9zm-2.8 3.9v-1.4c0-.3 0-.5.1-.8 0-.3.1-.5.2-.8.1-.2.2-.5.4-.7.2-.2.3-.4.6-.5.2-.1.3-.2.5-.2.1 0 .2 0 .3.1.1.1.2.1.2.3.1.1.1.3.1.4l-2.4 3.9c.1-.1 0-.2 0-.3zm2.4-.6c0 .3-.1.5-.2.8-.1.2-.2.5-.4.7-.2.2-.3.4-.6.5-.2.1-.3.2-.4.2-.1 0-.2 0-.3-.1-.1-.1-.2-.1-.2-.2-.1-.1-.1-.2-.2-.4l2.4-3.9v1.7c0 .2 0 .4-.1.7zM90.3 145.192c-.1-.3-.2-.5-.3-.6-.1-.1-.3-.2-.5-.2s-.5.1-.7.2c-.3.2-.5.4-.7.6-.2.3-.4.5-.5.8-.1.3-.2.6-.3 1-.1.3-.1.7-.1 1v1.3c0 .3 0 .6.1.9.1.3.2.5.3.6.1.2.3.2.5.2s.5-.1.7-.2c.3-.2.5-.4.7-.6.2-.3.4-.5.5-.8.1-.3.2-.6.3-1 .1-.3.1-.7.1-1v-1.3c0-.3 0-.6-.1-.9zm-2.8 4v-1.4c0-.3 0-.5.1-.8 0-.3.1-.5.2-.8.1-.2.2-.5.4-.7.2-.2.3-.4.6-.5.2-.1.3-.2.5-.2.1 0 .2 0 .3.1.1.1.2.1.2.3.1.1.1.3.1.4l-2.4 3.9v-.3zm2.4-.7c0 .3-.1.5-.2.8-.1.2-.2.5-.4.7-.2.2-.3.4-.6.5-.2.1-.3.2-.4.2-.1 0-.2 0-.3-.1-.1-.1-.2-.1-.2-.2-.1-.1-.1-.2-.2-.4l2.4-3.9v1.7c0 .2 0 .5-.1.7zM91.8 143.792v.5l1.4-1.6.1 5.5.4-.3v-6.1l-.1.1-1.8 1.9zM97.7 145.592l.5-.3v-6.1l-.1.1-1.9 1.9v.5l1.5-1.6v5.5zM100.9 143.092c.1.2.3.2.5.2s.5-.1.7-.2c.3-.2.5-.4.7-.6.2-.3.4-.5.5-.8.1-.3.2-.6.3-1 .1-.3.1-.7.1-1v-1.3c0-.3 0-.6-.1-.9-.1-.3-.2-.5-.3-.6-.1-.1-.3-.2-.5-.2s-.5.1-.7.2c-.3.2-.5.4-.7.6-.2.3-.4.5-.5.8-.1.3-.2.6-.3 1-.1.3-.1.7-.1 1v1.3c0 .3 0 .6.1.9l.3.6zm2.5-4.5v1.4c0 .3 0 .5-.1.8 0 .3-.1.5-.2.8-.1.2-.2.5-.4.7-.2.2-.4.4-.6.5-.2.1-.3.1-.4.2-.1 0-.2 0-.3-.1-.1-.1-.2-.1-.2-.2-.1-.1-.1-.2-.1-.4l2.4-3.9c-.1 0-.1.1-.1.2zm-2.4.6c0-.3.1-.5.2-.8.1-.2.2-.5.4-.7.2-.2.3-.4.6-.5.2-.1.3-.2.5-.2.1 0 .2 0 .3.1.1.1.2.1.2.3.1.1.1.3.1.4l-2.4 3.9v-1.7c0-.3.1-.6.1-.8zM106.7 140.392l.4-.2v-6.1h-.1l-1.8 2v.4l1.5-1.5v5.4zM109.7 133.492v.5l1.4-1.6.1 5.4.4-.2v-6.1h-.1l-1.8 2zM115.6 135.292l.5-.3-.1-6.1v.1l-1.9 1.9v.5l1.5-1.6v5.5zM121.6 127.092c-.1-.3-.2-.5-.3-.6-.1-.1-.3-.2-.5-.2s-.5.1-.7.2c-.3.2-.5.4-.7.6-.2.3-.4.5-.5.8-.1.3-.2.6-.3 1-.1.3-.1.7-.1 1v1.3c0 .3 0 .6.1.9.1.3.2.5.3.6.1.2.3.2.5.2s.5-.1.7-.2c.3-.2.5-.4.7-.6.2-.3.4-.5.5-.8.1-.3.2-.6.3-1 .1-.3.1-.7.1-1v-1.3c0-.3 0-.6-.1-.9zm-2.8 4v-1.4c0-.3 0-.5.1-.8 0-.3.1-.5.2-.8.1-.2.2-.5.4-.7.2-.2.3-.4.6-.5.2-.1.3-.2.5-.2.1 0 .2 0 .3.1.1.1.2.1.2.3.1.1.1.3.1.4l-2.4 3.9v-.3zm2.4-.7c0 .3-.1.5-.2.8-.1.2-.2.5-.4.7-.2.2-.3.4-.6.5-.2.1-.3.2-.4.2-.1 0-.2 0-.3-.1-.1-.1-.2-.1-.2-.2-.1-.1-.1-.2-.2-.4l2.4-3.9v1.7c0 .2 0 .5-.1.7zM123.1 126.192l.2-.3v-.4l-.2.2v.5zM13.2 198.592l-.1.1H13l.1 6.1.1-.1v-6.1zM17.6 196.092l-1.9 1.9v.5l1.5-1.6v5.5l.5-.3-.1-6.1v.1zM23.2 194.292c-.1-.3-.2-.5-.3-.6-.1-.1-.3-.2-.5-.2s-.5.1-.7.2c-.3.2-.5.4-.7.6-.2.3-.4.5-.5.8-.1.3-.2.6-.3 1-.1.3-.1.7-.1 1v1.3c0 .3 0 .6.1.9.1.3.2.5.3.6.1.2.3.2.5.2s.5-.1.7-.2c.3-.2.5-.4.7-.6.2-.3.4-.5.5-.8.1-.3.2-.6.3-1 .1-.3.1-.7.1-1v-1.3c0-.4 0-.7-.1-.9zm-2.8 3.9v-1.4c0-.3 0-.5.1-.8 0-.3.1-.5.2-.8.1-.2.2-.5.4-.7.2-.2.3-.4.6-.5.2-.1.3-.2.5-.2.1 0 .2 0 .3.1.1.1.2.1.2.3.1.1.1.3.1.4l-2.4 3.9v-.3zm2.4-.6c0 .3-.1.5-.2.8-.1.2-.2.5-.4.7-.2.2-.3.4-.6.5-.2.1-.3.2-.4.2-.1 0-.2 0-.3-.1-.1-.1-.2-.1-.2-.2-.1-.1-.1-.2-.2-.4l2.4-3.9v1.7c0 .1 0 .4-.1.7zM26.5 190.892l-1.8 1.9v.5l1.4-1.6.1 5.5.4-.2v-6.1h-.1zM31 188.292l-1.8 2v.4l1.4-1.5v5.4l.5-.2v-6.1H31zM36.7 186.492c-.1-.3-.2-.5-.3-.6-.1-.1-.3-.2-.5-.2s-.5.1-.7.2c-.3.2-.5.4-.7.6-.2.3-.4.5-.5.8-.1.3-.2.6-.3 1-.1.3-.1.7-.1 1v1.3c0 .3 0 .6.1.9.1.3.2.5.3.6.1.2.3.2.5.2s.5-.1.7-.2c.3-.2.5-.4.7-.6.2-.3.4-.5.5-.8.1-.3.2-.6.3-1 .1-.3.1-.7.1-1v-1.3c0-.3-.1-.6-.1-.9zm-2.8 3.9v-1.4c0-.3 0-.5.1-.8 0-.3.1-.5.2-.7.1-.2.2-.5.4-.7.2-.2.3-.4.6-.5.2-.1.3-.2.5-.2.1 0 .2 0 .3.1.1.1.2.1.2.3.1.1.1.3.1.4l-2.4 3.9v-.4zm2.4-.6c0 .3-.1.5-.2.8-.1.2-.2.5-.4.7-.2.2-.3.4-.6.5-.2.1-.3.1-.4.2-.1 0-.2 0-.3-.1-.1-.1-.2-.1-.2-.2-.1-.1-.1-.2-.2-.4l2.4-3.9v1.7c-.1.2-.1.4-.1.7zM39.9 183.192l-1.8 1.9v.5l1.5-1.6v5.5l.4-.3v-6.1l-.1.1zM44.4 180.592l-1.8 1.9v.5l1.4-1.6.1 5.5.4-.3v-6.1l-.1.1zM50.1 178.792c-.1-.3-.2-.5-.3-.6-.1-.1-.3-.2-.5-.2s-.5.1-.7.2c-.3.2-.5.4-.7.6-.2.3-.4.5-.5.8-.1.3-.2.6-.3 1-.1.3-.1.7-.1 1v1.3c0 .3 0 .6.1.9.1.3.2.5.3.6.1.2.3.2.5.2s.5-.1.7-.2c.3-.2.5-.4.7-.6.2-.3.4-.5.5-.8.1-.3.2-.6.3-1 .1-.3.1-.7.1-1v-1.3c0-.4-.1-.7-.1-.9zm-2.8 3.9v-1.4c0-.3 0-.5.1-.8 0-.3.1-.5.2-.8.1-.2.2-.5.4-.7.2-.2.3-.4.6-.5.2-.1.3-.2.5-.2.1 0 .2 0 .3.1.1.1.2.1.2.3.1.1.1.3.1.4l-2.4 3.9v-.3zm2.4-.7c0 .3-.1.5-.2.8-.1.2-.2.5-.4.7-.2.2-.3.4-.6.5-.2.1-.3.2-.4.2-.1 0-.2 0-.3-.1-.1-.1-.2-.1-.2-.2-.1-.1-.1-.2-.2-.4l2.4-3.9v1.7c-.1.2-.1.5-.1.7zM54.5 176.192c-.1-.3-.2-.5-.3-.6-.1-.1-.3-.2-.5-.2s-.5.1-.7.2c-.3.2-.5.4-.7.6-.2.3-.4.5-.5.8-.1.3-.2.6-.3 1-.1.3-.1.7-.1 1v1.3c0 .3 0 .6.1.9.1.3.2.5.3.6.1.2.3.2.5.2s.5-.1.7-.2c.3-.2.5-.4.7-.6.2-.3.4-.5.5-.8.1-.3.2-.6.3-1 .1-.3.1-.7.1-1v-1.3c.1-.4 0-.7-.1-.9zm-2.7 3.9v-1.4c0-.3 0-.5.1-.8 0-.3.1-.5.2-.8.1-.2.2-.5.4-.7.2-.2.3-.4.6-.5.2-.1.3-.2.5-.2.1 0 .2 0 .3.1.1.1.2.1.2.3.1.1.1.3.1.4l-2.4 3.9v-.3zm2.4-.6c0 .3-.1.5-.2.8-.1.2-.2.5-.4.7-.2.2-.3.4-.6.5-.2.1-.3.2-.4.2-.1 0-.2 0-.3-.1-.1-.1-.2-.1-.2-.2-.1-.1-.1-.2-.2-.4l2.4-3.9v1.7c-.1.1-.1.4-.1.7zM59 173.592c-.1-.3-.2-.5-.3-.6-.1-.1-.3-.2-.5-.2s-.5.1-.7.2c-.3.2-.5.4-.7.6-.2.3-.4.5-.5.8-.1.3-.2.6-.3 1-.1.3-.1.7-.1 1v1.3c0 .3 0 .6.1.9.1.3.2.5.3.6.1.2.3.2.5.2s.5-.1.7-.2c.3-.2.5-.4.7-.6.2-.3.4-.5.5-.8.1-.3.2-.6.3-1 .1-.3.1-.7.1-1v-1.3c0-.3 0-.6-.1-.9zm-2.8 3.9v-1.4c0-.3 0-.5.1-.8 0-.3.1-.5.2-.8.1-.2.2-.5.4-.7.2-.2.3-.4.6-.5.2-.1.3-.2.5-.2.1 0 .2 0 .3.1.1.1.2.1.2.3.1.1.1.3.1.4l-2.4 3.9v-.3zm2.4-.6c0 .3-.1.5-.2.8-.1.2-.2.5-.4.7-.2.2-.3.4-.6.5-.2.1-.3.2-.4.2-.1 0-.2 0-.3-.1-.1-.1-.2-.1-.2-.2-.1-.1-.1-.2-.2-.4l2.4-3.9v1.7c0 .2 0 .4-.1.7zM62.3 170.192l-1.8 2v.5l1.4-1.6.1 5.4.4-.2v-6.1h-.1zM66.8 167.592l-1.8 2v.5l1.4-1.6v5.5l.5-.3v-6.1h-.1zM71.3 165.092l-1.9 1.9v.5l1.5-1.6v5.5l.4-.3v-6.1.1zM76.9 163.292c-.1-.3-.2-.5-.3-.6-.1-.1-.3-.2-.5-.2s-.5.1-.7.2c-.3.2-.5.4-.7.6-.2.3-.4.5-.5.8-.1.3-.2.6-.3 1-.1.3-.1.7-.1 1v1.3c0 .3 0 .6.1.9.1.3.2.5.3.6.1.2.3.2.5.2s.5-.1.7-.2c.3-.2.5-.4.7-.6.2-.3.4-.5.5-.8.1-.3.2-.6.3-1 .1-.3.1-.7.1-1v-1.3c0-.4 0-.7-.1-.9zm-2.8 3.9v-1.4c0-.3 0-.5.1-.8 0-.3.1-.5.2-.7.1-.2.2-.5.4-.7.2-.2.4-.4.6-.5.2-.1.3-.2.5-.2.1 0 .2 0 .3.1.1.1.2.1.2.3.1.1.1.3.1.4l-2.4 3.9v-.4zm2.4-.7c0 .3-.1.5-.2.8-.1.2-.2.5-.4.7-.2.2-.3.4-.6.5-.2.1-.3.1-.4.2-.1 0-.2 0-.3-.1-.1-.1-.2-.1-.2-.2-.1-.1-.1-.2-.2-.4l2.4-3.9v1.7c0 .2 0 .5-.1.7zM81.4 160.692c-.1-.3-.2-.5-.3-.6-.1-.1-.3-.2-.5-.2s-.5.1-.7.2c-.3.2-.5.4-.7.6-.2.3-.4.5-.5.8-.1.3-.2.6-.3 1-.1.3-.1.7-.1 1v1.3c0 .3 0 .6.1.9.1.3.2.5.3.6.1.2.3.2.5.2s.5-.1.7-.2c.3-.2.5-.4.7-.6.2-.3.4-.5.5-.8.1-.3.2-.6.3-1 .1-.3.1-.7.1-1v-1.3c0-.4 0-.7-.1-.9zm-2.8 3.9v-1.4c0-.3 0-.5.1-.8 0-.3.1-.5.2-.8.1-.2.2-.5.4-.7.2-.2.3-.4.6-.5.2-.1.3-.2.5-.2.1 0 .2 0 .3.1.1.1.2.1.2.3.1.1.1.3.1.4l-2.4 3.9v-.3zm2.4-.6c0 .3-.1.5-.2.8-.1.2-.2.5-.4.7-.2.2-.3.4-.6.5-.2.1-.3.1-.4.2-.1 0-.2 0-.3-.1-.1-.1-.2-.1-.2-.2-.1-.1-.1-.2-.2-.4l2.4-3.9v1.7c0 .1-.1.4-.1.7zM84.7 157.292l-1.8 2v.4l1.4-1.5v5.4l.5-.2v-6.1h-.1zM89.2 154.692l-1.9 2v.5l1.5-1.6v5.4l.4-.2v-6.1zM94.8 152.892c-.1-.3-.2-.5-.3-.6-.1-.1-.3-.2-.5-.2s-.5.1-.7.2c-.3.2-.5.4-.7.6-.2.3-.4.5-.5.8-.1.3-.2.6-.3 1-.1.3-.1.7-.1 1v1.3c0 .3 0 .6.1.9.1.3.2.5.3.6.1.2.3.2.5.2s.5-.1.7-.2c.2-.1.5-.4.7-.6.2-.3.4-.5.5-.8.1-.3.2-.6.3-1 .1-.3.1-.7.1-1v-1.3c0-.3 0-.6-.1-.9zm-2.8 3.9v-1.4c0-.3 0-.5.1-.8 0-.3.1-.5.2-.8.1-.2.2-.5.4-.7.2-.2.3-.4.6-.5.2-.1.3-.2.5-.2.1 0 .2 0 .3.1.1.1.2.1.2.3.1.1.1.3.1.4l-2.4 3.9v-.3zm2.4-.6c0 .3-.1.5-.2.8-.1.2-.2.5-.4.7-.2.2-.3.4-.6.5-.2.1-.3.2-.4.2-.1 0-.2 0-.3-.1-.1-.1-.2-.1-.2-.2-.1-.1-.1-.2-.1-.4l2.4-3.9v1.7c-.1.2-.1.5-.2.7zM98.1 149.592l-1.8 1.9v.5l1.4-1.6.1 5.5.4-.3v-6.1l-.1.1zM103.8 147.692c-.1-.3-.2-.5-.3-.6-.1-.1-.3-.2-.5-.2s-.5.1-.7.2c-.3.2-.5.4-.7.6-.2.3-.4.5-.5.8-.1.3-.2.6-.3 1-.1.3-.1.7-.1 1v1.3c0 .3 0 .6.1.9.1.3.2.5.3.6.1.2.3.2.5.2s.5-.1.7-.2c.3-.2.5-.4.7-.6.2-.3.4-.5.5-.8.1-.3.2-.6.3-1 .1-.3.1-.7.1-1v-1.3c0-.3-.1-.6-.1-.9zm-2.8 4v-1.4c0-.3 0-.5.1-.8 0-.3.1-.5.2-.8.1-.2.2-.5.4-.7.2-.2.3-.4.6-.5.2-.1.3-.2.5-.2.1 0 .2 0 .3.1.1.1.2.1.2.3.1.1.1.3.1.4l-2.4 3.9v-.3zm2.4-.7c0 .3-.1.5-.2.8-.1.2-.2.5-.4.7-.2.2-.4.4-.6.5-.2.1-.3.1-.4.2-.1 0-.2 0-.3-.1-.1-.1-.2-.1-.2-.2-.1-.1-.1-.2-.1-.4l2.4-3.9v1.7c-.2.2-.2.5-.2.7zM107.1 144.392l-1.9 1.9v.5l1.5-1.6v5.5l.4-.2v-6.1zM112.7 142.592c-.1-.3-.2-.5-.3-.6-.1-.1-.3-.2-.5-.2s-.5.1-.7.2c-.3.2-.5.4-.7.6-.2.3-.4.5-.5.8-.1.3-.2.6-.3 1-.1.3-.1.7-.1 1v1.3c0 .3 0 .6.1.9.1.3.2.5.3.6.1.2.3.2.5.2s.5-.1.7-.2c.3-.2.5-.4.7-.6.2-.3.4-.5.5-.8.1-.3.2-.6.3-1 .1-.3.1-.7.1-1v-1.3c0-.3 0-.6-.1-.9zm-2.8 3.9v-1.4c0-.3 0-.5.1-.8 0-.3.1-.5.2-.7.1-.2.2-.5.4-.7.2-.2.3-.4.6-.5.2-.1.3-.2.5-.2.1 0 .2 0 .3.1.1.1.2.1.2.3.1.1.1.3.1.4l-2.4 3.9v-.4zm2.4-.6c0 .3-.1.5-.2.8-.1.2-.2.5-.4.7-.2.2-.3.4-.6.5-.2.1-.3.1-.4.2-.1 0-.2 0-.3-.1-.1-.1-.2-.1-.2-.2-.1-.1-.1-.2-.2-.4l2.4-3.9v1.7c0 .1 0 .4-.1.7zM116 139.192l-1.8 2v.5l1.4-1.6.1 5.4.4-.2v-6.1h-.1zM120.5 136.592l-1.8 2v.5l1.4-1.6v5.5l.5-.3v-6.1h-.1zM123.1 136.492l.3-.3v-.4l-.3.2v.5zM13.5 208.792c-.1 0-.3 0-.4.1v.4h.1c.1 0 .2 0 .3.1l.1.1.5-.3s0-.1-.1-.1c-.1-.2-.3-.2-.5-.3zM17.6 206.392l-1.6 1.7.9-.6.3-.3v.2l.5-.3v-.8l-.1.1zM22.1 203.792l-1.7 1.7 1-.5.3-.4v.2l.4-.3v-.8.1zM26.9 201.092c-.2 0-.5.1-.7.2-.3.2-.5.4-.7.6-.2.3-.4.5-.5.8 0 .1 0 .1-.1.2l.5-.3c.1-.2.2-.3.3-.4.2-.2.3-.4.6-.5.2-.1.3-.2.5-.2.1 0 .2 0 .3.1l.1.1.5-.3s0-.1-.1-.1c-.3-.1-.5-.2-.7-.2zM31.4 198.492c-.2 0-.5.1-.7.2-.3.2-.5.4-.7.6-.2.3-.4.5-.5.8 0 .1 0 .1-.1.2l.5-.3c.1-.2.2-.3.3-.4.2-.2.3-.4.6-.5.2-.1.3-.2.5-.2.1 0 .2 0 .3.1l.1.1.3-.3s0-.1-.1-.1c-.1-.1-.3-.2-.5-.2zM35.5 195.992l-1.7 1.8 1-.6.3-.3v.1l.5-.2v-.8h-.1zM40.3 193.292c-.2 0-.5.1-.7.2-.3.2-.5.4-.7.6-.2.3-.4.5-.5.8 0 .1 0 .1-.1.2l.5-.3c.1-.2.2-.3.3-.4.2-.2.4-.4.6-.5.2-.1.3-.2.5-.2.1 0 .2 0 .3.1l.1.1.5-.3s0-.1-.1-.1c-.3-.1-.5-.1-.7-.2zM44.5 190.792l-1.7 1.8 1-.6.3-.3v.2l.4-.3v-.8zM49.3 188.192c-.2 0-.5.1-.7.2-.3.2-.5.4-.7.6-.2.3-.4.5-.5.8 0 .1 0 .1-.1.2l.5-.3c.1-.2.2-.3.3-.4.2-.2.3-.4.6-.5.2-.1.3-.2.5-.2.1 0 .2 0 .3.1l.1.1.5-.3s0-.1-.1-.1c-.3-.1-.5-.2-.7-.2zM53.4 185.692l-1.7 1.7 1-.5.3-.4v.2l.5-.3v-.8l-.1.1zM57.9 183.092l-1.7 1.7 1-.5.3-.4v.2l.4-.2v-.8zM62.4 180.492l-1.7 1.8 1-.6.3-.3v.1l.4-.2v-.8zM67.2 177.792c-.2 0-.5.1-.7.2-.3.2-.5.4-.7.6-.2.3-.4.5-.5.8 0 .1 0 .1-.1.2l.5-.3c.1-.2.2-.3.3-.4.2-.2.3-.4.6-.5.2-.1.3-.2.5-.2.1 0 .2 0 .3.1l.1.1.5-.3s0-.1-.1-.1c-.3-.1-.5-.1-.7-.2zM71.7 175.292c-.2 0-.5.1-.7.2-.3.2-.5.4-.7.6-.2.3-.4.5-.5.8 0 .1 0 .1-.1.2l.5-.3c.1-.2.2-.3.3-.4.2-.2.4-.4.6-.5.2-.1.3-.2.5-.2.1 0 .2 0 .3.1l.1.1.5-.3s0-.1-.1-.1c-.4-.2-.5-.2-.7-.2zM75.8 172.792l-1.7 1.7 1-.5.3-.4v.2l.4-.3v-.8.1zM80.2 170.192l-1.6 1.7 1-.5.3-.4v.2l.4-.3v-.8l-.1.1zM85.1 167.492c-.2 0-.5.1-.7.2-.3.2-.5.4-.7.6-.2.3-.4.5-.5.8 0 .1 0 .1-.1.2l.5-.3c.1-.2.2-.3.3-.4.2-.2.3-.4.6-.5.2-.1.3-.2.5-.2.1 0 .2 0 .3.1l.1.1.5-.3s0-.1-.1-.1c-.3-.1-.5-.2-.7-.2zM89.2 164.992l-1.7 1.8 1-.6.3-.3v.1l.5-.2v-.8h-.1zM93.7 162.392l-1.7 1.8 1-.6.3-.3v.1l.4-.2v-.8zM98.1 159.792l-1.6 1.8 1-.6.3-.3v.2l.4-.3v-.8h-.1zM103 157.192c-.2 0-.5.1-.7.2-.3.2-.5.4-.7.6-.2.3-.4.5-.5.8 0 .1 0 .1-.1.2l.5-.3c.1-.2.2-.3.3-.4.2-.2.3-.4.6-.5.2-.1.3-.2.5-.2.1 0 .2 0 .3.1l.1.1.5-.3s0-.1-.1-.1c-.3-.1-.5-.2-.7-.2zM107.1 154.692l-1.7 1.7 1-.5.3-.4v.2l.5-.3v-.8l-.1.1zM111.9 151.992c-.2 0-.5.1-.7.2-.3.2-.5.4-.7.6-.2.3-.4.5-.5.8 0 .1 0 .1-.1.2l.5-.3c.1-.1.1-.3.3-.4.2-.2.3-.4.6-.5.2-.1.3-.2.5-.2.1 0 .2 0 .3.1l.1.1.5-.3s0-.1-.1-.1c-.3-.1-.5-.2-.7-.2zM116.4 149.392c-.2 0-.5.1-.7.2-.3.2-.5.4-.7.6-.2.3-.4.5-.5.8 0 .1 0 .1-.1.2l.5-.3c.1-.2.2-.3.3-.4.2-.2.3-.4.6-.5.2-.1.3-.2.5-.2.1 0 .2 0 .3.1l.1.1.3-.2s0-.1-.1-.1c-.1-.2-.3-.3-.5-.3zM120.9 146.792c-.2 0-.5.1-.8.2-.3.2-.5.4-.7.6-.2.3-.4.5-.5.8 0 .1 0 .1-.1.2l.5-.3c.1-.2.2-.3.3-.4.2-.2.3-.4.6-.5.2-.1.3-.2.5-.2.1 0 .2 0 .3.1l.1.1.5-.3s0-.1-.1-.1c-.2-.1-.4-.2-.6-.2zM123.4 146.092v-.1l-.1.1h.1z" fill="#21b35b" fill-rule="nonzero"/>
  <path d="M367.129 276.067l55.425-32-55.425-32-55.426 32 55.426 32zM228.565 276.067l55.425-32-55.425-32-55.426 32 55.426 32zM228.565 356.067l55.425-32-55.425-32-55.426 32 55.426 32z" fill="none" stroke="#ededed"/>
  <path d="M214.708 284.067l-69.282 40 138.564 80M202.462 196.997l26.103 15.07-69.282 40 55.425 32M457.202 304.063l-90.073 52.004-38.964-22.496 124.707-72-63.565-36.699-22.178-12.805" fill="none" stroke="#e4e4e4"/>
  <path d="M242.421 252.067v32l55.426 32v-32l-55.426-32z" fill="#dadada"/>
  <path d="M297.847 284.067v32l55.425-32v-32l-55.425 32z" fill="#e8e8e8"/>
  <path d="M242.421 252.067l55.426-32 55.425 32-55.425 32-55.426-32z" fill="gray"/>
  <path id="connectorPath" d="M137.504 112.48l41.294-23.841 106.565 61.525 36.993-21.358v-35.56" fill="none" stroke-width="2" stroke="#4778bc"/>
  <path d="M324.521 87.719c.081.054.189.135.27.27 2.193 2.815 2.518 5.224 2.491 6.388-.027 1.164-.325 3.194-2.545 3.492-.081.027-.189 0-.27-.054l-4.304-2.49c-.081-.055-.163-.136-.271-.271-2.138-2.815-2.463-5.197-2.463-6.388 0-1.191.325-3.194 2.544-3.492.082-.027.19 0 .271.054l4.277 2.491z" fill="#4778bc" fill-rule="nonzero"/>
  <path d="M174.2 180.432l38.149-22.026 55.426 32" fill="none" stroke="#e4e4e4"/>
</svg>
