<svg xmlns="http://www.w3.org/2000/svg" xmlns:xlink="http://www.w3.org/1999/xlink"  viewBox="0 0 500 450" preserveAspectRatio="xMidYMid meet"  >
    <defs id="svgEditorDefs"><polygon id="svgEditorShapeDefs" fill="khaki" stroke="black" style="vector-effect: non-scaling-stroke; stroke-width: 1px;"/>
    </defs>
    <rect id="svgEditorBackground" x="0" y="0" width="830" height="1110" style="fill: none; stroke: none;"/>
    <path d="M 69.4286 -87.1428 c -0.0759964 0 -0.150002 0.00500107 -0.225998 0.00500107 c -1.987 -18.002 -17.243 -32.005 -35.774 -32.005 s -33.787 14.004 -35.774 32.005 c -0.0760002 0 -0.15 -0.00500107 -0.226 -0.00500107 c -15.464 0 -28 12.536 -28 28 s 12.536 28 28 28 h 72 c 15.464 0 28 -12.536 28 -28 s -12.536 -28 -28 -28 Z" 
        transform="matrix(3.5 0 0 3.5 114 429)" id="e12_shape" fill="#EEEEEE" style="vector-effect: non-scaling-stroke; stroke-width: 1px;"/>
    <path d="M-20.62984275817871,-399.2805480957031c-17.67300033569336,0,-32,14.32699966430664,-32,32v24h-8c-4.549999237060547,0.8370056748390198,-8,4.816001892089844,-8,9.609001159667969v52.613006591796875c0,5.399993896484375,4.378000259399414,9.777999877929688,9.777999877929688,9.777999877929688h76.44499969482422c5.400001525878906,0,9.777999877929688,-4.3780059814453125,9.777999877929688,-9.777999877929688v-52.612998962402344c0,-4.791999816894531,-3.4499969482421875,-8.771995544433594,-8,-9.609001159667969h-8v-24c0,-17.67300033569336,-14.327003479003906,-32,-32,-32ZM-44.62989044189453,-367.280517578125c0,-13.255001068115234,10.744998931884766,-24,24,-24s24,10.744998931884766,24,24v24h-48v-24ZM-16.62984848022461,-304.359619140625v9.079002380371094c0,2.2089996337890625,-1.7910003662109375,4,-4,4s-4,-1.7910003662109375,-4,-4v-9.079002380371094c-2.3889999389648438,-1.384002685546875,-4,-3.9619979858398438,-4,-6.920997619628906c0,-4.418998718261719,3.5810012817382812,-8,8,-8s8,3.5810012817382812,8,8c0,2.9589996337890625,-1.6110000610351562,5.5370025634765625,-4,6.920997619628906Z" 
        transform="matrix(1.16386 0 0 1.16386 260.593 566.426)" id="e13_shape" style="vector-effect: non-scaling-stroke; stroke-width: 1px; fill: rgb(39, 70, 116);"/>
    <path d="M-23.518409729003906,-399.5932312011719c-17.67300033569336,0,-32,14.32699966430664,-32,32v24h-8c-4.550000190734863,0.8370060920715332,-8,4.815999984741211,-8,9.609000205993652v52.612998962402344c0,5.399990081787109,4.377999782562256,9.777999877929688,9.777999877929688,9.777999877929688h76.44499969482422c5.400000095367432,0,9.777999877929688,-4.378009796142578,9.777999877929688,-9.777999877929688v-52.612998962402344c0,-4.791999816894531,-3.450000047683716,-8.772000312805176,-8,-9.609000205993652h-8v-24c0,-17.67300033569336,-14.32699966430664,-32,-32,-32ZM-47.51839065551758,-367.59326171875c0,-13.255000114440918,10.744999885559082,-24,24,-24s24,10.744999885559082,24,24v24h-48v-24ZM-19.518404006958008,-304.6728515625v9.079000473022461c0,2.2090001106262207,-1.7909998893737793,4,-4,4s-4,-1.7909998893737793,-4,-4v-9.079000473022461c-2.3889999389648438,-1.3840000629425049,-4,-3.9619998931884766,-4,-6.921000003814697c0,-4.419000148773193,3.5809998512268066,-8,8,-8s8,3.5809998512268066,8,8c0,2.9590001106262207,-1.6110000610351562,5.5370001792907715,-4,6.921000003814697Z" 
        transform="matrix(1.16386 0 0 1.16386 260.593 566.426)" id="e46_shape" style="vector-effect: non-scaling-stroke; stroke-width: 1px; fill: rgb(70, 119, 188);"/>
    <path d="M -435.504 -1487.06 c 5.061 0 9.9 -0.948998 14.356 -2.665 l 12.389 12.388 h 11.314 v 11.314 h 11.314 v 11.314 h 11.314 v 11.314 c 6.249 6.248 16.379 6.248 22.627 0 s 6.24799 -16.379 0 -22.627 l -46.178 -46.177 c 1.841 -4.596 2.864 -9.607 2.864 -14.861 c 0 -22.091 -17.909 -40 -40 -40 s -40 17.909 -40 40 s 17.909 40 40 40 Z M -435.504 -1535.06 c 4.419 0 8 3.581 8 8 s -3.581 8 -8 8 s -8 -3.581 -8 -8 s 3.581 -8 8 -8 Z" 
        transform="matrix(0.360552 0 0 0.360552 251.31 914.871)" id="e14_shape" fill="#AAAAAA" style="vector-effect: non-scaling-stroke; stroke-width: 1px;"/>
    <path d="M 312.253 -1424.36 c 5.061 0 9.9 -0.948998 14.356 -2.665 l 12.389 12.388 h 11.314 v 11.314 h 11.314 v 11.314 h 11.314 v 11.314 c 6.249 6.248 16.379 6.248 22.627 0 s 6.24799 -16.379 0 -22.627 l -46.178 -46.177 c 1.841 -4.596 2.864 -9.607 2.864 -14.861 c 0 -22.091 -17.909 -40 -40 -40 s -40 17.909 -40 40 s 17.909 40 40 40 Z M 312.253 -1472.36 c 4.419 0 8 3.581 8 8 s -3.581 8 -8 8 s -8 -3.581 -8 -8 s 3.581 -8 8 -8 Z" 
        transform="matrix(0.360552 0 0 0.360552 251.31 914.871)" id="e1_shape" fill="#AAAAAA" style="vector-effect: non-scaling-stroke; stroke-width: 1px;"/>
    <path d="M 54.3164 -1496.47 c 5.061 0 9.9 -0.948998 14.356 -2.665 l 12.389 12.388 h 11.314 v 11.314 h 11.314 v 11.314 h 11.314 v 11.314 c 6.249 6.248 16.379 6.248 22.627 0 s 6.24799 -16.379 0 -22.627 l -46.178 -46.177 c 1.841 -4.596 2.864 -9.607 2.864 -14.861 c 0 -22.091 -17.909 -40 -40 -40 s -40 17.909 -40 40 s 17.909 40 40 40 Z M 54.3164 -1544.47 c 4.419 0 8 3.581 8 8 s -3.581 8 -8 8 s -8 -3.581 -8 -8 s 3.581 -8 8 -8 Z" 
        transform="matrix(0.360552 0 0 0.360552 251.31 914.871)" id="e2_shape" fill="#AAAAAA" style="vector-effect: non-scaling-stroke; stroke-width: 1px;"/>
    <path d="M -174.208 -1411.59 c 5.061 0 9.9 -0.948998 14.356 -2.665 l 12.389 12.388 h 11.314 v 11.314 h 11.314 v 11.314 h 11.314 v 11.314 c 6.249 6.248 16.379 6.248 22.627 0 s 6.24799 -16.379 0 -22.627 l -46.178 -46.177 c 1.841 -4.596 2.864 -9.607 2.864 -14.861 c 0 -22.091 -17.909 -40 -40 -40 s -40 17.909 -40 40 s 17.909 40 40 40 Z M -174.208 -1459.59 c 4.419 0 8 3.581 8 8 s -3.581 8 -8 8 s -8 -3.581 -8 -8 s 3.581 -8 8 -8 Z" 
        transform="matrix(0.360552 0 0 0.360552 251.31 914.871)" id="e3_shape" fill="#AAAAAA" style="vector-effect: non-scaling-stroke; stroke-width: 1px;"/>
</svg>