<?xml version="1.0" encoding="UTF-8" standalone="no"?><!DOCTYPE svg PUBLIC "-//W3C//DTD SVG 1.1//EN" "http://www.w3.org/Graphics/SVG/1.1/DTD/svg11.dtd"><svg width="100%" height="100%" viewBox="0 0 596 353" version="1.1" xmlns="http://www.w3.org/2000/svg" xmlns:xlink="http://www.w3.org/1999/xlink" xml:space="preserve" style="fill-rule:evenodd;clip-rule:evenodd;stroke-linecap:round;stroke-linejoin:round;stroke-miterlimit:1.41421;"><path d="M245.54,231.732l55.426,-32l-55.426,-32l-55.426,32l55.426,32Z" style="fill:none;stroke-width:1px;stroke:#ededed;"/><path d="M314.822,191.732l55.426,-32l-55.426,-32l-55.426,32l55.426,32Z" style="fill:none;stroke-width:1px;stroke:#ededed;"/><path d="M453.386,271.732l55.426,-32l-55.426,-32l-55.425,32l55.425,32Z" style="fill:none;stroke-width:1px;stroke:#ededed;"/><path d="M384.104,231.732l55.426,-32l-55.426,-32l-55.425,32l55.425,32Z" style="fill:none;stroke-width:1px;stroke:#ededed;"/><path d="M384.104,311.732l55.426,-32l-55.426,-32l-55.425,32l55.425,32Z" style="fill:none;stroke-width:1px;stroke:#ededed;"/><path d="M314.822,351.732l55.426,-32l-55.426,-32l-55.426,32l55.426,32Z" style="fill:none;stroke-width:1px;stroke:#ededed;"/><path d="M245.54,311.732l55.426,-32l-55.426,-32l-55.426,32l55.426,32Z" style="fill:none;stroke-width:1px;stroke:#ededed;"/><path d="M176.258,271.732l55.426,-32l-55.426,-32l-55.426,32l55.426,32Z" style="fill:none;stroke-width:1px;stroke:#ededed;"/><g><g><circle cx="314.822" cy="40.085" r="20.462" style="fill:#4677bc;"/><circle cx="314.822" cy="40.085" r="28.533" style="fill:none;stroke-width:2px;stroke:#4677bc;stroke-opacity:0.3;"/><circle cx="314.822" cy="40.085" r="38.353" style="fill:none;stroke-width:2px;stroke:#4677bc;stroke-opacity:2.11;"/></g></g><g><circle cx="40.085" cy="237.98" r="20.462" style="fill:#4677bc;"/><circle cx="40.085" cy="237.98" r="28.533" style="fill:none;stroke-width:2px;stroke:#4677bc;stroke-opacity:0.3;"/><circle cx="40.085" cy="237.98" r="38.353" style="fill:none;stroke-width:2px;stroke:#4677bc;stroke-opacity:2.11;"/></g><g><circle cx="555.777" cy="237.98" r="20.462" style="fill:#4677bc;"/><circle cx="555.777" cy="237.98" r="28.533" style="fill:none;stroke-width:2px;stroke:#4677bc;stroke-opacity:0.3;"/><circle cx="555.777" cy="237.98" r="38.353" style="fill:none;stroke-width:2px;stroke:#4677bc;stroke-opacity:2.11;"/></g><path d="M259.396,207.732l55.426,-32l55.426,32l-55.426,32l-55.426,-32Z" style="fill:#808080;"/><path d="M259.396,207.732l0,32l55.426,32l0,-32l-55.426,-32Z" style="fill:#d9d9d9;"/><path d="M370.248,207.732l0,32l-55.426,32l0,-32l55.426,-32Z" style="fill:#b3b3b3;"/><path d="M314.822,175.732l0,-135.647" style="fill:none;stroke-width:1px;stroke-dasharray:3,4,0,0;stroke:#4677bc;"/><path d="M507.122,239.732l-136.874,0" style="fill:none;stroke-width:1px;stroke-dasharray:3,4,0,0;stroke:#4677bc;"/><path d="M259.396,239.732l-217.489,0" style="fill:none;stroke-width:1px;stroke-dasharray:3,4,0,0;stroke:#4677bc;"/><text x="417.104px" y="233.159px" style="font-family:'RobotoMono-Regular', 'Roboto Mono';font-size:6px;fill:#4677bc;">Password=286755fad04869ca</text><text x="86.358px" y="233.159px" style="font-family:'RobotoMono-Regular', 'Roboto Mono';font-size:6px;fill:#4677bc;">Server=myServerAddress;</text><g transform="matrix(2.83277e-16,1,-1,2.83277e-16,1047.48,-2604.04)"><text x="2687.93px" y="724.133px" style="font-family:'RobotoMono-Regular', 'Roboto Mono';font-size:6px;fill:#4677bc;">Database=myDataBase;</text></g></svg>