<svg viewBox="0 0 567 392" xmlns="http://www.w3.org/2000/svg" fill-rule="evenodd" clip-rule="evenodd" stroke-linecap="round" stroke-linejoin="round" stroke-miterlimit="1.41421">
  <g>
    <circle cx="240.823" cy="40.085" r="20.462" fill="#4677bc"/>
    <circle id="second-outer" cx="240.823" cy="40.085" r="28.533" fill="none" stroke-width="2" stroke="#c8d6eb"/>
    <circle id="third-outer" cx="240.823" cy="40.085" r="38.353" fill="none" stroke-width="2" stroke="#ecf1f8"/>
  </g>
  <g>
    <circle cx="40.085" cy="351.645" r="20.462" fill="#4677bc"/>
    <circle id="second-outer1" cx="40.085" cy="351.645" r="28.533" fill="none" stroke-width="2" stroke="#c8d6eb"/>
    <circle id="third-outer1" cx="40.085" cy="351.645" r="38.353" fill="none" stroke-width="2" stroke="#ecf1f8"/>
  </g>
  <g>
    <circle cx="526.408" cy="232.895" r="20.462" fill="#4677bc"/>
    <circle id="second-outer2" cx="526.408" cy="232.895" r="28.533" fill="none" stroke-width="2" stroke="#c8d6eb"/>
    <circle id="third-outer2" cx="526.408" cy="232.895" r="38.353" fill="none" stroke-width="2" stroke="#ecf1f8"/>
  </g>
  <g>
    <path d="M179.541 226.634l55.426-32-55.426-32-55.426 32 55.426 32zM248.823 186.634l55.426-32-55.426-32-55.426 32 55.426 32zM387.387 266.634l55.426-32-55.426-32-55.426 32 55.426 32zM318.105 226.634l55.426-32-55.426-32-55.426 32 55.426 32zM318.105 306.634l55.426-32-55.426-32-55.426 32 55.426 32zM248.823 346.634l55.426-32-55.426-32-55.426 32 55.426 32zM179.541 306.634l55.426-32-55.426-32-55.426 32 55.426 32zM110.259 266.634l55.426-32-55.426-32-55.426 32 55.426 32z" fill="none" stroke="#ededed"/>
    <path d="M193.397 202.634v32l55.426 32v-32l-55.426-32z" fill="#d9d9d9"/>
    <path d="M219.323 234.193c.047.031.11.078.156.156 1.265 1.623 1.452 3.012 1.436 3.683-.015.671-.187 1.842-1.467 2.014-.047.015-.109 0-.156-.032l-2.481-1.435c-.047-.032-.094-.078-.156-.156-1.233-1.624-1.421-2.997-1.421-3.684 0-.686.188-1.841 1.467-2.013.047-.016.11 0 .157.031l2.465 1.436z" fill="#4778bc" fill-rule="nonzero"/>
    <path d="M304.249 202.634v32l-55.426 32v-32l55.426-32z" fill="#b3b3b3"/>
    <path d="M193.397 202.634l55.426-32 55.426 32-55.426 32-55.426-32z" fill="gray"/>
  </g>
  <g>
    <path d="M179.541 226.634l55.426-32-55.426-32-55.426 32 55.426 32zM248.823 186.634l55.426-32-55.426-32-55.426 32 55.426 32zM387.387 266.634l55.426-32-55.426-32-55.426 32 55.426 32zM318.105 226.634l55.426-32-55.426-32-55.426 32 55.426 32zM318.105 306.634l55.426-32-55.426-32-55.426 32 55.426 32zM248.823 346.634l55.426-32-55.426-32-55.426 32 55.426 32zM179.541 306.634l55.426-32-55.426-32-55.426 32 55.426 32zM110.259 266.634l55.426-32-55.426-32-55.426 32 55.426 32z" fill="none" stroke="#ededed"/>
    <path d="M193.397 202.634v32l55.426 32v-32l-55.426-32z" fill="#d9d9d9"/>
    <path d="M304.249 202.634v32l-55.426 32v-32l55.426-32z" fill="#b3b3b3"/>
    <path d="M193.397 202.634l55.426-32 55.426 32-55.426 32-55.426-32z" fill="gray"/>
  </g>
  <g id="serverPath">
    <path d="M193.98 73.536l-14.439 7.663 69.282 40.673-69.282 40 38.534 22.248" fill="none" stroke="#4677bc"/>
    <path d="M196.85 71.879l-3.225 4.765-2.514-4.354 5.739-.411z" fill="#4778bc"/>
    <path d="M193.625 76.644l-2.514-4.354 5.739-.411-3.225 4.765zm-.85-3.471l.917 1.588 1.176-1.738-2.093.15z" fill="#4677bc"/>
  </g>
  <g id="databasePath">
    <path d="M218.075 248.882L80.754 328.164" fill="none" stroke="#4677bc"/>
    <path d="M78.437 329.404l3.226-4.766 2.514 4.355-5.74.411z" fill="#4778bc"/>
    <path d="M84.177 328.993l-5.74.411 3.226-4.766 2.514 4.355zm-3.757-.734l2.093-.15-.917-1.587-1.176 1.737z" fill="#4677bc"/>
  </g>
  <g id="debugPath">
    <path d="M471.109 233.536h-27.713l-98.238 56.717-68.622-39.619" fill="none" stroke="#4677bc"/>
    <path d="M473.697 233.59l-5.177 2.514v-5.028l5.177 2.514z" fill="#4778bc"/>
    <path d="M473.697 233.59l-5.177 2.514v-5.028l5.177 2.514zm-4.177.916l1.888-.916-1.888-.917v1.833z" fill="#4677bc"/>
  </g>
  <g>
    <path d="M394.644 275.805l-2.133-3.694.855-.494c.259-.145.514-.234.765-.267.25-.033.488-.015.714.054.226.07.436.187.631.354.194.166.365.376.513.629l.157.271c.145.255.241.508.288.759.047.251.044.492-.01.723-.053.23-.156.445-.31.646-.154.2-.359.375-.615.525l-.855.494zm-1.433-3.584l1.689 2.926.378-.219c.199-.117.351-.251.457-.404.106-.152.172-.315.199-.489.028-.173.018-.354-.028-.542-.046-.187-.123-.375-.23-.564l-.159-.277c-.11-.186-.235-.346-.375-.478-.139-.133-.291-.231-.453-.294-.163-.062-.336-.086-.521-.069-.184.016-.377.08-.579.192l-.378.218zM399.053 273.327c-.193.112-.389.181-.589.208-.2.028-.391.015-.575-.037-.183-.052-.354-.14-.512-.266-.158-.125-.292-.283-.402-.474l-.062-.107c-.128-.221-.207-.44-.237-.656-.03-.216-.021-.419.027-.608.048-.188.128-.358.24-.509.113-.15.248-.271.405-.362.198-.114.391-.18.578-.197.188-.017.366.007.534.071.168.064.323.165.466.301.143.136.269.3.38.491l.121.211-1.961 1.132c.078.122.169.226.276.311.107.085.221.147.344.185.123.039.25.052.382.038.132-.013.262-.056.389-.129.167-.097.297-.217.388-.36.091-.142.147-.295.169-.456l.416.058c-.006.095-.025.195-.056.298-.032.103-.079.205-.14.305-.062.101-.14.199-.237.294-.096.095-.211.181-.344.258zm-1.482-2.425c-.095.054-.175.123-.239.207-.065.083-.111.178-.141.284-.029.106-.038.221-.029.345.01.124.042.255.097.392l1.476-.852-.02-.036c-.058-.088-.128-.168-.209-.241-.081-.073-.171-.128-.27-.166-.098-.037-.204-.053-.316-.047-.113.006-.229.044-.349.114zM402.48 269.491c.114.196.196.393.247.591.05.197.066.384.047.562-.019.178-.075.342-.169.49-.093.149-.227.274-.401.374-.176.102-.347.159-.512.171-.166.012-.328-.014-.487-.078l.158.325-.432.249-2.25-3.897.47-.271.835 1.446c.025-.163.084-.311.176-.443.093-.133.224-.248.393-.346.176-.101.352-.156.527-.165.175-.009.344.022.507.093.163.071.317.178.464.322.146.145.279.319.397.524l.03.053zm-.5.218c-.077-.134-.163-.253-.259-.359-.096-.106-.2-.188-.311-.247-.11-.059-.228-.089-.352-.089-.124-.001-.254.038-.39.116-.081.047-.149.101-.204.161-.056.06-.099.124-.131.193-.031.069-.052.141-.064.217-.012.075-.014.152-.008.229l.693 1.2c.066.044.134.079.205.107.071.027.145.045.222.053.076.007.155.002.235-.016.079-.018.16-.05.241-.097.129-.074.224-.164.285-.271.062-.106.095-.222.101-.347.005-.125-.013-.256-.054-.392s-.101-.271-.178-.405l-.031-.053zM405.61 268.97c-.013.188-.067.359-.16.514-.094.154-.23.283-.41.386-.143.083-.287.136-.429.159-.143.022-.283.01-.42-.037-.138-.047-.271-.13-.401-.251-.129-.12-.253-.283-.371-.487l-.942-1.632.47-.271.944 1.637c.086.149.17.265.25.35.08.084.161.142.242.173.081.031.163.038.245.023.082-.016.168-.05.257-.102.192-.11.323-.238.396-.384.073-.146.1-.301.081-.466l-1.137-1.969.472-.272 1.585 2.745-.426.246-.246-.362zM406.273 267.23c-.118-.204-.202-.407-.251-.607-.049-.201-.062-.39-.039-.568.024-.178.083-.341.179-.489.095-.147.228-.27.399-.369.169-.098.335-.153.497-.167.162-.014.321.01.476.072l-.15-.313.426-.246 1.552 2.687c.104.181.169.358.193.531.024.173.014.339-.032.496-.046.157-.125.302-.238.435-.112.132-.255.249-.428.348-.071.041-.157.08-.257.117-.101.036-.208.064-.323.081-.115.018-.234.022-.356.011-.122-.01-.241-.042-.355-.096l.081-.422c.098.036.191.061.279.074.089.013.173.016.252.008.079-.007.154-.023.224-.046s.136-.053.199-.089c.111-.065.203-.139.274-.223.071-.084.12-.175.148-.273.028-.099.032-.203.013-.314-.019-.111-.062-.226-.131-.344l-.136-.236c-.031.158-.092.3-.185.427-.092.126-.221.237-.385.332-.167.096-.339.148-.515.155-.177.007-.348-.024-.514-.095-.166-.071-.324-.177-.473-.318-.149-.141-.28-.309-.393-.505l-.031-.054zm.5-.217c.078.133.165.252.262.356.097.104.202.184.315.241.113.057.231.085.355.084.124 0 .251-.038.381-.113.081-.047.149-.099.203-.156.053-.057.096-.118.127-.183.031-.066.053-.135.065-.207.012-.073.017-.147.013-.224l-.727-1.258c-.063-.04-.129-.072-.197-.096-.068-.024-.138-.038-.211-.043-.072-.004-.146.003-.222.02-.075.018-.152.049-.23.094-.132.076-.229.168-.291.277-.063.108-.098.226-.105.353-.006.126.011.258.053.395.042.137.101.273.179.406l.03.054zM408.666 262.784l1.667 1.5-.417-2.222.584-.337 2.133 3.694-.457.264-.851-1.474-.853-1.565.466 2.384-.269.155-1.744-1.574.898 1.467.851 1.474-.457.264-2.132-3.694.581-.336zM412.463 263.654c-.115-.198-.192-.399-.233-.602-.04-.203-.043-.398-.008-.586.035-.187.109-.361.221-.521.113-.161.265-.297.458-.409.195-.112.39-.177.586-.194.197-.018.385.005.564.068.18.063.348.163.503.3.156.137.291.304.405.502l.032.056c.115.198.192.398.232.6.04.203.043.398.007.585-.035.187-.109.36-.222.52-.113.16-.265.296-.458.407-.195.113-.39.178-.586.196-.195.018-.383-.004-.563-.067-.18-.063-.347-.163-.502-.299-.155-.136-.29-.303-.404-.501l-.032-.055zm.501-.216c.078.136.169.256.272.36.103.104.214.183.332.239.119.055.243.082.373.079.129-.002.259-.041.389-.116.129-.075.226-.167.292-.277.066-.11.105-.231.116-.361.011-.131-.002-.267-.041-.408-.039-.141-.097-.28-.175-.415l-.032-.056c-.077-.133-.168-.252-.272-.356-.103-.103-.215-.183-.334-.238-.118-.056-.242-.083-.371-.081-.129.001-.259.039-.389.114-.13.075-.228.168-.293.279-.064.11-.102.231-.114.362-.011.13.003.266.041.407.039.142.097.279.174.413l.032.055zM415.625 261.831c-.118-.205-.201-.408-.248-.609-.048-.202-.059-.392-.035-.57.024-.179.084-.342.179-.49.095-.147.227-.269.394-.366.164-.095.324-.15.478-.166.154-.015.307.003.457.056l-.822-1.423.469-.271 2.25 3.897-.431.249-.187-.277c-.027.164-.087.311-.181.442s-.225.245-.394.343c-.166.096-.337.147-.512.153-.176.007-.347-.025-.514-.096-.167-.07-.326-.175-.476-.315-.151-.14-.283-.308-.396-.504l-.031-.053zm.5-.218c.078.134.165.252.263.356.098.103.204.184.317.24.112.057.231.085.354.085.124-.001.251-.039.382-.114.079-.046.146-.097.199-.152.054-.056.097-.116.129-.181.032-.065.055-.134.068-.205.013-.072.017-.146.013-.223l-.735-1.273c-.125-.077-.26-.121-.405-.134-.145-.012-.294.026-.448.115-.132.076-.229.169-.292.277-.062.108-.097.226-.104.353-.007.127.01.259.051.396.041.138.101.273.178.407l.03.053zM420.88 260.725c-.193.112-.389.181-.589.208-.199.028-.391.015-.574-.037-.184-.052-.354-.14-.512-.266-.158-.125-.292-.283-.403-.474l-.061-.107c-.128-.221-.207-.44-.237-.656-.03-.216-.021-.419.026-.608.048-.188.128-.358.241-.509.112-.151.247-.271.405-.362.197-.114.39-.18.578-.197.187-.017.365.007.533.071.168.064.323.165.466.301.143.136.27.3.38.491l.122.211-1.961 1.132c.077.122.169.226.275.311.107.085.222.147.344.185.123.039.25.052.383.038.132-.013.261-.056.388-.129.168-.097.297-.217.388-.36.091-.142.148-.295.17-.456l.415.058c-.005.095-.024.195-.056.298-.032.103-.078.205-.14.305-.061.101-.14.199-.236.294-.096.095-.211.181-.345.258zm-1.482-2.425c-.094.054-.174.123-.239.207-.064.083-.111.178-.14.284-.029.106-.039.221-.029.345.009.124.041.255.096.392l1.477-.852-.021-.036c-.058-.088-.127-.169-.208-.241-.082-.073-.172-.128-.27-.166-.099-.037-.204-.053-.317-.047-.112.006-.229.044-.349.114zM423.877 256.289l-2.266 1.308-.236-.408 2.266-1.309.236.409zm.608 1.053l-2.266 1.308-.234-.406 2.265-1.308.235.406zM426.921 254.893l-1.543.891.756 1.309 1.799-1.038.23.398-2.268 1.31-2.133-3.695 2.245-1.296.232.401-1.776 1.025.685 1.188 1.543-.891.23.398zM427.829 252.986l.267.387c.018-.2.076-.382.175-.547.099-.164.238-.299.416-.404.144-.083.287-.138.428-.165.141-.028.277-.022.41.016.133.039.26.112.381.218.122.107.235.252.341.435l1.006 1.743-.469.271-1.001-1.733c-.07-.122-.143-.217-.219-.286-.076-.069-.156-.114-.239-.136-.084-.022-.171-.022-.261-.001-.091.02-.186.059-.286.117-.157.091-.273.21-.347.358-.074.147-.109.306-.106.475l1.137 1.969-.469.271-1.585-2.745.421-.243zM433.915 253.132c-.039-.025-.08-.06-.122-.107-.041-.047-.081-.098-.12-.153-.02.075-.047.15-.081.226-.034.076-.076.151-.128.223-.052.073-.112.142-.181.206-.068.065-.148.123-.237.175-.146.084-.289.138-.431.164-.142.025-.275.026-.399.001-.123-.024-.236-.073-.338-.146-.102-.073-.186-.167-.252-.282-.087-.151-.133-.3-.139-.448-.005-.148.025-.291.092-.43.066-.139.166-.271.3-.398.133-.127.295-.245.486-.355l.513-.296-.125-.216c-.048-.083-.106-.148-.174-.197-.069-.048-.145-.08-.227-.094-.083-.014-.172-.011-.267.01-.095.021-.192.061-.292.118-.093.054-.169.114-.229.18-.06.066-.104.133-.133.202-.028.068-.041.137-.038.206.003.069.021.133.054.19l-.472.273c-.056-.101-.086-.214-.092-.339-.006-.125.016-.254.065-.385.05-.131.128-.259.235-.384.107-.125.246-.237.417-.335.156-.09.311-.155.467-.194.156-.039.304-.048.446-.027.142.021.274.072.396.155s.228.201.316.355l.737 1.276c.053.092.117.184.193.276.076.093.152.168.226.227l.023.041-.489.282zm-1.037.121c.092-.052.17-.113.236-.183.066-.07.12-.143.163-.219.043-.077.073-.153.092-.231.018-.077.026-.15.021-.22l-.32-.556-.437.252c-.274.158-.464.322-.569.491-.105.169-.108.341-.007.515.039.068.087.124.143.168.056.044.118.074.188.089s.146.014.229-.002c.083-.016.17-.051.261-.104zM436.781 249.688c.113.196.195.393.246.59.051.198.066.385.047.563-.019.178-.075.341-.168.49-.094.149-.228.273-.402.374-.176.102-.347.158-.512.17-.166.013-.328-.013-.487-.077l.158.325-.432.249-2.25-3.897.47-.271.835 1.446c.025-.163.084-.311.177-.444.092-.132.223-.247.392-.345.176-.101.352-.157.527-.165.176-.009.345.022.507.093.163.07.317.178.464.322.146.145.279.319.397.524l.031.053zm-.5.218c-.078-.134-.164-.254-.26-.359-.096-.106-.2-.189-.31-.248-.111-.059-.229-.088-.353-.089-.124 0-.254.039-.389.117-.082.047-.15.1-.205.16-.056.061-.099.125-.13.194-.032.069-.053.141-.065.217-.012.075-.014.152-.008.229l.693 1.2c.066.043.134.079.205.107.072.027.145.045.222.053.077.007.155.002.235-.016.08-.018.16-.05.241-.097.129-.074.224-.165.285-.271.062-.107.095-.222.101-.347.005-.125-.012-.256-.054-.392-.041-.136-.101-.271-.178-.405l-.03-.053zM436.171 246.634l1.403-.811 2.015 3.492.896-.517.234.406-2.298 1.327-.235-.406.934-.539-1.78-3.083-.933.539-.236-.408zM442.707 248.123c-.192.112-.389.181-.588.208-.2.028-.391.015-.575-.037-.183-.052-.354-.14-.512-.266-.158-.125-.292-.283-.402-.474l-.062-.107c-.128-.221-.207-.44-.237-.656-.03-.216-.021-.419.027-.608.047-.188.128-.358.24-.509.113-.151.248-.271.405-.362.198-.114.391-.18.578-.197.188-.017.365.007.533.071.168.064.324.165.467.301.143.136.269.3.38.491l.121.211-1.961 1.132c.077.122.169.226.276.311.106.085.221.147.344.185.122.039.25.051.382.038.132-.013.262-.056.389-.129.167-.097.296-.217.388-.36.091-.143.147-.295.169-.456l.416.058c-.006.095-.025.195-.057.298-.031.103-.078.205-.139.305-.062.101-.141.199-.237.294-.096.095-.211.181-.345.258zm-1.481-2.426c-.095.055-.175.124-.239.208-.065.083-.112.178-.141.284-.029.106-.039.221-.029.345.01.124.042.255.097.392l1.476-.852-.02-.036c-.058-.088-.128-.169-.209-.241-.081-.073-.171-.128-.27-.166-.098-.038-.204-.053-.316-.047-.113.006-.229.044-.349.113zM443.689 245.628c-.118-.204-.201-.407-.248-.609-.048-.201-.06-.391-.035-.57.024-.179.084-.342.179-.489.095-.148.227-.27.394-.366.164-.095.323-.15.478-.166.154-.016.306.003.457.056l-.822-1.424.469-.271 2.25 3.897-.431.249-.187-.277c-.027.164-.088.312-.181.443-.094.13-.225.245-.394.342-.166.096-.337.147-.512.154-.176.006-.347-.026-.514-.096-.167-.071-.326-.176-.476-.315-.151-.14-.283-.308-.396-.504l-.031-.054zm.5-.217c.077.133.165.252.263.355.098.104.204.184.316.241.113.056.231.084.355.084.124 0 .251-.038.381-.114.08-.045.146-.096.2-.152.053-.056.096-.116.129-.181.032-.065.055-.133.068-.205.012-.071.017-.146.013-.222l-.735-1.274c-.126-.077-.261-.121-.405-.133-.145-.013-.294.026-.448.115-.132.076-.229.168-.292.276-.063.109-.097.226-.104.353-.007.127.01.259.051.397.041.137.1.273.177.406l.031.054z" fill="#4677bc" fill-rule="nonzero"/>
  </g>
  <g>
    <path d="M200.577 84.61c.066-.114.095-.224.088-.332-.006-.107-.035-.211-.085-.311-.051-.1-.114-.196-.191-.288-.077-.092-.152-.178-.225-.258-.105-.118-.209-.245-.309-.382s-.181-.28-.242-.43c-.061-.151-.092-.305-.095-.463-.002-.158.043-.317.134-.476.092-.159.209-.28.352-.365.142-.085.295-.137.458-.158.163-.021.33-.012.499.026.17.038.328.099.473.183.161.093.3.209.418.348.118.139.207.29.266.453.06.163.085.333.075.51-.01.177-.062.351-.156.522l-.482-.278c.048-.115.077-.227.089-.336.011-.11.003-.214-.025-.314s-.077-.192-.146-.278c-.068-.086-.159-.162-.27-.226-.09-.052-.185-.09-.285-.114-.1-.024-.198-.029-.294-.017-.096.012-.186.044-.268.095-.083.052-.153.126-.209.225-.06.107-.085.213-.075.317.01.104.04.204.091.301s.114.19.188.278c.075.088.146.169.214.242.075.081.148.167.22.257.072.09.138.184.197.281.059.097.108.197.149.299.04.102.066.207.078.314.013.108.009.216-.012.325-.021.108-.064.217-.127.327-.096.166-.216.289-.361.37-.145.081-.299.129-.463.144-.164.015-.332 0-.503-.043-.171-.044-.33-.108-.477-.193-.165-.095-.311-.213-.439-.355-.128-.141-.226-.296-.295-.463-.069-.167-.103-.342-.101-.525.001-.183.051-.364.147-.542l.48.276c-.052.124-.079.244-.083.36-.004.116.013.227.052.332.039.104.098.2.177.288.079.087.177.164.292.231.091.052.188.093.29.121.102.029.201.039.298.031.097-.008.189-.037.276-.085.086-.048.159-.123.217-.224zM202.407 86.978c-.193-.111-.351-.246-.475-.405-.123-.16-.208-.332-.255-.517-.047-.184-.055-.376-.026-.576.03-.199.1-.395.21-.586l.062-.106c.127-.222.277-.4.45-.534.172-.134.351-.227.539-.281.187-.053.374-.068.561-.046.187.022.359.079.516.17.198.114.351.248.46.402.108.154.177.32.205.497.028.178.019.362-.027.554-.047.192-.125.384-.236.575l-.121.21-1.962-1.132c-.067.128-.111.26-.131.395-.02.134-.016.265.011.39.028.126.081.242.159.35.077.108.179.199.306.272.168.097.336.149.505.156.17.008.33-.019.48-.081l.158.389c-.086.043-.181.076-.286.1-.105.024-.217.034-.335.032-.118-.003-.242-.022-.372-.058-.131-.036-.263-.092-.396-.17zm1.36-2.496c-.095-.055-.195-.089-.299-.103-.105-.014-.21-.007-.317.02-.106.028-.21.077-.313.148-.103.07-.2.163-.292.279l1.477.853.02-.036c.048-.094.083-.194.105-.301.022-.107.025-.212.009-.317-.017-.104-.056-.203-.118-.297-.061-.095-.152-.177-.272-.246zM207.754 86.27c.044.026.089.053.135.083.046.03.089.06.129.091.039.031.075.061.106.091.032.029.057.056.074.08l-.328.422c-.08-.073-.158-.138-.235-.194-.076-.057-.159-.111-.249-.163-.22-.127-.427-.18-.621-.159-.193.022-.374.103-.542.245l-1.017 1.761-.471-.272 1.585-2.745.446.257-.229.45c.199-.086.401-.128.608-.124.207.003.41.062.609.177zM208.925 89.774l-.055.195.144-.143 1.964-1.627.479.277-2.704 2.099-.357-.206.456-3.398.482.279-.409 2.524zM211.761 92.379c-.193-.111-.351-.246-.474-.406-.124-.159-.209-.331-.255-.516-.047-.184-.056-.377-.026-.576.029-.2.099-.395.21-.586l.061-.107c.128-.221.278-.399.45-.533s.352-.228.539-.281c.188-.053.375-.068.562-.046.186.022.359.079.516.169.198.115.351.249.459.403.109.154.177.319.205.497.029.178.02.362-.027.554-.046.192-.125.384-.235.575l-.122.21-1.961-1.132c-.067.128-.111.26-.131.394-.021.135-.017.265.011.391.028.125.081.242.158.35.078.108.18.199.307.272.167.096.336.149.505.156.169.008.329-.019.48-.081l.158.388c-.086.043-.181.077-.287.101-.105.024-.216.034-.334.032-.118-.003-.242-.022-.373-.058-.13-.036-.262-.093-.396-.17zm1.36-2.496c-.095-.055-.194-.089-.299-.103-.104-.014-.21-.008-.316.02-.106.028-.211.077-.313.147-.103.071-.2.164-.292.28l1.477.853.02-.036c.048-.094.083-.195.105-.301.022-.107.025-.213.008-.317-.016-.104-.055-.203-.117-.298-.062-.094-.153-.176-.273-.245zM217.109 91.671c.044.026.089.053.135.083.046.03.089.06.128.091.04.031.076.061.107.091.032.029.056.056.074.08l-.329.422c-.079-.073-.157-.138-.234-.194-.077-.057-.16-.111-.249-.163-.22-.127-.427-.18-.621-.159-.194.021-.375.103-.542.245l-1.017 1.761-.472-.272 1.585-2.746.447.258-.229.45c.198-.086.401-.128.608-.124.206.003.409.062.609.177zM220.22 94.557l-2.266-1.309.236-.408 2.266 1.308-.236.409zm-.608 1.052l-2.266-1.308.235-.406 2.265 1.309-.234.405zM221.733 94.408l-.137.267c.112-.065.228-.098.35-.099.122-.002.247.033.377.105.252.146.364.341.335.586.105-.056.217-.086.337-.088.119-.002.243.033.371.105.201.116.32.267.357.453.037.186-.017.404-.161.654l-1.184 2.05-.446-.257 1.186-2.056c.133-.23.093-.405-.119-.525-.056-.032-.109-.053-.158-.061s-.095-.007-.137.004c-.043.01-.081.028-.117.054-.035.026-.066.056-.092.091l-1.221 2.113-.446-.258 1.188-2.057c.063-.11.088-.209.073-.297-.015-.087-.076-.161-.184-.221-.098-.056-.185-.081-.262-.073-.076.008-.146.036-.208.086l-1.262 2.184-.446-.257 1.585-2.746.421.243zM224.623 98.438l-.07.403 2.051-1.62.526.303-3.223 2.365c-.073.052-.158.104-.253.155-.096.05-.199.089-.309.116-.11.026-.226.035-.347.026-.121-.009-.243-.049-.367-.12-.022-.013-.046-.028-.071-.047-.026-.018-.051-.037-.076-.057-.024-.019-.047-.039-.068-.058-.02-.018-.037-.034-.051-.046l.298-.339c.011.007.027.017.046.03.02.014.04.028.061.042.021.014.041.028.061.04.02.013.036.023.048.03.064.037.133.053.207.048.073-.005.145-.02.215-.045.07-.025.135-.055.194-.09.06-.036.108-.066.145-.09l.399-.257.328-3.298.525.303-.269 2.206zM228.641 100.812c.066-.113.095-.223.088-.331-.006-.108-.035-.212-.085-.312-.051-.1-.114-.196-.191-.287-.077-.092-.152-.178-.225-.259-.106-.117-.209-.244-.309-.381s-.181-.281-.242-.431c-.061-.15-.093-.304-.095-.462-.002-.158.042-.317.134-.476.092-.159.209-.281.352-.365.142-.085.295-.138.458-.159.163-.02.33-.012.499.026.17.039.327.1.473.184.161.093.3.209.418.348.118.139.207.29.266.453.06.163.084.333.075.51-.01.177-.062.351-.156.522l-.482-.279c.048-.114.077-.226.089-.335.011-.11.003-.215-.026-.314-.028-.1-.076-.193-.145-.279-.069-.086-.159-.161-.271-.225-.089-.052-.184-.09-.284-.114-.1-.024-.198-.03-.294-.018-.096.013-.186.044-.269.096-.082.051-.152.126-.209.224-.059.108-.084.213-.074.317.009.104.04.205.091.302s.114.19.188.278c.074.088.146.168.214.241.075.082.148.168.22.258.072.09.138.183.197.281.059.097.108.196.148.299.041.102.067.207.079.314.013.108.008.216-.013.324-.021.109-.063.218-.126.328-.096.166-.216.289-.361.37-.145.081-.299.129-.464.144-.164.014-.331 0-.502-.044-.171-.043-.33-.107-.478-.192-.164-.095-.31-.213-.438-.355-.128-.141-.226-.296-.296-.463-.069-.168-.102-.343-.101-.525.002-.183.051-.364.148-.543l.479.277c-.051.124-.078.244-.082.36-.004.116.013.227.052.331.039.105.098.201.177.288.079.088.176.165.291.231.092.053.188.094.29.122.102.028.202.039.299.03.097-.008.189-.036.276-.084.086-.048.159-.123.217-.225zM230.47 103.181c-.192-.111-.351-.247-.474-.406-.123-.159-.209-.331-.255-.516-.047-.185-.055-.377-.026-.576.03-.2.099-.395.21-.586l.061-.107c.128-.221.278-.399.45-.533s.352-.228.54-.281c.187-.053.374-.068.561-.046.187.022.359.078.516.169.198.114.351.249.46.402.108.154.176.32.205.498.028.177.019.362-.028.554-.046.192-.125.383-.235.575l-.122.21-1.961-1.132c-.067.128-.111.259-.131.394-.02.135-.017.265.011.391.028.125.081.242.158.35.078.108.18.198.307.272.167.096.336.148.505.156.169.007.329-.02.48-.082l.158.389c-.086.043-.181.077-.286.101-.105.023-.217.034-.335.031-.118-.002-.242-.022-.373-.058-.13-.035-.262-.092-.396-.169zm1.36-2.496c-.094-.055-.194-.089-.299-.103-.104-.015-.21-.008-.316.02-.106.028-.211.077-.313.147-.103.071-.2.164-.292.28l1.477.852.02-.035c.048-.094.083-.195.105-.302.022-.106.025-.212.008-.316-.016-.104-.055-.204-.117-.298-.062-.094-.153-.176-.273-.245zM235.818 102.473c.044.025.089.053.135.083.046.03.089.06.128.091.04.031.076.061.107.09.032.03.056.056.074.08l-.328.423c-.08-.073-.158-.138-.235-.195-.076-.056-.16-.111-.249-.162-.22-.127-.427-.18-.621-.159-.194.021-.374.103-.542.245l-1.017 1.761-.472-.273 1.585-2.745.447.258-.229.45c.198-.086.401-.128.608-.125.206.004.41.063.609.178zM236.989 105.977l-.055.195.144-.144 1.964-1.626.479.277-2.704 2.099-.357-.207.455-3.397.482.278-.408 2.525zM239.825 108.582c-.193-.111-.351-.247-.474-.406-.124-.159-.209-.331-.256-.516-.046-.185-.055-.377-.025-.576.029-.2.099-.395.209-.586l.062-.107c.128-.222.278-.399.45-.533s.352-.228.539-.281c.188-.053.375-.069.561-.046.187.022.359.078.517.169.198.114.351.248.459.402.109.154.177.32.205.498.029.177.019.362-.027.554-.047.192-.125.383-.235.574l-.122.211-1.961-1.132c-.067.128-.111.259-.132.394-.02.135-.016.265.012.391.028.125.08.242.158.35.077.108.18.198.307.271.167.097.335.149.505.157.169.007.329-.02.48-.082l.158.389c-.086.043-.182.077-.287.1-.105.024-.216.035-.334.032-.118-.003-.243-.022-.373-.058-.13-.035-.262-.092-.396-.169zm1.36-2.496c-.095-.055-.194-.089-.299-.104-.105-.014-.21-.007-.316.021-.106.028-.211.077-.314.147-.102.07-.2.164-.291.28l1.476.852.021-.035c.047-.094.082-.195.105-.302.022-.106.025-.212.008-.316-.016-.104-.056-.204-.117-.298-.062-.094-.153-.176-.273-.245zM245.173 107.874c.044.025.089.053.135.083.046.03.088.06.128.091.04.031.075.061.107.09.031.03.056.056.074.08l-.329.423c-.079-.073-.158-.138-.234-.195-.077-.056-.16-.111-.25-.162-.22-.127-.426-.18-.62-.159-.194.021-.375.103-.543.245l-1.016 1.761-.472-.273 1.585-2.745.446.258-.229.449c.199-.086.402-.127.608-.124.207.003.41.063.61.178zM247.193 111.493l-1.233-.712-.849.785-.469-.271 3.325-3.005.393.227-.96 4.371-.467-.27.26-1.125zm-.87-1.047l.982.567.439-1.885-1.421 1.318zM248.713 111.785c.118-.205.253-.378.403-.52.151-.142.31-.247.477-.315.166-.068.338-.098.513-.089.175.008.347.061.514.158.164.095.292.205.383.331.09.125.15.267.18.423l.821-1.423.47.271-2.25 3.897-.432-.249.147-.301c-.156.059-.314.08-.474.065-.16-.016-.324-.073-.493-.17-.166-.096-.296-.218-.389-.367-.094-.149-.152-.313-.174-.493-.023-.18-.011-.37.035-.57.045-.2.125-.398.238-.595l.031-.053zm.439.324c-.078.134-.136.269-.177.406-.041.137-.057.268-.05.394.007.126.042.242.104.349.063.107.159.199.289.274.08.046.157.078.232.096.075.019.149.026.221.021.073-.004.143-.019.212-.043.068-.025.134-.058.199-.1l.735-1.274c.004-.146-.025-.285-.087-.417-.061-.131-.169-.242-.323-.33-.132-.077-.261-.115-.386-.115s-.244.029-.357.086c-.114.058-.219.139-.318.243-.099.105-.187.223-.264.357l-.03.053zM251.831 113.585c.118-.204.253-.378.403-.519.151-.142.31-.247.477-.316.167-.068.338-.098.513-.089.175.009.347.061.514.158.164.095.292.205.383.331.091.126.151.267.18.424l.822-1.424.469.271-2.25 3.897-.431-.249.146-.301c-.155.059-.313.081-.473.065-.161-.016-.325-.072-.494-.17-.166-.096-.296-.218-.389-.367-.094-.148-.152-.313-.174-.492-.022-.18-.011-.37.035-.571.046-.2.125-.398.238-.594l.031-.054zm.439.325c-.077.133-.136.268-.177.405-.04.137-.057.268-.05.394.008.126.042.243.105.35.062.107.158.198.288.273.08.046.157.078.232.097.075.018.149.025.221.021.073-.005.143-.019.212-.044.068-.025.135-.058.199-.1l.736-1.273c.003-.147-.026-.286-.088-.418-.061-.131-.169-.241-.323-.33-.132-.076-.26-.114-.386-.114-.125-.001-.244.028-.357.086-.113.057-.219.138-.318.242-.098.105-.186.224-.263.357l-.031.054zM257.646 115.075c.044.025.089.053.134.083.046.03.089.06.129.091.04.031.075.061.107.09.031.03.056.056.074.08l-.329.423c-.08-.073-.158-.138-.234-.195-.077-.056-.16-.111-.25-.162-.22-.127-.427-.18-.62-.159-.194.021-.375.103-.543.245l-1.016 1.761-.472-.273 1.585-2.745.446.258-.229.45c.199-.086.401-.128.608-.125.207.004.41.063.61.178zM258.534 119.384c-.193-.112-.351-.247-.474-.406-.124-.159-.209-.331-.255-.516-.047-.185-.056-.377-.026-.577.029-.199.099-.394.21-.586l.061-.106c.128-.222.278-.4.45-.534s.352-.227.539-.28c.188-.053.375-.069.562-.047.186.022.359.079.516.17.198.114.351.248.459.402.109.154.177.32.205.497.029.178.02.363-.027.555-.046.192-.125.383-.235.574l-.122.211-1.961-1.133c-.067.129-.111.26-.131.395-.021.135-.017.265.011.39.028.126.081.243.158.35.078.108.18.199.307.272.167.097.336.149.505.157.169.007.329-.02.48-.082l.158.389c-.086.043-.181.076-.287.1-.105.024-.216.035-.334.032-.118-.003-.242-.022-.373-.058-.13-.036-.262-.092-.396-.169zm1.36-2.497c-.095-.054-.194-.089-.299-.103-.104-.014-.21-.007-.316.021-.106.027-.211.076-.313.147-.103.07-.2.163-.292.28l1.476.852.021-.035c.048-.095.083-.195.105-.302.022-.107.025-.212.008-.316-.016-.105-.055-.204-.117-.298-.062-.094-.153-.176-.273-.246zM262.714 120.758c.032-.056.05-.112.054-.17.004-.057-.01-.12-.041-.187-.031-.068-.08-.142-.149-.223-.068-.081-.159-.172-.273-.271-.139-.123-.259-.245-.362-.365-.103-.121-.183-.239-.238-.356-.056-.117-.084-.232-.086-.347-.001-.115.031-.229.096-.342.065-.112.151-.201.26-.268.108-.067.231-.109.368-.127.136-.019.283-.011.438.023.156.033.312.095.469.186.169.098.309.207.419.33.11.122.19.249.239.381.05.133.071.266.062.4-.008.134-.047.261-.116.381l-.47-.271c.035-.059.053-.126.055-.2.002-.075-.011-.149-.04-.225-.028-.075-.073-.148-.135-.22-.061-.071-.14-.135-.236-.19-.1-.058-.194-.098-.282-.119-.088-.022-.168-.028-.239-.02-.071.009-.134.03-.188.065-.053.034-.095.077-.126.13-.031.054-.049.108-.053.162-.004.054.009.112.04.175.03.063.079.132.147.207.069.075.16.163.273.262.149.134.277.262.384.386.106.123.187.244.24.362.054.118.08.234.078.348-.001.114-.035.228-.1.341-.07.122-.162.217-.274.285-.113.068-.239.109-.378.124-.139.014-.288.001-.448-.039-.159-.04-.32-.107-.483-.201-.186-.108-.337-.228-.454-.362-.116-.134-.201-.271-.255-.411-.053-.14-.075-.28-.066-.419.01-.139.048-.267.115-.383l.47.271c-.049.1-.07.196-.064.288.007.092.032.177.076.256.043.08.1.151.172.215.071.064.147.118.226.164.198.115.375.169.532.162.157-.006.272-.069.343-.188zM265.832 122.558c.032-.055.05-.112.054-.17.004-.057-.01-.12-.041-.187-.031-.068-.08-.142-.148-.223-.069-.081-.16-.171-.274-.271-.138-.123-.259-.245-.362-.365-.103-.12-.183-.239-.238-.356-.056-.116-.084-.232-.086-.347-.001-.114.031-.228.096-.342.065-.111.151-.201.26-.268.109-.067.231-.109.368-.127.137-.018.283-.011.438.023.156.033.312.095.469.186.17.098.309.208.419.33.11.122.19.249.24.382.049.132.07.265.062.399-.009.134-.048.261-.117.381l-.469-.271c.034-.059.052-.126.054-.2.002-.074-.011-.149-.039-.224-.029-.076-.074-.149-.136-.22-.061-.072-.14-.136-.236-.191-.1-.058-.194-.097-.282-.119-.088-.021-.167-.028-.239-.019-.071.008-.134.029-.187.064-.054.034-.096.078-.126.13-.032.054-.049.108-.053.162-.005.054.009.113.039.175.03.063.079.132.148.207.068.076.159.163.273.263.148.133.276.261.383.385.106.124.187.244.24.362.054.118.08.234.079.348-.002.114-.035.228-.101.341-.07.122-.162.217-.274.285-.113.068-.239.109-.378.124-.139.014-.288.001-.448-.039-.159-.04-.32-.107-.482-.201-.186-.107-.338-.228-.454-.362-.117-.134-.202-.271-.255-.411-.054-.14-.076-.28-.066-.419.009-.139.047-.266.114-.383l.47.271c-.049.1-.07.196-.063.288.006.092.031.177.075.257.043.079.101.15.172.214.071.064.147.119.226.165.198.114.376.168.533.162.157-.007.271-.07.342-.189z" fill="#4677bc" fill-rule="nonzero"/>
  </g>
  <g>
    <path d="M94.226 332.51l-2.133-3.695.855-.493c.259-.145.514-.234.764-.267.251-.033.489-.015.715.054.226.069.436.187.63.353.194.167.365.376.514.629l.156.271c.145.255.241.508.288.76.047.251.044.492-.009.722-.053.23-.157.446-.31.646-.154.2-.359.376-.615.526l-.855.494zm-1.434-3.584l1.689 2.925.378-.218c.199-.117.351-.252.457-.404.106-.153.173-.316.2-.489.027-.174.018-.355-.029-.542-.046-.188-.122-.376-.229-.565l-.16-.276c-.11-.187-.235-.347-.374-.479-.14-.133-.291-.23-.454-.293-.162-.063-.336-.086-.52-.07-.185.016-.378.081-.579.192l-.379.219zM99.196 329.64c-.039-.025-.08-.061-.121-.108-.042-.047-.082-.097-.12-.152-.02.075-.047.15-.081.226-.034.076-.077.15-.129.223-.051.073-.112.141-.18.206-.069.064-.148.122-.238.174-.145.084-.289.139-.431.165-.142.025-.275.026-.398.001-.124-.024-.237-.073-.339-.146-.101-.073-.186-.167-.252-.282-.087-.151-.133-.3-.139-.448-.005-.148.026-.292.092-.43.067-.139.167-.272.3-.398.133-.127.295-.245.486-.356l.513-.296-.125-.215c-.047-.083-.106-.149-.174-.197-.069-.049-.144-.08-.227-.094-.083-.014-.171-.011-.266.01-.095.021-.193.06-.293.118-.093.054-.169.114-.229.18-.06.066-.104.133-.132.201-.029.068-.041.137-.038.207.002.069.02.132.054.19l-.472.272c-.056-.1-.087-.213-.093-.339-.006-.125.016-.253.066-.384.049-.131.127-.259.235-.384.107-.125.246-.237.416-.336.156-.09.312-.154.467-.193.156-.039.305-.048.446-.028.142.021.274.073.396.156s.228.201.317.355l.737 1.276c.052.091.117.183.193.276.076.092.151.168.225.227l.024.04-.49.283zm-1.036.121c.091-.053.17-.114.236-.183.065-.07.12-.143.162-.219.043-.077.074-.154.092-.231.019-.077.026-.151.022-.221l-.321-.555-.437.252c-.274.158-.463.322-.569.491-.105.169-.107.34-.007.515.039.067.087.123.143.168.056.044.119.074.188.089.07.015.146.014.229-.002.083-.017.17-.051.262-.104zM99.653 324.83l.384.664 1.045-.603.209.363-1.045.603.861 1.492c.062.106.126.187.193.24.067.054.137.088.208.102.071.014.143.012.214-.007.072-.019.142-.048.211-.088.051-.029.102-.063.153-.1.05-.037.099-.075.146-.113.046-.038.089-.075.129-.11.039-.035.072-.064.096-.088l.258.294c-.025.047-.06.095-.106.145-.046.05-.098.1-.156.151-.059.051-.123.101-.193.15-.069.049-.141.095-.213.137-.122.07-.246.118-.372.145-.125.026-.249.024-.37-.006-.121-.031-.239-.092-.353-.186-.113-.093-.219-.224-.317-.394l-.861-1.491-.72.416-.21-.363.721-.416-.384-.665.472-.272zM105.432 326.039c-.039-.024-.079-.06-.121-.107-.042-.047-.082-.098-.12-.153-.02.075-.047.151-.081.226-.034.076-.077.151-.128.223-.052.073-.112.142-.181.206-.069.065-.148.123-.237.175-.146.084-.29.138-.432.164-.142.026-.274.026-.398.002-.123-.025-.236-.074-.338-.147-.102-.073-.186-.167-.253-.282-.087-.151-.133-.3-.138-.448-.006-.148.025-.291.092-.43.066-.139.166-.271.299-.398.133-.126.296-.245.487-.355l.512-.296-.124-.216c-.048-.083-.106-.148-.175-.197-.068-.048-.144-.079-.227-.094-.082-.014-.171-.011-.266.01-.095.021-.192.061-.292.118-.093.054-.17.114-.23.18-.06.066-.104.133-.132.202-.028.068-.041.137-.038.206.003.069.021.133.054.19l-.472.273c-.056-.101-.087-.214-.092-.339-.006-.125.016-.254.065-.385.05-.131.128-.259.235-.384.107-.125.246-.237.417-.335.155-.09.311-.155.467-.194.155-.039.304-.048.446-.027.141.021.273.072.395.155.123.083.228.201.317.355l.737 1.276c.053.092.117.184.193.276.076.093.151.168.226.227l.023.041-.49.282zm-1.036.122c.092-.053.17-.114.236-.184.066-.069.12-.143.163-.219.042-.077.073-.153.091-.231.019-.077.026-.15.022-.22l-.321-.556-.436.252c-.274.158-.464.322-.569.491-.106.169-.108.341-.007.515.039.068.086.124.142.168.056.044.119.074.189.089.069.015.146.015.229-.002.083-.016.17-.051.261-.103zM108.298 322.595c.114.196.196.393.246.59.051.198.067.385.048.563-.019.178-.075.341-.169.49-.093.149-.227.273-.401.374-.176.102-.347.158-.512.171-.166.012-.328-.014-.487-.078l.158.325-.432.249-2.25-3.897.47-.271.835 1.446c.025-.163.084-.311.176-.444.093-.132.224-.247.393-.345.176-.101.352-.157.527-.165.175-.009.344.022.507.093.163.07.317.178.464.322.146.145.278.319.397.524l.03.053zm-.5.218c-.077-.134-.164-.254-.26-.359-.096-.106-.199-.189-.31-.248-.11-.059-.228-.088-.352-.089-.125 0-.254.039-.39.117-.081.047-.149.1-.205.161-.055.06-.098.124-.13.193-.031.069-.053.141-.064.217-.012.075-.014.152-.008.229l.693 1.2c.065.044.134.079.205.107.071.027.145.045.222.053.076.007.155.002.234-.016.08-.018.161-.05.242-.097.129-.074.224-.165.285-.271.061-.107.095-.222.101-.347.005-.125-.013-.256-.054-.392-.042-.136-.101-.271-.178-.405l-.031-.053zM111.669 322.439c-.039-.025-.08-.061-.122-.108-.041-.047-.081-.098-.12-.152-.02.075-.047.15-.081.226-.033.076-.076.15-.128.223-.052.073-.112.141-.18.206-.069.064-.148.122-.238.174-.146.084-.289.139-.431.164-.142.026-.275.026-.399.002-.123-.025-.236-.073-.338-.146-.102-.074-.186-.168-.252-.283-.087-.15-.133-.299-.139-.447-.005-.148.025-.292.092-.43.066-.139.166-.272.3-.398.133-.127.295-.245.486-.356l.513-.296-.125-.215c-.048-.083-.106-.149-.174-.197-.069-.049-.144-.08-.227-.094-.083-.015-.172-.011-.267.01-.095.021-.192.06-.292.118-.093.053-.169.113-.229.18-.06.066-.104.133-.133.201-.028.068-.041.137-.038.206.003.07.021.133.054.191l-.472.272c-.055-.1-.086-.213-.092-.339-.006-.125.016-.253.065-.384.05-.131.128-.26.235-.385.107-.125.246-.236.417-.335.156-.09.311-.154.467-.193.156-.039.304-.049.446-.028.142.021.274.073.396.156.122.082.228.201.317.355l.736 1.276c.053.091.117.183.193.276.076.092.152.168.226.226l.023.041-.489.283zm-1.036.121c.091-.053.169-.114.235-.184.066-.069.12-.142.163-.219.043-.076.073-.153.092-.23.018-.077.026-.151.021-.221l-.32-.555-.437.252c-.274.158-.463.321-.569.491-.105.169-.108.34-.007.514.039.068.087.124.143.168.056.045.119.074.188.09.07.015.146.014.229-.002.083-.017.17-.051.262-.104zM114.387 319.899c-.032-.056-.072-.1-.12-.132-.048-.033-.109-.052-.183-.059-.074-.007-.163-.001-.267.017-.105.019-.228.053-.372.101-.175.059-.341.103-.497.132-.156.029-.298.038-.427.028-.129-.01-.243-.043-.343-.099-.1-.056-.183-.141-.248-.254-.065-.112-.099-.232-.103-.359-.003-.128.021-.255.074-.383.053-.127.132-.25.239-.368.107-.118.239-.222.396-.313.169-.098.334-.163.495-.198.16-.034.311-.039.45-.016.14.023.265.072.377.146.112.074.202.171.272.291l-.47.271c-.034-.059-.083-.108-.146-.147-.063-.039-.134-.065-.214-.078-.079-.012-.165-.01-.258.007-.093.018-.187.054-.283.11-.1.057-.181.119-.244.184-.063.066-.108.132-.136.198-.029.066-.042.13-.039.194.003.064.02.122.05.174.031.054.069.097.114.127.045.031.102.049.171.054.07.005.154-.003.253-.025.1-.021.221-.056.364-.105.19-.062.365-.108.525-.139.161-.031.306-.04.435-.027.129.012.242.047.34.106.098.058.18.144.245.258.071.121.107.248.11.38.002.131-.025.261-.082.388-.057.128-.143.251-.257.369-.115.118-.253.224-.416.318-.186.107-.366.178-.54.212-.175.034-.336.039-.484.015-.148-.024-.28-.075-.395-.152-.116-.078-.208-.175-.275-.291l.469-.271c.063.092.135.158.218.198.083.041.17.062.26.064.09.002.181-.012.272-.042.091-.03.176-.068.255-.114.198-.114.334-.241.407-.38.073-.139.076-.269.008-.39zM117.343 319.23c-.193.112-.389.181-.588.208-.2.027-.391.015-.575-.037-.183-.052-.354-.141-.512-.266-.158-.125-.292-.283-.403-.474l-.061-.107c-.128-.222-.207-.44-.237-.657-.03-.216-.021-.418.027-.607.047-.189.127-.358.24-.509.113-.151.248-.272.405-.362.198-.115.39-.18.578-.197.188-.017.365.007.533.071.168.064.324.164.467.301.142.136.269.3.379.491l.122.21-1.961 1.133c.077.122.169.225.276.311.106.085.221.146.344.185.122.039.25.051.382.038.132-.013.262-.056.388-.13.168-.096.297-.216.388-.359.092-.143.148-.295.17-.456l.416.057c-.006.096-.025.195-.057.298-.032.103-.078.205-.14.306-.061.101-.14.199-.236.294-.096.095-.211.181-.345.258zm-1.481-2.426c-.095.055-.175.124-.239.208-.065.083-.112.178-.141.284-.029.105-.039.22-.029.345.01.124.042.255.096.392l1.477-.852-.02-.036c-.058-.088-.128-.169-.209-.241-.082-.073-.172-.128-.27-.166-.099-.038-.204-.054-.317-.047-.112.006-.228.044-.348.113zM120.34 314.794l-2.266 1.308-.236-.409 2.266-1.308.236.409zm.608 1.053l-2.266 1.308-.234-.406 2.266-1.308.234.406zM120.968 313.409l.162.252c.001-.129.03-.246.09-.353.059-.106.152-.197.28-.273.252-.146.477-.145.675.003.003-.12.034-.231.092-.336.058-.105.15-.194.276-.269.201-.116.391-.144.571-.083.179.061.341.217.486.467l1.183 2.05-.446.258-1.187-2.055c-.132-.23-.304-.284-.514-.16-.056.032-.1.068-.132.107-.032.038-.054.078-.066.12-.011.042-.015.085-.01.128.005.044.015.086.032.126l1.22 2.113-.447.258-1.188-2.058c-.063-.11-.137-.18-.22-.211-.083-.031-.177-.015-.283.049-.098.056-.163.12-.195.19-.031.07-.041.144-.03.223l1.262 2.185-.447.258-1.585-2.746.421-.243zM125.903 312.921l.314.263-.377-2.587.525-.303.437 3.973c.008.089.011.188.007.297-.004.108-.022.216-.054.325-.032.109-.082.213-.151.314-.068.1-.164.186-.287.257-.022.013-.048.026-.076.039-.029.013-.058.025-.087.036-.03.012-.058.022-.084.03-.027.009-.049.016-.066.021l-.145-.427c.012-.006.028-.015.05-.025.021-.01.043-.02.066-.031.023-.011.045-.022.066-.033.02-.011.037-.02.049-.027.064-.037.112-.089.145-.155.033-.066.056-.136.069-.209.013-.073.019-.144.019-.214-.001-.069-.003-.126-.005-.169l-.023-.474-2.693-1.933.525-.303 1.776 1.335zM128.526 312.706l-2.133-3.694.855-.494c.259-.145.514-.234.764-.267.251-.033.489-.014.715.055.226.069.436.187.63.353.194.166.366.376.514.629l.157.271c.144.255.24.508.287.759.047.252.044.493-.009.723-.053.23-.156.445-.31.646-.154.2-.359.376-.615.526l-.855.493zm-1.433-3.584l1.689 2.926.378-.218c.198-.117.351-.252.456-.405.106-.152.173-.315.2-.489.027-.173.018-.354-.028-.541-.047-.188-.123-.376-.23-.565l-.16-.276c-.11-.187-.235-.347-.374-.479-.14-.133-.291-.23-.454-.293-.162-.063-.336-.086-.52-.07-.185.016-.378.08-.579.192l-.378.218zM133.496 309.837c-.039-.025-.079-.061-.121-.108-.042-.047-.082-.098-.12-.152-.02.075-.047.15-.081.226-.034.076-.077.15-.128.223-.052.072-.112.141-.181.206-.069.064-.148.122-.238.174-.145.084-.289.139-.431.164-.142.026-.275.026-.398.002-.124-.025-.236-.073-.338-.146-.102-.074-.186-.168-.253-.283-.087-.15-.133-.299-.138-.447-.006-.148.025-.292.091-.431.067-.138.167-.271.3-.398.133-.126.295-.245.487-.355l.512-.296-.124-.215c-.048-.083-.106-.149-.175-.197-.068-.049-.144-.08-.227-.094-.082-.015-.171-.011-.266.01-.095.021-.193.06-.292.118-.093.053-.17.113-.23.179-.06.067-.104.134-.132.202-.028.068-.041.137-.038.206.003.07.021.133.054.191l-.472.272c-.056-.101-.087-.214-.093-.339-.005-.125.016-.253.066-.384.049-.132.128-.26.235-.385.107-.125.246-.236.417-.335.155-.09.311-.154.466-.193.156-.04.305-.049.446-.028.142.021.274.073.396.156.123.082.228.201.317.355l.737 1.276c.052.091.117.183.193.276.076.092.151.168.225.226l.024.041-.49.283zm-1.036.121c.091-.053.17-.114.236-.184.066-.069.12-.142.162-.219.043-.076.074-.153.092-.23.019-.078.026-.151.022-.221l-.321-.555-.436.252c-.274.158-.464.321-.569.49-.106.17-.108.341-.008.515.039.068.087.124.143.168.056.045.119.074.189.089.069.016.145.015.228-.001.083-.017.171-.051.262-.104zM133.953 305.026l.384.665 1.045-.603.21.362-1.046.604.862 1.492c.061.106.125.186.192.24.068.054.137.088.208.102.071.014.143.012.214-.007.072-.019.142-.048.212-.088.05-.03.101-.063.152-.1.05-.037.099-.075.146-.113.047-.038.09-.075.129-.11.04-.035.072-.065.097-.088l.257.294c-.025.046-.06.094-.106.144-.045.05-.097.101-.156.152-.059.05-.123.1-.193.15-.069.049-.14.095-.213.136-.122.071-.246.119-.371.146-.126.026-.25.024-.371-.006-.121-.031-.239-.093-.352-.186-.114-.093-.22-.225-.317-.394l-.862-1.492-.72.416-.21-.362.721-.417-.384-.664.472-.273zM139.733 306.236c-.04-.025-.08-.061-.122-.107-.041-.047-.082-.098-.12-.153-.02.075-.047.15-.081.226-.034.076-.076.151-.128.223-.052.073-.112.141-.181.206-.068.064-.148.123-.237.174-.146.084-.289.139-.431.165-.142.025-.275.026-.399.001-.123-.024-.236-.073-.338-.146-.102-.073-.186-.167-.252-.282-.087-.151-.134-.3-.139-.448-.005-.148.025-.291.092-.43.066-.139.166-.272.299-.398.134-.127.296-.245.487-.355l.513-.296-.125-.216c-.048-.083-.106-.149-.175-.197-.068-.048-.144-.08-.226-.094-.083-.014-.172-.011-.267.01-.095.021-.192.06-.292.118-.093.054-.17.114-.229.18-.06.066-.104.133-.133.201-.028.069-.041.137-.038.207.003.069.021.133.054.19l-.472.273c-.056-.101-.086-.214-.092-.339-.006-.126.016-.254.065-.385.05-.131.128-.259.235-.384.107-.125.246-.237.417-.336.156-.089.311-.154.467-.193.155-.039.304-.048.446-.027.141.02.273.072.396.155.122.083.227.201.316.355l.737 1.276c.053.092.117.184.193.276.076.093.151.168.226.227l.023.04-.489.283zm-1.037.121c.092-.052.17-.114.236-.183.066-.07.12-.143.163-.219.043-.077.073-.154.092-.231.018-.077.025-.151.021-.22l-.321-.556-.436.252c-.274.158-.464.322-.569.491-.105.169-.108.341-.007.515.039.067.086.123.142.168.056.044.119.074.189.089.069.015.146.014.229-.002.083-.016.17-.051.261-.104zM142.599 302.792c.113.196.195.393.246.59.05.197.066.385.047.563-.019.178-.075.341-.169.49-.093.149-.227.273-.401.374-.176.101-.347.158-.512.17-.166.012-.328-.013-.487-.077l.158.325-.432.249-2.25-3.897.47-.271.835 1.446c.025-.163.084-.311.177-.444.092-.132.223-.247.392-.345.176-.102.352-.157.527-.166.176-.008.345.023.507.093.163.071.317.179.464.323.146.144.279.319.397.524l.031.053zm-.501.218c-.077-.134-.163-.254-.259-.36-.096-.105-.2-.188-.311-.247-.11-.059-.228-.088-.352-.089-.124 0-.254.039-.389.117-.082.047-.15.1-.205.16-.056.061-.099.125-.131.194-.031.069-.052.141-.064.216-.012.076-.014.152-.008.23l.693 1.2c.066.043.134.079.205.106.071.028.145.046.222.053.077.008.155.003.235-.015.079-.018.16-.05.241-.097.129-.074.224-.165.285-.271.062-.107.095-.223.101-.348.005-.125-.013-.255-.054-.391-.041-.137-.101-.272-.178-.405l-.031-.053zM145.969 302.635c-.039-.024-.08-.06-.121-.107-.042-.047-.082-.098-.12-.152-.02.074-.047.15-.081.226-.034.076-.077.15-.129.223-.051.072-.112.141-.18.205-.069.065-.148.123-.238.175-.145.084-.289.139-.431.164-.142.026-.275.026-.398.002-.124-.025-.237-.074-.339-.147-.102-.073-.186-.167-.252-.282-.087-.15-.133-.3-.139-.448-.005-.148.026-.291.092-.43.067-.138.166-.271.3-.398.133-.126.295-.245.486-.355l.513-.296-.125-.216c-.047-.083-.106-.148-.174-.197-.069-.048-.144-.079-.227-.094-.083-.014-.171-.01-.266.011-.095.021-.193.06-.293.117-.093.054-.169.114-.229.18-.06.066-.104.134-.132.202-.029.068-.041.137-.038.206.002.07.02.133.054.191l-.472.272c-.056-.101-.087-.214-.093-.339-.006-.125.016-.253.066-.385.049-.131.127-.259.235-.384.107-.125.246-.237.416-.335.156-.09.312-.155.467-.194.156-.039.305-.048.446-.027.142.021.274.073.396.155.122.083.228.202.317.355l.737 1.277c.052.091.117.183.193.276.076.092.151.168.225.226l.024.041-.49.282zm-1.036.122c.091-.053.17-.114.236-.184.065-.069.12-.142.162-.219.043-.076.074-.153.092-.23.019-.078.026-.151.022-.221l-.321-.556-.437.252c-.274.159-.463.322-.569.491-.105.169-.107.341-.007.515.039.068.087.124.143.168.056.045.119.074.188.089.07.015.146.015.229-.002.083-.016.17-.051.262-.103zM148.687 300.095c-.032-.056-.072-.099-.12-.132-.048-.032-.109-.051-.183-.058-.074-.007-.163-.001-.267.017-.104.019-.228.052-.371.101-.176.059-.342.103-.498.132-.156.029-.298.038-.427.028-.129-.01-.243-.043-.343-.099-.1-.057-.183-.141-.248-.255-.065-.111-.099-.231-.103-.358-.003-.128.021-.255.074-.383.053-.127.132-.25.239-.368.107-.118.239-.222.396-.313.169-.098.334-.164.495-.198.161-.034.311-.039.45-.016.14.023.266.071.377.146.112.074.202.171.272.291l-.47.271c-.034-.059-.082-.108-.146-.147-.063-.039-.134-.065-.214-.078-.079-.013-.165-.01-.258.007-.092.017-.187.054-.283.11-.1.057-.181.119-.244.184-.062.066-.108.131-.136.197-.029.066-.041.131-.039.195.003.064.02.122.05.174.032.054.07.097.114.127.045.031.102.049.171.054.07.005.154-.004.254-.025.099-.021.22-.056.363-.105.19-.062.365-.109.526-.139.16-.031.305-.04.434-.028.129.013.242.048.34.107.098.058.18.144.245.257.071.122.107.249.11.38.002.132-.025.261-.082.389s-.143.251-.257.369c-.115.118-.253.224-.416.317-.186.108-.366.178-.54.213-.174.034-.336.039-.484.015-.148-.024-.28-.075-.395-.152-.116-.078-.208-.175-.275-.292l.469-.271c.063.093.135.159.218.199.083.04.17.061.26.063.09.002.181-.012.272-.042.091-.029.176-.067.256-.113.197-.115.333-.241.406-.38.073-.14.076-.27.008-.391zM151.643 299.427c-.192.111-.389.181-.588.208-.2.027-.391.015-.575-.037-.183-.052-.354-.141-.512-.266-.158-.125-.292-.284-.402-.475l-.062-.106c-.128-.222-.207-.441-.237-.657-.03-.216-.021-.418.027-.607.047-.189.128-.359.24-.509.113-.151.248-.272.405-.363.198-.114.391-.179.578-.196.188-.017.366.006.533.071.168.064.324.164.467.3.143.137.269.3.38.491l.121.211-1.961 1.132c.077.123.169.226.276.311.107.085.221.147.344.186.122.038.25.051.382.038.132-.013.262-.057.389-.13.167-.096.296-.216.388-.359.091-.143.147-.295.169-.457l.416.058c-.006.096-.025.195-.057.298-.031.103-.078.205-.139.306-.062.101-.14.199-.237.294-.096.095-.211.181-.345.258zm-1.481-2.426c-.095.055-.175.124-.239.207-.065.084-.112.179-.141.284-.029.106-.038.221-.029.345.01.124.042.255.097.393l1.476-.853-.02-.035c-.058-.089-.128-.169-.209-.242-.081-.072-.171-.127-.27-.165-.098-.038-.204-.054-.316-.047-.113.006-.229.044-.349.113z" fill="#4677bc" fill-rule="nonzero"/>
  </g>
</svg>
