<?xml version="1.0" encoding="UTF-8" standalone="no"?><!DOCTYPE svg PUBLIC "-//W3C//DTD SVG 1.1//EN" "http://www.w3.org/Graphics/SVG/1.1/DTD/svg11.dtd"><svg width="100%" height="100%" viewBox="0 0 567 392" version="1.1" xmlns="http://www.w3.org/2000/svg" xmlns:xlink="http://www.w3.org/1999/xlink" xml:space="preserve" style="fill-rule:evenodd;clip-rule:evenodd;stroke-linecap:round;stroke-linejoin:round;stroke-miterlimit:1.41421;"><g><circle cx="240.823" cy="40.085" r="20.462" style="fill:#4677bc;"/><circle id="second-outer" cx="240.823" cy="40.085" r="28.533" style="fill:none;stroke-width:2px;stroke:#c8d6eb;"/><circle id="third-outer" cx="240.823" cy="40.085" r="38.353" style="fill:none;stroke-width:2px;stroke:#ecf1f8;"/></g><g><circle cx="40.085" cy="351.645" r="20.462" style="fill:#4677bc;"/><circle id="second-outer1" cx="40.085" cy="351.645" r="28.533" style="fill:none;stroke-width:2px;stroke:#c8d6eb;"/><circle id="third-outer1" cx="40.085" cy="351.645" r="38.353" style="fill:none;stroke-width:2px;stroke:#ecf1f8;"/></g><g><circle cx="526.408" cy="232.895" r="20.462" style="fill:#4677bc;"/><circle id="second-outer2" cx="526.408" cy="232.895" r="28.533" style="fill:none;stroke-width:2px;stroke:#c8d6eb;"/><circle id="third-outer2" cx="526.408" cy="232.895" r="38.353" style="fill:none;stroke-width:2px;stroke:#ecf1f8;"/></g><g><path d="M179.541,226.634l55.426,-32l-55.426,-32l-55.426,32l55.426,32Z" style="fill:none;stroke-width:1px;stroke:#ededed;"/><path d="M248.823,186.634l55.426,-32l-55.426,-32l-55.426,32l55.426,32Z" style="fill:none;stroke-width:1px;stroke:#ededed;"/><path d="M387.387,266.634l55.426,-32l-55.426,-32l-55.426,32l55.426,32Z" style="fill:none;stroke-width:1px;stroke:#ededed;"/><path d="M318.105,226.634l55.426,-32l-55.426,-32l-55.426,32l55.426,32Z" style="fill:none;stroke-width:1px;stroke:#ededed;"/><path d="M318.105,306.634l55.426,-32l-55.426,-32l-55.426,32l55.426,32Z" style="fill:none;stroke-width:1px;stroke:#ededed;"/><path d="M248.823,346.634l55.426,-32l-55.426,-32l-55.426,32l55.426,32Z" style="fill:none;stroke-width:1px;stroke:#ededed;"/><path d="M179.541,306.634l55.426,-32l-55.426,-32l-55.426,32l55.426,32Z" style="fill:none;stroke-width:1px;stroke:#ededed;"/><path d="M110.259,266.634l55.426,-32l-55.426,-32l-55.426,32l55.426,32Z" style="fill:none;stroke-width:1px;stroke:#ededed;"/><path d="M193.397,202.634l0,32l55.426,32l0,-32l-55.426,-32Z" style="fill:#d9d9d9;"/><path d="M219.323,234.193c0.047,0.031 0.11,0.078 0.156,0.156c1.265,1.623 1.452,3.012 1.436,3.683c-0.015,0.671 -0.187,1.842 -1.467,2.014c-0.047,0.015 -0.109,0 -0.156,-0.032l-2.481,-1.435c-0.047,-0.032 -0.094,-0.078 -0.156,-0.156c-1.233,-1.624 -1.421,-2.997 -1.421,-3.684c0,-0.686 0.188,-1.841 1.467,-2.013c0.047,-0.016 0.11,0 0.157,0.031l2.465,1.436Z" style="fill:#4778bc;fill-rule:nonzero;"/><path d="M304.249,202.634l0,32l-55.426,32l0,-32l55.426,-32Z" style="fill:#b3b3b3;"/><path d="M193.397,202.634l55.426,-32l55.426,32l-55.426,32l-55.426,-32Z" style="fill:#808080;"/></g><g><path d="M179.541,226.634l55.426,-32l-55.426,-32l-55.426,32l55.426,32Z" style="fill:none;stroke-width:1px;stroke:#ededed;"/><path d="M248.823,186.634l55.426,-32l-55.426,-32l-55.426,32l55.426,32Z" style="fill:none;stroke-width:1px;stroke:#ededed;"/><path d="M387.387,266.634l55.426,-32l-55.426,-32l-55.426,32l55.426,32Z" style="fill:none;stroke-width:1px;stroke:#ededed;"/><path d="M318.105,226.634l55.426,-32l-55.426,-32l-55.426,32l55.426,32Z" style="fill:none;stroke-width:1px;stroke:#ededed;"/><path d="M318.105,306.634l55.426,-32l-55.426,-32l-55.426,32l55.426,32Z" style="fill:none;stroke-width:1px;stroke:#ededed;"/><path d="M248.823,346.634l55.426,-32l-55.426,-32l-55.426,32l55.426,32Z" style="fill:none;stroke-width:1px;stroke:#ededed;"/><path d="M179.541,306.634l55.426,-32l-55.426,-32l-55.426,32l55.426,32Z" style="fill:none;stroke-width:1px;stroke:#ededed;"/><path d="M110.259,266.634l55.426,-32l-55.426,-32l-55.426,32l55.426,32Z" style="fill:none;stroke-width:1px;stroke:#ededed;"/><path d="M193.397,202.634l0,32l55.426,32l0,-32l-55.426,-32Z" style="fill:#d9d9d9;"/><path d="M304.249,202.634l0,32l-55.426,32l0,-32l55.426,-32Z" style="fill:#b3b3b3;"/><path d="M193.397,202.634l55.426,-32l55.426,32l-55.426,32l-55.426,-32Z" style="fill:#808080;"/></g><g id="serverPath"><path d="M193.98,73.536l-14.439,7.663l69.282,40.673l-69.282,40l38.534,22.248" style="fill:none;stroke-width:1px;stroke:#4677bc;"/><path d="M196.85,71.879l-3.225,4.765l-2.514,-4.354l5.739,-0.411Z" style="fill:#4778bc;"/><path d="M193.625,76.644l-2.514,-4.354l5.739,-0.411l-3.225,4.765ZM192.775,73.173l0.917,1.588l1.176,-1.738l-2.093,0.15Z" style="fill:#4677bc;"/></g><g id="databasePath"><path d="M218.075,248.882l-137.321,79.282" style="fill:none;stroke-width:1px;stroke:#4677bc;"/><path d="M78.437,329.404l3.226,-4.766l2.514,4.355l-5.74,0.411Z" style="fill:#4778bc;"/><path d="M84.177,328.993l-5.74,0.411l3.226,-4.766l2.514,4.355ZM80.42,328.259l2.093,-0.15l-0.917,-1.587l-1.176,1.737Z" style="fill:#4677bc;"/></g><g id="debugPath"><path d="M471.109,233.536l-27.713,0l-98.238,56.717l-68.622,-39.619" style="fill:none;stroke-width:1px;stroke:#4677bc;"/><path d="M473.697,233.59l-5.177,2.514l0,-5.028l5.177,2.514Z" style="fill:#4778bc;"/><path d="M473.697,233.59l-5.177,2.514l0,-5.028l5.177,2.514ZM469.52,234.506l1.888,-0.916l-1.888,-0.917l0,1.833Z" style="fill:#4677bc;"/></g><g><path d="M394.644,275.805l-2.133,-3.694l0.855,-0.494c0.259,-0.145 0.514,-0.234 0.765,-0.267c0.25,-0.033 0.488,-0.015 0.714,0.054c0.226,0.07 0.436,0.187 0.631,0.354c0.194,0.166 0.365,0.376 0.513,0.629l0.157,0.271c0.145,0.255 0.241,0.508 0.288,0.759c0.047,0.251 0.044,0.492 -0.01,0.723c-0.053,0.23 -0.156,0.445 -0.31,0.646c-0.154,0.2 -0.359,0.375 -0.615,0.525l-0.855,0.494ZM393.211,272.221l1.689,2.926l0.378,-0.219c0.199,-0.117 0.351,-0.251 0.457,-0.404c0.106,-0.152 0.172,-0.315 0.199,-0.489c0.028,-0.173 0.018,-0.354 -0.028,-0.542c-0.046,-0.187 -0.123,-0.375 -0.23,-0.564l-0.159,-0.277c-0.11,-0.186 -0.235,-0.346 -0.375,-0.478c-0.139,-0.133 -0.291,-0.231 -0.453,-0.294c-0.163,-0.062 -0.336,-0.086 -0.521,-0.069c-0.184,0.016 -0.377,0.08 -0.579,0.192l-0.378,0.218Z" style="fill:#4677bc;fill-rule:nonzero;"/><path d="M399.053,273.327c-0.193,0.112 -0.389,0.181 -0.589,0.208c-0.2,0.028 -0.391,0.015 -0.575,-0.037c-0.183,-0.052 -0.354,-0.14 -0.512,-0.266c-0.158,-0.125 -0.292,-0.283 -0.402,-0.474l-0.062,-0.107c-0.128,-0.221 -0.207,-0.44 -0.237,-0.656c-0.03,-0.216 -0.021,-0.419 0.027,-0.608c0.048,-0.188 0.128,-0.358 0.24,-0.509c0.113,-0.15 0.248,-0.271 0.405,-0.362c0.198,-0.114 0.391,-0.18 0.578,-0.197c0.188,-0.017 0.366,0.007 0.534,0.071c0.168,0.064 0.323,0.165 0.466,0.301c0.143,0.136 0.269,0.3 0.38,0.491l0.121,0.211l-1.961,1.132c0.078,0.122 0.169,0.226 0.276,0.311c0.107,0.085 0.221,0.147 0.344,0.185c0.123,0.039 0.25,0.052 0.382,0.038c0.132,-0.013 0.262,-0.056 0.389,-0.129c0.167,-0.097 0.297,-0.217 0.388,-0.36c0.091,-0.142 0.147,-0.295 0.169,-0.456l0.416,0.058c-0.006,0.095 -0.025,0.195 -0.056,0.298c-0.032,0.103 -0.079,0.205 -0.14,0.305c-0.062,0.101 -0.14,0.199 -0.237,0.294c-0.096,0.095 -0.211,0.181 -0.344,0.258ZM397.571,270.902c-0.095,0.054 -0.175,0.123 -0.239,0.207c-0.065,0.083 -0.111,0.178 -0.141,0.284c-0.029,0.106 -0.038,0.221 -0.029,0.345c0.01,0.124 0.042,0.255 0.097,0.392l1.476,-0.852l-0.02,-0.036c-0.058,-0.088 -0.128,-0.168 -0.209,-0.241c-0.081,-0.073 -0.171,-0.128 -0.27,-0.166c-0.098,-0.037 -0.204,-0.053 -0.316,-0.047c-0.113,0.006 -0.229,0.044 -0.349,0.114Z" style="fill:#4677bc;fill-rule:nonzero;"/><path d="M402.48,269.491c0.114,0.196 0.196,0.393 0.247,0.591c0.05,0.197 0.066,0.384 0.047,0.562c-0.019,0.178 -0.075,0.342 -0.169,0.49c-0.093,0.149 -0.227,0.274 -0.401,0.374c-0.176,0.102 -0.347,0.159 -0.512,0.171c-0.166,0.012 -0.328,-0.014 -0.487,-0.078l0.158,0.325l-0.432,0.249l-2.25,-3.897l0.47,-0.271l0.835,1.446c0.025,-0.163 0.084,-0.311 0.176,-0.443c0.093,-0.133 0.224,-0.248 0.393,-0.346c0.176,-0.101 0.352,-0.156 0.527,-0.165c0.175,-0.009 0.344,0.022 0.507,0.093c0.163,0.071 0.317,0.178 0.464,0.322c0.146,0.145 0.279,0.319 0.397,0.524l0.03,0.053ZM401.98,269.709c-0.077,-0.134 -0.163,-0.253 -0.259,-0.359c-0.096,-0.106 -0.2,-0.188 -0.311,-0.247c-0.11,-0.059 -0.228,-0.089 -0.352,-0.089c-0.124,-0.001 -0.254,0.038 -0.39,0.116c-0.081,0.047 -0.149,0.101 -0.204,0.161c-0.056,0.06 -0.099,0.124 -0.131,0.193c-0.031,0.069 -0.052,0.141 -0.064,0.217c-0.012,0.075 -0.014,0.152 -0.008,0.229l0.693,1.2c0.066,0.044 0.134,0.079 0.205,0.107c0.071,0.027 0.145,0.045 0.222,0.053c0.076,0.007 0.155,0.002 0.235,-0.016c0.079,-0.018 0.16,-0.05 0.241,-0.097c0.129,-0.074 0.224,-0.164 0.285,-0.271c0.062,-0.106 0.095,-0.222 0.101,-0.347c0.005,-0.125 -0.013,-0.256 -0.054,-0.392c-0.041,-0.136 -0.101,-0.271 -0.178,-0.405l-0.031,-0.053Z" style="fill:#4677bc;fill-rule:nonzero;"/><path d="M405.61,268.97c-0.013,0.188 -0.067,0.359 -0.16,0.514c-0.094,0.154 -0.23,0.283 -0.41,0.386c-0.143,0.083 -0.287,0.136 -0.429,0.159c-0.143,0.022 -0.283,0.01 -0.42,-0.037c-0.138,-0.047 -0.271,-0.13 -0.401,-0.251c-0.129,-0.12 -0.253,-0.283 -0.371,-0.487l-0.942,-1.632l0.47,-0.271l0.944,1.637c0.086,0.149 0.17,0.265 0.25,0.35c0.08,0.084 0.161,0.142 0.242,0.173c0.081,0.031 0.163,0.038 0.245,0.023c0.082,-0.016 0.168,-0.05 0.257,-0.102c0.192,-0.11 0.323,-0.238 0.396,-0.384c0.073,-0.146 0.1,-0.301 0.081,-0.466l-1.137,-1.969l0.472,-0.272l1.585,2.745l-0.426,0.246l-0.246,-0.362Z" style="fill:#4677bc;fill-rule:nonzero;"/><path d="M406.273,267.23c-0.118,-0.204 -0.202,-0.407 -0.251,-0.607c-0.049,-0.201 -0.062,-0.39 -0.039,-0.568c0.024,-0.178 0.083,-0.341 0.179,-0.489c0.095,-0.147 0.228,-0.27 0.399,-0.369c0.169,-0.098 0.335,-0.153 0.497,-0.167c0.162,-0.014 0.321,0.01 0.476,0.072l-0.15,-0.313l0.426,-0.246l1.552,2.687c0.104,0.181 0.169,0.358 0.193,0.531c0.024,0.173 0.014,0.339 -0.032,0.496c-0.046,0.157 -0.125,0.302 -0.238,0.435c-0.112,0.132 -0.255,0.249 -0.428,0.348c-0.071,0.041 -0.157,0.08 -0.257,0.117c-0.101,0.036 -0.208,0.064 -0.323,0.081c-0.115,0.018 -0.234,0.022 -0.356,0.011c-0.122,-0.01 -0.241,-0.042 -0.355,-0.096l0.081,-0.422c0.098,0.036 0.191,0.061 0.279,0.074c0.089,0.013 0.173,0.016 0.252,0.008c0.079,-0.007 0.154,-0.023 0.224,-0.046c0.07,-0.023 0.136,-0.053 0.199,-0.089c0.111,-0.065 0.203,-0.139 0.274,-0.223c0.071,-0.084 0.12,-0.175 0.148,-0.273c0.028,-0.099 0.032,-0.203 0.013,-0.314c-0.019,-0.111 -0.062,-0.226 -0.131,-0.344l-0.136,-0.236c-0.031,0.158 -0.092,0.3 -0.185,0.427c-0.092,0.126 -0.221,0.237 -0.385,0.332c-0.167,0.096 -0.339,0.148 -0.515,0.155c-0.177,0.007 -0.348,-0.024 -0.514,-0.095c-0.166,-0.071 -0.324,-0.177 -0.473,-0.318c-0.149,-0.141 -0.28,-0.309 -0.393,-0.505l-0.031,-0.054ZM406.773,267.013c0.078,0.133 0.165,0.252 0.262,0.356c0.097,0.104 0.202,0.184 0.315,0.241c0.113,0.057 0.231,0.085 0.355,0.084c0.124,0 0.251,-0.038 0.381,-0.113c0.081,-0.047 0.149,-0.099 0.203,-0.156c0.053,-0.057 0.096,-0.118 0.127,-0.183c0.031,-0.066 0.053,-0.135 0.065,-0.207c0.012,-0.073 0.017,-0.147 0.013,-0.224l-0.727,-1.258c-0.063,-0.04 -0.129,-0.072 -0.197,-0.096c-0.068,-0.024 -0.138,-0.038 -0.211,-0.043c-0.072,-0.004 -0.146,0.003 -0.222,0.02c-0.075,0.018 -0.152,0.049 -0.23,0.094c-0.132,0.076 -0.229,0.168 -0.291,0.277c-0.063,0.108 -0.098,0.226 -0.105,0.353c-0.006,0.126 0.011,0.258 0.053,0.395c0.042,0.137 0.101,0.273 0.179,0.406l0.03,0.054Z" style="fill:#4677bc;fill-rule:nonzero;"/><path d="M408.666,262.784l1.667,1.5l-0.417,-2.222l0.584,-0.337l2.133,3.694l-0.457,0.264l-0.851,-1.474l-0.853,-1.565l0.466,2.384l-0.269,0.155l-1.744,-1.574l0.898,1.467l0.851,1.474l-0.457,0.264l-2.132,-3.694l0.581,-0.336Z" style="fill:#4677bc;fill-rule:nonzero;"/><path d="M412.463,263.654c-0.115,-0.198 -0.192,-0.399 -0.233,-0.602c-0.04,-0.203 -0.043,-0.398 -0.008,-0.586c0.035,-0.187 0.109,-0.361 0.221,-0.521c0.113,-0.161 0.265,-0.297 0.458,-0.409c0.195,-0.112 0.39,-0.177 0.586,-0.194c0.197,-0.018 0.385,0.005 0.564,0.068c0.18,0.063 0.348,0.163 0.503,0.3c0.156,0.137 0.291,0.304 0.405,0.502l0.032,0.056c0.115,0.198 0.192,0.398 0.232,0.6c0.04,0.203 0.043,0.398 0.007,0.585c-0.035,0.187 -0.109,0.36 -0.222,0.52c-0.113,0.16 -0.265,0.296 -0.458,0.407c-0.195,0.113 -0.39,0.178 -0.586,0.196c-0.195,0.018 -0.383,-0.004 -0.563,-0.067c-0.18,-0.063 -0.347,-0.163 -0.502,-0.299c-0.155,-0.136 -0.29,-0.303 -0.404,-0.501l-0.032,-0.055ZM412.964,263.438c0.078,0.136 0.169,0.256 0.272,0.36c0.103,0.104 0.214,0.183 0.332,0.239c0.119,0.055 0.243,0.082 0.373,0.079c0.129,-0.002 0.259,-0.041 0.389,-0.116c0.129,-0.075 0.226,-0.167 0.292,-0.277c0.066,-0.11 0.105,-0.231 0.116,-0.361c0.011,-0.131 -0.002,-0.267 -0.041,-0.408c-0.039,-0.141 -0.097,-0.28 -0.175,-0.415l-0.032,-0.056c-0.077,-0.133 -0.168,-0.252 -0.272,-0.356c-0.103,-0.103 -0.215,-0.183 -0.334,-0.238c-0.118,-0.056 -0.242,-0.083 -0.371,-0.081c-0.129,0.001 -0.259,0.039 -0.389,0.114c-0.13,0.075 -0.228,0.168 -0.293,0.279c-0.064,0.11 -0.102,0.231 -0.114,0.362c-0.011,0.13 0.003,0.266 0.041,0.407c0.039,0.142 0.097,0.279 0.174,0.413l0.032,0.055Z" style="fill:#4677bc;fill-rule:nonzero;"/><path d="M415.625,261.831c-0.118,-0.205 -0.201,-0.408 -0.248,-0.609c-0.048,-0.202 -0.059,-0.392 -0.035,-0.57c0.024,-0.179 0.084,-0.342 0.179,-0.49c0.095,-0.147 0.227,-0.269 0.394,-0.366c0.164,-0.095 0.324,-0.15 0.478,-0.166c0.154,-0.015 0.307,0.003 0.457,0.056l-0.822,-1.423l0.469,-0.271l2.25,3.897l-0.431,0.249l-0.187,-0.277c-0.027,0.164 -0.087,0.311 -0.181,0.442c-0.094,0.131 -0.225,0.245 -0.394,0.343c-0.166,0.096 -0.337,0.147 -0.512,0.153c-0.176,0.007 -0.347,-0.025 -0.514,-0.096c-0.167,-0.07 -0.326,-0.175 -0.476,-0.315c-0.151,-0.14 -0.283,-0.308 -0.396,-0.504l-0.031,-0.053ZM416.125,261.613c0.078,0.134 0.165,0.252 0.263,0.356c0.098,0.103 0.204,0.184 0.317,0.24c0.112,0.057 0.231,0.085 0.354,0.085c0.124,-0.001 0.251,-0.039 0.382,-0.114c0.079,-0.046 0.146,-0.097 0.199,-0.152c0.054,-0.056 0.097,-0.116 0.129,-0.181c0.032,-0.065 0.055,-0.134 0.068,-0.205c0.013,-0.072 0.017,-0.146 0.013,-0.223l-0.735,-1.273c-0.125,-0.077 -0.26,-0.121 -0.405,-0.134c-0.145,-0.012 -0.294,0.026 -0.448,0.115c-0.132,0.076 -0.229,0.169 -0.292,0.277c-0.062,0.108 -0.097,0.226 -0.104,0.353c-0.007,0.127 0.01,0.259 0.051,0.396c0.041,0.138 0.101,0.273 0.178,0.407l0.03,0.053Z" style="fill:#4677bc;fill-rule:nonzero;"/><path d="M420.88,260.725c-0.193,0.112 -0.389,0.181 -0.589,0.208c-0.199,0.028 -0.391,0.015 -0.574,-0.037c-0.184,-0.052 -0.354,-0.14 -0.512,-0.266c-0.158,-0.125 -0.292,-0.283 -0.403,-0.474l-0.061,-0.107c-0.128,-0.221 -0.207,-0.44 -0.237,-0.656c-0.03,-0.216 -0.021,-0.419 0.026,-0.608c0.048,-0.188 0.128,-0.358 0.241,-0.509c0.112,-0.151 0.247,-0.271 0.405,-0.362c0.197,-0.114 0.39,-0.18 0.578,-0.197c0.187,-0.017 0.365,0.007 0.533,0.071c0.168,0.064 0.323,0.165 0.466,0.301c0.143,0.136 0.27,0.3 0.38,0.491l0.122,0.211l-1.961,1.132c0.077,0.122 0.169,0.226 0.275,0.311c0.107,0.085 0.222,0.147 0.344,0.185c0.123,0.039 0.25,0.052 0.383,0.038c0.132,-0.013 0.261,-0.056 0.388,-0.129c0.168,-0.097 0.297,-0.217 0.388,-0.36c0.091,-0.142 0.148,-0.295 0.17,-0.456l0.415,0.058c-0.005,0.095 -0.024,0.195 -0.056,0.298c-0.032,0.103 -0.078,0.205 -0.14,0.305c-0.061,0.101 -0.14,0.199 -0.236,0.294c-0.096,0.095 -0.211,0.181 -0.345,0.258ZM419.398,258.3c-0.094,0.054 -0.174,0.123 -0.239,0.207c-0.064,0.083 -0.111,0.178 -0.14,0.284c-0.029,0.106 -0.039,0.221 -0.029,0.345c0.009,0.124 0.041,0.255 0.096,0.392l1.477,-0.852l-0.021,-0.036c-0.058,-0.088 -0.127,-0.169 -0.208,-0.241c-0.082,-0.073 -0.172,-0.128 -0.27,-0.166c-0.099,-0.037 -0.204,-0.053 -0.317,-0.047c-0.112,0.006 -0.229,0.044 -0.349,0.114Z" style="fill:#4677bc;fill-rule:nonzero;"/><path d="M423.877,256.289l-2.266,1.308l-0.236,-0.408l2.266,-1.309l0.236,0.409ZM424.485,257.342l-2.266,1.308l-0.234,-0.406l2.265,-1.308l0.235,0.406Z" style="fill:#4677bc;fill-rule:nonzero;"/><path d="M426.921,254.893l-1.543,0.891l0.756,1.309l1.799,-1.038l0.23,0.398l-2.268,1.31l-2.133,-3.695l2.245,-1.296l0.232,0.401l-1.776,1.025l0.685,1.188l1.543,-0.891l0.23,0.398Z" style="fill:#4677bc;fill-rule:nonzero;"/><path d="M427.829,252.986l0.267,0.387c0.018,-0.2 0.076,-0.382 0.175,-0.547c0.099,-0.164 0.238,-0.299 0.416,-0.404c0.144,-0.083 0.287,-0.138 0.428,-0.165c0.141,-0.028 0.277,-0.022 0.41,0.016c0.133,0.039 0.26,0.112 0.381,0.218c0.122,0.107 0.235,0.252 0.341,0.435l1.006,1.743l-0.469,0.271l-1.001,-1.733c-0.07,-0.122 -0.143,-0.217 -0.219,-0.286c-0.076,-0.069 -0.156,-0.114 -0.239,-0.136c-0.084,-0.022 -0.171,-0.022 -0.261,-0.001c-0.091,0.02 -0.186,0.059 -0.286,0.117c-0.157,0.091 -0.273,0.21 -0.347,0.358c-0.074,0.147 -0.109,0.306 -0.106,0.475l1.137,1.969l-0.469,0.271l-1.585,-2.745l0.421,-0.243Z" style="fill:#4677bc;fill-rule:nonzero;"/><path d="M433.915,253.132c-0.039,-0.025 -0.08,-0.06 -0.122,-0.107c-0.041,-0.047 -0.081,-0.098 -0.12,-0.153c-0.02,0.075 -0.047,0.15 -0.081,0.226c-0.034,0.076 -0.076,0.151 -0.128,0.223c-0.052,0.073 -0.112,0.142 -0.181,0.206c-0.068,0.065 -0.148,0.123 -0.237,0.175c-0.146,0.084 -0.289,0.138 -0.431,0.164c-0.142,0.025 -0.275,0.026 -0.399,0.001c-0.123,-0.024 -0.236,-0.073 -0.338,-0.146c-0.102,-0.073 -0.186,-0.167 -0.252,-0.282c-0.087,-0.151 -0.133,-0.3 -0.139,-0.448c-0.005,-0.148 0.025,-0.291 0.092,-0.43c0.066,-0.139 0.166,-0.271 0.3,-0.398c0.133,-0.127 0.295,-0.245 0.486,-0.355l0.513,-0.296l-0.125,-0.216c-0.048,-0.083 -0.106,-0.148 -0.174,-0.197c-0.069,-0.048 -0.145,-0.08 -0.227,-0.094c-0.083,-0.014 -0.172,-0.011 -0.267,0.01c-0.095,0.021 -0.192,0.061 -0.292,0.118c-0.093,0.054 -0.169,0.114 -0.229,0.18c-0.06,0.066 -0.104,0.133 -0.133,0.202c-0.028,0.068 -0.041,0.137 -0.038,0.206c0.003,0.069 0.021,0.133 0.054,0.19l-0.472,0.273c-0.056,-0.101 -0.086,-0.214 -0.092,-0.339c-0.006,-0.125 0.016,-0.254 0.065,-0.385c0.05,-0.131 0.128,-0.259 0.235,-0.384c0.107,-0.125 0.246,-0.237 0.417,-0.335c0.156,-0.09 0.311,-0.155 0.467,-0.194c0.156,-0.039 0.304,-0.048 0.446,-0.027c0.142,0.021 0.274,0.072 0.396,0.155c0.122,0.083 0.228,0.201 0.316,0.355l0.737,1.276c0.053,0.092 0.117,0.184 0.193,0.276c0.076,0.093 0.152,0.168 0.226,0.227l0.023,0.041l-0.489,0.282ZM432.878,253.253c0.092,-0.052 0.17,-0.113 0.236,-0.183c0.066,-0.07 0.12,-0.143 0.163,-0.219c0.043,-0.077 0.073,-0.153 0.092,-0.231c0.018,-0.077 0.026,-0.15 0.021,-0.22l-0.32,-0.556l-0.437,0.252c-0.274,0.158 -0.464,0.322 -0.569,0.491c-0.105,0.169 -0.108,0.341 -0.007,0.515c0.039,0.068 0.087,0.124 0.143,0.168c0.056,0.044 0.118,0.074 0.188,0.089c0.07,0.015 0.146,0.014 0.229,-0.002c0.083,-0.016 0.17,-0.051 0.261,-0.104Z" style="fill:#4677bc;fill-rule:nonzero;"/><path d="M436.781,249.688c0.113,0.196 0.195,0.393 0.246,0.59c0.051,0.198 0.066,0.385 0.047,0.563c-0.019,0.178 -0.075,0.341 -0.168,0.49c-0.094,0.149 -0.228,0.273 -0.402,0.374c-0.176,0.102 -0.347,0.158 -0.512,0.17c-0.166,0.013 -0.328,-0.013 -0.487,-0.077l0.158,0.325l-0.432,0.249l-2.25,-3.897l0.47,-0.271l0.835,1.446c0.025,-0.163 0.084,-0.311 0.177,-0.444c0.092,-0.132 0.223,-0.247 0.392,-0.345c0.176,-0.101 0.352,-0.157 0.527,-0.165c0.176,-0.009 0.345,0.022 0.507,0.093c0.163,0.07 0.317,0.178 0.464,0.322c0.146,0.145 0.279,0.319 0.397,0.524l0.031,0.053ZM436.281,249.906c-0.078,-0.134 -0.164,-0.254 -0.26,-0.359c-0.096,-0.106 -0.2,-0.189 -0.31,-0.248c-0.111,-0.059 -0.229,-0.088 -0.353,-0.089c-0.124,0 -0.254,0.039 -0.389,0.117c-0.082,0.047 -0.15,0.1 -0.205,0.16c-0.056,0.061 -0.099,0.125 -0.13,0.194c-0.032,0.069 -0.053,0.141 -0.065,0.217c-0.012,0.075 -0.014,0.152 -0.008,0.229l0.693,1.2c0.066,0.043 0.134,0.079 0.205,0.107c0.072,0.027 0.145,0.045 0.222,0.053c0.077,0.007 0.155,0.002 0.235,-0.016c0.08,-0.018 0.16,-0.05 0.241,-0.097c0.129,-0.074 0.224,-0.165 0.285,-0.271c0.062,-0.107 0.095,-0.222 0.101,-0.347c0.005,-0.125 -0.012,-0.256 -0.054,-0.392c-0.041,-0.136 -0.101,-0.271 -0.178,-0.405l-0.03,-0.053Z" style="fill:#4677bc;fill-rule:nonzero;"/><path d="M436.171,246.634l1.403,-0.811l2.015,3.492l0.896,-0.517l0.234,0.406l-2.298,1.327l-0.235,-0.406l0.934,-0.539l-1.78,-3.083l-0.933,0.539l-0.236,-0.408Z" style="fill:#4677bc;fill-rule:nonzero;"/><path d="M442.707,248.123c-0.192,0.112 -0.389,0.181 -0.588,0.208c-0.2,0.028 -0.391,0.015 -0.575,-0.037c-0.183,-0.052 -0.354,-0.14 -0.512,-0.266c-0.158,-0.125 -0.292,-0.283 -0.402,-0.474l-0.062,-0.107c-0.128,-0.221 -0.207,-0.44 -0.237,-0.656c-0.03,-0.216 -0.021,-0.419 0.027,-0.608c0.047,-0.188 0.128,-0.358 0.24,-0.509c0.113,-0.151 0.248,-0.271 0.405,-0.362c0.198,-0.114 0.391,-0.18 0.578,-0.197c0.188,-0.017 0.365,0.007 0.533,0.071c0.168,0.064 0.324,0.165 0.467,0.301c0.143,0.136 0.269,0.3 0.38,0.491l0.121,0.211l-1.961,1.132c0.077,0.122 0.169,0.226 0.276,0.311c0.106,0.085 0.221,0.147 0.344,0.185c0.122,0.039 0.25,0.051 0.382,0.038c0.132,-0.013 0.262,-0.056 0.389,-0.129c0.167,-0.097 0.296,-0.217 0.388,-0.36c0.091,-0.143 0.147,-0.295 0.169,-0.456l0.416,0.058c-0.006,0.095 -0.025,0.195 -0.057,0.298c-0.031,0.103 -0.078,0.205 -0.139,0.305c-0.062,0.101 -0.141,0.199 -0.237,0.294c-0.096,0.095 -0.211,0.181 -0.345,0.258ZM441.226,245.697c-0.095,0.055 -0.175,0.124 -0.239,0.208c-0.065,0.083 -0.112,0.178 -0.141,0.284c-0.029,0.106 -0.039,0.221 -0.029,0.345c0.01,0.124 0.042,0.255 0.097,0.392l1.476,-0.852l-0.02,-0.036c-0.058,-0.088 -0.128,-0.169 -0.209,-0.241c-0.081,-0.073 -0.171,-0.128 -0.27,-0.166c-0.098,-0.038 -0.204,-0.053 -0.316,-0.047c-0.113,0.006 -0.229,0.044 -0.349,0.113Z" style="fill:#4677bc;fill-rule:nonzero;"/><path d="M443.689,245.628c-0.118,-0.204 -0.201,-0.407 -0.248,-0.609c-0.048,-0.201 -0.06,-0.391 -0.035,-0.57c0.024,-0.179 0.084,-0.342 0.179,-0.489c0.095,-0.148 0.227,-0.27 0.394,-0.366c0.164,-0.095 0.323,-0.15 0.478,-0.166c0.154,-0.016 0.306,0.003 0.457,0.056l-0.822,-1.424l0.469,-0.271l2.25,3.897l-0.431,0.249l-0.187,-0.277c-0.027,0.164 -0.088,0.312 -0.181,0.443c-0.094,0.13 -0.225,0.245 -0.394,0.342c-0.166,0.096 -0.337,0.147 -0.512,0.154c-0.176,0.006 -0.347,-0.026 -0.514,-0.096c-0.167,-0.071 -0.326,-0.176 -0.476,-0.315c-0.151,-0.14 -0.283,-0.308 -0.396,-0.504l-0.031,-0.054ZM444.189,245.411c0.077,0.133 0.165,0.252 0.263,0.355c0.098,0.104 0.204,0.184 0.316,0.241c0.113,0.056 0.231,0.084 0.355,0.084c0.124,0 0.251,-0.038 0.381,-0.114c0.08,-0.045 0.146,-0.096 0.2,-0.152c0.053,-0.056 0.096,-0.116 0.129,-0.181c0.032,-0.065 0.055,-0.133 0.068,-0.205c0.012,-0.071 0.017,-0.146 0.013,-0.222l-0.735,-1.274c-0.126,-0.077 -0.261,-0.121 -0.405,-0.133c-0.145,-0.013 -0.294,0.026 -0.448,0.115c-0.132,0.076 -0.229,0.168 -0.292,0.276c-0.063,0.109 -0.097,0.226 -0.104,0.353c-0.007,0.127 0.01,0.259 0.051,0.397c0.041,0.137 0.1,0.273 0.177,0.406l0.031,0.054Z" style="fill:#4677bc;fill-rule:nonzero;"/></g><g><path d="M200.577,84.61c0.066,-0.114 0.095,-0.224 0.088,-0.332c-0.006,-0.107 -0.035,-0.211 -0.085,-0.311c-0.051,-0.1 -0.114,-0.196 -0.191,-0.288c-0.077,-0.092 -0.152,-0.178 -0.225,-0.258c-0.105,-0.118 -0.209,-0.245 -0.309,-0.382c-0.1,-0.137 -0.181,-0.28 -0.242,-0.43c-0.061,-0.151 -0.092,-0.305 -0.095,-0.463c-0.002,-0.158 0.043,-0.317 0.134,-0.476c0.092,-0.159 0.209,-0.28 0.352,-0.365c0.142,-0.085 0.295,-0.137 0.458,-0.158c0.163,-0.021 0.33,-0.012 0.499,0.026c0.17,0.038 0.328,0.099 0.473,0.183c0.161,0.093 0.3,0.209 0.418,0.348c0.118,0.139 0.207,0.29 0.266,0.453c0.06,0.163 0.085,0.333 0.075,0.51c-0.01,0.177 -0.062,0.351 -0.156,0.522l-0.482,-0.278c0.048,-0.115 0.077,-0.227 0.089,-0.336c0.011,-0.11 0.003,-0.214 -0.025,-0.314c-0.028,-0.1 -0.077,-0.192 -0.146,-0.278c-0.068,-0.086 -0.159,-0.162 -0.27,-0.226c-0.09,-0.052 -0.185,-0.09 -0.285,-0.114c-0.1,-0.024 -0.198,-0.029 -0.294,-0.017c-0.096,0.012 -0.186,0.044 -0.268,0.095c-0.083,0.052 -0.153,0.126 -0.209,0.225c-0.06,0.107 -0.085,0.213 -0.075,0.317c0.01,0.104 0.04,0.204 0.091,0.301c0.051,0.097 0.114,0.19 0.188,0.278c0.075,0.088 0.146,0.169 0.214,0.242c0.075,0.081 0.148,0.167 0.22,0.257c0.072,0.09 0.138,0.184 0.197,0.281c0.059,0.097 0.108,0.197 0.149,0.299c0.04,0.102 0.066,0.207 0.078,0.314c0.013,0.108 0.009,0.216 -0.012,0.325c-0.021,0.108 -0.064,0.217 -0.127,0.327c-0.096,0.166 -0.216,0.289 -0.361,0.37c-0.145,0.081 -0.299,0.129 -0.463,0.144c-0.164,0.015 -0.332,0 -0.503,-0.043c-0.171,-0.044 -0.33,-0.108 -0.477,-0.193c-0.165,-0.095 -0.311,-0.213 -0.439,-0.355c-0.128,-0.141 -0.226,-0.296 -0.295,-0.463c-0.069,-0.167 -0.103,-0.342 -0.101,-0.525c0.001,-0.183 0.051,-0.364 0.147,-0.542l0.48,0.276c-0.052,0.124 -0.079,0.244 -0.083,0.36c-0.004,0.116 0.013,0.227 0.052,0.332c0.039,0.104 0.098,0.2 0.177,0.288c0.079,0.087 0.177,0.164 0.292,0.231c0.091,0.052 0.188,0.093 0.29,0.121c0.102,0.029 0.201,0.039 0.298,0.031c0.097,-0.008 0.189,-0.037 0.276,-0.085c0.086,-0.048 0.159,-0.123 0.217,-0.224Z" style="fill:#4677bc;fill-rule:nonzero;"/><path d="M202.407,86.978c-0.193,-0.111 -0.351,-0.246 -0.475,-0.405c-0.123,-0.16 -0.208,-0.332 -0.255,-0.517c-0.047,-0.184 -0.055,-0.376 -0.026,-0.576c0.03,-0.199 0.1,-0.395 0.21,-0.586l0.062,-0.106c0.127,-0.222 0.277,-0.4 0.45,-0.534c0.172,-0.134 0.351,-0.227 0.539,-0.281c0.187,-0.053 0.374,-0.068 0.561,-0.046c0.187,0.022 0.359,0.079 0.516,0.17c0.198,0.114 0.351,0.248 0.46,0.402c0.108,0.154 0.177,0.32 0.205,0.497c0.028,0.178 0.019,0.362 -0.027,0.554c-0.047,0.192 -0.125,0.384 -0.236,0.575l-0.121,0.21l-1.962,-1.132c-0.067,0.128 -0.111,0.26 -0.131,0.395c-0.02,0.134 -0.016,0.265 0.011,0.39c0.028,0.126 0.081,0.242 0.159,0.35c0.077,0.108 0.179,0.199 0.306,0.272c0.168,0.097 0.336,0.149 0.505,0.156c0.17,0.008 0.33,-0.019 0.48,-0.081l0.158,0.389c-0.086,0.043 -0.181,0.076 -0.286,0.1c-0.105,0.024 -0.217,0.034 -0.335,0.032c-0.118,-0.003 -0.242,-0.022 -0.372,-0.058c-0.131,-0.036 -0.263,-0.092 -0.396,-0.17ZM203.767,84.482c-0.095,-0.055 -0.195,-0.089 -0.299,-0.103c-0.105,-0.014 -0.21,-0.007 -0.317,0.02c-0.106,0.028 -0.21,0.077 -0.313,0.148c-0.103,0.07 -0.2,0.163 -0.292,0.279l1.477,0.853l0.02,-0.036c0.048,-0.094 0.083,-0.194 0.105,-0.301c0.022,-0.107 0.025,-0.212 0.009,-0.317c-0.017,-0.104 -0.056,-0.203 -0.118,-0.297c-0.061,-0.095 -0.152,-0.177 -0.272,-0.246Z" style="fill:#4677bc;fill-rule:nonzero;"/><path d="M207.754,86.27c0.044,0.026 0.089,0.053 0.135,0.083c0.046,0.03 0.089,0.06 0.129,0.091c0.039,0.031 0.075,0.061 0.106,0.091c0.032,0.029 0.057,0.056 0.074,0.08l-0.328,0.422c-0.08,-0.073 -0.158,-0.138 -0.235,-0.194c-0.076,-0.057 -0.159,-0.111 -0.249,-0.163c-0.22,-0.127 -0.427,-0.18 -0.621,-0.159c-0.193,0.022 -0.374,0.103 -0.542,0.245l-1.017,1.761l-0.471,-0.272l1.585,-2.745l0.446,0.257l-0.229,0.45c0.199,-0.086 0.401,-0.128 0.608,-0.124c0.207,0.003 0.41,0.062 0.609,0.177Z" style="fill:#4677bc;fill-rule:nonzero;"/><path d="M208.925,89.774l-0.055,0.195l0.144,-0.143l1.964,-1.627l0.479,0.277l-2.704,2.099l-0.357,-0.206l0.456,-3.398l0.482,0.279l-0.409,2.524Z" style="fill:#4677bc;fill-rule:nonzero;"/><path d="M211.761,92.379c-0.193,-0.111 -0.351,-0.246 -0.474,-0.406c-0.124,-0.159 -0.209,-0.331 -0.255,-0.516c-0.047,-0.184 -0.056,-0.377 -0.026,-0.576c0.029,-0.2 0.099,-0.395 0.21,-0.586l0.061,-0.107c0.128,-0.221 0.278,-0.399 0.45,-0.533c0.172,-0.134 0.352,-0.228 0.539,-0.281c0.188,-0.053 0.375,-0.068 0.562,-0.046c0.186,0.022 0.359,0.079 0.516,0.169c0.198,0.115 0.351,0.249 0.459,0.403c0.109,0.154 0.177,0.319 0.205,0.497c0.029,0.178 0.02,0.362 -0.027,0.554c-0.046,0.192 -0.125,0.384 -0.235,0.575l-0.122,0.21l-1.961,-1.132c-0.067,0.128 -0.111,0.26 -0.131,0.394c-0.021,0.135 -0.017,0.265 0.011,0.391c0.028,0.125 0.081,0.242 0.158,0.35c0.078,0.108 0.18,0.199 0.307,0.272c0.167,0.096 0.336,0.149 0.505,0.156c0.169,0.008 0.329,-0.019 0.48,-0.081l0.158,0.388c-0.086,0.043 -0.181,0.077 -0.287,0.101c-0.105,0.024 -0.216,0.034 -0.334,0.032c-0.118,-0.003 -0.242,-0.022 -0.373,-0.058c-0.13,-0.036 -0.262,-0.093 -0.396,-0.17ZM213.121,89.883c-0.095,-0.055 -0.194,-0.089 -0.299,-0.103c-0.104,-0.014 -0.21,-0.008 -0.316,0.02c-0.106,0.028 -0.211,0.077 -0.313,0.147c-0.103,0.071 -0.2,0.164 -0.292,0.28l1.477,0.853l0.02,-0.036c0.048,-0.094 0.083,-0.195 0.105,-0.301c0.022,-0.107 0.025,-0.213 0.008,-0.317c-0.016,-0.104 -0.055,-0.203 -0.117,-0.298c-0.062,-0.094 -0.153,-0.176 -0.273,-0.245Z" style="fill:#4677bc;fill-rule:nonzero;"/><path d="M217.109,91.671c0.044,0.026 0.089,0.053 0.135,0.083c0.046,0.03 0.089,0.06 0.128,0.091c0.04,0.031 0.076,0.061 0.107,0.091c0.032,0.029 0.056,0.056 0.074,0.08l-0.329,0.422c-0.079,-0.073 -0.157,-0.138 -0.234,-0.194c-0.077,-0.057 -0.16,-0.111 -0.249,-0.163c-0.22,-0.127 -0.427,-0.18 -0.621,-0.159c-0.194,0.021 -0.375,0.103 -0.542,0.245l-1.017,1.761l-0.472,-0.272l1.585,-2.746l0.447,0.258l-0.229,0.45c0.198,-0.086 0.401,-0.128 0.608,-0.124c0.206,0.003 0.409,0.062 0.609,0.177Z" style="fill:#4677bc;fill-rule:nonzero;"/><path d="M220.22,94.557l-2.266,-1.309l0.236,-0.408l2.266,1.308l-0.236,0.409ZM219.612,95.609l-2.266,-1.308l0.235,-0.406l2.265,1.309l-0.234,0.405Z" style="fill:#4677bc;fill-rule:nonzero;"/><path d="M221.733,94.408l-0.137,0.267c0.112,-0.065 0.228,-0.098 0.35,-0.099c0.122,-0.002 0.247,0.033 0.377,0.105c0.252,0.146 0.364,0.341 0.335,0.586c0.105,-0.056 0.217,-0.086 0.337,-0.088c0.119,-0.002 0.243,0.033 0.371,0.105c0.201,0.116 0.32,0.267 0.357,0.453c0.037,0.186 -0.017,0.404 -0.161,0.654l-1.184,2.05l-0.446,-0.257l1.186,-2.056c0.133,-0.23 0.093,-0.405 -0.119,-0.525c-0.056,-0.032 -0.109,-0.053 -0.158,-0.061c-0.049,-0.008 -0.095,-0.007 -0.137,0.004c-0.043,0.01 -0.081,0.028 -0.117,0.054c-0.035,0.026 -0.066,0.056 -0.092,0.091l-1.221,2.113l-0.446,-0.258l1.188,-2.057c0.063,-0.11 0.088,-0.209 0.073,-0.297c-0.015,-0.087 -0.076,-0.161 -0.184,-0.221c-0.098,-0.056 -0.185,-0.081 -0.262,-0.073c-0.076,0.008 -0.146,0.036 -0.208,0.086l-1.262,2.184l-0.446,-0.257l1.585,-2.746l0.421,0.243Z" style="fill:#4677bc;fill-rule:nonzero;"/><path d="M224.623,98.438l-0.07,0.403l2.051,-1.62l0.526,0.303l-3.223,2.365c-0.073,0.052 -0.158,0.104 -0.253,0.155c-0.096,0.05 -0.199,0.089 -0.309,0.116c-0.11,0.026 -0.226,0.035 -0.347,0.026c-0.121,-0.009 -0.243,-0.049 -0.367,-0.12c-0.022,-0.013 -0.046,-0.028 -0.071,-0.047c-0.026,-0.018 -0.051,-0.037 -0.076,-0.057c-0.024,-0.019 -0.047,-0.039 -0.068,-0.058c-0.02,-0.018 -0.037,-0.034 -0.051,-0.046l0.298,-0.339c0.011,0.007 0.027,0.017 0.046,0.03c0.02,0.014 0.04,0.028 0.061,0.042c0.021,0.014 0.041,0.028 0.061,0.04c0.02,0.013 0.036,0.023 0.048,0.03c0.064,0.037 0.133,0.053 0.207,0.048c0.073,-0.005 0.145,-0.02 0.215,-0.045c0.07,-0.025 0.135,-0.055 0.194,-0.09c0.06,-0.036 0.108,-0.066 0.145,-0.09l0.399,-0.257l0.328,-3.298l0.525,0.303l-0.269,2.206Z" style="fill:#4677bc;fill-rule:nonzero;"/><path d="M228.641,100.812c0.066,-0.113 0.095,-0.223 0.088,-0.331c-0.006,-0.108 -0.035,-0.212 -0.085,-0.312c-0.051,-0.1 -0.114,-0.196 -0.191,-0.287c-0.077,-0.092 -0.152,-0.178 -0.225,-0.259c-0.106,-0.117 -0.209,-0.244 -0.309,-0.381c-0.1,-0.137 -0.181,-0.281 -0.242,-0.431c-0.061,-0.15 -0.093,-0.304 -0.095,-0.462c-0.002,-0.158 0.042,-0.317 0.134,-0.476c0.092,-0.159 0.209,-0.281 0.352,-0.365c0.142,-0.085 0.295,-0.138 0.458,-0.159c0.163,-0.02 0.33,-0.012 0.499,0.026c0.17,0.039 0.327,0.1 0.473,0.184c0.161,0.093 0.3,0.209 0.418,0.348c0.118,0.139 0.207,0.29 0.266,0.453c0.06,0.163 0.084,0.333 0.075,0.51c-0.01,0.177 -0.062,0.351 -0.156,0.522l-0.482,-0.279c0.048,-0.114 0.077,-0.226 0.089,-0.335c0.011,-0.11 0.003,-0.215 -0.026,-0.314c-0.028,-0.1 -0.076,-0.193 -0.145,-0.279c-0.069,-0.086 -0.159,-0.161 -0.271,-0.225c-0.089,-0.052 -0.184,-0.09 -0.284,-0.114c-0.1,-0.024 -0.198,-0.03 -0.294,-0.018c-0.096,0.013 -0.186,0.044 -0.269,0.096c-0.082,0.051 -0.152,0.126 -0.209,0.224c-0.059,0.108 -0.084,0.213 -0.074,0.317c0.009,0.104 0.04,0.205 0.091,0.302c0.051,0.097 0.114,0.19 0.188,0.278c0.074,0.088 0.146,0.168 0.214,0.241c0.075,0.082 0.148,0.168 0.22,0.258c0.072,0.09 0.138,0.183 0.197,0.281c0.059,0.097 0.108,0.196 0.148,0.299c0.041,0.102 0.067,0.207 0.079,0.314c0.013,0.108 0.008,0.216 -0.013,0.324c-0.021,0.109 -0.063,0.218 -0.126,0.328c-0.096,0.166 -0.216,0.289 -0.361,0.37c-0.145,0.081 -0.299,0.129 -0.464,0.144c-0.164,0.014 -0.331,0 -0.502,-0.044c-0.171,-0.043 -0.33,-0.107 -0.478,-0.192c-0.164,-0.095 -0.31,-0.213 -0.438,-0.355c-0.128,-0.141 -0.226,-0.296 -0.296,-0.463c-0.069,-0.168 -0.102,-0.343 -0.101,-0.525c0.002,-0.183 0.051,-0.364 0.148,-0.543l0.479,0.277c-0.051,0.124 -0.078,0.244 -0.082,0.36c-0.004,0.116 0.013,0.227 0.052,0.331c0.039,0.105 0.098,0.201 0.177,0.288c0.079,0.088 0.176,0.165 0.291,0.231c0.092,0.053 0.188,0.094 0.29,0.122c0.102,0.028 0.202,0.039 0.299,0.03c0.097,-0.008 0.189,-0.036 0.276,-0.084c0.086,-0.048 0.159,-0.123 0.217,-0.225Z" style="fill:#4677bc;fill-rule:nonzero;"/><path d="M230.47,103.181c-0.192,-0.111 -0.351,-0.247 -0.474,-0.406c-0.123,-0.159 -0.209,-0.331 -0.255,-0.516c-0.047,-0.185 -0.055,-0.377 -0.026,-0.576c0.03,-0.2 0.099,-0.395 0.21,-0.586l0.061,-0.107c0.128,-0.221 0.278,-0.399 0.45,-0.533c0.172,-0.134 0.352,-0.228 0.54,-0.281c0.187,-0.053 0.374,-0.068 0.561,-0.046c0.187,0.022 0.359,0.078 0.516,0.169c0.198,0.114 0.351,0.249 0.46,0.402c0.108,0.154 0.176,0.32 0.205,0.498c0.028,0.177 0.019,0.362 -0.028,0.554c-0.046,0.192 -0.125,0.383 -0.235,0.575l-0.122,0.21l-1.961,-1.132c-0.067,0.128 -0.111,0.259 -0.131,0.394c-0.02,0.135 -0.017,0.265 0.011,0.391c0.028,0.125 0.081,0.242 0.158,0.35c0.078,0.108 0.18,0.198 0.307,0.272c0.167,0.096 0.336,0.148 0.505,0.156c0.169,0.007 0.329,-0.02 0.48,-0.082l0.158,0.389c-0.086,0.043 -0.181,0.077 -0.286,0.101c-0.105,0.023 -0.217,0.034 -0.335,0.031c-0.118,-0.002 -0.242,-0.022 -0.373,-0.058c-0.13,-0.035 -0.262,-0.092 -0.396,-0.169ZM231.83,100.685c-0.094,-0.055 -0.194,-0.089 -0.299,-0.103c-0.104,-0.015 -0.21,-0.008 -0.316,0.02c-0.106,0.028 -0.211,0.077 -0.313,0.147c-0.103,0.071 -0.2,0.164 -0.292,0.28l1.477,0.852l0.02,-0.035c0.048,-0.094 0.083,-0.195 0.105,-0.302c0.022,-0.106 0.025,-0.212 0.008,-0.316c-0.016,-0.104 -0.055,-0.204 -0.117,-0.298c-0.062,-0.094 -0.153,-0.176 -0.273,-0.245Z" style="fill:#4677bc;fill-rule:nonzero;"/><path d="M235.818,102.473c0.044,0.025 0.089,0.053 0.135,0.083c0.046,0.03 0.089,0.06 0.128,0.091c0.04,0.031 0.076,0.061 0.107,0.09c0.032,0.03 0.056,0.056 0.074,0.08l-0.328,0.423c-0.08,-0.073 -0.158,-0.138 -0.235,-0.195c-0.076,-0.056 -0.16,-0.111 -0.249,-0.162c-0.22,-0.127 -0.427,-0.18 -0.621,-0.159c-0.194,0.021 -0.374,0.103 -0.542,0.245l-1.017,1.761l-0.472,-0.273l1.585,-2.745l0.447,0.258l-0.229,0.45c0.198,-0.086 0.401,-0.128 0.608,-0.125c0.206,0.004 0.41,0.063 0.609,0.178Z" style="fill:#4677bc;fill-rule:nonzero;"/><path d="M236.989,105.977l-0.055,0.195l0.144,-0.144l1.964,-1.626l0.479,0.277l-2.704,2.099l-0.357,-0.207l0.455,-3.397l0.482,0.278l-0.408,2.525Z" style="fill:#4677bc;fill-rule:nonzero;"/><path d="M239.825,108.582c-0.193,-0.111 -0.351,-0.247 -0.474,-0.406c-0.124,-0.159 -0.209,-0.331 -0.256,-0.516c-0.046,-0.185 -0.055,-0.377 -0.025,-0.576c0.029,-0.2 0.099,-0.395 0.209,-0.586l0.062,-0.107c0.128,-0.222 0.278,-0.399 0.45,-0.533c0.172,-0.134 0.352,-0.228 0.539,-0.281c0.188,-0.053 0.375,-0.069 0.561,-0.046c0.187,0.022 0.359,0.078 0.517,0.169c0.198,0.114 0.351,0.248 0.459,0.402c0.109,0.154 0.177,0.32 0.205,0.498c0.029,0.177 0.019,0.362 -0.027,0.554c-0.047,0.192 -0.125,0.383 -0.235,0.574l-0.122,0.211l-1.961,-1.132c-0.067,0.128 -0.111,0.259 -0.132,0.394c-0.02,0.135 -0.016,0.265 0.012,0.391c0.028,0.125 0.08,0.242 0.158,0.35c0.077,0.108 0.18,0.198 0.307,0.271c0.167,0.097 0.335,0.149 0.505,0.157c0.169,0.007 0.329,-0.02 0.48,-0.082l0.158,0.389c-0.086,0.043 -0.182,0.077 -0.287,0.1c-0.105,0.024 -0.216,0.035 -0.334,0.032c-0.118,-0.003 -0.243,-0.022 -0.373,-0.058c-0.13,-0.035 -0.262,-0.092 -0.396,-0.169ZM241.185,106.086c-0.095,-0.055 -0.194,-0.089 -0.299,-0.104c-0.105,-0.014 -0.21,-0.007 -0.316,0.021c-0.106,0.028 -0.211,0.077 -0.314,0.147c-0.102,0.07 -0.2,0.164 -0.291,0.28l1.476,0.852l0.021,-0.035c0.047,-0.094 0.082,-0.195 0.105,-0.302c0.022,-0.106 0.025,-0.212 0.008,-0.316c-0.016,-0.104 -0.056,-0.204 -0.117,-0.298c-0.062,-0.094 -0.153,-0.176 -0.273,-0.245Z" style="fill:#4677bc;fill-rule:nonzero;"/><path d="M245.173,107.874c0.044,0.025 0.089,0.053 0.135,0.083c0.046,0.03 0.088,0.06 0.128,0.091c0.04,0.031 0.075,0.061 0.107,0.09c0.031,0.03 0.056,0.056 0.074,0.08l-0.329,0.423c-0.079,-0.073 -0.158,-0.138 -0.234,-0.195c-0.077,-0.056 -0.16,-0.111 -0.25,-0.162c-0.22,-0.127 -0.426,-0.18 -0.62,-0.159c-0.194,0.021 -0.375,0.103 -0.543,0.245l-1.016,1.761l-0.472,-0.273l1.585,-2.745l0.446,0.258l-0.229,0.449c0.199,-0.086 0.402,-0.127 0.608,-0.124c0.207,0.003 0.41,0.063 0.61,0.178Z" style="fill:#4677bc;fill-rule:nonzero;"/><path d="M247.193,111.493l-1.233,-0.712l-0.849,0.785l-0.469,-0.271l3.325,-3.005l0.393,0.227l-0.96,4.371l-0.467,-0.27l0.26,-1.125ZM246.323,110.446l0.982,0.567l0.439,-1.885l-1.421,1.318Z" style="fill:#4677bc;fill-rule:nonzero;"/><path d="M248.713,111.785c0.118,-0.205 0.253,-0.378 0.403,-0.52c0.151,-0.142 0.31,-0.247 0.477,-0.315c0.166,-0.068 0.338,-0.098 0.513,-0.089c0.175,0.008 0.347,0.061 0.514,0.158c0.164,0.095 0.292,0.205 0.383,0.331c0.09,0.125 0.15,0.267 0.18,0.423l0.821,-1.423l0.47,0.271l-2.25,3.897l-0.432,-0.249l0.147,-0.301c-0.156,0.059 -0.314,0.08 -0.474,0.065c-0.16,-0.016 -0.324,-0.073 -0.493,-0.17c-0.166,-0.096 -0.296,-0.218 -0.389,-0.367c-0.094,-0.149 -0.152,-0.313 -0.174,-0.493c-0.023,-0.18 -0.011,-0.37 0.035,-0.57c0.045,-0.2 0.125,-0.398 0.238,-0.595l0.031,-0.053ZM249.152,112.109c-0.078,0.134 -0.136,0.269 -0.177,0.406c-0.041,0.137 -0.057,0.268 -0.05,0.394c0.007,0.126 0.042,0.242 0.104,0.349c0.063,0.107 0.159,0.199 0.289,0.274c0.08,0.046 0.157,0.078 0.232,0.096c0.075,0.019 0.149,0.026 0.221,0.021c0.073,-0.004 0.143,-0.019 0.212,-0.043c0.068,-0.025 0.134,-0.058 0.199,-0.1l0.735,-1.274c0.004,-0.146 -0.025,-0.285 -0.087,-0.417c-0.061,-0.131 -0.169,-0.242 -0.323,-0.33c-0.132,-0.077 -0.261,-0.115 -0.386,-0.115c-0.125,0 -0.244,0.029 -0.357,0.086c-0.114,0.058 -0.219,0.139 -0.318,0.243c-0.099,0.105 -0.187,0.223 -0.264,0.357l-0.03,0.053Z" style="fill:#4677bc;fill-rule:nonzero;"/><path d="M251.831,113.585c0.118,-0.204 0.253,-0.378 0.403,-0.519c0.151,-0.142 0.31,-0.247 0.477,-0.316c0.167,-0.068 0.338,-0.098 0.513,-0.089c0.175,0.009 0.347,0.061 0.514,0.158c0.164,0.095 0.292,0.205 0.383,0.331c0.091,0.126 0.151,0.267 0.18,0.424l0.822,-1.424l0.469,0.271l-2.25,3.897l-0.431,-0.249l0.146,-0.301c-0.155,0.059 -0.313,0.081 -0.473,0.065c-0.161,-0.016 -0.325,-0.072 -0.494,-0.17c-0.166,-0.096 -0.296,-0.218 -0.389,-0.367c-0.094,-0.148 -0.152,-0.313 -0.174,-0.492c-0.022,-0.18 -0.011,-0.37 0.035,-0.571c0.046,-0.2 0.125,-0.398 0.238,-0.594l0.031,-0.054ZM252.27,113.91c-0.077,0.133 -0.136,0.268 -0.177,0.405c-0.04,0.137 -0.057,0.268 -0.05,0.394c0.008,0.126 0.042,0.243 0.105,0.35c0.062,0.107 0.158,0.198 0.288,0.273c0.08,0.046 0.157,0.078 0.232,0.097c0.075,0.018 0.149,0.025 0.221,0.021c0.073,-0.005 0.143,-0.019 0.212,-0.044c0.068,-0.025 0.135,-0.058 0.199,-0.1l0.736,-1.273c0.003,-0.147 -0.026,-0.286 -0.088,-0.418c-0.061,-0.131 -0.169,-0.241 -0.323,-0.33c-0.132,-0.076 -0.26,-0.114 -0.386,-0.114c-0.125,-0.001 -0.244,0.028 -0.357,0.086c-0.113,0.057 -0.219,0.138 -0.318,0.242c-0.098,0.105 -0.186,0.224 -0.263,0.357l-0.031,0.054Z" style="fill:#4677bc;fill-rule:nonzero;"/><path d="M257.646,115.075c0.044,0.025 0.089,0.053 0.134,0.083c0.046,0.03 0.089,0.06 0.129,0.091c0.04,0.031 0.075,0.061 0.107,0.09c0.031,0.03 0.056,0.056 0.074,0.08l-0.329,0.423c-0.08,-0.073 -0.158,-0.138 -0.234,-0.195c-0.077,-0.056 -0.16,-0.111 -0.25,-0.162c-0.22,-0.127 -0.427,-0.18 -0.62,-0.159c-0.194,0.021 -0.375,0.103 -0.543,0.245l-1.016,1.761l-0.472,-0.273l1.585,-2.745l0.446,0.258l-0.229,0.45c0.199,-0.086 0.401,-0.128 0.608,-0.125c0.207,0.004 0.41,0.063 0.61,0.178Z" style="fill:#4677bc;fill-rule:nonzero;"/><path d="M258.534,119.384c-0.193,-0.112 -0.351,-0.247 -0.474,-0.406c-0.124,-0.159 -0.209,-0.331 -0.255,-0.516c-0.047,-0.185 -0.056,-0.377 -0.026,-0.577c0.029,-0.199 0.099,-0.394 0.21,-0.586l0.061,-0.106c0.128,-0.222 0.278,-0.4 0.45,-0.534c0.172,-0.134 0.352,-0.227 0.539,-0.28c0.188,-0.053 0.375,-0.069 0.562,-0.047c0.186,0.022 0.359,0.079 0.516,0.17c0.198,0.114 0.351,0.248 0.459,0.402c0.109,0.154 0.177,0.32 0.205,0.497c0.029,0.178 0.02,0.363 -0.027,0.555c-0.046,0.192 -0.125,0.383 -0.235,0.574l-0.122,0.211l-1.961,-1.133c-0.067,0.129 -0.111,0.26 -0.131,0.395c-0.021,0.135 -0.017,0.265 0.011,0.39c0.028,0.126 0.081,0.243 0.158,0.35c0.078,0.108 0.18,0.199 0.307,0.272c0.167,0.097 0.336,0.149 0.505,0.157c0.169,0.007 0.329,-0.02 0.48,-0.082l0.158,0.389c-0.086,0.043 -0.181,0.076 -0.287,0.1c-0.105,0.024 -0.216,0.035 -0.334,0.032c-0.118,-0.003 -0.242,-0.022 -0.373,-0.058c-0.13,-0.036 -0.262,-0.092 -0.396,-0.169ZM259.894,116.887c-0.095,-0.054 -0.194,-0.089 -0.299,-0.103c-0.104,-0.014 -0.21,-0.007 -0.316,0.021c-0.106,0.027 -0.211,0.076 -0.313,0.147c-0.103,0.07 -0.2,0.163 -0.292,0.28l1.476,0.852l0.021,-0.035c0.048,-0.095 0.083,-0.195 0.105,-0.302c0.022,-0.107 0.025,-0.212 0.008,-0.316c-0.016,-0.105 -0.055,-0.204 -0.117,-0.298c-0.062,-0.094 -0.153,-0.176 -0.273,-0.246Z" style="fill:#4677bc;fill-rule:nonzero;"/><path d="M262.714,120.758c0.032,-0.056 0.05,-0.112 0.054,-0.17c0.004,-0.057 -0.01,-0.12 -0.041,-0.187c-0.031,-0.068 -0.08,-0.142 -0.149,-0.223c-0.068,-0.081 -0.159,-0.172 -0.273,-0.271c-0.139,-0.123 -0.259,-0.245 -0.362,-0.365c-0.103,-0.121 -0.183,-0.239 -0.238,-0.356c-0.056,-0.117 -0.084,-0.232 -0.086,-0.347c-0.001,-0.115 0.031,-0.229 0.096,-0.342c0.065,-0.112 0.151,-0.201 0.26,-0.268c0.108,-0.067 0.231,-0.109 0.368,-0.127c0.136,-0.019 0.283,-0.011 0.438,0.023c0.156,0.033 0.312,0.095 0.469,0.186c0.169,0.098 0.309,0.207 0.419,0.33c0.11,0.122 0.19,0.249 0.239,0.381c0.05,0.133 0.071,0.266 0.062,0.4c-0.008,0.134 -0.047,0.261 -0.116,0.381l-0.47,-0.271c0.035,-0.059 0.053,-0.126 0.055,-0.2c0.002,-0.075 -0.011,-0.149 -0.04,-0.225c-0.028,-0.075 -0.073,-0.148 -0.135,-0.22c-0.061,-0.071 -0.14,-0.135 -0.236,-0.19c-0.1,-0.058 -0.194,-0.098 -0.282,-0.119c-0.088,-0.022 -0.168,-0.028 -0.239,-0.02c-0.071,0.009 -0.134,0.03 -0.188,0.065c-0.053,0.034 -0.095,0.077 -0.126,0.13c-0.031,0.054 -0.049,0.108 -0.053,0.162c-0.004,0.054 0.009,0.112 0.04,0.175c0.03,0.063 0.079,0.132 0.147,0.207c0.069,0.075 0.16,0.163 0.273,0.262c0.149,0.134 0.277,0.262 0.384,0.386c0.106,0.123 0.187,0.244 0.24,0.362c0.054,0.118 0.08,0.234 0.078,0.348c-0.001,0.114 -0.035,0.228 -0.1,0.341c-0.07,0.122 -0.162,0.217 -0.274,0.285c-0.113,0.068 -0.239,0.109 -0.378,0.124c-0.139,0.014 -0.288,0.001 -0.448,-0.039c-0.159,-0.04 -0.32,-0.107 -0.483,-0.201c-0.186,-0.108 -0.337,-0.228 -0.454,-0.362c-0.116,-0.134 -0.201,-0.271 -0.255,-0.411c-0.053,-0.14 -0.075,-0.28 -0.066,-0.419c0.01,-0.139 0.048,-0.267 0.115,-0.383l0.47,0.271c-0.049,0.1 -0.07,0.196 -0.064,0.288c0.007,0.092 0.032,0.177 0.076,0.256c0.043,0.08 0.1,0.151 0.172,0.215c0.071,0.064 0.147,0.118 0.226,0.164c0.198,0.115 0.375,0.169 0.532,0.162c0.157,-0.006 0.272,-0.069 0.343,-0.188Z" style="fill:#4677bc;fill-rule:nonzero;"/><path d="M265.832,122.558c0.032,-0.055 0.05,-0.112 0.054,-0.17c0.004,-0.057 -0.01,-0.12 -0.041,-0.187c-0.031,-0.068 -0.08,-0.142 -0.148,-0.223c-0.069,-0.081 -0.16,-0.171 -0.274,-0.271c-0.138,-0.123 -0.259,-0.245 -0.362,-0.365c-0.103,-0.12 -0.183,-0.239 -0.238,-0.356c-0.056,-0.116 -0.084,-0.232 -0.086,-0.347c-0.001,-0.114 0.031,-0.228 0.096,-0.342c0.065,-0.111 0.151,-0.201 0.26,-0.268c0.109,-0.067 0.231,-0.109 0.368,-0.127c0.137,-0.018 0.283,-0.011 0.438,0.023c0.156,0.033 0.312,0.095 0.469,0.186c0.17,0.098 0.309,0.208 0.419,0.33c0.11,0.122 0.19,0.249 0.24,0.382c0.049,0.132 0.07,0.265 0.062,0.399c-0.009,0.134 -0.048,0.261 -0.117,0.381l-0.469,-0.271c0.034,-0.059 0.052,-0.126 0.054,-0.2c0.002,-0.074 -0.011,-0.149 -0.039,-0.224c-0.029,-0.076 -0.074,-0.149 -0.136,-0.22c-0.061,-0.072 -0.14,-0.136 -0.236,-0.191c-0.1,-0.058 -0.194,-0.097 -0.282,-0.119c-0.088,-0.021 -0.167,-0.028 -0.239,-0.019c-0.071,0.008 -0.134,0.029 -0.187,0.064c-0.054,0.034 -0.096,0.078 -0.126,0.13c-0.032,0.054 -0.049,0.108 -0.053,0.162c-0.005,0.054 0.009,0.113 0.039,0.175c0.03,0.063 0.079,0.132 0.148,0.207c0.068,0.076 0.159,0.163 0.273,0.263c0.148,0.133 0.276,0.261 0.383,0.385c0.106,0.124 0.187,0.244 0.24,0.362c0.054,0.118 0.08,0.234 0.079,0.348c-0.002,0.114 -0.035,0.228 -0.101,0.341c-0.07,0.122 -0.162,0.217 -0.274,0.285c-0.113,0.068 -0.239,0.109 -0.378,0.124c-0.139,0.014 -0.288,0.001 -0.448,-0.039c-0.159,-0.04 -0.32,-0.107 -0.482,-0.201c-0.186,-0.107 -0.338,-0.228 -0.454,-0.362c-0.117,-0.134 -0.202,-0.271 -0.255,-0.411c-0.054,-0.14 -0.076,-0.28 -0.066,-0.419c0.009,-0.139 0.047,-0.266 0.114,-0.383l0.47,0.271c-0.049,0.1 -0.07,0.196 -0.063,0.288c0.006,0.092 0.031,0.177 0.075,0.257c0.043,0.079 0.101,0.15 0.172,0.214c0.071,0.064 0.147,0.119 0.226,0.165c0.198,0.114 0.376,0.168 0.533,0.162c0.157,-0.007 0.271,-0.07 0.342,-0.189Z" style="fill:#4677bc;fill-rule:nonzero;"/></g><g><path d="M94.226,332.51l-2.133,-3.695l0.855,-0.493c0.259,-0.145 0.514,-0.234 0.764,-0.267c0.251,-0.033 0.489,-0.015 0.715,0.054c0.226,0.069 0.436,0.187 0.63,0.353c0.194,0.167 0.365,0.376 0.514,0.629l0.156,0.271c0.145,0.255 0.241,0.508 0.288,0.76c0.047,0.251 0.044,0.492 -0.009,0.722c-0.053,0.23 -0.157,0.446 -0.31,0.646c-0.154,0.2 -0.359,0.376 -0.615,0.526l-0.855,0.494ZM92.792,328.926l1.689,2.925l0.378,-0.218c0.199,-0.117 0.351,-0.252 0.457,-0.404c0.106,-0.153 0.173,-0.316 0.2,-0.489c0.027,-0.174 0.018,-0.355 -0.029,-0.542c-0.046,-0.188 -0.122,-0.376 -0.229,-0.565l-0.16,-0.276c-0.11,-0.187 -0.235,-0.347 -0.374,-0.479c-0.14,-0.133 -0.291,-0.23 -0.454,-0.293c-0.162,-0.063 -0.336,-0.086 -0.52,-0.07c-0.185,0.016 -0.378,0.081 -0.579,0.192l-0.379,0.219Z" style="fill:#4677bc;fill-rule:nonzero;"/><path d="M99.196,329.64c-0.039,-0.025 -0.08,-0.061 -0.121,-0.108c-0.042,-0.047 -0.082,-0.097 -0.12,-0.152c-0.02,0.075 -0.047,0.15 -0.081,0.226c-0.034,0.076 -0.077,0.15 -0.129,0.223c-0.051,0.073 -0.112,0.141 -0.18,0.206c-0.069,0.064 -0.148,0.122 -0.238,0.174c-0.145,0.084 -0.289,0.139 -0.431,0.165c-0.142,0.025 -0.275,0.026 -0.398,0.001c-0.124,-0.024 -0.237,-0.073 -0.339,-0.146c-0.101,-0.073 -0.186,-0.167 -0.252,-0.282c-0.087,-0.151 -0.133,-0.3 -0.139,-0.448c-0.005,-0.148 0.026,-0.292 0.092,-0.43c0.067,-0.139 0.167,-0.272 0.3,-0.398c0.133,-0.127 0.295,-0.245 0.486,-0.356l0.513,-0.296l-0.125,-0.215c-0.047,-0.083 -0.106,-0.149 -0.174,-0.197c-0.069,-0.049 -0.144,-0.08 -0.227,-0.094c-0.083,-0.014 -0.171,-0.011 -0.266,0.01c-0.095,0.021 -0.193,0.06 -0.293,0.118c-0.093,0.054 -0.169,0.114 -0.229,0.18c-0.06,0.066 -0.104,0.133 -0.132,0.201c-0.029,0.068 -0.041,0.137 -0.038,0.207c0.002,0.069 0.02,0.132 0.054,0.19l-0.472,0.272c-0.056,-0.1 -0.087,-0.213 -0.093,-0.339c-0.006,-0.125 0.016,-0.253 0.066,-0.384c0.049,-0.131 0.127,-0.259 0.235,-0.384c0.107,-0.125 0.246,-0.237 0.416,-0.336c0.156,-0.09 0.312,-0.154 0.467,-0.193c0.156,-0.039 0.305,-0.048 0.446,-0.028c0.142,0.021 0.274,0.073 0.396,0.156c0.122,0.083 0.228,0.201 0.317,0.355l0.737,1.276c0.052,0.091 0.117,0.183 0.193,0.276c0.076,0.092 0.151,0.168 0.225,0.227l0.024,0.04l-0.49,0.283ZM98.16,329.761c0.091,-0.053 0.17,-0.114 0.236,-0.183c0.065,-0.07 0.12,-0.143 0.162,-0.219c0.043,-0.077 0.074,-0.154 0.092,-0.231c0.019,-0.077 0.026,-0.151 0.022,-0.221l-0.321,-0.555l-0.437,0.252c-0.274,0.158 -0.463,0.322 -0.569,0.491c-0.105,0.169 -0.107,0.34 -0.007,0.515c0.039,0.067 0.087,0.123 0.143,0.168c0.056,0.044 0.119,0.074 0.188,0.089c0.07,0.015 0.146,0.014 0.229,-0.002c0.083,-0.017 0.17,-0.051 0.262,-0.104Z" style="fill:#4677bc;fill-rule:nonzero;"/><path d="M99.653,324.83l0.384,0.664l1.045,-0.603l0.209,0.363l-1.045,0.603l0.861,1.492c0.062,0.106 0.126,0.187 0.193,0.24c0.067,0.054 0.137,0.088 0.208,0.102c0.071,0.014 0.143,0.012 0.214,-0.007c0.072,-0.019 0.142,-0.048 0.211,-0.088c0.051,-0.029 0.102,-0.063 0.153,-0.1c0.05,-0.037 0.099,-0.075 0.146,-0.113c0.046,-0.038 0.089,-0.075 0.129,-0.11c0.039,-0.035 0.072,-0.064 0.096,-0.088l0.258,0.294c-0.025,0.047 -0.06,0.095 -0.106,0.145c-0.046,0.05 -0.098,0.1 -0.156,0.151c-0.059,0.051 -0.123,0.101 -0.193,0.15c-0.069,0.049 -0.141,0.095 -0.213,0.137c-0.122,0.07 -0.246,0.118 -0.372,0.145c-0.125,0.026 -0.249,0.024 -0.37,-0.006c-0.121,-0.031 -0.239,-0.092 -0.353,-0.186c-0.113,-0.093 -0.219,-0.224 -0.317,-0.394l-0.861,-1.491l-0.72,0.416l-0.21,-0.363l0.721,-0.416l-0.384,-0.665l0.472,-0.272Z" style="fill:#4677bc;fill-rule:nonzero;"/><path d="M105.432,326.039c-0.039,-0.024 -0.079,-0.06 -0.121,-0.107c-0.042,-0.047 -0.082,-0.098 -0.12,-0.153c-0.02,0.075 -0.047,0.151 -0.081,0.226c-0.034,0.076 -0.077,0.151 -0.128,0.223c-0.052,0.073 -0.112,0.142 -0.181,0.206c-0.069,0.065 -0.148,0.123 -0.237,0.175c-0.146,0.084 -0.29,0.138 -0.432,0.164c-0.142,0.026 -0.274,0.026 -0.398,0.002c-0.123,-0.025 -0.236,-0.074 -0.338,-0.147c-0.102,-0.073 -0.186,-0.167 -0.253,-0.282c-0.087,-0.151 -0.133,-0.3 -0.138,-0.448c-0.006,-0.148 0.025,-0.291 0.092,-0.43c0.066,-0.139 0.166,-0.271 0.299,-0.398c0.133,-0.126 0.296,-0.245 0.487,-0.355l0.512,-0.296l-0.124,-0.216c-0.048,-0.083 -0.106,-0.148 -0.175,-0.197c-0.068,-0.048 -0.144,-0.079 -0.227,-0.094c-0.082,-0.014 -0.171,-0.011 -0.266,0.01c-0.095,0.021 -0.192,0.061 -0.292,0.118c-0.093,0.054 -0.17,0.114 -0.23,0.18c-0.06,0.066 -0.104,0.133 -0.132,0.202c-0.028,0.068 -0.041,0.137 -0.038,0.206c0.003,0.069 0.021,0.133 0.054,0.19l-0.472,0.273c-0.056,-0.101 -0.087,-0.214 -0.092,-0.339c-0.006,-0.125 0.016,-0.254 0.065,-0.385c0.05,-0.131 0.128,-0.259 0.235,-0.384c0.107,-0.125 0.246,-0.237 0.417,-0.335c0.155,-0.09 0.311,-0.155 0.467,-0.194c0.155,-0.039 0.304,-0.048 0.446,-0.027c0.141,0.021 0.273,0.072 0.395,0.155c0.123,0.083 0.228,0.201 0.317,0.355l0.737,1.276c0.053,0.092 0.117,0.184 0.193,0.276c0.076,0.093 0.151,0.168 0.226,0.227l0.023,0.041l-0.49,0.282ZM104.396,326.161c0.092,-0.053 0.17,-0.114 0.236,-0.184c0.066,-0.069 0.12,-0.143 0.163,-0.219c0.042,-0.077 0.073,-0.153 0.091,-0.231c0.019,-0.077 0.026,-0.15 0.022,-0.22l-0.321,-0.556l-0.436,0.252c-0.274,0.158 -0.464,0.322 -0.569,0.491c-0.106,0.169 -0.108,0.341 -0.007,0.515c0.039,0.068 0.086,0.124 0.142,0.168c0.056,0.044 0.119,0.074 0.189,0.089c0.069,0.015 0.146,0.015 0.229,-0.002c0.083,-0.016 0.17,-0.051 0.261,-0.103Z" style="fill:#4677bc;fill-rule:nonzero;"/><path d="M108.298,322.595c0.114,0.196 0.196,0.393 0.246,0.59c0.051,0.198 0.067,0.385 0.048,0.563c-0.019,0.178 -0.075,0.341 -0.169,0.49c-0.093,0.149 -0.227,0.273 -0.401,0.374c-0.176,0.102 -0.347,0.158 -0.512,0.171c-0.166,0.012 -0.328,-0.014 -0.487,-0.078l0.158,0.325l-0.432,0.249l-2.25,-3.897l0.47,-0.271l0.835,1.446c0.025,-0.163 0.084,-0.311 0.176,-0.444c0.093,-0.132 0.224,-0.247 0.393,-0.345c0.176,-0.101 0.352,-0.157 0.527,-0.165c0.175,-0.009 0.344,0.022 0.507,0.093c0.163,0.07 0.317,0.178 0.464,0.322c0.146,0.145 0.278,0.319 0.397,0.524l0.03,0.053ZM107.798,322.813c-0.077,-0.134 -0.164,-0.254 -0.26,-0.359c-0.096,-0.106 -0.199,-0.189 -0.31,-0.248c-0.11,-0.059 -0.228,-0.088 -0.352,-0.089c-0.125,0 -0.254,0.039 -0.39,0.117c-0.081,0.047 -0.149,0.1 -0.205,0.161c-0.055,0.06 -0.098,0.124 -0.13,0.193c-0.031,0.069 -0.053,0.141 -0.064,0.217c-0.012,0.075 -0.014,0.152 -0.008,0.229l0.693,1.2c0.065,0.044 0.134,0.079 0.205,0.107c0.071,0.027 0.145,0.045 0.222,0.053c0.076,0.007 0.155,0.002 0.234,-0.016c0.08,-0.018 0.161,-0.05 0.242,-0.097c0.129,-0.074 0.224,-0.165 0.285,-0.271c0.061,-0.107 0.095,-0.222 0.101,-0.347c0.005,-0.125 -0.013,-0.256 -0.054,-0.392c-0.042,-0.136 -0.101,-0.271 -0.178,-0.405l-0.031,-0.053Z" style="fill:#4677bc;fill-rule:nonzero;"/><path d="M111.669,322.439c-0.039,-0.025 -0.08,-0.061 -0.122,-0.108c-0.041,-0.047 -0.081,-0.098 -0.12,-0.152c-0.02,0.075 -0.047,0.15 -0.081,0.226c-0.033,0.076 -0.076,0.15 -0.128,0.223c-0.052,0.073 -0.112,0.141 -0.18,0.206c-0.069,0.064 -0.148,0.122 -0.238,0.174c-0.146,0.084 -0.289,0.139 -0.431,0.164c-0.142,0.026 -0.275,0.026 -0.399,0.002c-0.123,-0.025 -0.236,-0.073 -0.338,-0.146c-0.102,-0.074 -0.186,-0.168 -0.252,-0.283c-0.087,-0.15 -0.133,-0.299 -0.139,-0.447c-0.005,-0.148 0.025,-0.292 0.092,-0.43c0.066,-0.139 0.166,-0.272 0.3,-0.398c0.133,-0.127 0.295,-0.245 0.486,-0.356l0.513,-0.296l-0.125,-0.215c-0.048,-0.083 -0.106,-0.149 -0.174,-0.197c-0.069,-0.049 -0.144,-0.08 -0.227,-0.094c-0.083,-0.015 -0.172,-0.011 -0.267,0.01c-0.095,0.021 -0.192,0.06 -0.292,0.118c-0.093,0.053 -0.169,0.113 -0.229,0.18c-0.06,0.066 -0.104,0.133 -0.133,0.201c-0.028,0.068 -0.041,0.137 -0.038,0.206c0.003,0.07 0.021,0.133 0.054,0.191l-0.472,0.272c-0.055,-0.1 -0.086,-0.213 -0.092,-0.339c-0.006,-0.125 0.016,-0.253 0.065,-0.384c0.05,-0.131 0.128,-0.26 0.235,-0.385c0.107,-0.125 0.246,-0.236 0.417,-0.335c0.156,-0.09 0.311,-0.154 0.467,-0.193c0.156,-0.039 0.304,-0.049 0.446,-0.028c0.142,0.021 0.274,0.073 0.396,0.156c0.122,0.082 0.228,0.201 0.317,0.355l0.736,1.276c0.053,0.091 0.117,0.183 0.193,0.276c0.076,0.092 0.152,0.168 0.226,0.226l0.023,0.041l-0.489,0.283ZM110.633,322.56c0.091,-0.053 0.169,-0.114 0.235,-0.184c0.066,-0.069 0.12,-0.142 0.163,-0.219c0.043,-0.076 0.073,-0.153 0.092,-0.23c0.018,-0.077 0.026,-0.151 0.021,-0.221l-0.32,-0.555l-0.437,0.252c-0.274,0.158 -0.463,0.321 -0.569,0.491c-0.105,0.169 -0.108,0.34 -0.007,0.514c0.039,0.068 0.087,0.124 0.143,0.168c0.056,0.045 0.119,0.074 0.188,0.09c0.07,0.015 0.146,0.014 0.229,-0.002c0.083,-0.017 0.17,-0.051 0.262,-0.104Z" style="fill:#4677bc;fill-rule:nonzero;"/><path d="M114.387,319.899c-0.032,-0.056 -0.072,-0.1 -0.12,-0.132c-0.048,-0.033 -0.109,-0.052 -0.183,-0.059c-0.074,-0.007 -0.163,-0.001 -0.267,0.017c-0.105,0.019 -0.228,0.053 -0.372,0.101c-0.175,0.059 -0.341,0.103 -0.497,0.132c-0.156,0.029 -0.298,0.038 -0.427,0.028c-0.129,-0.01 -0.243,-0.043 -0.343,-0.099c-0.1,-0.056 -0.183,-0.141 -0.248,-0.254c-0.065,-0.112 -0.099,-0.232 -0.103,-0.359c-0.003,-0.128 0.021,-0.255 0.074,-0.383c0.053,-0.127 0.132,-0.25 0.239,-0.368c0.107,-0.118 0.239,-0.222 0.396,-0.313c0.169,-0.098 0.334,-0.163 0.495,-0.198c0.16,-0.034 0.311,-0.039 0.45,-0.016c0.14,0.023 0.265,0.072 0.377,0.146c0.112,0.074 0.202,0.171 0.272,0.291l-0.47,0.271c-0.034,-0.059 -0.083,-0.108 -0.146,-0.147c-0.063,-0.039 -0.134,-0.065 -0.214,-0.078c-0.079,-0.012 -0.165,-0.01 -0.258,0.007c-0.093,0.018 -0.187,0.054 -0.283,0.11c-0.1,0.057 -0.181,0.119 -0.244,0.184c-0.063,0.066 -0.108,0.132 -0.136,0.198c-0.029,0.066 -0.042,0.13 -0.039,0.194c0.003,0.064 0.02,0.122 0.05,0.174c0.031,0.054 0.069,0.097 0.114,0.127c0.045,0.031 0.102,0.049 0.171,0.054c0.07,0.005 0.154,-0.003 0.253,-0.025c0.1,-0.021 0.221,-0.056 0.364,-0.105c0.19,-0.062 0.365,-0.108 0.525,-0.139c0.161,-0.031 0.306,-0.04 0.435,-0.027c0.129,0.012 0.242,0.047 0.34,0.106c0.098,0.058 0.18,0.144 0.245,0.258c0.071,0.121 0.107,0.248 0.11,0.38c0.002,0.131 -0.025,0.261 -0.082,0.388c-0.057,0.128 -0.143,0.251 -0.257,0.369c-0.115,0.118 -0.253,0.224 -0.416,0.318c-0.186,0.107 -0.366,0.178 -0.54,0.212c-0.175,0.034 -0.336,0.039 -0.484,0.015c-0.148,-0.024 -0.28,-0.075 -0.395,-0.152c-0.116,-0.078 -0.208,-0.175 -0.275,-0.291l0.469,-0.271c0.063,0.092 0.135,0.158 0.218,0.198c0.083,0.041 0.17,0.062 0.26,0.064c0.09,0.002 0.181,-0.012 0.272,-0.042c0.091,-0.03 0.176,-0.068 0.255,-0.114c0.198,-0.114 0.334,-0.241 0.407,-0.38c0.073,-0.139 0.076,-0.269 0.008,-0.39Z" style="fill:#4677bc;fill-rule:nonzero;"/><path d="M117.343,319.23c-0.193,0.112 -0.389,0.181 -0.588,0.208c-0.2,0.027 -0.391,0.015 -0.575,-0.037c-0.183,-0.052 -0.354,-0.141 -0.512,-0.266c-0.158,-0.125 -0.292,-0.283 -0.403,-0.474l-0.061,-0.107c-0.128,-0.222 -0.207,-0.44 -0.237,-0.657c-0.03,-0.216 -0.021,-0.418 0.027,-0.607c0.047,-0.189 0.127,-0.358 0.24,-0.509c0.113,-0.151 0.248,-0.272 0.405,-0.362c0.198,-0.115 0.39,-0.18 0.578,-0.197c0.188,-0.017 0.365,0.007 0.533,0.071c0.168,0.064 0.324,0.164 0.467,0.301c0.142,0.136 0.269,0.3 0.379,0.491l0.122,0.21l-1.961,1.133c0.077,0.122 0.169,0.225 0.276,0.311c0.106,0.085 0.221,0.146 0.344,0.185c0.122,0.039 0.25,0.051 0.382,0.038c0.132,-0.013 0.262,-0.056 0.388,-0.13c0.168,-0.096 0.297,-0.216 0.388,-0.359c0.092,-0.143 0.148,-0.295 0.17,-0.456l0.416,0.057c-0.006,0.096 -0.025,0.195 -0.057,0.298c-0.032,0.103 -0.078,0.205 -0.14,0.306c-0.061,0.101 -0.14,0.199 -0.236,0.294c-0.096,0.095 -0.211,0.181 -0.345,0.258ZM115.862,316.804c-0.095,0.055 -0.175,0.124 -0.239,0.208c-0.065,0.083 -0.112,0.178 -0.141,0.284c-0.029,0.105 -0.039,0.22 -0.029,0.345c0.01,0.124 0.042,0.255 0.096,0.392l1.477,-0.852l-0.02,-0.036c-0.058,-0.088 -0.128,-0.169 -0.209,-0.241c-0.082,-0.073 -0.172,-0.128 -0.27,-0.166c-0.099,-0.038 -0.204,-0.054 -0.317,-0.047c-0.112,0.006 -0.228,0.044 -0.348,0.113Z" style="fill:#4677bc;fill-rule:nonzero;"/><path d="M120.34,314.794l-2.266,1.308l-0.236,-0.409l2.266,-1.308l0.236,0.409ZM120.948,315.847l-2.266,1.308l-0.234,-0.406l2.266,-1.308l0.234,0.406Z" style="fill:#4677bc;fill-rule:nonzero;"/><path d="M120.968,313.409l0.162,0.252c0.001,-0.129 0.03,-0.246 0.09,-0.353c0.059,-0.106 0.152,-0.197 0.28,-0.273c0.252,-0.146 0.477,-0.145 0.675,0.003c0.003,-0.12 0.034,-0.231 0.092,-0.336c0.058,-0.105 0.15,-0.194 0.276,-0.269c0.201,-0.116 0.391,-0.144 0.571,-0.083c0.179,0.061 0.341,0.217 0.486,0.467l1.183,2.05l-0.446,0.258l-1.187,-2.055c-0.132,-0.23 -0.304,-0.284 -0.514,-0.16c-0.056,0.032 -0.1,0.068 -0.132,0.107c-0.032,0.038 -0.054,0.078 -0.066,0.12c-0.011,0.042 -0.015,0.085 -0.01,0.128c0.005,0.044 0.015,0.086 0.032,0.126l1.22,2.113l-0.447,0.258l-1.188,-2.058c-0.063,-0.11 -0.137,-0.18 -0.22,-0.211c-0.083,-0.031 -0.177,-0.015 -0.283,0.049c-0.098,0.056 -0.163,0.12 -0.195,0.19c-0.031,0.07 -0.041,0.144 -0.03,0.223l1.262,2.185l-0.447,0.258l-1.585,-2.746l0.421,-0.243Z" style="fill:#4677bc;fill-rule:nonzero;"/><path d="M125.903,312.921l0.314,0.263l-0.377,-2.587l0.525,-0.303l0.437,3.973c0.008,0.089 0.011,0.188 0.007,0.297c-0.004,0.108 -0.022,0.216 -0.054,0.325c-0.032,0.109 -0.082,0.213 -0.151,0.314c-0.068,0.1 -0.164,0.186 -0.287,0.257c-0.022,0.013 -0.048,0.026 -0.076,0.039c-0.029,0.013 -0.058,0.025 -0.087,0.036c-0.03,0.012 -0.058,0.022 -0.084,0.03c-0.027,0.009 -0.049,0.016 -0.066,0.021l-0.145,-0.427c0.012,-0.006 0.028,-0.015 0.05,-0.025c0.021,-0.01 0.043,-0.02 0.066,-0.031c0.023,-0.011 0.045,-0.022 0.066,-0.033c0.02,-0.011 0.037,-0.02 0.049,-0.027c0.064,-0.037 0.112,-0.089 0.145,-0.155c0.033,-0.066 0.056,-0.136 0.069,-0.209c0.013,-0.073 0.019,-0.144 0.019,-0.214c-0.001,-0.069 -0.003,-0.126 -0.005,-0.169l-0.023,-0.474l-2.693,-1.933l0.525,-0.303l1.776,1.335Z" style="fill:#4677bc;fill-rule:nonzero;"/><path d="M128.526,312.706l-2.133,-3.694l0.855,-0.494c0.259,-0.145 0.514,-0.234 0.764,-0.267c0.251,-0.033 0.489,-0.014 0.715,0.055c0.226,0.069 0.436,0.187 0.63,0.353c0.194,0.166 0.366,0.376 0.514,0.629l0.157,0.271c0.144,0.255 0.24,0.508 0.287,0.759c0.047,0.252 0.044,0.493 -0.009,0.723c-0.053,0.23 -0.156,0.445 -0.31,0.646c-0.154,0.2 -0.359,0.376 -0.615,0.526l-0.855,0.493ZM127.093,309.122l1.689,2.926l0.378,-0.218c0.198,-0.117 0.351,-0.252 0.456,-0.405c0.106,-0.152 0.173,-0.315 0.2,-0.489c0.027,-0.173 0.018,-0.354 -0.028,-0.541c-0.047,-0.188 -0.123,-0.376 -0.23,-0.565l-0.16,-0.276c-0.11,-0.187 -0.235,-0.347 -0.374,-0.479c-0.14,-0.133 -0.291,-0.23 -0.454,-0.293c-0.162,-0.063 -0.336,-0.086 -0.52,-0.07c-0.185,0.016 -0.378,0.08 -0.579,0.192l-0.378,0.218Z" style="fill:#4677bc;fill-rule:nonzero;"/><path d="M133.496,309.837c-0.039,-0.025 -0.079,-0.061 -0.121,-0.108c-0.042,-0.047 -0.082,-0.098 -0.12,-0.152c-0.02,0.075 -0.047,0.15 -0.081,0.226c-0.034,0.076 -0.077,0.15 -0.128,0.223c-0.052,0.072 -0.112,0.141 -0.181,0.206c-0.069,0.064 -0.148,0.122 -0.238,0.174c-0.145,0.084 -0.289,0.139 -0.431,0.164c-0.142,0.026 -0.275,0.026 -0.398,0.002c-0.124,-0.025 -0.236,-0.073 -0.338,-0.146c-0.102,-0.074 -0.186,-0.168 -0.253,-0.283c-0.087,-0.15 -0.133,-0.299 -0.138,-0.447c-0.006,-0.148 0.025,-0.292 0.091,-0.431c0.067,-0.138 0.167,-0.271 0.3,-0.398c0.133,-0.126 0.295,-0.245 0.487,-0.355l0.512,-0.296l-0.124,-0.215c-0.048,-0.083 -0.106,-0.149 -0.175,-0.197c-0.068,-0.049 -0.144,-0.08 -0.227,-0.094c-0.082,-0.015 -0.171,-0.011 -0.266,0.01c-0.095,0.021 -0.193,0.06 -0.292,0.118c-0.093,0.053 -0.17,0.113 -0.23,0.179c-0.06,0.067 -0.104,0.134 -0.132,0.202c-0.028,0.068 -0.041,0.137 -0.038,0.206c0.003,0.07 0.021,0.133 0.054,0.191l-0.472,0.272c-0.056,-0.101 -0.087,-0.214 -0.093,-0.339c-0.005,-0.125 0.016,-0.253 0.066,-0.384c0.049,-0.132 0.128,-0.26 0.235,-0.385c0.107,-0.125 0.246,-0.236 0.417,-0.335c0.155,-0.09 0.311,-0.154 0.466,-0.193c0.156,-0.04 0.305,-0.049 0.446,-0.028c0.142,0.021 0.274,0.073 0.396,0.156c0.123,0.082 0.228,0.201 0.317,0.355l0.737,1.276c0.052,0.091 0.117,0.183 0.193,0.276c0.076,0.092 0.151,0.168 0.225,0.226l0.024,0.041l-0.49,0.283ZM132.46,309.958c0.091,-0.053 0.17,-0.114 0.236,-0.184c0.066,-0.069 0.12,-0.142 0.162,-0.219c0.043,-0.076 0.074,-0.153 0.092,-0.23c0.019,-0.078 0.026,-0.151 0.022,-0.221l-0.321,-0.555l-0.436,0.252c-0.274,0.158 -0.464,0.321 -0.569,0.49c-0.106,0.17 -0.108,0.341 -0.008,0.515c0.039,0.068 0.087,0.124 0.143,0.168c0.056,0.045 0.119,0.074 0.189,0.089c0.069,0.016 0.145,0.015 0.228,-0.001c0.083,-0.017 0.171,-0.051 0.262,-0.104Z" style="fill:#4677bc;fill-rule:nonzero;"/><path d="M133.953,305.026l0.384,0.665l1.045,-0.603l0.21,0.362l-1.046,0.604l0.862,1.492c0.061,0.106 0.125,0.186 0.192,0.24c0.068,0.054 0.137,0.088 0.208,0.102c0.071,0.014 0.143,0.012 0.214,-0.007c0.072,-0.019 0.142,-0.048 0.212,-0.088c0.05,-0.03 0.101,-0.063 0.152,-0.1c0.05,-0.037 0.099,-0.075 0.146,-0.113c0.047,-0.038 0.09,-0.075 0.129,-0.11c0.04,-0.035 0.072,-0.065 0.097,-0.088l0.257,0.294c-0.025,0.046 -0.06,0.094 -0.106,0.144c-0.045,0.05 -0.097,0.101 -0.156,0.152c-0.059,0.05 -0.123,0.1 -0.193,0.15c-0.069,0.049 -0.14,0.095 -0.213,0.136c-0.122,0.071 -0.246,0.119 -0.371,0.146c-0.126,0.026 -0.25,0.024 -0.371,-0.006c-0.121,-0.031 -0.239,-0.093 -0.352,-0.186c-0.114,-0.093 -0.22,-0.225 -0.317,-0.394l-0.862,-1.492l-0.72,0.416l-0.21,-0.362l0.721,-0.417l-0.384,-0.664l0.472,-0.273Z" style="fill:#4677bc;fill-rule:nonzero;"/><path d="M139.733,306.236c-0.04,-0.025 -0.08,-0.061 -0.122,-0.107c-0.041,-0.047 -0.082,-0.098 -0.12,-0.153c-0.02,0.075 -0.047,0.15 -0.081,0.226c-0.034,0.076 -0.076,0.151 -0.128,0.223c-0.052,0.073 -0.112,0.141 -0.181,0.206c-0.068,0.064 -0.148,0.123 -0.237,0.174c-0.146,0.084 -0.289,0.139 -0.431,0.165c-0.142,0.025 -0.275,0.026 -0.399,0.001c-0.123,-0.024 -0.236,-0.073 -0.338,-0.146c-0.102,-0.073 -0.186,-0.167 -0.252,-0.282c-0.087,-0.151 -0.134,-0.3 -0.139,-0.448c-0.005,-0.148 0.025,-0.291 0.092,-0.43c0.066,-0.139 0.166,-0.272 0.299,-0.398c0.134,-0.127 0.296,-0.245 0.487,-0.355l0.513,-0.296l-0.125,-0.216c-0.048,-0.083 -0.106,-0.149 -0.175,-0.197c-0.068,-0.048 -0.144,-0.08 -0.226,-0.094c-0.083,-0.014 -0.172,-0.011 -0.267,0.01c-0.095,0.021 -0.192,0.06 -0.292,0.118c-0.093,0.054 -0.17,0.114 -0.229,0.18c-0.06,0.066 -0.104,0.133 -0.133,0.201c-0.028,0.069 -0.041,0.137 -0.038,0.207c0.003,0.069 0.021,0.133 0.054,0.19l-0.472,0.273c-0.056,-0.101 -0.086,-0.214 -0.092,-0.339c-0.006,-0.126 0.016,-0.254 0.065,-0.385c0.05,-0.131 0.128,-0.259 0.235,-0.384c0.107,-0.125 0.246,-0.237 0.417,-0.336c0.156,-0.089 0.311,-0.154 0.467,-0.193c0.155,-0.039 0.304,-0.048 0.446,-0.027c0.141,0.02 0.273,0.072 0.396,0.155c0.122,0.083 0.227,0.201 0.316,0.355l0.737,1.276c0.053,0.092 0.117,0.184 0.193,0.276c0.076,0.093 0.151,0.168 0.226,0.227l0.023,0.04l-0.489,0.283ZM138.696,306.357c0.092,-0.052 0.17,-0.114 0.236,-0.183c0.066,-0.07 0.12,-0.143 0.163,-0.219c0.043,-0.077 0.073,-0.154 0.092,-0.231c0.018,-0.077 0.025,-0.151 0.021,-0.22l-0.321,-0.556l-0.436,0.252c-0.274,0.158 -0.464,0.322 -0.569,0.491c-0.105,0.169 -0.108,0.341 -0.007,0.515c0.039,0.067 0.086,0.123 0.142,0.168c0.056,0.044 0.119,0.074 0.189,0.089c0.069,0.015 0.146,0.014 0.229,-0.002c0.083,-0.016 0.17,-0.051 0.261,-0.104Z" style="fill:#4677bc;fill-rule:nonzero;"/><path d="M142.599,302.792c0.113,0.196 0.195,0.393 0.246,0.59c0.05,0.197 0.066,0.385 0.047,0.563c-0.019,0.178 -0.075,0.341 -0.169,0.49c-0.093,0.149 -0.227,0.273 -0.401,0.374c-0.176,0.101 -0.347,0.158 -0.512,0.17c-0.166,0.012 -0.328,-0.013 -0.487,-0.077l0.158,0.325l-0.432,0.249l-2.25,-3.897l0.47,-0.271l0.835,1.446c0.025,-0.163 0.084,-0.311 0.177,-0.444c0.092,-0.132 0.223,-0.247 0.392,-0.345c0.176,-0.102 0.352,-0.157 0.527,-0.166c0.176,-0.008 0.345,0.023 0.507,0.093c0.163,0.071 0.317,0.179 0.464,0.323c0.146,0.144 0.279,0.319 0.397,0.524l0.031,0.053ZM142.098,303.01c-0.077,-0.134 -0.163,-0.254 -0.259,-0.36c-0.096,-0.105 -0.2,-0.188 -0.311,-0.247c-0.11,-0.059 -0.228,-0.088 -0.352,-0.089c-0.124,0 -0.254,0.039 -0.389,0.117c-0.082,0.047 -0.15,0.1 -0.205,0.16c-0.056,0.061 -0.099,0.125 -0.131,0.194c-0.031,0.069 -0.052,0.141 -0.064,0.216c-0.012,0.076 -0.014,0.152 -0.008,0.23l0.693,1.2c0.066,0.043 0.134,0.079 0.205,0.106c0.071,0.028 0.145,0.046 0.222,0.053c0.077,0.008 0.155,0.003 0.235,-0.015c0.079,-0.018 0.16,-0.05 0.241,-0.097c0.129,-0.074 0.224,-0.165 0.285,-0.271c0.062,-0.107 0.095,-0.223 0.101,-0.348c0.005,-0.125 -0.013,-0.255 -0.054,-0.391c-0.041,-0.137 -0.101,-0.272 -0.178,-0.405l-0.031,-0.053Z" style="fill:#4677bc;fill-rule:nonzero;"/><path d="M145.969,302.635c-0.039,-0.024 -0.08,-0.06 -0.121,-0.107c-0.042,-0.047 -0.082,-0.098 -0.12,-0.152c-0.02,0.074 -0.047,0.15 -0.081,0.226c-0.034,0.076 -0.077,0.15 -0.129,0.223c-0.051,0.072 -0.112,0.141 -0.18,0.205c-0.069,0.065 -0.148,0.123 -0.238,0.175c-0.145,0.084 -0.289,0.139 -0.431,0.164c-0.142,0.026 -0.275,0.026 -0.398,0.002c-0.124,-0.025 -0.237,-0.074 -0.339,-0.147c-0.102,-0.073 -0.186,-0.167 -0.252,-0.282c-0.087,-0.15 -0.133,-0.3 -0.139,-0.448c-0.005,-0.148 0.026,-0.291 0.092,-0.43c0.067,-0.138 0.166,-0.271 0.3,-0.398c0.133,-0.126 0.295,-0.245 0.486,-0.355l0.513,-0.296l-0.125,-0.216c-0.047,-0.083 -0.106,-0.148 -0.174,-0.197c-0.069,-0.048 -0.144,-0.079 -0.227,-0.094c-0.083,-0.014 -0.171,-0.01 -0.266,0.011c-0.095,0.021 -0.193,0.06 -0.293,0.117c-0.093,0.054 -0.169,0.114 -0.229,0.18c-0.06,0.066 -0.104,0.134 -0.132,0.202c-0.029,0.068 -0.041,0.137 -0.038,0.206c0.002,0.07 0.02,0.133 0.054,0.191l-0.472,0.272c-0.056,-0.101 -0.087,-0.214 -0.093,-0.339c-0.006,-0.125 0.016,-0.253 0.066,-0.385c0.049,-0.131 0.127,-0.259 0.235,-0.384c0.107,-0.125 0.246,-0.237 0.416,-0.335c0.156,-0.09 0.312,-0.155 0.467,-0.194c0.156,-0.039 0.305,-0.048 0.446,-0.027c0.142,0.021 0.274,0.073 0.396,0.155c0.122,0.083 0.228,0.202 0.317,0.355l0.737,1.277c0.052,0.091 0.117,0.183 0.193,0.276c0.076,0.092 0.151,0.168 0.225,0.226l0.024,0.041l-0.49,0.282ZM144.933,302.757c0.091,-0.053 0.17,-0.114 0.236,-0.184c0.065,-0.069 0.12,-0.142 0.162,-0.219c0.043,-0.076 0.074,-0.153 0.092,-0.23c0.019,-0.078 0.026,-0.151 0.022,-0.221l-0.321,-0.556l-0.437,0.252c-0.274,0.159 -0.463,0.322 -0.569,0.491c-0.105,0.169 -0.107,0.341 -0.007,0.515c0.039,0.068 0.087,0.124 0.143,0.168c0.056,0.045 0.119,0.074 0.188,0.089c0.07,0.015 0.146,0.015 0.229,-0.002c0.083,-0.016 0.17,-0.051 0.262,-0.103Z" style="fill:#4677bc;fill-rule:nonzero;"/><path d="M148.687,300.095c-0.032,-0.056 -0.072,-0.099 -0.12,-0.132c-0.048,-0.032 -0.109,-0.051 -0.183,-0.058c-0.074,-0.007 -0.163,-0.001 -0.267,0.017c-0.104,0.019 -0.228,0.052 -0.371,0.101c-0.176,0.059 -0.342,0.103 -0.498,0.132c-0.156,0.029 -0.298,0.038 -0.427,0.028c-0.129,-0.01 -0.243,-0.043 -0.343,-0.099c-0.1,-0.057 -0.183,-0.141 -0.248,-0.255c-0.065,-0.111 -0.099,-0.231 -0.103,-0.358c-0.003,-0.128 0.021,-0.255 0.074,-0.383c0.053,-0.127 0.132,-0.25 0.239,-0.368c0.107,-0.118 0.239,-0.222 0.396,-0.313c0.169,-0.098 0.334,-0.164 0.495,-0.198c0.161,-0.034 0.311,-0.039 0.45,-0.016c0.14,0.023 0.266,0.071 0.377,0.146c0.112,0.074 0.202,0.171 0.272,0.291l-0.47,0.271c-0.034,-0.059 -0.082,-0.108 -0.146,-0.147c-0.063,-0.039 -0.134,-0.065 -0.214,-0.078c-0.079,-0.013 -0.165,-0.01 -0.258,0.007c-0.092,0.017 -0.187,0.054 -0.283,0.11c-0.1,0.057 -0.181,0.119 -0.244,0.184c-0.062,0.066 -0.108,0.131 -0.136,0.197c-0.029,0.066 -0.041,0.131 -0.039,0.195c0.003,0.064 0.02,0.122 0.05,0.174c0.032,0.054 0.07,0.097 0.114,0.127c0.045,0.031 0.102,0.049 0.171,0.054c0.07,0.005 0.154,-0.004 0.254,-0.025c0.099,-0.021 0.22,-0.056 0.363,-0.105c0.19,-0.062 0.365,-0.109 0.526,-0.139c0.16,-0.031 0.305,-0.04 0.434,-0.028c0.129,0.013 0.242,0.048 0.34,0.107c0.098,0.058 0.18,0.144 0.245,0.257c0.071,0.122 0.107,0.249 0.11,0.38c0.002,0.132 -0.025,0.261 -0.082,0.389c-0.057,0.128 -0.143,0.251 -0.257,0.369c-0.115,0.118 -0.253,0.224 -0.416,0.317c-0.186,0.108 -0.366,0.178 -0.54,0.213c-0.174,0.034 -0.336,0.039 -0.484,0.015c-0.148,-0.024 -0.28,-0.075 -0.395,-0.152c-0.116,-0.078 -0.208,-0.175 -0.275,-0.292l0.469,-0.271c0.063,0.093 0.135,0.159 0.218,0.199c0.083,0.04 0.17,0.061 0.26,0.063c0.09,0.002 0.181,-0.012 0.272,-0.042c0.091,-0.029 0.176,-0.067 0.256,-0.113c0.197,-0.115 0.333,-0.241 0.406,-0.38c0.073,-0.14 0.076,-0.27 0.008,-0.391Z" style="fill:#4677bc;fill-rule:nonzero;"/><path d="M151.643,299.427c-0.192,0.111 -0.389,0.181 -0.588,0.208c-0.2,0.027 -0.391,0.015 -0.575,-0.037c-0.183,-0.052 -0.354,-0.141 -0.512,-0.266c-0.158,-0.125 -0.292,-0.284 -0.402,-0.475l-0.062,-0.106c-0.128,-0.222 -0.207,-0.441 -0.237,-0.657c-0.03,-0.216 -0.021,-0.418 0.027,-0.607c0.047,-0.189 0.128,-0.359 0.24,-0.509c0.113,-0.151 0.248,-0.272 0.405,-0.363c0.198,-0.114 0.391,-0.179 0.578,-0.196c0.188,-0.017 0.366,0.006 0.533,0.071c0.168,0.064 0.324,0.164 0.467,0.3c0.143,0.137 0.269,0.3 0.38,0.491l0.121,0.211l-1.961,1.132c0.077,0.123 0.169,0.226 0.276,0.311c0.107,0.085 0.221,0.147 0.344,0.186c0.122,0.038 0.25,0.051 0.382,0.038c0.132,-0.013 0.262,-0.057 0.389,-0.13c0.167,-0.096 0.296,-0.216 0.388,-0.359c0.091,-0.143 0.147,-0.295 0.169,-0.457l0.416,0.058c-0.006,0.096 -0.025,0.195 -0.057,0.298c-0.031,0.103 -0.078,0.205 -0.139,0.306c-0.062,0.101 -0.14,0.199 -0.237,0.294c-0.096,0.095 -0.211,0.181 -0.345,0.258ZM150.162,297.001c-0.095,0.055 -0.175,0.124 -0.239,0.207c-0.065,0.084 -0.112,0.179 -0.141,0.284c-0.029,0.106 -0.038,0.221 -0.029,0.345c0.01,0.124 0.042,0.255 0.097,0.393l1.476,-0.853l-0.02,-0.035c-0.058,-0.089 -0.128,-0.169 -0.209,-0.242c-0.081,-0.072 -0.171,-0.127 -0.27,-0.165c-0.098,-0.038 -0.204,-0.054 -0.316,-0.047c-0.113,0.006 -0.229,0.044 -0.349,0.113Z" style="fill:#4677bc;fill-rule:nonzero;"/></g></svg>