<svg class="rh-pattern storage" xmlns="http://www.w3.org/2000/svg" viewBox="0 0 60 60" height="60" width="60">
<path d="m 58,60 2,-2 M 18,0 16,2 M 38,0 36,2 M 58,0 56,2 m 4,6 -4,4 m 4,6 -4,4 m 4,16 -4,4 M 6,52 -2,60 M 46,12 36,22 M 6,12 0,18 M 6,32 0,38 M 26,12 16,22 M 26,32 16,42 M 46,32 36,42 m -10,10 -8,8 m 28,-8 -8,8 M 60,48 48,60 M 60,28 28,60 M 56,12 8,60 M 48,0 0,48 m 46,-6 10,0 0,10 -10,0 z m -20,0 10,0 0,10 -10,0 z m -20,0 10,0 0,10 -10,0 z m 40,-20 10,0 0,10 -10,0 z m -20,0 10,0 0,10 -10,0 z M 6,22 16,22 16,32 6,32 Z M 28,0 0,28 M 46,2 56,2 56,12 46,12 Z M 26,2 36,2 36,12 26,12 Z M 6,2 16,2 16,12 6,12 Z M 8,0 0,8"
 style="fill:none;stroke:rgba(255,255,255, .10);stroke-width:1;stroke-linecap:square;stroke-linejoin:bevel;stroke-miterlimit:0" /></svg>