<?xml version="1.0" encoding="utf-8"?>
<!-- Generator: Adobe Illustrator 20.1.0, SVG Export Plug-In . SVG Version: 6.00 Build 0)  -->
<svg version="1.1" xmlns="http://www.w3.org/2000/svg" xmlns:xlink="http://www.w3.org/1999/xlink" x="0px" y="0px"
	 viewBox="0 0 1405.5 511.9" style="enable-background:new 0 0 1405.5 511.9;" xml:space="preserve">
<style type="text/css">
	.st0{fill:none;}
	.st1{fill:#082C38;}
	.st2{fill:#F0F0F3;}
	.st3{fill:#F04E5A;}
	.st4{opacity:0.15;fill:#082C38;}
	.st5{fill:#56BE89;}
</style>
<g id="Layer_2">
</g>
<g id="Layer_1">
	<g>
		<polygon class="st0" points="0,383.9 0,383.9 0,383.9 		"/>
		<polygon class="st0" points="0,128 0,128 0,128 		"/>
		<polygon class="st0" points="443.3,383.9 443.3,383.9 443.3,383.9 		"/>
		<polygon points="221.7,256 221.7,256 221.7,256 		"/>
		<rect x="221.7" y="256" width="0" height="0"/>
		<polygon points="221.7,256 221.7,256 221.7,256 		"/>
	</g>
	<g>
		<polygon class="st1" points="0,383.9 221.7,511.9 110.8,320 		"/>
		<polygon class="st2" points="221.7,0 155.2,38.4 0,128 110.8,320 221.7,511.9 443.3,383.9 		"/>
	</g>
	<path class="st3" d="M279.6,195"/>
</g>
<g id="Layer_4">
	<polyline class="st4" points="389.1,290 0,128 0,128 221.7,0 	"/>
	<polygon class="st1" points="221.7,0 0,128 221.7,256 221.7,256 443.3,128 	"/>
	<g>
		<path class="st1" d="M550.2,242.5c4.4,2.2,11.3,4.3,20.6,6.4c9.3,2.4,16.9,4.7,22.7,7c5.8,2.3,10.8,5.9,15,10.8
			c4.2,4.9,6.3,11.4,6.3,19.6c0,10.1-4,18.4-11.9,25.1c-8,6.6-19.2,9.9-33.7,9.9c-15.8,0-30.1-3.5-43-10.6c-2.7-1.9-4-4.5-4-7.8
			c0-2.5,0.9-4.7,2.6-6.6c1.7-1.9,3.9-2.8,6.6-2.8c1.4,0,2.8,0.3,4.3,0.9c5,2.2,10.1,3.9,15.1,5.2c5,1.3,10.7,1.9,17,1.9
			c17.5,0,26.3-5.6,26.3-16.8c0-3.6-2-6.4-6-8.3s-10.6-4-19.8-6.4c-9.3-2.2-17-4.5-23.1-6.9c-6.1-2.4-11.3-5.9-15.6-10.8
			c-4.3-4.8-6.5-11.2-6.5-19c0-11,4-20,11.9-27c8-6.9,19.4-10.4,34.2-10.4c12.1,0,23.6,2,34.3,5.9c2.2,0.6,3.9,1.8,5.1,3.5
			c1.2,1.7,1.8,3.5,1.8,5.4c0,2.5-0.9,4.7-2.7,6.6c-1.8,1.9-4.1,2.8-6.7,2.8c-0.8,0-1.8-0.2-3.1-0.5c-9.1-2.8-18.1-4.3-27-4.3
			c-8.5,0-15.2,1.5-20,4.6c-4.8,3.1-7.2,7.1-7.2,11.9C543.6,236.8,545.8,240.2,550.2,242.5z"/>
		<path class="st1" d="M706.8,302.7c1.7,1.7,2.6,3.7,2.6,6c0,3.6-1.8,6.4-5.4,8.3c-6.2,2.8-12.7,4.3-19.6,4.3
			c-23,0-34.5-10.4-34.5-31.2v-73.3H633c-1.3,0-2.3-0.4-3.2-1.3c-0.9-0.9-1.3-1.9-1.3-3.2c0-1.6,0.7-2.9,2.1-4l32.2-31.5
			c1.4-1.4,2.8-2.1,4-2.1c1.3,0,2.3,0.5,3.2,1.4c0.9,0.9,1.3,2.1,1.3,3.3v18.9H698c2.7,0,4.9,0.9,6.6,2.6c1.7,1.7,2.6,3.9,2.6,6.6
			c0,2.5-0.9,4.7-2.6,6.5c-1.7,1.8-3.9,2.7-6.6,2.7h-26.7v71.4c0,6.1,1.5,10.1,4.4,11.7c2.9,1.7,6.6,2.5,11,2.5
			c3.2,0,6.3-0.5,9.5-1.4c0.6-0.2,1.3-0.3,2-0.5c0.7-0.2,1.6-0.2,2.7-0.2C703.1,300.2,705,301,706.8,302.7z"/>
		<path class="st1" d="M831.7,295.4c1.9,1.7,2.8,3.9,2.8,6.6c0,3.5-2.1,6.4-6.2,8.8c-6.2,3.5-12.2,6.1-18.2,7.8
			c-6,1.7-13.7,2.6-23.2,2.6c-19.2,0-34.3-5.5-45.1-16.4c-10.8-11-16.2-26.4-16.2-46.2c0-11.2,2-21.5,6.2-31
			c4.1-9.5,10.4-17.1,18.9-22.9c8.5-5.8,19-8.8,31.5-8.8c11.7,0,21.8,2.7,30.3,8.2s15,12.7,19.4,21.8c4.4,9.1,6.6,19,6.6,29.7
			c0,3-1,5.5-3,7.6c-2,2.1-4.6,3.1-7.9,3.1h-80.2c1.3,11,5.4,19.6,12.3,25.8c6.9,6.2,16.6,9.2,29.1,9.2c6.6,0,12.4-0.6,17.4-1.9
			c5-1.3,9.8-3.1,14.5-5.4c1.3-0.6,2.7-0.9,4.3-0.9C827.6,292.8,829.8,293.7,831.7,295.4z M766.4,217.7c-5.2,2.4-9.5,6.3-13,11.5
			c-3.5,5.2-5.4,11.7-5.9,19.4h69.8c-0.5-7.7-2.5-14.2-6-19.4c-3.5-5.2-7.9-9-13.1-11.5c-5.2-2.4-10.5-3.7-15.8-3.7
			C776.9,214.1,771.6,215.3,766.4,217.7z"/>
		<path class="st1" d="M966.5,295.4c1.9,1.7,2.8,3.9,2.8,6.6c0,3.5-2.1,6.4-6.2,8.8c-6.2,3.5-12.2,6.1-18.2,7.8
			c-6,1.7-13.7,2.6-23.2,2.6c-19.2,0-34.3-5.5-45.1-16.4c-10.8-11-16.2-26.4-16.2-46.2c0-11.2,2-21.5,6.2-31
			c4.1-9.5,10.4-17.1,18.9-22.9c8.5-5.8,19-8.8,31.5-8.8c11.7,0,21.8,2.7,30.3,8.2s15,12.7,19.4,21.8c4.4,9.1,6.6,19,6.6,29.7
			c0,3-1,5.5-3,7.6c-2,2.1-4.6,3.1-7.9,3.1h-80.2c1.3,11,5.4,19.6,12.3,25.8c6.9,6.2,16.6,9.2,29.1,9.2c6.6,0,12.4-0.6,17.4-1.9
			c5-1.3,9.8-3.1,14.5-5.4c1.3-0.6,2.7-0.9,4.3-0.9C962.4,292.8,964.6,293.7,966.5,295.4z M901.2,217.7c-5.2,2.4-9.5,6.3-13,11.5
			c-3.5,5.2-5.4,11.7-5.9,19.4h69.8c-0.5-7.7-2.5-14.2-6-19.4c-3.5-5.2-7.9-9-13.1-11.5c-5.2-2.4-10.5-3.7-15.8-3.7
			C911.7,214.1,906.4,215.3,901.2,217.7z"/>
		<path class="st1" d="M1022.8,148.1c2,2.1,3.1,4.7,3.1,7.8v153.5c0,3-1.1,5.5-3.2,7.6c-2.1,2-4.7,3.1-7.7,3.1c-3,0-5.5-1-7.6-3.1
			c-2.1-2-3.1-4.6-3.1-7.6V155.9c0-3,1-5.6,3.1-7.7c2-2.1,4.6-3.2,7.6-3.2C1018.1,145,1020.7,146,1022.8,148.1z"/>
		<path class="st1" d="M1129.9,302.7c1.7,1.7,2.6,3.7,2.6,6c0,3.6-1.8,6.4-5.4,8.3c-6.2,2.8-12.7,4.3-19.6,4.3
			c-23,0-34.5-10.4-34.5-31.2v-73.3h-16.8c-1.3,0-2.3-0.4-3.2-1.3c-0.9-0.9-1.3-1.9-1.3-3.2c0-1.6,0.7-2.9,2.1-4l32.2-31.5
			c1.4-1.4,2.8-2.1,4-2.1c1.3,0,2.3,0.5,3.2,1.4c0.9,0.9,1.3,2.1,1.3,3.3v18.9h26.7c2.7,0,4.9,0.9,6.6,2.6c1.7,1.7,2.6,3.9,2.6,6.6
			c0,2.5-0.9,4.7-2.6,6.5c-1.7,1.8-3.9,2.7-6.6,2.7h-26.7v71.4c0,6.1,1.5,10.1,4.4,11.7c2.9,1.7,6.6,2.5,11,2.5
			c3.2,0,6.3-0.5,9.5-1.4c0.6-0.2,1.3-0.3,2-0.5c0.7-0.2,1.6-0.2,2.7-0.2C1126.2,300.2,1128.2,301,1129.9,302.7z"/>
		<path class="st1" d="M1240.9,203.7c9.1,5.2,16.2,12.6,21.3,22.1c5,9.5,7.6,20.5,7.6,32.8c0,12.3-2.5,23.2-7.6,32.8
			c-5,9.5-12.1,16.9-21.3,22.1c-9.1,5.2-19.7,7.8-31.7,7.8c-12.1,0-22.8-2.6-31.9-7.8c-9.1-5.2-16.2-12.6-21.2-22.1
			c-5-9.5-7.5-20.5-7.5-32.8c0-12.3,2.5-23.2,7.5-32.8c5-9.5,12-16.9,21.2-22.1c9.1-5.2,19.8-7.8,31.9-7.8
			C1221.1,195.9,1231.7,198.5,1240.9,203.7z M1227.7,297.1c5.9-3,10.8-7.7,14.7-14.2c3.9-6.5,5.8-14.7,5.8-24.6
			c0-9.8-1.9-17.9-5.8-24.4c-3.9-6.5-8.8-11.2-14.7-14.1c-5.9-2.9-12.1-4.4-18.6-4.4c-6.6,0-12.9,1.5-18.8,4.4
			c-5.9,2.9-10.8,7.6-14.5,14.1c-3.8,6.5-5.7,14.6-5.7,24.4c0,9.9,1.9,18.1,5.7,24.6c3.8,6.5,8.6,11.2,14.5,14.2
			c5.9,3,12.2,4.5,18.8,4.5C1215.6,301.6,1221.8,300.1,1227.7,297.1z"/>
		<path class="st1" d="M1398.6,295.4c1.9,1.7,2.8,3.9,2.8,6.6c0,3.5-2.1,6.4-6.2,8.8c-6.2,3.5-12.2,6.1-18.2,7.8
			c-6,1.7-13.7,2.6-23.2,2.6c-19.2,0-34.3-5.5-45.1-16.4c-10.8-11-16.2-26.4-16.2-46.2c0-11.2,2-21.5,6.2-31
			c4.1-9.5,10.4-17.1,18.9-22.9c8.5-5.8,19-8.8,31.5-8.8c11.7,0,21.8,2.7,30.3,8.2s15,12.7,19.4,21.8c4.4,9.1,6.6,19,6.6,29.7
			c0,3-1,5.5-3,7.6c-2,2.1-4.6,3.1-7.9,3.1h-80.2c1.3,11,5.4,19.6,12.3,25.8c6.9,6.2,16.6,9.2,29.1,9.2c6.6,0,12.4-0.6,17.4-1.9
			c5-1.3,9.8-3.1,14.5-5.4c1.3-0.6,2.7-0.9,4.3-0.9C1394.5,292.8,1396.7,293.7,1398.6,295.4z M1333.3,217.7
			c-5.2,2.4-9.5,6.3-13,11.5c-3.5,5.2-5.4,11.7-5.9,19.4h69.8c-0.5-7.7-2.5-14.2-6-19.4c-3.5-5.2-7.9-9-13.1-11.5
			c-5.2-2.4-10.5-3.7-15.8-3.7C1343.8,214.1,1338.5,215.3,1333.3,217.7z"/>
	</g>
	<path class="st5" d="M443.3-206.1"/>
	<path class="st5" d="M221.7-78.1"/>
</g>
<g id="Layer_1_copy">
</g>
</svg>
