<?xml version="1.0" encoding="utf-8"?>
<!-- Generator: Adobe Illustrator 20.1.0, SVG Export Plug-In . SVG Version: 6.00 Build 0)  -->
<svg version="1.1" xmlns="http://www.w3.org/2000/svg" xmlns:xlink="http://www.w3.org/1999/xlink" x="0px" y="0px"
	 viewBox="0 0 2484.6 898.6" style="enable-background:new 0 0 2484.6 898.6;" xml:space="preserve">
<style type="text/css">
	.st0{fill:none;}
	.st1{fill:#082C38;}
	.st2{fill:#27AAE1;}
	.st3{fill:#F04E5A;}
	.st4{opacity:0.2;fill:#082C38;}
</style>
<g id="Layer_2">
</g>
<g id="Layer_1">
	<g>
		<polygon class="st0" points="958.3,568 958.3,568 958.3,568 		"/>
		<polygon class="st0" points="958.3,312 958.3,312 958.3,312 		"/>
		<polygon class="st0" points="1401.7,568 1401.7,568 1401.7,568 		"/>
		<polygon points="1180,440 1180,440 1180,440 		"/>
		<rect x="1180" y="440" width="0" height="0"/>
		<polygon points="1180,440 1180,440 1180,440 		"/>
		<polygon class="st1" points="1180,440 1180,440 958.3,568 1180,696 1401.7,568 		"/>
	</g>
	<polygon class="st2" points="1180,184 1113.5,222.4 958.3,312 1180,696 1401.7,568 	"/>
	<path class="st3" d="M1290.8,379"/>
</g>
<g id="Layer_4">
	<polygon class="st1" points="1180,184 958.3,312 1180,440 1180,440 1401.7,312 	"/>
	<line class="st2" x1="0" y1="460" x2="0" y2="0"/>
	<polyline class="st4" points="1347.4,474 958.3,312 958.3,312 1180,184 	"/>
</g>
<g id="Layer_1_copy">
</g>
</svg>
