<?xml version="1.0" encoding="utf-8"?>
<!-- Generator: Adobe Illustrator 20.1.0, SVG Export Plug-In . SVG Version: 6.00 Build 0)  -->
<svg version="1.1" xmlns="http://www.w3.org/2000/svg" xmlns:xlink="http://www.w3.org/1999/xlink" x="0px" y="0px"
	 viewBox="0 0 443.3 511.9" style="enable-background:new 0 0 443.3 511.9;" xml:space="preserve">
<style type="text/css">
	.st0{fill:none;}
	.st1{fill:#082C38;}
	.st2{fill:#27AAE1;}
	.st3{fill:#F04E5A;}
	.st4{opacity:0.2;fill:#082C38;}
</style>
<g id="Layer_2">
</g>
<g id="Layer_1">
	<g>
		<polygon class="st0" points="0,383.9 0,383.9 0,383.9 		"/>
		<polygon class="st0" points="0,128 0,128 0,128 		"/>
		<polygon class="st0" points="443.3,383.9 443.3,383.9 443.3,383.9 		"/>
		<polygon points="221.7,256 221.7,256 221.7,256 		"/>
		<rect x="221.7" y="256" width="0" height="0"/>
		<polygon points="221.7,256 221.7,256 221.7,256 		"/>
		<polygon class="st1" points="221.7,256 221.7,256 0,383.9 221.7,511.9 443.3,383.9 		"/>
	</g>
	<polygon class="st2" points="221.7,0 155.2,38.4 0,128 221.7,511.9 443.3,383.9 	"/>
	<path class="st3" d="M332.5,195"/>
</g>
<g id="Layer_4">
	<polygon class="st1" points="221.7,0 0,128 221.7,256 221.7,256 443.3,128 	"/>
	<polyline class="st4" points="389.1,290 0,128 0,128 221.7,0 	"/>
</g>
</svg>
