<?xml version="1.0" encoding="utf-8"?>
<!-- Generator: Adobe Illustrator 20.1.0, SVG Export Plug-In . SVG Version: 6.00 Build 0)  -->
<svg version="1.1" id="Layer_1" xmlns="http://www.w3.org/2000/svg" xmlns:xlink="http://www.w3.org/1999/xlink" x="0px" y="0px"
	 viewBox="0 0 1481 511.9" style="enable-background:new 0 0 1481 511.9;" xml:space="preserve">
<style type="text/css">
	.st0{fill:none;}
	.st1{fill:#082C38;}
	.st2{fill:#27AAE1;}
	.st3{fill:#F04E5A;}
	.st4{opacity:0.2;fill:#082C38;}
</style>
<polygon class="st0" points="166.3,375.3 166.3,375.3 166.3,375.3 "/>
<polygon class="st0" points="166.3,136.7 166.3,136.7 166.3,136.7 "/>
<polygon points="256.9,256 256.9,256 256.9,256 "/>
<rect x="256.9" y="256" width="0" height="0"/>
<polygon points="256.9,256 256.9,256 256.9,256 "/>
<polyline class="st1" points="463.5,375.3 256.9,256 256.9,256 50.3,375.3 256.9,494.5 463.5,375.3 "/>
<polyline class="st2" points="463.5,375.3 256.9,17.4 194.9,53.2 50.3,136.7 256.9,494.5 463.5,375.3 "/>
<path class="st3" d="M360.2,199.1"/>
<polyline class="st1" points="463.5,136.7 256.9,17.4 50.3,136.7 256.9,256 256.9,256 463.5,136.7 "/>
<polyline class="st4" points="413,287.7 50.3,136.7 50.3,136.7 256.9,17.4 "/>
<g>
	<path class="st1" d="M575.4,255.9c4.4,2.2,11.3,4.3,20.6,6.4c9.3,2.4,16.9,4.7,22.7,7c5.8,2.3,10.8,5.9,15,10.8
		c4.2,4.9,6.3,11.4,6.3,19.6c0,10.1-4,18.4-11.9,25.1c-8,6.6-19.2,9.9-33.7,9.9c-15.8,0-30.1-3.5-43-10.6c-2.7-1.9-4-4.5-4-7.8
		c0-2.5,0.9-4.7,2.6-6.6c1.7-1.9,3.9-2.8,6.6-2.8c1.4,0,2.8,0.3,4.3,0.9c5,2.2,10.1,3.9,15.1,5.2c5,1.3,10.7,1.9,17,1.9
		c17.5,0,26.3-5.6,26.3-16.8c0-3.6-2-6.4-6-8.3s-10.6-4-19.8-6.4c-9.3-2.2-17-4.5-23.1-6.9c-6.1-2.4-11.3-5.9-15.6-10.8
		c-4.3-4.8-6.5-11.2-6.5-19c0-11,4-20,11.9-27c8-6.9,19.4-10.4,34.2-10.4c12.1,0,23.6,2,34.3,5.9c2.2,0.6,3.9,1.8,5.1,3.5
		c1.2,1.7,1.8,3.5,1.8,5.4c0,2.5-0.9,4.7-2.7,6.6c-1.8,1.9-4.1,2.8-6.7,2.8c-0.8,0-1.8-0.2-3.1-0.5c-9.1-2.8-18.1-4.3-27-4.3
		c-8.5,0-15.2,1.5-20,4.6c-4.8,3.1-7.2,7.1-7.2,11.9C568.8,250.3,571,253.7,575.4,255.9z"/>
	<path class="st1" d="M732,316.1c1.7,1.7,2.6,3.7,2.6,6c0,3.6-1.8,6.4-5.4,8.3c-6.2,2.8-12.7,4.3-19.6,4.3
		c-23,0-34.5-10.4-34.5-31.2v-73.3h-16.8c-1.3,0-2.3-0.4-3.2-1.3c-0.9-0.9-1.3-1.9-1.3-3.2c0-1.6,0.7-2.9,2.1-4l32.2-31.5
		c1.4-1.4,2.8-2.1,4-2.1c1.3,0,2.3,0.5,3.2,1.4c0.9,0.9,1.3,2.1,1.3,3.3v18.9h26.7c2.7,0,4.9,0.9,6.6,2.6c1.7,1.7,2.6,3.9,2.6,6.6
		c0,2.5-0.9,4.7-2.6,6.5c-1.7,1.8-3.9,2.7-6.6,2.7h-26.7v71.4c0,6.1,1.5,10.1,4.4,11.7c2.9,1.7,6.6,2.5,11,2.5
		c3.2,0,6.3-0.5,9.5-1.4c0.6-0.2,1.3-0.3,2-0.5c0.7-0.2,1.6-0.2,2.7-0.2C728.3,313.7,730.2,314.5,732,316.1z"/>
	<path class="st1" d="M856.9,308.9c1.9,1.7,2.8,3.9,2.8,6.6c0,3.5-2.1,6.4-6.2,8.8c-6.2,3.5-12.2,6.1-18.2,7.8
		c-6,1.7-13.7,2.6-23.2,2.6c-19.2,0-34.3-5.5-45.1-16.4c-10.8-11-16.2-26.4-16.2-46.2c0-11.2,2-21.5,6.2-31
		c4.1-9.5,10.4-17.1,18.9-22.9c8.5-5.8,19-8.8,31.5-8.8c11.7,0,21.8,2.7,30.3,8.2c8.5,5.4,15,12.7,19.4,21.8
		c4.4,9.1,6.6,19,6.6,29.7c0,3-1,5.5-3,7.6c-2,2.1-4.6,3.1-7.9,3.1h-80.2c1.3,11,5.4,19.6,12.3,25.8c6.9,6.2,16.6,9.2,29.1,9.2
		c6.6,0,12.4-0.6,17.4-1.9c5-1.3,9.8-3.1,14.5-5.4c1.3-0.6,2.7-0.9,4.3-0.9C852.8,306.3,855,307.2,856.9,308.9z M791.6,231.2
		c-5.2,2.4-9.5,6.3-13,11.5c-3.5,5.2-5.4,11.7-5.9,19.4h69.8c-0.5-7.7-2.5-14.2-6-19.4c-3.5-5.2-7.9-9-13.1-11.5
		c-5.2-2.4-10.5-3.7-15.8-3.7C802.1,227.6,796.8,228.8,791.6,231.2z"/>
	<path class="st1" d="M991.7,308.9c1.9,1.7,2.8,3.9,2.8,6.6c0,3.5-2.1,6.4-6.2,8.8c-6.2,3.5-12.2,6.1-18.2,7.8
		c-6,1.7-13.7,2.6-23.2,2.6c-19.2,0-34.3-5.5-45.1-16.4c-10.8-11-16.2-26.4-16.2-46.2c0-11.2,2-21.5,6.2-31
		c4.1-9.5,10.4-17.1,18.9-22.9c8.5-5.8,19-8.8,31.5-8.8c11.7,0,21.8,2.7,30.3,8.2c8.5,5.4,15,12.7,19.4,21.8
		c4.4,9.1,6.6,19,6.6,29.7c0,3-1,5.5-3,7.6c-2,2.1-4.6,3.1-7.9,3.1h-80.2c1.3,11,5.4,19.6,12.3,25.8c6.9,6.2,16.6,9.2,29.1,9.2
		c6.6,0,12.4-0.6,17.4-1.9c5-1.3,9.8-3.1,14.5-5.4c1.3-0.6,2.7-0.9,4.3-0.9C987.6,306.3,989.8,307.2,991.7,308.9z M926.4,231.2
		c-5.2,2.4-9.5,6.3-13,11.5c-3.5,5.2-5.4,11.7-5.9,19.4h69.8c-0.5-7.7-2.5-14.2-6-19.4c-3.5-5.2-7.9-9-13.1-11.5
		c-5.2-2.4-10.5-3.7-15.8-3.7C936.9,227.6,931.6,228.8,926.4,231.2z"/>
	<path class="st1" d="M1048,161.6c2,2.1,3.1,4.7,3.1,7.8v153.5c0,3-1.1,5.5-3.2,7.6s-4.7,3.1-7.7,3.1c-3,0-5.5-1-7.6-3.1
		c-2.1-2-3.1-4.6-3.1-7.6V169.4c0-3,1-5.6,3.1-7.7c2-2.1,4.6-3.2,7.6-3.2C1043.3,158.5,1045.9,159.5,1048,161.6z"/>
	<path class="st1" d="M1155.1,316.1c1.7,1.7,2.6,3.7,2.6,6c0,3.6-1.8,6.4-5.4,8.3c-6.2,2.8-12.7,4.3-19.6,4.3
		c-23,0-34.5-10.4-34.5-31.2v-73.3h-16.8c-1.3,0-2.3-0.4-3.2-1.3c-0.9-0.9-1.3-1.9-1.3-3.2c0-1.6,0.7-2.9,2.1-4l32.2-31.5
		c1.4-1.4,2.8-2.1,4-2.1c1.3,0,2.3,0.5,3.2,1.4c0.9,0.9,1.3,2.1,1.3,3.3v18.9h26.7c2.7,0,4.9,0.9,6.6,2.6c1.7,1.7,2.6,3.9,2.6,6.6
		c0,2.5-0.9,4.7-2.6,6.5c-1.7,1.8-3.9,2.7-6.6,2.7h-26.7v71.4c0,6.1,1.5,10.1,4.4,11.7c2.9,1.7,6.6,2.5,11,2.5
		c3.2,0,6.3-0.5,9.5-1.4c0.6-0.2,1.3-0.3,2-0.5c0.7-0.2,1.6-0.2,2.7-0.2C1151.4,313.7,1153.4,314.5,1155.1,316.1z"/>
	<path class="st1" d="M1266.1,217.1c9.1,5.2,16.2,12.6,21.3,22.1c5,9.5,7.6,20.5,7.6,32.8c0,12.3-2.5,23.2-7.6,32.8
		c-5,9.5-12.1,16.9-21.3,22.1c-9.1,5.2-19.7,7.8-31.7,7.8c-12.1,0-22.8-2.6-31.9-7.8c-9.1-5.2-16.2-12.6-21.2-22.1
		c-5-9.5-7.5-20.5-7.5-32.8c0-12.3,2.5-23.2,7.5-32.8c5-9.5,12-16.9,21.2-22.1c9.1-5.2,19.8-7.8,31.9-7.8
		C1246.3,209.3,1256.9,211.9,1266.1,217.1z M1252.9,310.6c5.9-3,10.8-7.7,14.7-14.2c3.9-6.5,5.8-14.7,5.8-24.6
		c0-9.8-1.9-17.9-5.8-24.4c-3.9-6.5-8.8-11.2-14.7-14.1c-5.9-2.9-12.1-4.4-18.6-4.4c-6.6,0-12.9,1.5-18.8,4.4
		c-5.9,2.9-10.8,7.6-14.5,14.1c-3.8,6.5-5.7,14.6-5.7,24.4c0,9.9,1.9,18.1,5.7,24.6c3.8,6.5,8.6,11.2,14.5,14.2
		c5.9,3,12.2,4.5,18.8,4.5C1240.8,315.1,1247,313.6,1252.9,310.6z"/>
	<path class="st1" d="M1423.8,308.9c1.9,1.7,2.8,3.9,2.8,6.6c0,3.5-2.1,6.4-6.2,8.8c-6.2,3.5-12.2,6.1-18.2,7.8
		c-6,1.7-13.7,2.6-23.2,2.6c-19.2,0-34.3-5.5-45.1-16.4c-10.8-11-16.2-26.4-16.2-46.2c0-11.2,2-21.5,6.2-31
		c4.1-9.5,10.4-17.1,18.9-22.9c8.5-5.8,19-8.8,31.5-8.8c11.7,0,21.8,2.7,30.3,8.2c8.5,5.4,15,12.7,19.4,21.8
		c4.4,9.1,6.6,19,6.6,29.7c0,3-1,5.5-3,7.6c-2,2.1-4.6,3.1-7.9,3.1h-80.2c1.3,11,5.4,19.6,12.3,25.8c6.9,6.2,16.6,9.2,29.1,9.2
		c6.6,0,12.4-0.6,17.4-1.9c5-1.3,9.8-3.1,14.5-5.4c1.3-0.6,2.7-0.9,4.3-0.9C1419.7,306.3,1421.9,307.2,1423.8,308.9z M1358.5,231.2
		c-5.2,2.4-9.5,6.3-13,11.5c-3.5,5.2-5.4,11.7-5.9,19.4h69.8c-0.5-7.7-2.5-14.2-6-19.4c-3.5-5.2-7.9-9-13.1-11.5
		c-5.2-2.4-10.5-3.7-15.8-3.7C1369,227.6,1363.7,228.8,1358.5,231.2z"/>
</g>
</svg>
