<?xml version="1.0" encoding="UTF-8" standalone="no"?><!DOCTYPE svg PUBLIC "-//W3C//DTD SVG 1.1//EN" "http://www.w3.org/Graphics/SVG/1.1/DTD/svg11.dtd"><svg width="100%" height="100%" viewBox="0 0 427 367" version="1.1" xmlns="http://www.w3.org/2000/svg" xmlns:xlink="http://www.w3.org/1999/xlink" xml:space="preserve" style="fill-rule:evenodd;clip-rule:evenodd;stroke-linecap:round;stroke-linejoin:round;stroke-miterlimit:1.41421;"><g><g><path d="M178.649,198.002l55.425,-32l-55.425,-32l-55.426,32l55.426,32Z" style="fill:none;stroke-width:1px;stroke:#ededed;"/><path d="M247.931,238.002l55.425,-32l-55.425,-32l-55.426,32l55.426,32Z" style="fill:none;stroke-width:1px;stroke:#ededed;"/><path d="M109.367,238.002l55.425,-32l-55.425,-32l-55.426,32l55.426,32Z" style="fill:none;stroke-width:1px;stroke:#ededed;"/><path d="M109.367,318.002l55.425,-32l-55.425,-32l-55.426,32l55.426,32Z" style="fill:none;stroke-width:1px;stroke:#ededed;"/><path d="M95.51,246.002l-69.282,40l138.564,80" style="fill:none;stroke-width:1px;stroke:#e4e4e4;"/><g><g><path d="M224.616,10.097l-1.264,0l0,-8.34l-2.605,0.991l0,-1.155l3.767,-1.449l0.102,0l0,9.953Z" style="fill:#4677bc;fill-rule:nonzero;"/><path d="M235.164,6.289c0,0.634 -0.073,1.195 -0.219,1.685c-0.145,0.49 -0.355,0.902 -0.628,1.237c-0.274,0.335 -0.609,0.589 -1.005,0.763c-0.397,0.173 -0.85,0.259 -1.361,0.259c-0.506,0 -0.958,-0.086 -1.357,-0.259c-0.398,-0.174 -0.737,-0.428 -1.015,-0.763c-0.278,-0.335 -0.491,-0.747 -0.639,-1.237c-0.148,-0.49 -0.222,-1.051 -0.222,-1.685l0,-2.331c0,-0.633 0.073,-1.195 0.219,-1.685c0.146,-0.49 0.356,-0.904 0.632,-1.241c0.276,-0.337 0.613,-0.593 1.012,-0.769c0.398,-0.175 0.851,-0.263 1.357,-0.263c0.51,0 0.965,0.088 1.363,0.263c0.399,0.176 0.736,0.432 1.012,0.769c0.276,0.337 0.487,0.751 0.632,1.241c0.146,0.49 0.219,1.052 0.219,1.685l0,2.331ZM229.989,6.036l3.876,-2.974c-0.073,-0.66 -0.265,-1.163 -0.577,-1.507c-0.312,-0.344 -0.762,-0.516 -1.35,-0.516c-0.666,0 -1.157,0.225 -1.473,0.673c-0.317,0.449 -0.476,1.104 -0.476,1.966l0,2.358ZM233.893,4.272l-3.869,2.96c0.077,0.643 0.275,1.133 0.594,1.47c0.319,0.337 0.764,0.506 1.333,0.506c0.67,0 1.161,-0.228 1.473,-0.684c0.313,-0.455 0.469,-1.112 0.469,-1.968l0,-2.284Z" style="fill:#4677bc;fill-rule:nonzero;"/><path d="M239.519,9.276c0,-0.136 0.021,-0.264 0.065,-0.382c0.043,-0.119 0.106,-0.223 0.188,-0.311c0.082,-0.089 0.184,-0.159 0.307,-0.209c0.123,-0.05 0.267,-0.075 0.431,-0.075c0.164,0 0.309,0.025 0.434,0.075c0.125,0.05 0.23,0.12 0.314,0.209c0.085,0.088 0.149,0.192 0.192,0.311c0.043,0.118 0.065,0.246 0.065,0.382c0,0.133 -0.022,0.257 -0.065,0.373c-0.043,0.116 -0.107,0.218 -0.192,0.304c-0.084,0.087 -0.189,0.154 -0.314,0.202c-0.125,0.048 -0.27,0.072 -0.434,0.072c-0.164,0 -0.308,-0.024 -0.431,-0.072c-0.123,-0.048 -0.225,-0.115 -0.307,-0.202c-0.082,-0.086 -0.145,-0.188 -0.188,-0.304c-0.044,-0.116 -0.065,-0.24 -0.065,-0.373Z" style="fill:#4677bc;fill-rule:nonzero;"/><path d="M251.967,6.289c0,0.634 -0.073,1.195 -0.219,1.685c-0.146,0.49 -0.355,0.902 -0.629,1.237c-0.273,0.335 -0.608,0.589 -1.005,0.763c-0.396,0.173 -0.85,0.259 -1.36,0.259c-0.506,0 -0.958,-0.086 -1.357,-0.259c-0.399,-0.174 -0.737,-0.428 -1.015,-0.763c-0.278,-0.335 -0.491,-0.747 -0.639,-1.237c-0.148,-0.49 -0.222,-1.051 -0.222,-1.685l0,-2.331c0,-0.633 0.073,-1.195 0.218,-1.685c0.146,-0.49 0.357,-0.904 0.633,-1.241c0.275,-0.337 0.613,-0.593 1.011,-0.769c0.399,-0.175 0.852,-0.263 1.357,-0.263c0.511,0 0.965,0.088 1.364,0.263c0.399,0.176 0.736,0.432 1.012,0.769c0.276,0.337 0.486,0.751 0.632,1.241c0.146,0.49 0.219,1.052 0.219,1.685l0,2.331ZM246.792,6.036l3.876,-2.974c-0.073,-0.66 -0.265,-1.163 -0.578,-1.507c-0.312,-0.344 -0.762,-0.516 -1.35,-0.516c-0.665,0 -1.156,0.225 -1.473,0.673c-0.316,0.449 -0.475,1.104 -0.475,1.966l0,2.358ZM250.695,4.272l-3.869,2.96c0.078,0.643 0.276,1.133 0.595,1.47c0.319,0.337 0.763,0.506 1.333,0.506c0.67,0 1.161,-0.228 1.473,-0.684c0.312,-0.455 0.468,-1.112 0.468,-1.968l0,-2.284Z" style="fill:#4677bc;fill-rule:nonzero;"/><path d="M256.321,9.276c0,-0.136 0.022,-0.264 0.065,-0.382c0.044,-0.119 0.106,-0.223 0.188,-0.311c0.082,-0.089 0.185,-0.159 0.308,-0.209c0.123,-0.05 0.267,-0.075 0.431,-0.075c0.164,0 0.308,0.025 0.434,0.075c0.125,0.05 0.23,0.12 0.314,0.209c0.085,0.088 0.148,0.192 0.192,0.311c0.043,0.118 0.065,0.246 0.065,0.382c0,0.133 -0.022,0.257 -0.065,0.373c-0.044,0.116 -0.107,0.218 -0.192,0.304c-0.084,0.087 -0.189,0.154 -0.314,0.202c-0.126,0.048 -0.27,0.072 -0.434,0.072c-0.164,0 -0.308,-0.024 -0.431,-0.072c-0.123,-0.048 -0.226,-0.115 -0.308,-0.202c-0.082,-0.086 -0.144,-0.188 -0.188,-0.304c-0.043,-0.116 -0.065,-0.24 -0.065,-0.373Z" style="fill:#4677bc;fill-rule:nonzero;"/><path d="M268.77,6.289c0,0.634 -0.073,1.195 -0.219,1.685c-0.146,0.49 -0.356,0.902 -0.629,1.237c-0.273,0.335 -0.608,0.589 -1.005,0.763c-0.396,0.173 -0.85,0.259 -1.36,0.259c-0.506,0 -0.958,-0.086 -1.357,-0.259c-0.399,-0.174 -0.737,-0.428 -1.015,-0.763c-0.278,-0.335 -0.491,-0.747 -0.639,-1.237c-0.149,-0.49 -0.223,-1.051 -0.223,-1.685l0,-2.331c0,-0.633 0.073,-1.195 0.219,-1.685c0.146,-0.49 0.357,-0.904 0.632,-1.241c0.276,-0.337 0.613,-0.593 1.012,-0.769c0.399,-0.175 0.851,-0.263 1.357,-0.263c0.511,0 0.965,0.088 1.364,0.263c0.399,0.176 0.736,0.432 1.012,0.769c0.275,0.337 0.486,0.751 0.632,1.241c0.146,0.49 0.219,1.052 0.219,1.685l0,2.331ZM263.595,6.036l3.876,-2.974c-0.073,-0.66 -0.266,-1.163 -0.578,-1.507c-0.312,-0.344 -0.762,-0.516 -1.35,-0.516c-0.665,0 -1.156,0.225 -1.473,0.673c-0.317,0.449 -0.475,1.104 -0.475,1.966l0,2.358ZM267.498,4.272l-3.869,2.96c0.078,0.643 0.276,1.133 0.595,1.47c0.319,0.337 0.763,0.506 1.333,0.506c0.67,0 1.161,-0.228 1.473,-0.684c0.312,-0.455 0.468,-1.112 0.468,-1.968l0,-2.284Z" style="fill:#4677bc;fill-rule:nonzero;"/><path d="M273.124,9.276c0,-0.136 0.022,-0.264 0.065,-0.382c0.043,-0.119 0.106,-0.223 0.188,-0.311c0.082,-0.089 0.185,-0.159 0.308,-0.209c0.123,-0.05 0.266,-0.075 0.43,-0.075c0.164,0 0.309,0.025 0.434,0.075c0.126,0.05 0.231,0.12 0.315,0.209c0.084,0.088 0.148,0.192 0.191,0.311c0.044,0.118 0.065,0.246 0.065,0.382c0,0.133 -0.021,0.257 -0.065,0.373c-0.043,0.116 -0.107,0.218 -0.191,0.304c-0.084,0.087 -0.189,0.154 -0.315,0.202c-0.125,0.048 -0.27,0.072 -0.434,0.072c-0.164,0 -0.307,-0.024 -0.43,-0.072c-0.123,-0.048 -0.226,-0.115 -0.308,-0.202c-0.082,-0.086 -0.145,-0.188 -0.188,-0.304c-0.043,-0.116 -0.065,-0.24 -0.065,-0.373Z" style="fill:#4677bc;fill-rule:nonzero;"/><path d="M283.426,10.097l-1.265,0l0,-8.34l-2.604,0.991l0,-1.155l3.766,-1.449l0.103,0l0,9.953Z" style="fill:#4677bc;fill-rule:nonzero;"/></g></g><circle cx="252.931" cy="59.247" r="20.462" style="fill:#4677bc;"/><circle id="second-outer" cx="252.931" cy="59.247" r="28.533" style="fill:none;stroke-width:2px;stroke:#c8d6eb;"/><circle id="third-outer" cx="252.931" cy="59.247" r="38.353" style="fill:none;stroke-width:2px;stroke:#ecf1f8;"/><g><g><circle cx="386.495" cy="264.951" r="20.462" style="fill:#4677bc;"/><circle id="second-outer1" cx="386.495" cy="264.951" r="28.533" style="fill:none;stroke-width:2px;stroke:#c8d6eb;"/><circle id="third-outer1" cx="386.495" cy="264.951" r="38.353" style="fill:none;stroke-width:2px;stroke:#ecf1f8;"/></g><g><path d="M358.18,215.293l-1.264,0l0,-8.34l-2.605,0.991l0,-1.155l3.767,-1.449l0.102,0l0,9.953Z" style="fill:#4677bc;fill-rule:nonzero;"/><path d="M368.728,211.485c0,0.634 -0.073,1.195 -0.218,1.685c-0.146,0.49 -0.356,0.903 -0.629,1.238c-0.274,0.335 -0.609,0.589 -1.005,0.762c-0.397,0.173 -0.85,0.26 -1.361,0.26c-0.505,0 -0.958,-0.087 -1.357,-0.26c-0.398,-0.173 -0.737,-0.427 -1.015,-0.762c-0.278,-0.335 -0.491,-0.748 -0.639,-1.238c-0.148,-0.49 -0.222,-1.051 -0.222,-1.685l0,-2.331c0,-0.633 0.073,-1.195 0.219,-1.685c0.146,-0.49 0.356,-0.903 0.632,-1.241c0.276,-0.337 0.613,-0.593 1.012,-0.769c0.399,-0.175 0.851,-0.263 1.357,-0.263c0.51,0 0.965,0.088 1.364,0.263c0.398,0.176 0.736,0.432 1.011,0.769c0.276,0.338 0.487,0.751 0.633,1.241c0.145,0.49 0.218,1.052 0.218,1.685l0,2.331ZM363.553,211.232l3.876,-2.973c-0.072,-0.661 -0.265,-1.164 -0.577,-1.508c-0.312,-0.344 -0.762,-0.516 -1.35,-0.516c-0.666,0 -1.157,0.225 -1.473,0.674c-0.317,0.448 -0.476,1.104 -0.476,1.965l0,2.358ZM367.457,209.469l-3.869,2.96c0.077,0.642 0.275,1.132 0.594,1.469c0.319,0.338 0.764,0.506 1.333,0.506c0.67,0 1.161,-0.228 1.474,-0.683c0.312,-0.456 0.468,-1.112 0.468,-1.969l0,-2.283Z" style="fill:#4677bc;fill-rule:nonzero;"/><path d="M373.083,214.473c0,-0.137 0.021,-0.265 0.065,-0.383c0.043,-0.119 0.106,-0.222 0.188,-0.311c0.082,-0.089 0.184,-0.159 0.307,-0.209c0.123,-0.05 0.267,-0.075 0.431,-0.075c0.164,0 0.309,0.025 0.434,0.075c0.125,0.05 0.23,0.12 0.315,0.209c0.084,0.089 0.148,0.192 0.191,0.311c0.043,0.118 0.065,0.246 0.065,0.383c0,0.132 -0.022,0.256 -0.065,0.372c-0.043,0.116 -0.107,0.218 -0.191,0.304c-0.085,0.087 -0.19,0.154 -0.315,0.202c-0.125,0.048 -0.27,0.072 -0.434,0.072c-0.164,0 -0.308,-0.024 -0.431,-0.072c-0.123,-0.048 -0.225,-0.115 -0.307,-0.202c-0.082,-0.086 -0.145,-0.188 -0.188,-0.304c-0.044,-0.116 -0.065,-0.24 -0.065,-0.372Z" style="fill:#4677bc;fill-rule:nonzero;"/><path d="M385.531,211.485c0,0.634 -0.073,1.195 -0.219,1.685c-0.146,0.49 -0.355,0.903 -0.629,1.238c-0.273,0.335 -0.608,0.589 -1.005,0.762c-0.396,0.173 -0.849,0.26 -1.36,0.26c-0.506,0 -0.958,-0.087 -1.357,-0.26c-0.399,-0.173 -0.737,-0.427 -1.015,-0.762c-0.278,-0.335 -0.491,-0.748 -0.639,-1.238c-0.148,-0.49 -0.222,-1.051 -0.222,-1.685l0,-2.331c0,-0.633 0.073,-1.195 0.218,-1.685c0.146,-0.49 0.357,-0.903 0.633,-1.241c0.276,-0.337 0.613,-0.593 1.012,-0.769c0.398,-0.175 0.851,-0.263 1.356,-0.263c0.511,0 0.965,0.088 1.364,0.263c0.399,0.176 0.736,0.432 1.012,0.769c0.276,0.338 0.486,0.751 0.632,1.241c0.146,0.49 0.219,1.052 0.219,1.685l0,2.331ZM380.356,211.232l3.876,-2.973c-0.073,-0.661 -0.265,-1.164 -0.577,-1.508c-0.313,-0.344 -0.763,-0.516 -1.351,-0.516c-0.665,0 -1.156,0.225 -1.473,0.674c-0.316,0.448 -0.475,1.104 -0.475,1.965l0,2.358ZM384.26,209.469l-3.87,2.96c0.078,0.642 0.276,1.132 0.595,1.469c0.319,0.338 0.763,0.506 1.333,0.506c0.67,0 1.161,-0.228 1.473,-0.683c0.312,-0.456 0.469,-1.112 0.469,-1.969l0,-2.283Z" style="fill:#4677bc;fill-rule:nonzero;"/><path d="M389.886,214.473c0,-0.137 0.021,-0.265 0.064,-0.383c0.044,-0.119 0.106,-0.222 0.188,-0.311c0.082,-0.089 0.185,-0.159 0.308,-0.209c0.123,-0.05 0.267,-0.075 0.431,-0.075c0.164,0 0.308,0.025 0.434,0.075c0.125,0.05 0.23,0.12 0.314,0.209c0.085,0.089 0.148,0.192 0.192,0.311c0.043,0.118 0.065,0.246 0.065,0.383c0,0.132 -0.022,0.256 -0.065,0.372c-0.044,0.116 -0.107,0.218 -0.192,0.304c-0.084,0.087 -0.189,0.154 -0.314,0.202c-0.126,0.048 -0.27,0.072 -0.434,0.072c-0.164,0 -0.308,-0.024 -0.431,-0.072c-0.123,-0.048 -0.226,-0.115 -0.308,-0.202c-0.082,-0.086 -0.144,-0.188 -0.188,-0.304c-0.043,-0.116 -0.064,-0.24 -0.064,-0.372Z" style="fill:#4677bc;fill-rule:nonzero;"/><path d="M402.334,211.485c0,0.634 -0.073,1.195 -0.219,1.685c-0.146,0.49 -0.355,0.903 -0.629,1.238c-0.273,0.335 -0.608,0.589 -1.005,0.762c-0.396,0.173 -0.85,0.26 -1.36,0.26c-0.506,0 -0.958,-0.087 -1.357,-0.26c-0.399,-0.173 -0.737,-0.427 -1.015,-0.762c-0.278,-0.335 -0.491,-0.748 -0.639,-1.238c-0.148,-0.49 -0.223,-1.051 -0.223,-1.685l0,-2.331c0,-0.633 0.073,-1.195 0.219,-1.685c0.146,-0.49 0.357,-0.903 0.633,-1.241c0.275,-0.337 0.613,-0.593 1.011,-0.769c0.399,-0.175 0.851,-0.263 1.357,-0.263c0.511,0 0.965,0.088 1.364,0.263c0.399,0.176 0.736,0.432 1.012,0.769c0.275,0.338 0.486,0.751 0.632,1.241c0.146,0.49 0.219,1.052 0.219,1.685l0,2.331ZM397.159,211.232l3.876,-2.973c-0.073,-0.661 -0.266,-1.164 -0.578,-1.508c-0.312,-0.344 -0.762,-0.516 -1.35,-0.516c-0.665,0 -1.156,0.225 -1.473,0.674c-0.317,0.448 -0.475,1.104 -0.475,1.965l0,2.358ZM401.062,209.469l-3.869,2.96c0.078,0.642 0.276,1.132 0.595,1.469c0.319,0.338 0.763,0.506 1.333,0.506c0.67,0 1.161,-0.228 1.473,-0.683c0.312,-0.456 0.468,-1.112 0.468,-1.969l0,-2.283Z" style="fill:#4677bc;fill-rule:nonzero;"/><path d="M406.688,214.473c0,-0.137 0.022,-0.265 0.065,-0.383c0.043,-0.119 0.106,-0.222 0.188,-0.311c0.082,-0.089 0.185,-0.159 0.308,-0.209c0.123,-0.05 0.266,-0.075 0.43,-0.075c0.165,0 0.309,0.025 0.435,0.075c0.125,0.05 0.23,0.12 0.314,0.209c0.084,0.089 0.148,0.192 0.191,0.311c0.044,0.118 0.065,0.246 0.065,0.383c0,0.132 -0.021,0.256 -0.065,0.372c-0.043,0.116 -0.107,0.218 -0.191,0.304c-0.084,0.087 -0.189,0.154 -0.314,0.202c-0.126,0.048 -0.27,0.072 -0.435,0.072c-0.164,0 -0.307,-0.024 -0.43,-0.072c-0.123,-0.048 -0.226,-0.115 -0.308,-0.202c-0.082,-0.086 -0.145,-0.188 -0.188,-0.304c-0.043,-0.116 -0.065,-0.24 -0.065,-0.372Z" style="fill:#4677bc;fill-rule:nonzero;"/><path d="M414.365,209.708l0.902,0c0.319,0 0.601,-0.043 0.845,-0.13c0.243,-0.087 0.448,-0.205 0.615,-0.355c0.166,-0.151 0.293,-0.331 0.379,-0.541c0.087,-0.209 0.13,-0.439 0.13,-0.69c0,-0.579 -0.148,-1.015 -0.444,-1.309c-0.296,-0.294 -0.729,-0.441 -1.299,-0.441c-0.269,0 -0.514,0.04 -0.735,0.12c-0.221,0.079 -0.41,0.194 -0.567,0.345c-0.158,0.15 -0.279,0.33 -0.366,0.54c-0.087,0.21 -0.13,0.444 -0.13,0.704l-1.271,0c0,-0.378 0.074,-0.735 0.222,-1.07c0.148,-0.335 0.356,-0.626 0.625,-0.875c0.269,-0.248 0.592,-0.444 0.968,-0.588c0.376,-0.143 0.794,-0.215 1.254,-0.215c0.447,0 0.854,0.06 1.224,0.181c0.369,0.121 0.685,0.3 0.95,0.537c0.264,0.237 0.469,0.531 0.615,0.882c0.146,0.35 0.219,0.756 0.219,1.216c0,0.192 -0.03,0.39 -0.089,0.595c-0.059,0.205 -0.151,0.405 -0.274,0.598c-0.123,0.194 -0.281,0.376 -0.475,0.547c-0.193,0.171 -0.425,0.313 -0.693,0.427c0.323,0.105 0.593,0.242 0.81,0.411c0.216,0.168 0.389,0.357 0.519,0.567c0.13,0.21 0.221,0.431 0.274,0.663c0.052,0.232 0.078,0.463 0.078,0.69c0,0.465 -0.08,0.878 -0.239,1.238c-0.16,0.36 -0.381,0.664 -0.663,0.912c-0.283,0.249 -0.617,0.438 -1.002,0.568c-0.385,0.13 -0.801,0.195 -1.247,0.195c-0.438,0 -0.849,-0.062 -1.234,-0.185c-0.385,-0.123 -0.719,-0.303 -1.002,-0.54c-0.282,-0.237 -0.507,-0.526 -0.673,-0.868c-0.166,-0.342 -0.249,-0.732 -0.249,-1.169l1.264,0c0,0.26 0.045,0.497 0.134,0.711c0.088,0.214 0.215,0.396 0.379,0.547c0.164,0.15 0.363,0.266 0.598,0.348c0.235,0.082 0.496,0.123 0.783,0.123c0.287,0 0.547,-0.037 0.779,-0.112c0.232,-0.076 0.431,-0.191 0.595,-0.346c0.164,-0.155 0.29,-0.347 0.379,-0.577c0.089,-0.23 0.133,-0.503 0.133,-0.817c0,-0.31 -0.051,-0.578 -0.153,-0.803c-0.103,-0.226 -0.246,-0.414 -0.431,-0.564c-0.185,-0.151 -0.408,-0.262 -0.67,-0.335c-0.262,-0.073 -0.55,-0.11 -0.865,-0.11l-0.902,0l0,-1.025Z" style="fill:#4677bc;fill-rule:nonzero;"/></g></g><path d="M83.265,158.932l26.102,15.07l-69.282,40l55.425,32" style="fill:none;stroke-width:1px;stroke:#e4e4e4;"/><g><path d="M11.77,83.904l-1.264,0l0,-8.34l-2.605,0.992l0,-1.156l3.767,-1.449l0.102,0l0,9.953Z" style="fill:#4677bc;fill-rule:nonzero;"/><path d="M22.318,80.097c0,0.633 -0.073,1.195 -0.219,1.685c-0.145,0.49 -0.355,0.902 -0.629,1.237c-0.273,0.335 -0.608,0.589 -1.004,0.762c-0.397,0.173 -0.85,0.26 -1.361,0.26c-0.506,0 -0.958,-0.087 -1.357,-0.26c-0.398,-0.173 -0.737,-0.427 -1.015,-0.762c-0.278,-0.335 -0.491,-0.747 -0.639,-1.237c-0.148,-0.49 -0.222,-1.052 -0.222,-1.685l0,-2.331c0,-0.634 0.073,-1.196 0.219,-1.685c0.145,-0.49 0.356,-0.904 0.632,-1.241c0.276,-0.337 0.613,-0.594 1.012,-0.769c0.398,-0.176 0.851,-0.263 1.357,-0.263c0.51,0 0.965,0.087 1.363,0.263c0.399,0.175 0.736,0.432 1.012,0.769c0.276,0.337 0.487,0.751 0.632,1.241c0.146,0.489 0.219,1.051 0.219,1.685l0,2.331ZM17.143,79.844l3.876,-2.974c-0.073,-0.661 -0.265,-1.163 -0.577,-1.507c-0.313,-0.344 -0.763,-0.516 -1.35,-0.516c-0.666,0 -1.157,0.224 -1.474,0.673c-0.316,0.449 -0.475,1.104 -0.475,1.965l0,2.359ZM21.047,78.08l-3.869,2.96c0.077,0.643 0.275,1.132 0.594,1.47c0.319,0.337 0.764,0.506 1.333,0.506c0.67,0 1.161,-0.228 1.473,-0.684c0.313,-0.456 0.469,-1.112 0.469,-1.969l0,-2.283Z" style="fill:#4677bc;fill-rule:nonzero;"/><path d="M26.673,83.084c0,-0.137 0.021,-0.264 0.065,-0.383c0.043,-0.118 0.106,-0.222 0.188,-0.311c0.082,-0.089 0.184,-0.158 0.307,-0.208c0.123,-0.051 0.267,-0.076 0.431,-0.076c0.164,0 0.309,0.025 0.434,0.076c0.125,0.05 0.23,0.119 0.314,0.208c0.085,0.089 0.148,0.193 0.192,0.311c0.043,0.119 0.065,0.246 0.065,0.383c0,0.132 -0.022,0.256 -0.065,0.373c-0.044,0.116 -0.107,0.217 -0.192,0.304c-0.084,0.086 -0.189,0.154 -0.314,0.201c-0.125,0.048 -0.27,0.072 -0.434,0.072c-0.164,0 -0.308,-0.024 -0.431,-0.072c-0.123,-0.047 -0.225,-0.115 -0.307,-0.201c-0.082,-0.087 -0.145,-0.188 -0.188,-0.304c-0.044,-0.117 -0.065,-0.241 -0.065,-0.373Z" style="fill:#4677bc;fill-rule:nonzero;"/><path d="M39.121,80.097c0,0.633 -0.073,1.195 -0.219,1.685c-0.146,0.49 -0.355,0.902 -0.629,1.237c-0.273,0.335 -0.608,0.589 -1.005,0.762c-0.396,0.173 -0.85,0.26 -1.36,0.26c-0.506,0 -0.958,-0.087 -1.357,-0.26c-0.399,-0.173 -0.737,-0.427 -1.015,-0.762c-0.278,-0.335 -0.491,-0.747 -0.639,-1.237c-0.148,-0.49 -0.222,-1.052 -0.222,-1.685l0,-2.331c0,-0.634 0.072,-1.196 0.218,-1.685c0.146,-0.49 0.357,-0.904 0.633,-1.241c0.275,-0.337 0.613,-0.594 1.011,-0.769c0.399,-0.176 0.851,-0.263 1.357,-0.263c0.511,0 0.965,0.087 1.364,0.263c0.399,0.175 0.736,0.432 1.012,0.769c0.276,0.337 0.486,0.751 0.632,1.241c0.146,0.489 0.219,1.051 0.219,1.685l0,2.331ZM33.946,79.844l3.876,-2.974c-0.073,-0.661 -0.265,-1.163 -0.578,-1.507c-0.312,-0.344 -0.762,-0.516 -1.35,-0.516c-0.665,0 -1.156,0.224 -1.473,0.673c-0.317,0.449 -0.475,1.104 -0.475,1.965l0,2.359ZM37.849,78.08l-3.869,2.96c0.078,0.643 0.276,1.132 0.595,1.47c0.319,0.337 0.763,0.506 1.333,0.506c0.67,0 1.161,-0.228 1.473,-0.684c0.312,-0.456 0.468,-1.112 0.468,-1.969l0,-2.283Z" style="fill:#4677bc;fill-rule:nonzero;"/><path d="M43.475,83.084c0,-0.137 0.022,-0.264 0.065,-0.383c0.044,-0.118 0.106,-0.222 0.188,-0.311c0.082,-0.089 0.185,-0.158 0.308,-0.208c0.123,-0.051 0.267,-0.076 0.431,-0.076c0.164,0 0.308,0.025 0.434,0.076c0.125,0.05 0.23,0.119 0.314,0.208c0.084,0.089 0.148,0.193 0.192,0.311c0.043,0.119 0.064,0.246 0.064,0.383c0,0.132 -0.021,0.256 -0.064,0.373c-0.044,0.116 -0.108,0.217 -0.192,0.304c-0.084,0.086 -0.189,0.154 -0.314,0.201c-0.126,0.048 -0.27,0.072 -0.434,0.072c-0.164,0 -0.308,-0.024 -0.431,-0.072c-0.123,-0.047 -0.226,-0.115 -0.308,-0.201c-0.082,-0.087 -0.144,-0.188 -0.188,-0.304c-0.043,-0.117 -0.065,-0.241 -0.065,-0.373Z" style="fill:#4677bc;fill-rule:nonzero;"/><path d="M55.924,80.097c0,0.633 -0.073,1.195 -0.219,1.685c-0.146,0.49 -0.356,0.902 -0.629,1.237c-0.273,0.335 -0.608,0.589 -1.005,0.762c-0.396,0.173 -0.85,0.26 -1.36,0.26c-0.506,0 -0.958,-0.087 -1.357,-0.26c-0.399,-0.173 -0.737,-0.427 -1.015,-0.762c-0.278,-0.335 -0.491,-0.747 -0.64,-1.237c-0.148,-0.49 -0.222,-1.052 -0.222,-1.685l0,-2.331c0,-0.634 0.073,-1.196 0.219,-1.685c0.146,-0.49 0.357,-0.904 0.632,-1.241c0.276,-0.337 0.613,-0.594 1.012,-0.769c0.399,-0.176 0.851,-0.263 1.357,-0.263c0.51,0 0.965,0.087 1.364,0.263c0.399,0.175 0.736,0.432 1.012,0.769c0.275,0.337 0.486,0.751 0.632,1.241c0.146,0.489 0.219,1.051 0.219,1.685l0,2.331ZM50.749,79.844l3.876,-2.974c-0.073,-0.661 -0.266,-1.163 -0.578,-1.507c-0.312,-0.344 -0.762,-0.516 -1.35,-0.516c-0.665,0 -1.156,0.224 -1.473,0.673c-0.317,0.449 -0.475,1.104 -0.475,1.965l0,2.359ZM54.652,78.08l-3.869,2.96c0.077,0.643 0.276,1.132 0.595,1.47c0.319,0.337 0.763,0.506 1.333,0.506c0.67,0 1.161,-0.228 1.473,-0.684c0.312,-0.456 0.468,-1.112 0.468,-1.969l0,-2.283Z" style="fill:#4677bc;fill-rule:nonzero;"/><path d="M60.278,83.084c0,-0.137 0.022,-0.264 0.065,-0.383c0.043,-0.118 0.106,-0.222 0.188,-0.311c0.082,-0.089 0.185,-0.158 0.308,-0.208c0.123,-0.051 0.266,-0.076 0.43,-0.076c0.164,0 0.309,0.025 0.434,0.076c0.126,0.05 0.231,0.119 0.315,0.208c0.084,0.089 0.148,0.193 0.191,0.311c0.044,0.119 0.065,0.246 0.065,0.383c0,0.132 -0.021,0.256 -0.065,0.373c-0.043,0.116 -0.107,0.217 -0.191,0.304c-0.084,0.086 -0.189,0.154 -0.315,0.201c-0.125,0.048 -0.27,0.072 -0.434,0.072c-0.164,0 -0.307,-0.024 -0.43,-0.072c-0.123,-0.047 -0.226,-0.115 -0.308,-0.201c-0.082,-0.087 -0.145,-0.188 -0.188,-0.304c-0.043,-0.117 -0.065,-0.241 -0.065,-0.373Z" style="fill:#4677bc;fill-rule:nonzero;"/><path d="M72.583,83.904l-6.522,0l0,-0.909l3.261,-3.623c0.292,-0.324 0.536,-0.611 0.731,-0.861c0.196,-0.251 0.354,-0.482 0.472,-0.694c0.119,-0.212 0.203,-0.413 0.253,-0.602c0.05,-0.189 0.075,-0.384 0.075,-0.584c0,-0.246 -0.04,-0.478 -0.119,-0.694c-0.08,-0.216 -0.196,-0.404 -0.349,-0.564c-0.153,-0.159 -0.337,-0.286 -0.554,-0.379c-0.216,-0.094 -0.461,-0.141 -0.735,-0.141c-0.332,0 -0.62,0.048 -0.864,0.144c-0.244,0.096 -0.447,0.231 -0.609,0.407c-0.161,0.175 -0.282,0.388 -0.362,0.639c-0.08,0.251 -0.12,0.531 -0.12,0.841l-1.271,0c0,-0.42 0.073,-0.815 0.219,-1.186c0.145,-0.372 0.356,-0.696 0.632,-0.974c0.276,-0.278 0.613,-0.499 1.012,-0.663c0.398,-0.165 0.853,-0.247 1.363,-0.247c0.47,0 0.893,0.07 1.269,0.209c0.375,0.139 0.693,0.331 0.953,0.578c0.26,0.246 0.459,0.537 0.598,0.875c0.139,0.337 0.209,0.704 0.209,1.1c0,0.296 -0.05,0.589 -0.151,0.879c-0.1,0.289 -0.235,0.575 -0.406,0.857c-0.171,0.283 -0.369,0.562 -0.595,0.838c-0.226,0.276 -0.464,0.55 -0.714,0.824l-2.673,2.898l4.997,0l0,1.032Z" style="fill:#4677bc;fill-rule:nonzero;"/></g><g><circle cx="40.085" cy="134.002" r="20.462" style="fill:#4677bc;"/><circle id="second-outer2" cx="40.085" cy="134.002" r="28.533" style="fill:none;stroke-width:2px;stroke:#c8d6eb;"/><circle id="third-outer2" cx="40.085" cy="134.002" r="38.353" style="fill:none;stroke-width:2px;stroke:#ecf1f8;"/></g><path d="M338.004,265.998l-90.073,52.004l-38.964,-22.496l124.708,-72l-63.565,-36.699l-22.179,-12.805" style="fill:none;stroke-width:1px;stroke:#e4e4e4;"/><path id="service1path" d="M204.536,39.056l-81.313,46.946l124.708,72l-55.426,32" style="fill:none;stroke-width:1px;stroke:#e4e4e4;"/><path d="M123.223,214.002l0,32l55.426,32l0,-32l-55.426,-32Z" style="fill:#dadada;"/><path d="M178.649,246.002l0,32l55.425,-32l0,-32l-55.425,32Z" style="fill:#e8e8e8;"/><path d="M123.223,214.002l55.426,-32l55.425,32l-55.425,32l-55.426,-32Z" style="fill:#808080;"/></g></g></svg>