<?xml version="1.0" encoding="UTF-8" standalone="no"?>
<!DOCTYPE svg PUBLIC "-//W3C//DTD SVG 1.1//EN" "https://www.w3.org/Graphics/SVG/1.1/DTD/svg11.dtd">
<svg width="100%" height="100%" viewBox="0 0 426 367" version="1.1" xmlns="http://www.w3.org/2000/svg" xmlns:xlink="http://www.w3.org/1999/xlink" xml:space="preserve" style="fill-rule:evenodd;clip-rule:evenodd;stroke-linecap:round;stroke-linejoin:round;stroke-miterlimit:1.41421;">
    <g transform="matrix(1,0,0,1,-376.445,-361.992)">
        <g transform="matrix(1,0,0,1,375.713,361.992)">
            <path d="M178.649,198.002L234.074,166.002L178.649,134.002L123.223,166.002L178.649,198.002ZM247.931,238.002L303.356,206.002L247.931,174.002L192.505,206.002L247.931,238.002ZM109.367,238.002L164.792,206.002L109.367,174.002L53.941,206.002L109.367,238.002ZM109.367,318.002L164.792,286.002L109.367,254.002L53.941,286.002L109.367,318.002Z" style="fill:none;stroke:rgb(237,237,237);stroke-width:1px;"/>
        </g>
        <g transform="matrix(1,0,0,1,375.713,361.992)">
            <path d="M95.51,246.002L26.228,286.002L164.792,366.002" style="fill:none;stroke:rgb(228,228,228);stroke-width:1px;"/>
        </g>
        <g transform="matrix(1,0,0,1,375.713,361.992)">
            <path d="M224.616,10.097L223.352,10.097L223.352,1.757L220.747,2.748L220.747,1.593L224.514,0.144L224.616,0.144L224.616,10.097ZM235.164,6.289C235.164,6.923 235.091,7.484 234.945,7.974C234.8,8.464 234.59,8.876 234.317,9.211C234.043,9.546 233.708,9.8 233.312,9.974C232.915,10.147 232.462,10.233 231.951,10.233C231.445,10.233 230.993,10.147 230.594,9.974C230.196,9.8 229.857,9.546 229.579,9.211C229.301,8.876 229.088,8.464 228.94,7.974C228.792,7.484 228.718,6.923 228.718,6.289L228.718,3.958C228.718,3.325 228.791,2.763 228.937,2.273C229.083,1.783 229.293,1.369 229.569,1.032C229.845,0.695 230.182,0.439 230.581,0.263C230.979,0.088 231.432,0 231.938,0C232.448,0 232.903,0.088 233.301,0.263C233.7,0.439 234.037,0.695 234.313,1.032C234.589,1.369 234.8,1.783 234.945,2.273C235.091,2.763 235.164,3.325 235.164,3.958L235.164,6.289ZM229.989,6.036L233.865,3.062C233.792,2.402 233.6,1.899 233.288,1.555C232.976,1.211 232.526,1.039 231.938,1.039C231.272,1.039 230.781,1.264 230.465,1.712C230.148,2.161 229.989,2.816 229.989,3.678L229.989,6.036ZM233.893,4.272L230.024,7.232C230.101,7.875 230.299,8.365 230.618,8.702C230.937,9.039 231.382,9.208 231.951,9.208C232.621,9.208 233.112,8.98 233.424,8.524C233.737,8.069 233.893,7.412 233.893,6.556L233.893,4.272L233.893,4.272ZM239.519,9.276C239.519,9.14 239.54,9.012 239.584,8.894C239.627,8.775 239.69,8.671 239.772,8.583C239.854,8.494 239.956,8.424 240.079,8.374C240.202,8.324 240.346,8.299 240.51,8.299C240.674,8.299 240.819,8.324 240.944,8.374C241.069,8.424 241.174,8.494 241.258,8.583C241.343,8.671 241.407,8.775 241.45,8.894C241.493,9.012 241.515,9.14 241.515,9.276C241.515,9.409 241.493,9.533 241.45,9.649C241.407,9.765 241.343,9.867 241.258,9.953C241.174,10.04 241.069,10.107 240.944,10.155C240.819,10.203 240.674,10.227 240.51,10.227C240.346,10.227 240.202,10.203 240.079,10.155C239.956,10.107 239.854,10.04 239.772,9.953C239.69,9.867 239.627,9.765 239.584,9.649C239.54,9.533 239.519,9.409 239.519,9.276ZM251.967,6.289C251.967,6.923 251.894,7.484 251.748,7.974C251.602,8.464 251.393,8.876 251.119,9.211C250.846,9.546 250.511,9.8 250.114,9.974C249.718,10.147 249.264,10.233 248.754,10.233C248.248,10.233 247.796,10.147 247.397,9.974C246.998,9.8 246.66,9.546 246.382,9.211C246.104,8.876 245.891,8.464 245.743,7.974C245.595,7.484 245.521,6.923 245.521,6.289L245.521,3.958C245.521,3.325 245.594,2.763 245.739,2.273C245.885,1.783 246.096,1.369 246.372,1.032C246.647,0.695 246.985,0.439 247.383,0.263C247.782,0.088 248.235,0 248.74,0C249.251,0 249.705,0.088 250.104,0.263C250.503,0.439 250.84,0.695 251.116,1.032C251.392,1.369 251.602,1.783 251.748,2.273C251.894,2.763 251.967,3.325 251.967,3.958L251.967,6.289ZM246.792,6.036L250.668,3.062C250.595,2.402 250.403,1.899 250.09,1.555C249.778,1.211 249.328,1.039 248.74,1.039C248.075,1.039 247.584,1.264 247.267,1.712C246.951,2.161 246.792,2.816 246.792,3.678L246.792,6.036ZM250.695,4.272L246.826,7.232C246.904,7.875 247.102,8.365 247.421,8.702C247.74,9.039 248.184,9.208 248.754,9.208C249.424,9.208 249.915,8.98 250.227,8.524C250.539,8.069 250.695,7.412 250.695,6.556L250.695,4.272L250.695,4.272ZM256.321,9.276C256.321,9.14 256.343,9.012 256.386,8.894C256.43,8.775 256.492,8.671 256.574,8.583C256.656,8.494 256.759,8.424 256.882,8.374C257.005,8.324 257.149,8.299 257.313,8.299C257.477,8.299 257.621,8.324 257.747,8.374C257.872,8.424 257.977,8.494 258.061,8.583C258.146,8.671 258.209,8.775 258.253,8.894C258.296,9.012 258.318,9.14 258.318,9.276C258.318,9.409 258.296,9.533 258.253,9.649C258.209,9.765 258.146,9.867 258.061,9.953C257.977,10.04 257.872,10.107 257.747,10.155C257.621,10.203 257.477,10.227 257.313,10.227C257.149,10.227 257.005,10.203 256.882,10.155C256.759,10.107 256.656,10.04 256.574,9.953C256.492,9.867 256.43,9.765 256.386,9.649C256.343,9.533 256.321,9.409 256.321,9.276ZM268.77,6.289C268.77,6.923 268.697,7.484 268.551,7.974C268.405,8.464 268.195,8.876 267.922,9.211C267.649,9.546 267.314,9.8 266.917,9.974C266.521,10.147 266.067,10.233 265.557,10.233C265.051,10.233 264.599,10.147 264.2,9.974C263.801,9.8 263.463,9.546 263.185,9.211C262.907,8.876 262.694,8.464 262.546,7.974C262.397,7.484 262.323,6.923 262.323,6.289L262.323,3.958C262.323,3.325 262.396,2.763 262.542,2.273C262.688,1.783 262.899,1.369 263.174,1.032C263.45,0.695 263.787,0.439 264.186,0.263C264.585,0.088 265.037,0 265.543,0C266.054,0 266.508,0.088 266.907,0.263C267.306,0.439 267.643,0.695 267.919,1.032C268.194,1.369 268.405,1.783 268.551,2.273C268.697,2.763 268.77,3.325 268.77,3.958L268.77,6.289ZM263.595,6.036L267.471,3.062C267.398,2.402 267.205,1.899 266.893,1.555C266.581,1.211 266.131,1.039 265.543,1.039C264.878,1.039 264.387,1.264 264.07,1.712C263.753,2.161 263.595,2.816 263.595,3.678L263.595,6.036ZM267.498,4.272L263.629,7.232C263.707,7.875 263.905,8.365 264.224,8.702C264.543,9.039 264.987,9.208 265.557,9.208C266.227,9.208 266.718,8.98 267.03,8.524C267.342,8.069 267.498,7.412 267.498,6.556L267.498,4.272L267.498,4.272ZM273.124,9.276C273.124,9.14 273.146,9.012 273.189,8.894C273.232,8.775 273.295,8.671 273.377,8.583C273.459,8.494 273.562,8.424 273.685,8.374C273.808,8.324 273.951,8.299 274.115,8.299C274.279,8.299 274.424,8.324 274.549,8.374C274.675,8.424 274.78,8.494 274.864,8.583C274.948,8.671 275.012,8.775 275.055,8.894C275.099,9.012 275.12,9.14 275.12,9.276C275.12,9.409 275.099,9.533 275.055,9.649C275.012,9.765 274.948,9.867 274.864,9.953C274.78,10.04 274.675,10.107 274.549,10.155C274.424,10.203 274.279,10.227 274.115,10.227C273.951,10.227 273.808,10.203 273.685,10.155C273.562,10.107 273.459,10.04 273.377,9.953C273.295,9.867 273.232,9.765 273.189,9.649C273.146,9.533 273.124,9.409 273.124,9.276ZM283.426,10.097L282.161,10.097L282.161,1.757L279.557,2.748L279.557,1.593L283.323,0.144L283.426,0.144L283.426,10.097Z" style="fill:rgb(70,119,188);fill-rule:nonzero;"/>
        </g>
        <g transform="matrix(1,0,0,1,375.713,361.992)">
            <g>
                <circle cx="252.931" cy="59.247" r="20.462" style="fill:rgb(70,119,188);"/>
                <circle id="second-outer" cx="252.931" cy="59.247" r="28.533" style="fill:none;stroke:rgb(200,214,235);stroke-width:2px;"/>
                <circle id="third-outer" cx="252.931" cy="59.247" r="38.353" style="fill:none;stroke:rgb(236,241,248);stroke-width:2px;"/>
            </g>
        </g>
        <g transform="matrix(1,0,0,1,375.713,361.992)">
            <g>
                <g>
                    <circle cx="386.495" cy="264.951" r="20.462" style="fill:rgb(70,119,188);"/>
                    <circle id="second-outer1" cx="386.495" cy="264.951" r="28.533" style="fill:none;stroke:rgb(200,214,235);stroke-width:2px;"/>
                    <circle id="third-outer1" cx="386.495" cy="264.951" r="38.353" style="fill:none;stroke:rgb(236,241,248);stroke-width:2px;"/>
                </g>
                <path d="M358.18,215.293L356.916,215.293L356.916,206.953L354.311,207.944L354.311,206.789L358.078,205.34L358.18,205.34L358.18,215.293ZM368.728,211.485C368.728,212.119 368.655,212.68 368.51,213.17C368.364,213.66 368.154,214.073 367.881,214.408C367.607,214.743 367.272,214.997 366.876,215.17C366.479,215.343 366.026,215.43 365.515,215.43C365.01,215.43 364.557,215.343 364.158,215.17C363.76,214.997 363.421,214.743 363.143,214.408C362.865,214.073 362.652,213.66 362.504,213.17C362.356,212.68 362.282,212.119 362.282,211.485L362.282,209.154C362.282,208.521 362.355,207.959 362.501,207.469C362.647,206.979 362.857,206.566 363.133,206.228C363.409,205.891 363.746,205.635 364.145,205.459C364.544,205.284 364.996,205.196 365.502,205.196C366.012,205.196 366.467,205.284 366.866,205.459C367.264,205.635 367.602,205.891 367.877,206.228C368.153,206.566 368.364,206.979 368.51,207.469C368.655,207.959 368.728,208.521 368.728,209.154L368.728,211.485ZM363.553,211.232L367.429,208.259C367.357,207.598 367.164,207.095 366.852,206.751C366.54,206.407 366.09,206.235 365.502,206.235C364.836,206.235 364.345,206.46 364.029,206.909C363.712,207.357 363.553,208.013 363.553,208.874L363.553,211.232ZM367.457,209.469L363.588,212.429C363.665,213.071 363.863,213.561 364.182,213.898C364.501,214.236 364.946,214.404 365.515,214.404C366.185,214.404 366.676,214.176 366.989,213.721C367.301,213.265 367.457,212.609 367.457,211.752L367.457,209.469L367.457,209.469ZM373.083,214.473C373.083,214.336 373.104,214.208 373.148,214.09C373.191,213.971 373.254,213.868 373.336,213.779C373.418,213.69 373.52,213.62 373.643,213.57C373.766,213.52 373.91,213.495 374.074,213.495C374.238,213.495 374.383,213.52 374.508,213.57C374.633,213.62 374.738,213.69 374.823,213.779C374.907,213.868 374.971,213.971 375.014,214.09C375.057,214.208 375.079,214.336 375.079,214.473C375.079,214.605 375.057,214.729 375.014,214.845C374.971,214.961 374.907,215.063 374.823,215.149C374.738,215.236 374.633,215.303 374.508,215.351C374.383,215.399 374.238,215.423 374.074,215.423C373.91,215.423 373.766,215.399 373.643,215.351C373.52,215.303 373.418,215.236 373.336,215.149C373.254,215.063 373.191,214.961 373.148,214.845C373.104,214.729 373.083,214.605 373.083,214.473ZM385.531,211.485C385.531,212.119 385.458,212.68 385.312,213.17C385.166,213.66 384.957,214.073 384.683,214.408C384.41,214.743 384.075,214.997 383.678,215.17C383.282,215.343 382.829,215.43 382.318,215.43C381.812,215.43 381.36,215.343 380.961,215.17C380.562,214.997 380.224,214.743 379.946,214.408C379.668,214.073 379.455,213.66 379.307,213.17C379.159,212.68 379.085,212.119 379.085,211.485L379.085,209.154C379.085,208.521 379.158,207.959 379.303,207.469C379.449,206.979 379.66,206.566 379.936,206.228C380.212,205.891 380.549,205.635 380.948,205.459C381.346,205.284 381.799,205.196 382.304,205.196C382.815,205.196 383.269,205.284 383.668,205.459C384.067,205.635 384.404,205.891 384.68,206.228C384.956,206.566 385.166,206.979 385.312,207.469C385.458,207.959 385.531,208.521 385.531,209.154L385.531,211.485ZM380.356,211.232L384.232,208.259C384.159,207.598 383.967,207.095 383.655,206.751C383.342,206.407 382.892,206.235 382.304,206.235C381.639,206.235 381.148,206.46 380.831,206.909C380.515,207.357 380.356,208.013 380.356,208.874L380.356,211.232ZM384.26,209.469L380.39,212.429C380.468,213.071 380.666,213.561 380.985,213.898C381.304,214.236 381.748,214.404 382.318,214.404C382.988,214.404 383.479,214.176 383.791,213.721C384.103,213.265 384.26,212.609 384.26,211.752L384.26,209.469L384.26,209.469ZM389.886,214.473C389.886,214.336 389.907,214.208 389.95,214.09C389.994,213.971 390.056,213.868 390.138,213.779C390.22,213.69 390.323,213.62 390.446,213.57C390.569,213.52 390.713,213.495 390.877,213.495C391.041,213.495 391.185,213.52 391.311,213.57C391.436,213.62 391.541,213.69 391.625,213.779C391.71,213.868 391.773,213.971 391.817,214.09C391.86,214.208 391.882,214.336 391.882,214.473C391.882,214.605 391.86,214.729 391.817,214.845C391.773,214.961 391.71,215.063 391.625,215.149C391.541,215.236 391.436,215.303 391.311,215.351C391.185,215.399 391.041,215.423 390.877,215.423C390.713,215.423 390.569,215.399 390.446,215.351C390.323,215.303 390.22,215.236 390.138,215.149C390.056,215.063 389.994,214.961 389.95,214.845C389.907,214.729 389.886,214.605 389.886,214.473ZM402.334,211.485C402.334,212.119 402.261,212.68 402.115,213.17C401.969,213.66 401.76,214.073 401.486,214.408C401.213,214.743 400.878,214.997 400.481,215.17C400.085,215.343 399.631,215.43 399.121,215.43C398.615,215.43 398.163,215.343 397.764,215.17C397.365,214.997 397.027,214.743 396.749,214.408C396.471,214.073 396.258,213.66 396.11,213.17C395.962,212.68 395.887,212.119 395.887,211.485L395.887,209.154C395.887,208.521 395.96,207.959 396.106,207.469C396.252,206.979 396.463,206.566 396.739,206.228C397.014,205.891 397.352,205.635 397.75,205.459C398.149,205.284 398.601,205.196 399.107,205.196C399.618,205.196 400.072,205.284 400.471,205.459C400.87,205.635 401.207,205.891 401.483,206.228C401.758,206.566 401.969,206.979 402.115,207.469C402.261,207.959 402.334,208.521 402.334,209.154L402.334,211.485ZM397.159,211.232L401.035,208.259C400.962,207.598 400.769,207.095 400.457,206.751C400.145,206.407 399.695,206.235 399.107,206.235C398.442,206.235 397.951,206.46 397.634,206.909C397.317,207.357 397.159,208.013 397.159,208.874L397.159,211.232ZM401.062,209.469L397.193,212.429C397.271,213.071 397.469,213.561 397.788,213.898C398.107,214.236 398.551,214.404 399.121,214.404C399.791,214.404 400.282,214.176 400.594,213.721C400.906,213.265 401.062,212.609 401.062,211.752L401.062,209.469L401.062,209.469ZM406.688,214.473C406.688,214.336 406.71,214.208 406.753,214.09C406.796,213.971 406.859,213.868 406.941,213.779C407.023,213.69 407.126,213.62 407.249,213.57C407.372,213.52 407.515,213.495 407.679,213.495C407.844,213.495 407.988,213.52 408.114,213.57C408.239,213.62 408.344,213.69 408.428,213.779C408.512,213.868 408.576,213.971 408.619,214.09C408.663,214.208 408.684,214.336 408.684,214.473C408.684,214.605 408.663,214.729 408.619,214.845C408.576,214.961 408.512,215.063 408.428,215.149C408.344,215.236 408.239,215.303 408.114,215.351C407.988,215.399 407.844,215.423 407.679,215.423C407.515,215.423 407.372,215.399 407.249,215.351C407.126,215.303 407.023,215.236 406.941,215.149C406.859,215.063 406.796,214.961 406.753,214.845C406.71,214.729 406.688,214.605 406.688,214.473ZM414.365,209.708L415.267,209.708C415.586,209.708 415.868,209.665 416.112,209.578C416.355,209.491 416.56,209.373 416.727,209.223C416.893,209.072 417.02,208.892 417.106,208.682C417.193,208.473 417.236,208.243 417.236,207.992C417.236,207.413 417.088,206.977 416.792,206.683C416.496,206.389 416.063,206.242 415.493,206.242C415.224,206.242 414.979,206.282 414.758,206.362C414.537,206.441 414.348,206.556 414.191,206.707C414.033,206.857 413.912,207.037 413.825,207.247C413.738,207.457 413.695,207.691 413.695,207.951L412.424,207.951C412.424,207.573 412.498,207.216 412.646,206.881C412.794,206.546 413.002,206.255 413.271,206.006C413.54,205.758 413.863,205.562 414.239,205.418C414.615,205.275 415.033,205.203 415.493,205.203C415.94,205.203 416.347,205.263 416.717,205.384C417.086,205.505 417.402,205.684 417.667,205.921C417.931,206.158 418.136,206.452 418.282,206.803C418.428,207.153 418.501,207.559 418.501,208.019C418.501,208.211 418.471,208.409 418.412,208.614C418.353,208.819 418.261,209.019 418.138,209.212C418.015,209.406 417.857,209.588 417.663,209.759C417.47,209.93 417.238,210.072 416.97,210.186C417.293,210.291 417.563,210.428 417.78,210.597C417.996,210.765 418.169,210.954 418.299,211.164C418.429,211.374 418.52,211.595 418.573,211.827C418.625,212.059 418.651,212.29 418.651,212.517C418.651,212.982 418.571,213.395 418.412,213.755C418.252,214.115 418.031,214.419 417.749,214.667C417.466,214.916 417.132,215.105 416.747,215.235C416.362,215.365 415.946,215.43 415.5,215.43C415.062,215.43 414.651,215.368 414.266,215.245C413.881,215.122 413.547,214.942 413.264,214.705C412.982,214.468 412.757,214.179 412.591,213.837C412.425,213.495 412.342,213.105 412.342,212.668L413.606,212.668C413.606,212.928 413.651,213.165 413.74,213.379C413.828,213.593 413.955,213.775 414.119,213.926C414.283,214.076 414.482,214.192 414.717,214.274C414.952,214.356 415.213,214.397 415.5,214.397C415.787,214.397 416.047,214.36 416.279,214.285C416.511,214.209 416.71,214.094 416.874,213.939C417.038,213.784 417.164,213.592 417.253,213.362C417.342,213.132 417.386,212.859 417.386,212.545C417.386,212.235 417.335,211.967 417.233,211.742C417.13,211.516 416.987,211.328 416.802,211.178C416.617,211.027 416.394,210.916 416.132,210.843C415.87,210.77 415.582,210.733 415.267,210.733L414.365,210.733L414.365,209.708L414.365,209.708Z" style="fill:rgb(70,119,188);fill-rule:nonzero;"/>
            </g>
        </g>
        <g transform="matrix(1,0,0,1,375.713,361.992)">
            <path d="M83.265,158.932L109.367,174.002L40.085,214.002L95.51,246.002" style="fill:none;stroke:rgb(228,228,228);stroke-width:1px;"/>
        </g>
        <g transform="matrix(1,0,0,1,375.713,361.992)">
            <path d="M11.77,83.904L10.506,83.904L10.506,75.564L7.901,76.556L7.901,75.4L11.668,73.951L11.77,73.951L11.77,83.904ZM22.318,80.097C22.318,80.73 22.245,81.292 22.099,81.782C21.954,82.272 21.744,82.684 21.47,83.019C21.197,83.354 20.862,83.608 20.466,83.781C20.069,83.954 19.616,84.041 19.105,84.041C18.599,84.041 18.147,83.954 17.748,83.781C17.35,83.608 17.011,83.354 16.733,83.019C16.455,82.684 16.242,82.272 16.094,81.782C15.946,81.292 15.872,80.73 15.872,80.097L15.872,77.766C15.872,77.132 15.945,76.57 16.091,76.081C16.236,75.591 16.447,75.177 16.723,74.84C16.999,74.503 17.336,74.246 17.735,74.071C18.133,73.895 18.586,73.808 19.092,73.808C19.602,73.808 20.057,73.895 20.455,74.071C20.854,74.246 21.191,74.503 21.467,74.84C21.743,75.177 21.954,75.591 22.099,76.081C22.245,76.57 22.318,77.132 22.318,77.766L22.318,80.097ZM17.143,79.844L21.019,76.87C20.946,76.209 20.754,75.707 20.442,75.363C20.129,75.019 19.679,74.847 19.092,74.847C18.426,74.847 17.935,75.071 17.618,75.52C17.302,75.969 17.143,76.624 17.143,77.485L17.143,79.844ZM21.047,78.08L17.178,81.04C17.255,81.683 17.453,82.172 17.772,82.51C18.091,82.847 18.536,83.016 19.105,83.016C19.775,83.016 20.266,82.788 20.578,82.332C20.891,81.876 21.047,81.22 21.047,80.363L21.047,78.08ZM26.673,83.084C26.673,82.947 26.694,82.82 26.738,82.701C26.781,82.583 26.844,82.479 26.926,82.39C27.008,82.301 27.11,82.232 27.233,82.182C27.356,82.131 27.5,82.106 27.664,82.106C27.828,82.106 27.973,82.131 28.098,82.182C28.223,82.232 28.328,82.301 28.412,82.39C28.497,82.479 28.56,82.583 28.604,82.701C28.647,82.82 28.669,82.947 28.669,83.084C28.669,83.216 28.647,83.34 28.604,83.457C28.56,83.573 28.497,83.674 28.412,83.761C28.328,83.847 28.223,83.915 28.098,83.962C27.973,84.01 27.828,84.034 27.664,84.034C27.5,84.034 27.356,84.01 27.233,83.962C27.11,83.915 27.008,83.847 26.926,83.761C26.844,83.674 26.781,83.573 26.738,83.457C26.694,83.34 26.673,83.216 26.673,83.084ZM39.121,80.097C39.121,80.73 39.048,81.292 38.902,81.782C38.756,82.272 38.547,82.684 38.273,83.019C38,83.354 37.665,83.608 37.268,83.781C36.872,83.954 36.418,84.041 35.908,84.041C35.402,84.041 34.95,83.954 34.551,83.781C34.152,83.608 33.814,83.354 33.536,83.019C33.258,82.684 33.045,82.272 32.897,81.782C32.749,81.292 32.675,80.73 32.675,80.097L32.675,77.766C32.675,77.132 32.747,76.57 32.893,76.081C33.039,75.591 33.25,75.177 33.526,74.84C33.801,74.503 34.139,74.246 34.537,74.071C34.936,73.895 35.388,73.808 35.894,73.808C36.405,73.808 36.859,73.895 37.258,74.071C37.657,74.246 37.994,74.503 38.27,74.84C38.546,75.177 38.756,75.591 38.902,76.081C39.048,76.57 39.121,77.132 39.121,77.766L39.121,80.097ZM33.946,79.844L37.822,76.87C37.749,76.209 37.557,75.707 37.244,75.363C36.932,75.019 36.482,74.847 35.894,74.847C35.229,74.847 34.738,75.071 34.421,75.52C34.104,75.969 33.946,76.624 33.946,77.485L33.946,79.844ZM37.849,78.08L33.98,81.04C34.058,81.683 34.256,82.172 34.575,82.51C34.894,82.847 35.338,83.016 35.908,83.016C36.578,83.016 37.069,82.788 37.381,82.332C37.693,81.876 37.849,81.22 37.849,80.363L37.849,78.08ZM43.475,83.084C43.475,82.947 43.497,82.82 43.54,82.701C43.584,82.583 43.646,82.479 43.728,82.39C43.81,82.301 43.913,82.232 44.036,82.182C44.159,82.131 44.303,82.106 44.467,82.106C44.631,82.106 44.775,82.131 44.901,82.182C45.026,82.232 45.131,82.301 45.215,82.39C45.299,82.479 45.363,82.583 45.407,82.701C45.45,82.82 45.471,82.947 45.471,83.084C45.471,83.216 45.45,83.34 45.407,83.457C45.363,83.573 45.299,83.674 45.215,83.761C45.131,83.847 45.026,83.915 44.901,83.962C44.775,84.01 44.631,84.034 44.467,84.034C44.303,84.034 44.159,84.01 44.036,83.962C43.913,83.915 43.81,83.847 43.728,83.761C43.646,83.674 43.584,83.573 43.54,83.457C43.497,83.34 43.475,83.216 43.475,83.084ZM55.924,80.097C55.924,80.73 55.851,81.292 55.705,81.782C55.559,82.272 55.349,82.684 55.076,83.019C54.803,83.354 54.468,83.608 54.071,83.781C53.675,83.954 53.221,84.041 52.711,84.041C52.205,84.041 51.753,83.954 51.354,83.781C50.955,83.608 50.617,83.354 50.339,83.019C50.061,82.684 49.848,82.272 49.699,81.782C49.551,81.292 49.477,80.73 49.477,80.097L49.477,77.766C49.477,77.132 49.55,76.57 49.696,76.081C49.842,75.591 50.053,75.177 50.328,74.84C50.604,74.503 50.941,74.246 51.34,74.071C51.739,73.895 52.191,73.808 52.697,73.808C53.207,73.808 53.662,73.895 54.061,74.071C54.46,74.246 54.797,74.503 55.073,74.84C55.348,75.177 55.559,75.591 55.705,76.081C55.851,76.57 55.924,77.132 55.924,77.766L55.924,80.097ZM50.749,79.844L54.625,76.87C54.552,76.209 54.359,75.707 54.047,75.363C53.735,75.019 53.285,74.847 52.697,74.847C52.032,74.847 51.541,75.071 51.224,75.52C50.907,75.969 50.749,76.624 50.749,77.485L50.749,79.844ZM54.652,78.08L50.783,81.04C50.86,81.683 51.059,82.172 51.378,82.51C51.697,82.847 52.141,83.016 52.711,83.016C53.381,83.016 53.872,82.788 54.184,82.332C54.496,81.876 54.652,81.22 54.652,80.363L54.652,78.08ZM60.278,83.084C60.278,82.947 60.3,82.82 60.343,82.701C60.386,82.583 60.449,82.479 60.531,82.39C60.613,82.301 60.716,82.232 60.839,82.182C60.962,82.131 61.105,82.106 61.269,82.106C61.433,82.106 61.578,82.131 61.703,82.182C61.829,82.232 61.934,82.301 62.018,82.39C62.102,82.479 62.166,82.583 62.209,82.701C62.253,82.82 62.274,82.947 62.274,83.084C62.274,83.216 62.253,83.34 62.209,83.457C62.166,83.573 62.102,83.674 62.018,83.761C61.934,83.847 61.829,83.915 61.703,83.962C61.578,84.01 61.433,84.034 61.269,84.034C61.105,84.034 60.962,84.01 60.839,83.962C60.716,83.915 60.613,83.847 60.531,83.761C60.449,83.674 60.386,83.573 60.343,83.457C60.3,83.34 60.278,83.216 60.278,83.084ZM72.583,83.904L66.061,83.904L66.061,82.995L69.322,79.372C69.614,79.048 69.858,78.761 70.053,78.511C70.249,78.26 70.407,78.029 70.525,77.817C70.644,77.605 70.728,77.404 70.778,77.215C70.828,77.026 70.853,76.831 70.853,76.631C70.853,76.385 70.813,76.153 70.734,75.937C70.654,75.721 70.538,75.533 70.385,75.373C70.232,75.214 70.048,75.087 69.831,74.994C69.615,74.9 69.37,74.853 69.096,74.853C68.764,74.853 68.476,74.901 68.232,74.997C67.988,75.093 67.785,75.228 67.623,75.404C67.462,75.579 67.341,75.792 67.261,76.043C67.181,76.294 67.141,76.574 67.141,76.884L65.87,76.884C65.87,76.464 65.943,76.069 66.089,75.698C66.234,75.326 66.445,75.002 66.721,74.724C66.997,74.446 67.334,74.225 67.733,74.061C68.131,73.896 68.586,73.814 69.096,73.814C69.566,73.814 69.989,73.884 70.365,74.023C70.74,74.162 71.058,74.354 71.318,74.601C71.578,74.847 71.777,75.138 71.916,75.476C72.055,75.813 72.125,76.18 72.125,76.576C72.125,76.872 72.075,77.165 71.974,77.455C71.874,77.744 71.739,78.03 71.568,78.312C71.397,78.595 71.199,78.874 70.973,79.15C70.747,79.426 70.509,79.7 70.259,79.974L67.586,82.872L72.583,82.872L72.583,83.904Z" style="fill:rgb(70,119,188);fill-rule:nonzero;"/>
        </g>
        <g transform="matrix(1,0,0,1,375.713,361.992)">
            <g>
                <circle cx="40.085" cy="134.002" r="20.462" style="fill:rgb(70,119,188);"/>
                <circle id="second-outer2" cx="40.085" cy="134.002" r="28.533" style="fill:none;stroke:rgb(200,214,235);stroke-width:2px;"/>
                <circle id="third-outer2" cx="40.085" cy="134.002" r="38.353" style="fill:none;stroke:rgb(236,241,248);stroke-width:2px;"/>
            </g>
        </g>
        <g transform="matrix(1,0,0,1,375.713,361.992)">
            <path d="M338.004,265.998L247.931,318.002L208.967,295.506L333.675,223.506L270.11,186.807L247.931,174.002" style="fill:none;stroke:rgb(228,228,228);stroke-width:1px;"/>
        </g>
        <g transform="matrix(1,0,0,1,375.713,361.992)">
            <path id="service1path" d="M204.536,39.056L123.223,86.002L247.931,158.002L192.505,190.002" style="fill:none;stroke:rgb(228,228,228);stroke-width:1px;"/>
        </g>
        <g transform="matrix(1,0,0,1,375.713,361.992)">
            <g transform="matrix(0.223222,0,0,0.223222,-795.527,-411.226)">
                <path d="M4331.58,2848L4553.28,2976L4331.58,3104L4109.88,2976L4054.45,2944L4165.3,2880L4220.73,2912L4331.58,2848Z" style="fill:rgb(39,70,116);fill-opacity:0.101961;"/>
            </g>
        </g>
        <g transform="matrix(1,0,0,1,375.713,361.992)">
            <g transform="matrix(0.223222,0,0,0.223222,355.497,9.71184)">
                <g transform="matrix(1,0,0,1,-6154.07,-1885.74)">
                    <path d="M5162.96,2688L5384.66,2816L5384.66,3072L5162.96,2944L5162.96,2688Z" style="fill:rgb(39,70,116);"/>
                </g>
                <g transform="matrix(1,0,0,1,-6154.07,-1885.74)">
                    <path d="M5606.37,2688L5606.37,2944L5384.66,3072L5384.66,2816L5606.37,2688Z" style="fill:rgb(55,93,148);"/>
                </g>
            </g>
        </g>
        <g transform="matrix(1,0,0,1,375.713,361.992)">
            <g transform="matrix(0.223222,0,0,0.223222,-857.388,-332.652)">
                <path d="M4664.13,2208L4664.13,2464L4442.43,2336L4664.13,2208" style="fill:rgb(215,223,236);stroke:rgb(229,234,241);stroke-width:4.48px;stroke-miterlimit:1.41421;"/>
            </g>
        </g>
        <g transform="matrix(1,0,0,1,375.713,361.992)">
            <g transform="matrix(0.223222,0,0,0.223222,-857.388,-332.652)">
                <path d="M4664.13,2208L4885.83,2336L4664.13,2464L4664.13,2208Z" style="fill:rgb(229,234,241);stroke:rgb(229,234,241);stroke-width:4.48px;stroke-miterlimit:1.41421;"/>
            </g>
        </g>
    </g>
</svg>
