<?xml version="1.0" encoding="UTF-8" standalone="no"?><!DOCTYPE svg PUBLIC "-//W3C//DTD SVG 1.1//EN" "http://www.w3.org/Graphics/SVG/1.1/DTD/svg11.dtd"><svg width="100%" height="100%" viewBox="0 0 427 393" version="1.1" xmlns="http://www.w3.org/2000/svg" xmlns:xlink="http://www.w3.org/1999/xlink" xml:space="preserve" style="fill-rule:evenodd;clip-rule:evenodd;stroke-linecap:round;stroke-linejoin:round;stroke-miterlimit:1.41421;"><g><g><g><path d="M178.649,224.085l55.425,-32l-55.425,-32l-55.426,32l55.426,32Z" style="fill:none;stroke-width:1px;stroke:#ededed;"/><path d="M247.931,264.085l55.425,-32l-55.425,-32l-55.426,32l55.426,32Z" style="fill:none;stroke-width:1px;stroke:#ededed;"/><path d="M109.367,264.085l55.425,-32l-55.425,-32l-55.426,32l55.426,32Z" style="fill:none;stroke-width:1px;stroke:#ededed;"/><path d="M109.367,344.085l55.425,-32l-55.425,-32l-55.426,32l55.426,32Z" style="fill:none;stroke-width:1px;stroke:#ededed;"/><path d="M95.51,272.085l-69.282,40l138.564,80" style="fill:none;stroke-width:1px;stroke:#e4e4e4;"/><g><g><circle cx="247.931" cy="40.085" r="20.462" style="fill:#4677bc;"/><circle cx="247.931" cy="40.085" r="28.533" style="fill:none;stroke-width:2px;stroke:#4677bc;stroke-opacity:0.3;"/><circle cx="247.931" cy="40.085" r="38.353" style="fill:none;stroke-width:2px;stroke:#4677bc;stroke-opacity:2.11;"/></g><text x="214.325px" y="102.934px" style="font-family:'RobotoMono-Regular', 'Roboto Mono';font-size:14px;fill:#4677bc;">10.0.0.1</text></g><g><g><circle cx="386.495" cy="260.58" r="20.462" style="fill:#4677bc;"/><circle cx="386.495" cy="260.58" r="28.533" style="fill:none;stroke-width:2px;stroke:#4677bc;stroke-opacity:0.3;"/><circle cx="386.495" cy="260.58" r="38.353" style="fill:none;stroke-width:2px;stroke:#4677bc;stroke-opacity:2.11;"/></g><g><path d="M358.18,323.43l-1.264,0l0,-8.34l-2.605,0.991l0,-1.155l3.767,-1.449l0.102,0l0,9.953Z" style="fill:#4677bc;fill-rule:nonzero;"/><path d="M368.728,319.622c0,0.634 -0.073,1.196 -0.218,1.686c-0.146,0.489 -0.356,0.902 -0.629,1.237c-0.274,0.335 -0.609,0.589 -1.005,0.762c-0.397,0.173 -0.85,0.26 -1.361,0.26c-0.505,0 -0.958,-0.087 -1.357,-0.26c-0.398,-0.173 -0.737,-0.427 -1.015,-0.762c-0.278,-0.335 -0.491,-0.748 -0.639,-1.237c-0.148,-0.49 -0.222,-1.052 -0.222,-1.686l0,-2.331c0,-0.633 0.073,-1.195 0.219,-1.685c0.146,-0.49 0.356,-0.903 0.632,-1.24c0.276,-0.338 0.613,-0.594 1.012,-0.769c0.399,-0.176 0.851,-0.264 1.357,-0.264c0.51,0 0.965,0.088 1.364,0.264c0.398,0.175 0.736,0.431 1.011,0.769c0.276,0.337 0.487,0.75 0.633,1.24c0.145,0.49 0.218,1.052 0.218,1.685l0,2.331ZM363.553,319.37l3.876,-2.974c-0.072,-0.661 -0.265,-1.163 -0.577,-1.507c-0.312,-0.344 -0.762,-0.517 -1.35,-0.517c-0.666,0 -1.157,0.225 -1.473,0.674c-0.317,0.449 -0.476,1.104 -0.476,1.965l0,2.359ZM367.457,317.606l-3.869,2.96c0.077,0.642 0.275,1.132 0.594,1.47c0.319,0.337 0.764,0.505 1.333,0.505c0.67,0 1.161,-0.227 1.474,-0.683c0.312,-0.456 0.468,-1.112 0.468,-1.969l0,-2.283Z" style="fill:#4677bc;fill-rule:nonzero;"/><path d="M373.083,322.61c0,-0.137 0.021,-0.265 0.065,-0.383c0.043,-0.119 0.106,-0.222 0.188,-0.311c0.082,-0.089 0.184,-0.158 0.307,-0.209c0.123,-0.05 0.267,-0.075 0.431,-0.075c0.164,0 0.309,0.025 0.434,0.075c0.125,0.051 0.23,0.12 0.315,0.209c0.084,0.089 0.148,0.192 0.191,0.311c0.043,0.118 0.065,0.246 0.065,0.383c0,0.132 -0.022,0.256 -0.065,0.372c-0.043,0.117 -0.107,0.218 -0.191,0.305c-0.085,0.086 -0.19,0.153 -0.315,0.201c-0.125,0.048 -0.27,0.072 -0.434,0.072c-0.164,0 -0.308,-0.024 -0.431,-0.072c-0.123,-0.048 -0.225,-0.115 -0.307,-0.201c-0.082,-0.087 -0.145,-0.188 -0.188,-0.305c-0.044,-0.116 -0.065,-0.24 -0.065,-0.372Z" style="fill:#4677bc;fill-rule:nonzero;"/><path d="M385.531,319.622c0,0.634 -0.073,1.196 -0.219,1.686c-0.146,0.489 -0.355,0.902 -0.629,1.237c-0.273,0.335 -0.608,0.589 -1.005,0.762c-0.396,0.173 -0.849,0.26 -1.36,0.26c-0.506,0 -0.958,-0.087 -1.357,-0.26c-0.399,-0.173 -0.737,-0.427 -1.015,-0.762c-0.278,-0.335 -0.491,-0.748 -0.639,-1.237c-0.148,-0.49 -0.222,-1.052 -0.222,-1.686l0,-2.331c0,-0.633 0.073,-1.195 0.218,-1.685c0.146,-0.49 0.357,-0.903 0.633,-1.24c0.276,-0.338 0.613,-0.594 1.012,-0.769c0.398,-0.176 0.851,-0.264 1.356,-0.264c0.511,0 0.965,0.088 1.364,0.264c0.399,0.175 0.736,0.431 1.012,0.769c0.276,0.337 0.486,0.75 0.632,1.24c0.146,0.49 0.219,1.052 0.219,1.685l0,2.331ZM380.356,319.37l3.876,-2.974c-0.073,-0.661 -0.265,-1.163 -0.577,-1.507c-0.313,-0.344 -0.763,-0.517 -1.351,-0.517c-0.665,0 -1.156,0.225 -1.473,0.674c-0.316,0.449 -0.475,1.104 -0.475,1.965l0,2.359ZM384.26,317.606l-3.87,2.96c0.078,0.642 0.276,1.132 0.595,1.47c0.319,0.337 0.763,0.505 1.333,0.505c0.67,0 1.161,-0.227 1.473,-0.683c0.312,-0.456 0.469,-1.112 0.469,-1.969l0,-2.283Z" style="fill:#4677bc;fill-rule:nonzero;"/><path d="M389.886,322.61c0,-0.137 0.021,-0.265 0.064,-0.383c0.044,-0.119 0.106,-0.222 0.188,-0.311c0.082,-0.089 0.185,-0.158 0.308,-0.209c0.123,-0.05 0.267,-0.075 0.431,-0.075c0.164,0 0.308,0.025 0.434,0.075c0.125,0.051 0.23,0.12 0.314,0.209c0.085,0.089 0.148,0.192 0.192,0.311c0.043,0.118 0.065,0.246 0.065,0.383c0,0.132 -0.022,0.256 -0.065,0.372c-0.044,0.117 -0.107,0.218 -0.192,0.305c-0.084,0.086 -0.189,0.153 -0.314,0.201c-0.126,0.048 -0.27,0.072 -0.434,0.072c-0.164,0 -0.308,-0.024 -0.431,-0.072c-0.123,-0.048 -0.226,-0.115 -0.308,-0.201c-0.082,-0.087 -0.144,-0.188 -0.188,-0.305c-0.043,-0.116 -0.064,-0.24 -0.064,-0.372Z" style="fill:#4677bc;fill-rule:nonzero;"/><path d="M402.334,319.622c0,0.634 -0.073,1.196 -0.219,1.686c-0.146,0.489 -0.355,0.902 -0.629,1.237c-0.273,0.335 -0.608,0.589 -1.005,0.762c-0.396,0.173 -0.85,0.26 -1.36,0.26c-0.506,0 -0.958,-0.087 -1.357,-0.26c-0.399,-0.173 -0.737,-0.427 -1.015,-0.762c-0.278,-0.335 -0.491,-0.748 -0.639,-1.237c-0.148,-0.49 -0.223,-1.052 -0.223,-1.686l0,-2.331c0,-0.633 0.073,-1.195 0.219,-1.685c0.146,-0.49 0.357,-0.903 0.633,-1.24c0.275,-0.338 0.613,-0.594 1.011,-0.769c0.399,-0.176 0.851,-0.264 1.357,-0.264c0.511,0 0.965,0.088 1.364,0.264c0.399,0.175 0.736,0.431 1.012,0.769c0.275,0.337 0.486,0.75 0.632,1.24c0.146,0.49 0.219,1.052 0.219,1.685l0,2.331ZM397.159,319.37l3.876,-2.974c-0.073,-0.661 -0.266,-1.163 -0.578,-1.507c-0.312,-0.344 -0.762,-0.517 -1.35,-0.517c-0.665,0 -1.156,0.225 -1.473,0.674c-0.317,0.449 -0.475,1.104 -0.475,1.965l0,2.359ZM401.062,317.606l-3.869,2.96c0.078,0.642 0.276,1.132 0.595,1.47c0.319,0.337 0.763,0.505 1.333,0.505c0.67,0 1.161,-0.227 1.473,-0.683c0.312,-0.456 0.468,-1.112 0.468,-1.969l0,-2.283Z" style="fill:#4677bc;fill-rule:nonzero;"/><path d="M406.688,322.61c0,-0.137 0.022,-0.265 0.065,-0.383c0.043,-0.119 0.106,-0.222 0.188,-0.311c0.082,-0.089 0.185,-0.158 0.308,-0.209c0.123,-0.05 0.266,-0.075 0.43,-0.075c0.165,0 0.309,0.025 0.435,0.075c0.125,0.051 0.23,0.12 0.314,0.209c0.084,0.089 0.148,0.192 0.191,0.311c0.044,0.118 0.065,0.246 0.065,0.383c0,0.132 -0.021,0.256 -0.065,0.372c-0.043,0.117 -0.107,0.218 -0.191,0.305c-0.084,0.086 -0.189,0.153 -0.314,0.201c-0.126,0.048 -0.27,0.072 -0.435,0.072c-0.164,0 -0.307,-0.024 -0.43,-0.072c-0.123,-0.048 -0.226,-0.115 -0.308,-0.201c-0.082,-0.087 -0.145,-0.188 -0.188,-0.305c-0.043,-0.116 -0.065,-0.24 -0.065,-0.372Z" style="fill:#4677bc;fill-rule:nonzero;"/><path d="M414.365,317.845l0.902,0c0.319,0 0.601,-0.043 0.845,-0.13c0.243,-0.086 0.448,-0.205 0.615,-0.355c0.166,-0.151 0.293,-0.331 0.379,-0.54c0.087,-0.21 0.13,-0.44 0.13,-0.691c0,-0.578 -0.148,-1.015 -0.444,-1.309c-0.296,-0.294 -0.729,-0.441 -1.299,-0.441c-0.269,0 -0.514,0.04 -0.735,0.12c-0.221,0.08 -0.41,0.195 -0.567,0.345c-0.158,0.151 -0.279,0.331 -0.366,0.54c-0.087,0.21 -0.13,0.445 -0.13,0.704l-1.271,0c0,-0.378 0.074,-0.735 0.222,-1.07c0.148,-0.334 0.356,-0.626 0.625,-0.875c0.269,-0.248 0.592,-0.444 0.968,-0.587c0.376,-0.144 0.794,-0.216 1.254,-0.216c0.447,0 0.854,0.061 1.224,0.181c0.369,0.121 0.685,0.3 0.95,0.537c0.264,0.237 0.469,0.531 0.615,0.882c0.146,0.351 0.219,0.756 0.219,1.217c0,0.191 -0.03,0.389 -0.089,0.594c-0.059,0.205 -0.151,0.405 -0.274,0.599c-0.123,0.193 -0.281,0.376 -0.475,0.546c-0.193,0.171 -0.425,0.314 -0.693,0.428c0.323,0.104 0.593,0.241 0.81,0.41c0.216,0.168 0.389,0.358 0.519,0.567c0.13,0.21 0.221,0.431 0.274,0.663c0.052,0.233 0.078,0.463 0.078,0.691c0,0.465 -0.08,0.877 -0.239,1.237c-0.16,0.36 -0.381,0.664 -0.663,0.913c-0.283,0.248 -0.617,0.437 -1.002,0.567c-0.385,0.13 -0.801,0.195 -1.247,0.195c-0.438,0 -0.849,-0.062 -1.234,-0.185c-0.385,-0.123 -0.719,-0.303 -1.002,-0.54c-0.282,-0.237 -0.507,-0.526 -0.673,-0.868c-0.166,-0.342 -0.249,-0.731 -0.249,-1.169l1.264,0c0,0.26 0.045,0.497 0.134,0.711c0.088,0.214 0.215,0.397 0.379,0.547c0.164,0.15 0.363,0.267 0.598,0.349c0.235,0.082 0.496,0.123 0.783,0.123c0.287,0 0.547,-0.038 0.779,-0.113c0.232,-0.075 0.431,-0.19 0.595,-0.345c0.164,-0.155 0.29,-0.348 0.379,-0.578c0.089,-0.23 0.133,-0.502 0.133,-0.817c0,-0.31 -0.051,-0.578 -0.153,-0.803c-0.103,-0.226 -0.246,-0.414 -0.431,-0.564c-0.185,-0.151 -0.408,-0.262 -0.67,-0.335c-0.262,-0.073 -0.55,-0.109 -0.865,-0.109l-0.902,0l0,-1.026Z" style="fill:#4677bc;fill-rule:nonzero;"/></g></g><path d="M83.265,185.015l26.102,15.07l-69.282,40l55.425,32" style="fill:none;stroke-width:1px;stroke:#e4e4e4;"/><g><path d="M11.77,109.987l-1.264,0l0,-8.34l-2.605,0.991l0,-1.155l3.767,-1.449l0.102,0l0,9.953Z" style="fill:#4677bc;fill-rule:nonzero;"/><path d="M22.318,106.179c0,0.634 -0.073,1.195 -0.219,1.685c-0.145,0.49 -0.355,0.903 -0.629,1.238c-0.273,0.335 -0.608,0.589 -1.004,0.762c-0.397,0.173 -0.85,0.26 -1.361,0.26c-0.506,0 -0.958,-0.087 -1.357,-0.26c-0.398,-0.173 -0.737,-0.427 -1.015,-0.762c-0.278,-0.335 -0.491,-0.748 -0.639,-1.238c-0.148,-0.49 -0.222,-1.051 -0.222,-1.685l0,-2.331c0,-0.633 0.073,-1.195 0.219,-1.685c0.145,-0.49 0.356,-0.903 0.632,-1.241c0.276,-0.337 0.613,-0.593 1.012,-0.769c0.398,-0.175 0.851,-0.263 1.357,-0.263c0.51,0 0.965,0.088 1.363,0.263c0.399,0.176 0.736,0.432 1.012,0.769c0.276,0.338 0.487,0.751 0.632,1.241c0.146,0.49 0.219,1.052 0.219,1.685l0,2.331ZM17.143,105.926l3.876,-2.973c-0.073,-0.661 -0.265,-1.164 -0.577,-1.508c-0.313,-0.344 -0.763,-0.516 -1.35,-0.516c-0.666,0 -1.157,0.225 -1.474,0.674c-0.316,0.448 -0.475,1.104 -0.475,1.965l0,2.358ZM21.047,104.163l-3.869,2.96c0.077,0.642 0.275,1.132 0.594,1.469c0.319,0.338 0.764,0.506 1.333,0.506c0.67,0 1.161,-0.228 1.473,-0.683c0.313,-0.456 0.469,-1.112 0.469,-1.969l0,-2.283Z" style="fill:#4677bc;fill-rule:nonzero;"/><path d="M26.673,109.167c0,-0.137 0.021,-0.265 0.065,-0.383c0.043,-0.119 0.106,-0.222 0.188,-0.311c0.082,-0.089 0.184,-0.159 0.307,-0.209c0.123,-0.05 0.267,-0.075 0.431,-0.075c0.164,0 0.309,0.025 0.434,0.075c0.125,0.05 0.23,0.12 0.314,0.209c0.085,0.089 0.148,0.192 0.192,0.311c0.043,0.118 0.065,0.246 0.065,0.383c0,0.132 -0.022,0.256 -0.065,0.372c-0.044,0.116 -0.107,0.218 -0.192,0.304c-0.084,0.087 -0.189,0.154 -0.314,0.202c-0.125,0.048 -0.27,0.072 -0.434,0.072c-0.164,0 -0.308,-0.024 -0.431,-0.072c-0.123,-0.048 -0.225,-0.115 -0.307,-0.202c-0.082,-0.086 -0.145,-0.188 -0.188,-0.304c-0.044,-0.116 -0.065,-0.24 -0.065,-0.372Z" style="fill:#4677bc;fill-rule:nonzero;"/><path d="M39.121,106.179c0,0.634 -0.073,1.195 -0.219,1.685c-0.146,0.49 -0.355,0.903 -0.629,1.238c-0.273,0.335 -0.608,0.589 -1.005,0.762c-0.396,0.173 -0.85,0.26 -1.36,0.26c-0.506,0 -0.958,-0.087 -1.357,-0.26c-0.399,-0.173 -0.737,-0.427 -1.015,-0.762c-0.278,-0.335 -0.491,-0.748 -0.639,-1.238c-0.148,-0.49 -0.222,-1.051 -0.222,-1.685l0,-2.331c0,-0.633 0.072,-1.195 0.218,-1.685c0.146,-0.49 0.357,-0.903 0.633,-1.241c0.275,-0.337 0.613,-0.593 1.011,-0.769c0.399,-0.175 0.851,-0.263 1.357,-0.263c0.511,0 0.965,0.088 1.364,0.263c0.399,0.176 0.736,0.432 1.012,0.769c0.276,0.338 0.486,0.751 0.632,1.241c0.146,0.49 0.219,1.052 0.219,1.685l0,2.331ZM33.946,105.926l3.876,-2.973c-0.073,-0.661 -0.265,-1.164 -0.578,-1.508c-0.312,-0.344 -0.762,-0.516 -1.35,-0.516c-0.665,0 -1.156,0.225 -1.473,0.674c-0.317,0.448 -0.475,1.104 -0.475,1.965l0,2.358ZM37.849,104.163l-3.869,2.96c0.078,0.642 0.276,1.132 0.595,1.469c0.319,0.338 0.763,0.506 1.333,0.506c0.67,0 1.161,-0.228 1.473,-0.683c0.312,-0.456 0.468,-1.112 0.468,-1.969l0,-2.283Z" style="fill:#4677bc;fill-rule:nonzero;"/><path d="M43.475,109.167c0,-0.137 0.022,-0.265 0.065,-0.383c0.044,-0.119 0.106,-0.222 0.188,-0.311c0.082,-0.089 0.185,-0.159 0.308,-0.209c0.123,-0.05 0.267,-0.075 0.431,-0.075c0.164,0 0.308,0.025 0.434,0.075c0.125,0.05 0.23,0.12 0.314,0.209c0.084,0.089 0.148,0.192 0.192,0.311c0.043,0.118 0.064,0.246 0.064,0.383c0,0.132 -0.021,0.256 -0.064,0.372c-0.044,0.116 -0.108,0.218 -0.192,0.304c-0.084,0.087 -0.189,0.154 -0.314,0.202c-0.126,0.048 -0.27,0.072 -0.434,0.072c-0.164,0 -0.308,-0.024 -0.431,-0.072c-0.123,-0.048 -0.226,-0.115 -0.308,-0.202c-0.082,-0.086 -0.144,-0.188 -0.188,-0.304c-0.043,-0.116 -0.065,-0.24 -0.065,-0.372Z" style="fill:#4677bc;fill-rule:nonzero;"/><path d="M55.924,106.179c0,0.634 -0.073,1.195 -0.219,1.685c-0.146,0.49 -0.356,0.903 -0.629,1.238c-0.273,0.335 -0.608,0.589 -1.005,0.762c-0.396,0.173 -0.85,0.26 -1.36,0.26c-0.506,0 -0.958,-0.087 -1.357,-0.26c-0.399,-0.173 -0.737,-0.427 -1.015,-0.762c-0.278,-0.335 -0.491,-0.748 -0.64,-1.238c-0.148,-0.49 -0.222,-1.051 -0.222,-1.685l0,-2.331c0,-0.633 0.073,-1.195 0.219,-1.685c0.146,-0.49 0.357,-0.903 0.632,-1.241c0.276,-0.337 0.613,-0.593 1.012,-0.769c0.399,-0.175 0.851,-0.263 1.357,-0.263c0.51,0 0.965,0.088 1.364,0.263c0.399,0.176 0.736,0.432 1.012,0.769c0.275,0.338 0.486,0.751 0.632,1.241c0.146,0.49 0.219,1.052 0.219,1.685l0,2.331ZM50.749,105.926l3.876,-2.973c-0.073,-0.661 -0.266,-1.164 -0.578,-1.508c-0.312,-0.344 -0.762,-0.516 -1.35,-0.516c-0.665,0 -1.156,0.225 -1.473,0.674c-0.317,0.448 -0.475,1.104 -0.475,1.965l0,2.358ZM54.652,104.163l-3.869,2.96c0.077,0.642 0.276,1.132 0.595,1.469c0.319,0.338 0.763,0.506 1.333,0.506c0.67,0 1.161,-0.228 1.473,-0.683c0.312,-0.456 0.468,-1.112 0.468,-1.969l0,-2.283Z" style="fill:#4677bc;fill-rule:nonzero;"/><path d="M60.278,109.167c0,-0.137 0.022,-0.265 0.065,-0.383c0.043,-0.119 0.106,-0.222 0.188,-0.311c0.082,-0.089 0.185,-0.159 0.308,-0.209c0.123,-0.05 0.266,-0.075 0.43,-0.075c0.164,0 0.309,0.025 0.434,0.075c0.126,0.05 0.231,0.12 0.315,0.209c0.084,0.089 0.148,0.192 0.191,0.311c0.044,0.118 0.065,0.246 0.065,0.383c0,0.132 -0.021,0.256 -0.065,0.372c-0.043,0.116 -0.107,0.218 -0.191,0.304c-0.084,0.087 -0.189,0.154 -0.315,0.202c-0.125,0.048 -0.27,0.072 -0.434,0.072c-0.164,0 -0.307,-0.024 -0.43,-0.072c-0.123,-0.048 -0.226,-0.115 -0.308,-0.202c-0.082,-0.086 -0.145,-0.188 -0.188,-0.304c-0.043,-0.116 -0.065,-0.24 -0.065,-0.372Z" style="fill:#4677bc;fill-rule:nonzero;"/><path d="M72.583,109.987l-6.522,0l0,-0.909l3.261,-3.623c0.292,-0.324 0.536,-0.611 0.731,-0.862c0.196,-0.25 0.354,-0.482 0.472,-0.694c0.119,-0.211 0.203,-0.412 0.253,-0.601c0.05,-0.189 0.075,-0.384 0.075,-0.585c0,-0.246 -0.04,-0.477 -0.119,-0.693c-0.08,-0.217 -0.196,-0.405 -0.349,-0.564c-0.153,-0.16 -0.337,-0.286 -0.554,-0.38c-0.216,-0.093 -0.461,-0.14 -0.735,-0.14c-0.332,0 -0.62,0.048 -0.864,0.144c-0.244,0.095 -0.447,0.231 -0.609,0.406c-0.161,0.176 -0.282,0.389 -0.362,0.64c-0.08,0.25 -0.12,0.53 -0.12,0.84l-1.271,0c0,-0.419 0.073,-0.814 0.219,-1.186c0.145,-0.371 0.356,-0.696 0.632,-0.974c0.276,-0.278 0.613,-0.499 1.012,-0.663c0.398,-0.164 0.853,-0.246 1.363,-0.246c0.47,0 0.893,0.07 1.269,0.209c0.375,0.139 0.693,0.331 0.953,0.577c0.26,0.246 0.459,0.538 0.598,0.875c0.139,0.337 0.209,0.704 0.209,1.101c0,0.296 -0.05,0.589 -0.151,0.878c-0.1,0.29 -0.235,0.576 -0.406,0.858c-0.171,0.283 -0.369,0.562 -0.595,0.837c-0.226,0.276 -0.464,0.551 -0.714,0.824l-2.673,2.899l4.997,0l0,1.032Z" style="fill:#4677bc;fill-rule:nonzero;"/></g><g><circle cx="40.085" cy="160.085" r="20.462" style="fill:#4677bc;"/><circle cx="40.085" cy="160.085" r="28.533" style="fill:none;stroke-width:2px;stroke:#4677bc;stroke-opacity:0.3;"/><circle cx="40.085" cy="160.085" r="38.353" style="fill:none;stroke-width:2px;stroke:#4677bc;stroke-opacity:2.11;"/></g><path d="M338.004,292.081l-90.073,52.004l-38.964,-22.496l124.708,-72l-63.565,-36.699l-22.179,-12.805" style="fill:none;stroke-width:1px;stroke:#e4e4e4;"/><path d="M204.536,65.139l-81.313,46.946l124.708,72l-55.426,32" style="fill:none;stroke-width:1px;stroke:#e4e4e4;"/><path d="M123.223,240.085l0,32l55.426,32l0,-32l-55.426,-32Z" style="fill:#dadada;"/><path d="M178.649,272.085l0,32l55.425,-32l0,-32l-55.425,32Z" style="fill:#e8e8e8;"/><path d="M123.223,240.085l55.426,-32l55.425,32l-55.425,32l-55.426,-32Z" style="fill:#808080;"/></g></g></g></svg>