<svg viewBox="0 0 427 367" xmlns="http://www.w3.org/2000/svg" fill-rule="evenodd" clip-rule="evenodd" stroke-linecap="round" stroke-linejoin="round" stroke-miterlimit="1.41421">
  <g>
    <g>
      <path d="M178.649 198.002l55.425-32-55.425-32-55.426 32 55.426 32zM247.931 238.002l55.425-32-55.425-32-55.426 32 55.426 32zM109.367 238.002l55.425-32-55.425-32-55.426 32 55.426 32zM109.367 318.002l55.425-32-55.425-32-55.426 32 55.426 32z" fill="none" stroke="#ededed"/>
      <path d="M95.51 246.002l-69.282 40 138.564 80" fill="none" stroke="#e4e4e4"/>
      <g>
        <g>
          <path d="M224.616 10.097h-1.264v-8.34l-2.605.991V1.593l3.767-1.449h.102v9.953zM235.164 6.289c0 .634-.073 1.195-.219 1.685-.145.49-.355.902-.628 1.237-.274.335-.609.589-1.005.763-.397.173-.85.259-1.361.259-.506 0-.958-.086-1.357-.259-.398-.174-.737-.428-1.015-.763-.278-.335-.491-.747-.639-1.237-.148-.49-.222-1.051-.222-1.685V3.958c0-.633.073-1.195.219-1.685.146-.49.356-.904.632-1.241.276-.337.613-.593 1.012-.769.398-.175.851-.263 1.357-.263.51 0 .965.088 1.363.263.399.176.736.432 1.012.769s.487.751.632 1.241c.146.49.219 1.052.219 1.685v2.331zm-5.175-.253l3.876-2.974c-.073-.66-.265-1.163-.577-1.507-.312-.344-.762-.516-1.35-.516-.666 0-1.157.225-1.473.673-.317.449-.476 1.104-.476 1.966v2.358zm3.904-1.764l-3.869 2.96c.077.643.275 1.133.594 1.47.319.337.764.506 1.333.506.67 0 1.161-.228 1.473-.684.313-.455.469-1.112.469-1.968V4.272zM239.519 9.276c0-.136.021-.264.065-.382.043-.119.106-.223.188-.311.082-.089.184-.159.307-.209.123-.05.267-.075.431-.075.164 0 .309.025.434.075.125.05.23.12.314.209.085.088.149.192.192.311.043.118.065.246.065.382 0 .133-.022.257-.065.373-.043.116-.107.218-.192.304-.084.087-.189.154-.314.202-.125.048-.27.072-.434.072-.164 0-.308-.024-.431-.072-.123-.048-.225-.115-.307-.202-.082-.086-.145-.188-.188-.304-.044-.116-.065-.24-.065-.373zM251.967 6.289c0 .634-.073 1.195-.219 1.685-.146.49-.355.902-.629 1.237-.273.335-.608.589-1.005.763-.396.173-.85.259-1.36.259-.506 0-.958-.086-1.357-.259-.399-.174-.737-.428-1.015-.763-.278-.335-.491-.747-.639-1.237-.148-.49-.222-1.051-.222-1.685V3.958c0-.633.073-1.195.218-1.685.146-.49.357-.904.633-1.241.275-.337.613-.593 1.011-.769.399-.175.852-.263 1.357-.263.511 0 .965.088 1.364.263.399.176.736.432 1.012.769s.486.751.632 1.241c.146.49.219 1.052.219 1.685v2.331zm-5.175-.253l3.876-2.974c-.073-.66-.265-1.163-.578-1.507-.312-.344-.762-.516-1.35-.516-.665 0-1.156.225-1.473.673-.316.449-.475 1.104-.475 1.966v2.358zm3.903-1.764l-3.869 2.96c.078.643.276 1.133.595 1.47.319.337.763.506 1.333.506.67 0 1.161-.228 1.473-.684.312-.455.468-1.112.468-1.968V4.272zM256.321 9.276c0-.136.022-.264.065-.382.044-.119.106-.223.188-.311.082-.089.185-.159.308-.209.123-.05.267-.075.431-.075.164 0 .308.025.434.075.125.05.23.12.314.209.085.088.148.192.192.311.043.118.065.246.065.382 0 .133-.022.257-.065.373-.044.116-.107.218-.192.304-.084.087-.189.154-.314.202-.126.048-.27.072-.434.072-.164 0-.308-.024-.431-.072-.123-.048-.226-.115-.308-.202-.082-.086-.144-.188-.188-.304-.043-.116-.065-.24-.065-.373zM268.77 6.289c0 .634-.073 1.195-.219 1.685-.146.49-.356.902-.629 1.237-.273.335-.608.589-1.005.763-.396.173-.85.259-1.36.259-.506 0-.958-.086-1.357-.259-.399-.174-.737-.428-1.015-.763-.278-.335-.491-.747-.639-1.237-.149-.49-.223-1.051-.223-1.685V3.958c0-.633.073-1.195.219-1.685.146-.49.357-.904.632-1.241.276-.337.613-.593 1.012-.769.399-.175.851-.263 1.357-.263.511 0 .965.088 1.364.263.399.176.736.432 1.012.769.275.337.486.751.632 1.241.146.49.219 1.052.219 1.685v2.331zm-5.175-.253l3.876-2.974c-.073-.66-.266-1.163-.578-1.507-.312-.344-.762-.516-1.35-.516-.665 0-1.156.225-1.473.673-.317.449-.475 1.104-.475 1.966v2.358zm3.903-1.764l-3.869 2.96c.078.643.276 1.133.595 1.47.319.337.763.506 1.333.506.67 0 1.161-.228 1.473-.684.312-.455.468-1.112.468-1.968V4.272zM273.124 9.276c0-.136.022-.264.065-.382.043-.119.106-.223.188-.311.082-.089.185-.159.308-.209.123-.05.266-.075.43-.075.164 0 .309.025.434.075.126.05.231.12.315.209.084.088.148.192.191.311.044.118.065.246.065.382 0 .133-.021.257-.065.373-.043.116-.107.218-.191.304-.084.087-.189.154-.315.202-.125.048-.27.072-.434.072-.164 0-.307-.024-.43-.072-.123-.048-.226-.115-.308-.202-.082-.086-.145-.188-.188-.304-.043-.116-.065-.24-.065-.373zM283.426 10.097h-1.265v-8.34l-2.604.991V1.593l3.766-1.449h.103v9.953z" fill="#4677bc" fill-rule="nonzero"/>
        </g>
      </g>
      <circle cx="252.931" cy="59.247" r="20.462" fill="#4677bc"/>
      <circle id="second-outer" cx="252.931" cy="59.247" r="28.533" fill="none" stroke-width="2" stroke="#c8d6eb"/>
      <circle id="third-outer" cx="252.931" cy="59.247" r="38.353" fill="none" stroke-width="2" stroke="#ecf1f8"/>
      <g>
        <g>
          <circle cx="386.495" cy="264.951" r="20.462" fill="#4677bc"/>
          <circle id="second-outer1" cx="386.495" cy="264.951" r="28.533" fill="none" stroke-width="2" stroke="#c8d6eb"/>
          <circle id="third-outer1" cx="386.495" cy="264.951" r="38.353" fill="none" stroke-width="2" stroke="#ecf1f8"/>
        </g>
        <g>
          <path d="M358.18 215.293h-1.264v-8.34l-2.605.991v-1.155l3.767-1.449h.102v9.953zM368.728 211.485c0 .634-.073 1.195-.218 1.685-.146.49-.356.903-.629 1.238-.274.335-.609.589-1.005.762-.397.173-.85.26-1.361.26-.505 0-.958-.087-1.357-.26-.398-.173-.737-.427-1.015-.762-.278-.335-.491-.748-.639-1.238-.148-.49-.222-1.051-.222-1.685v-2.331c0-.633.073-1.195.219-1.685.146-.49.356-.903.632-1.241.276-.337.613-.593 1.012-.769.399-.175.851-.263 1.357-.263.51 0 .965.088 1.364.263.398.176.736.432 1.011.769.276.338.487.751.633 1.241.145.49.218 1.052.218 1.685v2.331zm-5.175-.253l3.876-2.973c-.072-.661-.265-1.164-.577-1.508-.312-.344-.762-.516-1.35-.516-.666 0-1.157.225-1.473.674-.317.448-.476 1.104-.476 1.965v2.358zm3.904-1.763l-3.869 2.96c.077.642.275 1.132.594 1.469.319.338.764.506 1.333.506.67 0 1.161-.228 1.474-.683.312-.456.468-1.112.468-1.969v-2.283zM373.083 214.473c0-.137.021-.265.065-.383.043-.119.106-.222.188-.311s.184-.159.307-.209c.123-.05.267-.075.431-.075.164 0 .309.025.434.075.125.05.23.12.315.209.084.089.148.192.191.311.043.118.065.246.065.383 0 .132-.022.256-.065.372-.043.116-.107.218-.191.304-.085.087-.19.154-.315.202-.125.048-.27.072-.434.072-.164 0-.308-.024-.431-.072-.123-.048-.225-.115-.307-.202-.082-.086-.145-.188-.188-.304-.044-.116-.065-.24-.065-.372zM385.531 211.485c0 .634-.073 1.195-.219 1.685-.146.49-.355.903-.629 1.238-.273.335-.608.589-1.005.762-.396.173-.849.26-1.36.26-.506 0-.958-.087-1.357-.26-.399-.173-.737-.427-1.015-.762-.278-.335-.491-.748-.639-1.238-.148-.49-.222-1.051-.222-1.685v-2.331c0-.633.073-1.195.218-1.685.146-.49.357-.903.633-1.241.276-.337.613-.593 1.012-.769.398-.175.851-.263 1.356-.263.511 0 .965.088 1.364.263.399.176.736.432 1.012.769.276.338.486.751.632 1.241.146.49.219 1.052.219 1.685v2.331zm-5.175-.253l3.876-2.973c-.073-.661-.265-1.164-.577-1.508-.313-.344-.763-.516-1.351-.516-.665 0-1.156.225-1.473.674-.316.448-.475 1.104-.475 1.965v2.358zm3.904-1.763l-3.87 2.96c.078.642.276 1.132.595 1.469.319.338.763.506 1.333.506.67 0 1.161-.228 1.473-.683.312-.456.469-1.112.469-1.969v-2.283zM389.886 214.473c0-.137.021-.265.064-.383.044-.119.106-.222.188-.311s.185-.159.308-.209c.123-.05.267-.075.431-.075.164 0 .308.025.434.075.125.05.23.12.314.209.085.089.148.192.192.311.043.118.065.246.065.383 0 .132-.022.256-.065.372-.044.116-.107.218-.192.304-.084.087-.189.154-.314.202-.126.048-.27.072-.434.072-.164 0-.308-.024-.431-.072-.123-.048-.226-.115-.308-.202-.082-.086-.144-.188-.188-.304-.043-.116-.064-.24-.064-.372zM402.334 211.485c0 .634-.073 1.195-.219 1.685-.146.49-.355.903-.629 1.238-.273.335-.608.589-1.005.762-.396.173-.85.26-1.36.26-.506 0-.958-.087-1.357-.26-.399-.173-.737-.427-1.015-.762-.278-.335-.491-.748-.639-1.238-.148-.49-.223-1.051-.223-1.685v-2.331c0-.633.073-1.195.219-1.685.146-.49.357-.903.633-1.241.275-.337.613-.593 1.011-.769.399-.175.851-.263 1.357-.263.511 0 .965.088 1.364.263.399.176.736.432 1.012.769.275.338.486.751.632 1.241.146.49.219 1.052.219 1.685v2.331zm-5.175-.253l3.876-2.973c-.073-.661-.266-1.164-.578-1.508-.312-.344-.762-.516-1.35-.516-.665 0-1.156.225-1.473.674-.317.448-.475 1.104-.475 1.965v2.358zm3.903-1.763l-3.869 2.96c.078.642.276 1.132.595 1.469.319.338.763.506 1.333.506.67 0 1.161-.228 1.473-.683.312-.456.468-1.112.468-1.969v-2.283zM406.688 214.473c0-.137.022-.265.065-.383.043-.119.106-.222.188-.311s.185-.159.308-.209c.123-.05.266-.075.43-.075.165 0 .309.025.435.075.125.05.23.12.314.209.084.089.148.192.191.311.044.118.065.246.065.383 0 .132-.021.256-.065.372-.043.116-.107.218-.191.304-.084.087-.189.154-.314.202-.126.048-.27.072-.435.072-.164 0-.307-.024-.43-.072-.123-.048-.226-.115-.308-.202-.082-.086-.145-.188-.188-.304-.043-.116-.065-.24-.065-.372zM414.365 209.708h.902c.319 0 .601-.043.845-.13.243-.087.448-.205.615-.355.166-.151.293-.331.379-.541.087-.209.13-.439.13-.69 0-.579-.148-1.015-.444-1.309-.296-.294-.729-.441-1.299-.441-.269 0-.514.04-.735.12-.221.079-.41.194-.567.345-.158.15-.279.33-.366.54-.087.21-.13.444-.13.704h-1.271c0-.378.074-.735.222-1.07.148-.335.356-.626.625-.875.269-.248.592-.444.968-.588.376-.143.794-.215 1.254-.215.447 0 .854.06 1.224.181.369.121.685.3.95.537.264.237.469.531.615.882.146.35.219.756.219 1.216 0 .192-.03.39-.089.595-.059.205-.151.405-.274.598-.123.194-.281.376-.475.547-.193.171-.425.313-.693.427.323.105.593.242.81.411.216.168.389.357.519.567.13.21.221.431.274.663.052.232.078.463.078.69 0 .465-.08.878-.239 1.238-.16.36-.381.664-.663.912-.283.249-.617.438-1.002.568-.385.13-.801.195-1.247.195-.438 0-.849-.062-1.234-.185s-.719-.303-1.002-.54c-.282-.237-.507-.526-.673-.868-.166-.342-.249-.732-.249-1.169h1.264c0 .26.045.497.134.711.088.214.215.396.379.547.164.15.363.266.598.348.235.082.496.123.783.123.287 0 .547-.037.779-.112.232-.076.431-.191.595-.346.164-.155.29-.347.379-.577.089-.23.133-.503.133-.817 0-.31-.051-.578-.153-.803-.103-.226-.246-.414-.431-.564-.185-.151-.408-.262-.67-.335-.262-.073-.55-.11-.865-.11h-.902v-1.025z" fill="#4677bc" fill-rule="nonzero"/>
        </g>
      </g>
      <path d="M83.265 158.932l26.102 15.07-69.282 40 55.425 32" fill="none" stroke="#e4e4e4"/>
      <g>
        <path d="M11.77 83.904h-1.264v-8.34l-2.605.992V75.4l3.767-1.449h.102v9.953zM22.318 80.097c0 .633-.073 1.195-.219 1.685-.145.49-.355.902-.629 1.237-.273.335-.608.589-1.004.762-.397.173-.85.26-1.361.26-.506 0-.958-.087-1.357-.26-.398-.173-.737-.427-1.015-.762-.278-.335-.491-.747-.639-1.237-.148-.49-.222-1.052-.222-1.685v-2.331c0-.634.073-1.196.219-1.685.145-.49.356-.904.632-1.241.276-.337.613-.594 1.012-.769.398-.176.851-.263 1.357-.263.51 0 .965.087 1.363.263.399.175.736.432 1.012.769s.487.751.632 1.241c.146.489.219 1.051.219 1.685v2.331zm-5.175-.253l3.876-2.974c-.073-.661-.265-1.163-.577-1.507-.313-.344-.763-.516-1.35-.516-.666 0-1.157.224-1.474.673-.316.449-.475 1.104-.475 1.965v2.359zm3.904-1.764l-3.869 2.96c.077.643.275 1.132.594 1.47.319.337.764.506 1.333.506.67 0 1.161-.228 1.473-.684.313-.456.469-1.112.469-1.969V78.08zM26.673 83.084c0-.137.021-.264.065-.383.043-.118.106-.222.188-.311s.184-.158.307-.208c.123-.051.267-.076.431-.076.164 0 .309.025.434.076.125.05.23.119.314.208.085.089.148.193.192.311.043.119.065.246.065.383 0 .132-.022.256-.065.373-.044.116-.107.217-.192.304-.084.086-.189.154-.314.201-.125.048-.27.072-.434.072-.164 0-.308-.024-.431-.072-.123-.047-.225-.115-.307-.201-.082-.087-.145-.188-.188-.304-.044-.117-.065-.241-.065-.373zM39.121 80.097c0 .633-.073 1.195-.219 1.685-.146.49-.355.902-.629 1.237-.273.335-.608.589-1.005.762-.396.173-.85.26-1.36.26-.506 0-.958-.087-1.357-.26-.399-.173-.737-.427-1.015-.762-.278-.335-.491-.747-.639-1.237-.148-.49-.222-1.052-.222-1.685v-2.331c0-.634.072-1.196.218-1.685.146-.49.357-.904.633-1.241.275-.337.613-.594 1.011-.769.399-.176.851-.263 1.357-.263.511 0 .965.087 1.364.263.399.175.736.432 1.012.769s.486.751.632 1.241c.146.489.219 1.051.219 1.685v2.331zm-5.175-.253l3.876-2.974c-.073-.661-.265-1.163-.578-1.507-.312-.344-.762-.516-1.35-.516-.665 0-1.156.224-1.473.673-.317.449-.475 1.104-.475 1.965v2.359zm3.903-1.764l-3.869 2.96c.078.643.276 1.132.595 1.47.319.337.763.506 1.333.506.67 0 1.161-.228 1.473-.684.312-.456.468-1.112.468-1.969V78.08zM43.475 83.084c0-.137.022-.264.065-.383.044-.118.106-.222.188-.311s.185-.158.308-.208c.123-.051.267-.076.431-.076.164 0 .308.025.434.076.125.05.23.119.314.208.084.089.148.193.192.311.043.119.064.246.064.383 0 .132-.021.256-.064.373-.044.116-.108.217-.192.304-.084.086-.189.154-.314.201-.126.048-.27.072-.434.072-.164 0-.308-.024-.431-.072-.123-.047-.226-.115-.308-.201-.082-.087-.144-.188-.188-.304-.043-.117-.065-.241-.065-.373zM55.924 80.097c0 .633-.073 1.195-.219 1.685-.146.49-.356.902-.629 1.237-.273.335-.608.589-1.005.762-.396.173-.85.26-1.36.26-.506 0-.958-.087-1.357-.26-.399-.173-.737-.427-1.015-.762-.278-.335-.491-.747-.64-1.237-.148-.49-.222-1.052-.222-1.685v-2.331c0-.634.073-1.196.219-1.685.146-.49.357-.904.632-1.241.276-.337.613-.594 1.012-.769.399-.176.851-.263 1.357-.263.51 0 .965.087 1.364.263.399.175.736.432 1.012.769.275.337.486.751.632 1.241.146.489.219 1.051.219 1.685v2.331zm-5.175-.253l3.876-2.974c-.073-.661-.266-1.163-.578-1.507-.312-.344-.762-.516-1.35-.516-.665 0-1.156.224-1.473.673-.317.449-.475 1.104-.475 1.965v2.359zm3.903-1.764l-3.869 2.96c.077.643.276 1.132.595 1.47.319.337.763.506 1.333.506.67 0 1.161-.228 1.473-.684.312-.456.468-1.112.468-1.969V78.08zM60.278 83.084c0-.137.022-.264.065-.383.043-.118.106-.222.188-.311s.185-.158.308-.208c.123-.051.266-.076.43-.076.164 0 .309.025.434.076.126.05.231.119.315.208.084.089.148.193.191.311.044.119.065.246.065.383 0 .132-.021.256-.065.373-.043.116-.107.217-.191.304-.084.086-.189.154-.315.201-.125.048-.27.072-.434.072-.164 0-.307-.024-.43-.072-.123-.047-.226-.115-.308-.201-.082-.087-.145-.188-.188-.304-.043-.117-.065-.241-.065-.373zM72.583 83.904h-6.522v-.909l3.261-3.623c.292-.324.536-.611.731-.861.196-.251.354-.482.472-.694.119-.212.203-.413.253-.602.05-.189.075-.384.075-.584 0-.246-.04-.478-.119-.694-.08-.216-.196-.404-.349-.564-.153-.159-.337-.286-.554-.379-.216-.094-.461-.141-.735-.141-.332 0-.62.048-.864.144-.244.096-.447.231-.609.407-.161.175-.282.388-.362.639-.08.251-.12.531-.12.841H65.87c0-.42.073-.815.219-1.186.145-.372.356-.696.632-.974s.613-.499 1.012-.663c.398-.165.853-.247 1.363-.247.47 0 .893.07 1.269.209.375.139.693.331.953.578.26.246.459.537.598.875.139.337.209.704.209 1.1 0 .296-.05.589-.151.879-.1.289-.235.575-.406.857-.171.283-.369.562-.595.838-.226.276-.464.55-.714.824l-2.673 2.898h4.997v1.032z" fill="#4677bc" fill-rule="nonzero"/>
      </g>
      <g>
        <circle cx="40.085" cy="134.002" r="20.462" fill="#4677bc"/>
        <circle id="second-outer2" cx="40.085" cy="134.002" r="28.533" fill="none" stroke-width="2" stroke="#c8d6eb"/>
        <circle id="third-outer2" cx="40.085" cy="134.002" r="38.353" fill="none" stroke-width="2" stroke="#ecf1f8"/>
      </g>
      <path d="M338.004 265.998l-90.073 52.004-38.964-22.496 124.708-72-63.565-36.699-22.179-12.805" fill="none" stroke="#e4e4e4"/>
      <path id="service1path" d="M204.536 39.056l-81.313 46.946 124.708 72-55.426 32" fill="none" stroke="#e4e4e4"/>
      <path d="M123.223 214.002v32l55.426 32v-32l-55.426-32z" fill="#dadada"/>
      <path d="M178.649 246.002v32l55.425-32v-32l-55.425 32z" fill="#e8e8e8"/>
      <path d="M123.223 214.002l55.426-32 55.425 32-55.425 32-55.426-32z" fill="gray"/>
    </g>
  </g>
</svg>
